<svg id="Grupo_1201078" data-name="Grupo 1201078" xmlns="http://www.w3.org/2000/svg" xmlns:xlink="http://www.w3.org/1999/xlink" width="93.656" height="93.656" viewBox="0 0 93.656 93.656">
  <defs>
    <clipPath id="clip-path">
      <rect id="Rectángulo_421141" data-name="Rectángulo 421141" width="68.411" height="63.789" fill="none"/>
    </clipPath>
    <clipPath id="clip-path-2">
      <rect id="Rectángulo_425360" data-name="Rectángulo 425360" width="32.224" height="37.96" fill="none"/>
    </clipPath>
  </defs>
  <circle id="Elipse_11383" data-name="Elipse 11383" cx="46.828" cy="46.828" r="46.828" transform="translate(0 0)" fill="#c5cff0" opacity="0.71"/>
  <circle id="Elipse_11384" data-name="Elipse 11384" cx="39.234" cy="39.234" r="39.234" transform="translate(7.593 7.593)" fill="#fff"/>
  <g id="Grupo_1175373" data-name="Grupo 1175373" transform="translate(12.623 14.934)">
    <g id="Grupo_1175373-2" data-name="Grupo 1175373" transform="translate(0 0)" clip-path="url(#clip-path)">
      <path id="Trazado_1039109" data-name="Trazado 1039109" d="M31.7,59.93l-.046-2.053H31.7c.217,0,.433,0,.648-.01l.046,2.055c-.23.006-.462.008-.695.008m-2.171-.079c-.25-.015-.5-.039-.743-.062l.2-2.045c.23.023.459.043.691.06Zm4.99-.054-.2-2.045c.232-.023.462-.048.693-.075l.242,2.041c-.246.029-.491.056-.737.079m-7.839-.3c-.248-.041-.493-.087-.737-.137l.4-2.014c.224.046.449.089.675.126Zm10.682-.116-.395-2.016c.226-.045.453-.093.675-.141l.449,2c-.242.054-.486.106-.729.155m-13.489-.511c-.24-.066-.478-.137-.714-.209l.6-1.966c.221.068.443.132.667.193Zm16.275-.18-.59-1.968c.222-.066.443-.137.664-.209l.64,1.952c-.236.077-.474.153-.714.224m-19-.724c-.23-.089-.459-.182-.687-.275l.787-1.9c.213.089.428.174.642.257Zm21.713-.24-.78-1.9c.213-.089.426-.178.637-.273l.834,1.879c-.228.1-.459.2-.691.294m-24.331-.923c-.222-.112-.443-.226-.662-.344l.973-1.809c.2.108.406.215.611.317ZM45.461,56.5l-.967-1.811c.205-.108.406-.221.607-.335l1.014,1.788c-.215.122-.433.242-.654.358M16.03,55.389c-.211-.132-.418-.267-.625-.4l1.145-1.706c.192.128.385.253.58.379Zm31.9-.362-1.14-1.708c.192-.128.383-.259.573-.393l1.18,1.681c-.2.141-.406.282-.613.42M13.685,53.739c-.2-.153-.391-.308-.582-.466l1.306-1.585c.178.145.358.288.54.431Zm36.551-.42-1.3-1.59c.178-.145.356-.294.53-.445l1.341,1.557c-.19.163-.379.323-.573.478M11.511,51.862c-.18-.172-.358-.344-.532-.52l1.451-1.451c.164.163.331.325.5.484Zm40.859-.47-1.453-1.453c.166-.164.329-.331.488-.5l1.484,1.422c-.17.178-.344.354-.518.528M9.532,49.786c-.164-.19-.325-.379-.482-.575l1.588-1.3c.145.176.292.354.443.526ZM54.3,49.272l-1.583-1.308c.147-.178.29-.358.433-.54l1.617,1.267c-.153.2-.31.389-.468.58M7.757,47.521c-.143-.2-.282-.408-.422-.615l1.708-1.141c.13.193.259.383.395.573Zm48.261-.551-1.7-1.145c.13-.192.255-.385.381-.58l1.73,1.109c-.133.205-.267.414-.406.617M6.219,45.1c-.124-.217-.244-.435-.362-.656l1.811-.969c.108.2.219.406.333.6ZM57.5,44.514l-1.809-.973c.11-.2.217-.408.321-.613l1.832.929c-.112.221-.226.439-.344.658M4.921,42.529c-.1-.228-.2-.455-.294-.687l1.9-.785c.091.215.182.428.275.64Zm53.816-.6-1.894-.791c.087-.213.174-.426.257-.64l1.913.745c-.089.23-.182.46-.277.687M3.882,39.846c-.077-.236-.153-.474-.224-.714l1.966-.594c.068.222.137.443.211.664Zm55.83-.617-1.964-.6c.068-.221.132-.441.193-.662l1.979.548c-.066.242-.135.48-.209.718m-56.6-2.155c-.054-.242-.1-.484-.153-.726l2.014-.4c.046.228.095.457.143.681Zm57.3-.631L58.4,36.036c.046-.226.089-.455.13-.681l2.022.356c-.043.244-.087.488-.137.731m-57.79-2.2C2.6,34,2.569,33.751,2.545,33.5l2.045-.2c.021.228.046.459.075.687ZM60.844,33.6,58.8,33.4c.025-.228.045-.457.062-.687l2.049.151c-.019.248-.041.5-.066.743M2.416,31.383c-.006-.248-.01-.5-.01-.745l0-.2,2.053.017v.186c0,.232,0,.462.008.693Zm56.521-.652,0-.11c0-.186,0-.385-.008-.584l2.055-.044c0,.213.006.43.006.646ZM4.546,28.475,2.5,28.313c.021-.25.043-.5.068-.741l2.043.211c-.023.23-.044.46-.062.693m54.273-.414c-.023-.23-.048-.46-.075-.689l2.041-.244c.029.246.054.493.077.739ZM4.884,25.825l-2.022-.36c.043-.246.089-.489.139-.733l2.012.414c-.046.226-.089.453-.13.679m53.553-.408c-.043-.226-.089-.451-.139-.675l2-.447c.054.242.1.488.153.731ZM5.482,23.223,3.5,22.666c.068-.24.137-.478.211-.714l1.964.606c-.07.222-.135.445-.2.666m52.318-.4c-.066-.222-.135-.443-.207-.662l1.952-.637c.077.236.151.472.222.71ZM6.333,20.692,4.42,19.941c.091-.23.186-.459.281-.687l1.892.8c-.089.211-.176.424-.259.638m50.575-.387c-.087-.217-.178-.43-.271-.642l1.881-.822c.1.226.2.457.292.685ZM7.427,18.262,5.6,17.328c.112-.222.228-.441.346-.658l1.805.981c-.11.2-.219.406-.323.611m48.348-.377c-.11-.2-.221-.406-.335-.608l1.79-1.01c.122.215.242.433.358.656ZM8.758,15.948,7.026,14.84c.135-.209.273-.416.412-.623l1.7,1.157c-.13.19-.255.381-.379.575m45.65-.358c-.128-.193-.259-.387-.393-.577L55.7,13.835c.141.205.281.408.418.615Zm-44.1-1.815L8.692,12.506c.155-.2.31-.389.468-.58l1.583,1.31c-.147.18-.292.358-.435.54m42.513-.339c-.145-.18-.294-.356-.445-.534l1.561-1.333q.241.281.476.569ZM12.06,11.763l-1.48-1.424q.255-.267.522-.528l1.443,1.459c-.164.163-.327.327-.486.493m38.973-.313c-.163-.164-.327-.325-.5-.486l1.426-1.48c.178.172.356.344.53.522ZM14,9.931,12.67,8.368c.188-.161.377-.319.571-.476l1.3,1.594c-.18.145-.358.294-.534.445m35.061-.281c-.178-.147-.358-.292-.542-.435L49.793,7.6c.2.153.387.31.578.468ZM16.117,8.293,14.939,6.609c.2-.141.41-.281.617-.418L16.69,7.9c-.193.128-.383.257-.573.389m30.81-.244c-.193-.13-.387-.255-.582-.381l1.111-1.73c.207.133.414.269.619.408ZM18.379,6.872l-1-1.792c.215-.122.433-.24.654-.356l.96,1.815c-.205.108-.408.221-.609.333m26.266-.207c-.2-.108-.406-.217-.613-.319l.933-1.832c.221.112.439.228.656.344ZM20.77,5.681,19.948,3.8q.34-.148.685-.29l.78,1.9c-.217.089-.43.18-.642.273M42.24,5.514c-.213-.089-.426-.176-.642-.261l.751-1.911c.23.091.459.184.687.279ZM23.272,4.729l-.637-1.954c.236-.075.474-.151.712-.222l.584,1.97c-.221.066-.441.133-.66.207M39.734,4.6c-.222-.07-.447-.133-.671-.2l.565-1.973c.238.066.474.135.708.207ZM25.851,4.028l-.447-2c.244-.054.488-.1.733-.153l.387,2.018c-.224.044-.451.091-.673.139m11.3-.085c-.226-.044-.453-.089-.681-.128l.352-2.024c.246.043.489.089.733.137ZM28.48,3.587l-.24-2.039c.246-.029.491-.056.741-.079l.188,2.047c-.23.021-.459.044-.689.072m6.027-.044c-.23-.023-.462-.044-.695-.064l.164-2.047c.246.019.491.041.737.066Zm-3.361-.137L31.1,1.351c.2,0,.4-.006.6-.006h.143V3.4H31.7c-.186,0-.37,0-.553.006" transform="translate(2.249 1.257)" fill="#6f88da"/>
      <path id="Trazado_1039110" data-name="Trazado 1039110" d="M19.053,37.095l-.184-2.047a28.494,28.494,0,0,0,17.445-8.1l1.443,1.461a30.558,30.558,0,0,1-18.7,8.685" transform="translate(17.637 25.189)" fill="#6f88da"/>
      <path id="Trazado_1039111" data-name="Trazado 1039111" d="M47.194,29.142A28.393,28.393,0,0,0,16.363,3.414L16.086.346a31.467,31.467,0,0,1,34.175,28.52Z" transform="translate(15.036 0.201)" fill="#6f88da"/>
      <path id="Trazado_1039112" data-name="Trazado 1039112" d="M29.94,54.582a25.692,25.692,0,1,1,2.326-.1q-1.172.1-2.326.1M30,4.235q-1.126,0-2.26.1a24.574,24.574,0,1,0,2.26-.1" transform="translate(3.991 2.998)" fill="#d0d0d0"/>
      <path id="Trazado_1039113" data-name="Trazado 1039113" d="M42.636,28.607H39.554A22.032,22.032,0,0,0,17.547,6.6V3.518A25.118,25.118,0,0,1,42.636,28.607" transform="translate(16.401 3.288)" fill="#d0d0d0"/>
      <rect id="Rectángulo_421136" data-name="Rectángulo 421136" width="1.027" height="3.63" transform="translate(33.436)" fill="#596daf"/>
      <rect id="Rectángulo_421137" data-name="Rectángulo 421137" width="1.027" height="3.63" transform="translate(33.436 60.16)" fill="#596daf"/>
      <rect id="Rectángulo_421138" data-name="Rectángulo 421138" width="13.899" height="1.027" transform="translate(0 31.381)" fill="#6f88da"/>
      <rect id="Rectángulo_421139" data-name="Rectángulo 421139" width="13.899" height="1.027" transform="translate(53.998 31.381)" fill="#6f88da"/>
      <rect id="Rectángulo_421140" data-name="Rectángulo 421140" width="1.027" height="6.797" transform="translate(67.384 28.496)" fill="#6f88da"/>
      <path id="Trazado_1039114" data-name="Trazado 1039114" d="M12.527,36.558a33.567,33.567,0,0,1-5.539-4.763A33.361,33.361,0,0,1,2.7,26.1l2.645-1.581A30.387,30.387,0,0,0,9.238,29.69a30.255,30.255,0,0,0,5.032,4.326Z" transform="translate(2.525 22.921)" fill="#d0d0d0"/>
      <path id="Trazado_1039115" data-name="Trazado 1039115" d="M29.514,52.171,29.5,51.144l.4-.008.031,1.025Zm-1.051-.006-.414-.017.045-1.027.408.017Zm2.515-.058L30.9,51.082l.4-.033.091,1.023ZM27,52.076l-.412-.041.106-1.022.4.041Zm5.438-.122-.135-1.02.4-.056.149,1.016ZM25.548,51.9l-.416-.066.174-1.014.393.064Zm8.337-.192-.2-1.006.4-.083.213,1.006ZM24.1,51.637l-.408-.091.234-1,.391.089Zm11.212-.255-.261-.993.391-.106.273.991Zm-12.636-.095-.4-.116.294-.985.387.112Zm14.042-.321-.323-.975.383-.132.341.971Zm-15.443-.118-.393-.139.352-.965.379.137ZM38.1,50.461l-.383-.954.375-.153.4.946Zm-18.2-.135-.379-.161.408-.942.371.159Zm19.544-.453-.443-.927.366-.178.455.923Zm-20.872-.151-.375-.188.47-.915.356.182Zm22.18-.519-.5-.9.352-.2.511.89Zm-23.476-.166-.362-.209.522-.884.35.2Zm24.741-.58-.551-.869.337-.217.565.857Zm-25.991-.182-.348-.232.577-.849.337.222Zm27.206-.64-.6-.832.323-.24.617.822Zm-28.409-.2-.333-.252.627-.815.319.242Zm29.572-.7-.65-.8c.1-.083.207-.166.306-.253l.669.78c-.108.091-.217.182-.325.271m-30.717-.213c-.108-.089-.217-.182-.321-.275l.677-.772c.1.087.2.172.3.259Zm31.826-.753-.7-.753.288-.275.718.737ZM12.593,45.55c-.1-.1-.2-.193-.3-.294l.722-.729c.095.093.19.186.286.275Zm33.962-.8-.741-.71.277-.292.753.7Zm-35-.242-.282-.308.766-.689.269.3Zm35.982-.847-.787-.664.259-.31.791.654ZM10.593,43.4l-.265-.327.8-.637.252.31Zm37.86-.892-.824-.615.236-.323.834.6ZM9.7,42.242,9.45,41.9l.842-.59.236.327Zm39.6-.933-.859-.561.217-.337.869.548ZM8.867,41.029l-.221-.354.873-.54.215.341Zm41.194-.965-.894-.509.2-.352.9.5ZM8.117,39.77l-.2-.373.909-.48.19.35Zm42.633-1-.921-.457.174-.36.929.441ZM7.441,38.46l-.176-.379.934-.426.17.364Zm43.916-1.018-.946-.4.153-.371.954.385ZM6.851,37.117,6.7,36.724l.958-.368.147.371Zm45.034-1.043-.971-.341.132-.379.977.319ZM6.344,35.738l-.13-.4.981-.306.124.381Zm45.982-1.062-.989-.279.106-.389.993.265Zm-46.4-.348-.1-.4.994-.25.1.391Zm46.764-1.076-1.006-.219.081-.391,1.008.2Zm-47.1-.35-.079-.414,1.01-.184.077.395ZM52.953,31.81l-1.018-.157.06-.4,1.016.141ZM5.34,31.454l-.054-.416,1.02-.124.052.4Zm47.791-1.1L52.11,30.26l.031-.4,1.027.077ZM5.184,30l-.027-.42,1.022-.06.029.4Zm48.039-1.1L52.2,28.858l.01-.4,1.027.015Zm-48.109-.36,0-.42,1.027-.091,0,.491ZM52.2,27.453l-.015-.4,1.029-.046.014.418ZM6.164,27.02l-1.029-.048.023-.418,1.025.064Zm45.951-.969-.039-.4,1.022-.108.041.418ZM6.271,25.615l-1.022-.1.048-.418,1.02.128Zm45.679-.958-.064-.4,1.016-.17.066.412Zm-45.487-.43-1.012-.174.075-.41,1.008.19ZM51.7,23.276l-.085-.393,1-.232.093.41ZM6.739,22.851l-1-.232.1-.408,1,.252Zm44.624-.938-.112-.385.987-.292.114.4ZM7.1,21.492,6.116,21.2l.124-.4.979.313Zm43.844-.919-.135-.379.963-.354.141.395Zm-43.4-.41-.96-.356.145-.391.96.37Zm42.9-.905-.157-.37.938-.414.166.387ZM8.068,18.863l-.94-.414.17-.381.934.43Zm41.8-.888-.184-.36.913-.468.192.375ZM8.67,17.6l-.913-.47.193-.37.907.484Zm40.536-.867-.2-.344.88-.528.213.366Zm-39.857-.36-.882-.524.217-.358.873.54Zm39.124-.84-.221-.333.847-.578.232.35ZM10.1,15.185l-.851-.573.24-.348.838.594Zm37.568-.807-.242-.321.813-.627.253.335Zm-36.746-.327-.813-.629.257-.329.8.642ZM46.8,13.278l-.261-.308.778-.671.271.315Zm-34.982-.31-.772-.677.277-.311.764.689Zm34.043-.737-.277-.29.731-.72.29.3Zm-33.085-.3-.735-.716c.1-.1.2-.2.3-.3l.718.737c-.095.091-.19.186-.282.279m32.087-.691-.292-.267.681-.768.311.282Zm-31.07-.279-.693-.76c.1-.095.211-.188.317-.281l.671.778c-.1.085-.2.174-.3.263M43.8,10.319c-.1-.085-.205-.168-.31-.25l.637-.809c.108.087.219.176.329.267Zm-28.943-.257-.638-.8L14.551,9l.625.816Zm27.835-.6-.325-.23.59-.844.339.244Zm-26.7-.238L15.4,8.383l.346-.24.575.851Zm25.546-.549-.341-.211.536-.878.356.222ZM17.163,8.45l-.54-.874c.12-.075.24-.147.362-.219l.519.886Zm23.164-.5-.35-.192.484-.907.366.2Zm-21.945-.2L17.9,6.847l.373-.193.464.915Zm20.7-.443-.362-.17.43-.933.375.178Zm-19.44-.178-.422-.938.383-.168.408.942ZM37.8,6.748,37.427,6.6l.373-.958.385.153ZM20.942,6.589l-.362-.96.389-.147.354.965Zm15.543-.327L36.1,6.137l.317-.977.393.128ZM22.271,6.127l-.3-.981.4-.122.292.985Zm12.87-.269-.391-.1.255-.994.4.1Zm-11.517-.11-.242-1,.408-.095.226,1Zm10.149-.211-.393-.077.188-1.01.41.079ZM25,5.454l-.19-1.01.416-.072.166,1.014ZM32.389,5.3l-.4-.052.128-1.02.416.054Zm-6-.058-.122-1.018.416-.046.1,1.022Zm4.6-.095-.4-.027.068-1.025.416.029Zm-3.212-.029-.05-1.025.41-.021L28.187,5.1Zm1.811-.037-.4,0L29.2,4.049l.412,0Z" transform="translate(4.776 3.784)" fill="#6f88da"/>
      <g id="Grupo_1201080" data-name="Grupo 1201080" transform="translate(17.781 11.625)">
        <g id="Grupo_1201079" data-name="Grupo 1201079" clip-path="url(#clip-path-2)">
          <path id="Trazado_1243676" data-name="Trazado 1243676" d="M4.777,37.96a1.594,1.594,0,0,1-.96-.991,11.807,11.807,0,0,1-.029-2.257c.133-.862,1.236-1.169,1.984-1.038l-.016-.712-4.8-4.839c-1.364-1.5-.877-3.667-.841-5.5.049-2.43-.035-5.107.147-7.505a2.24,2.24,0,0,1,3.292-1.948V5.477l.234-.225L16.135,0,28.453,5.285a1.147,1.147,0,0,1,.19.269v7.69a2.167,2.167,0,0,1,3.292,1.872c.115,1.514.025,3.215.07,4.751a53.728,53.728,0,0,1,.155,6.271,3.966,3.966,0,0,1-.919,1.988l-4.8,4.839-.016.712c.8-.112,1.818.142,1.971,1.051a10.769,10.769,0,0,1-.016,2.243,1.594,1.594,0,0,1-.96.991H22.6c-.079-.127-.29-.077-.42-.078a34.082,34.082,0,0,1-3.59-.005,1.367,1.367,0,0,1-1.119-1.253,6.273,6.273,0,0,1,.166-2.289,1.61,1.61,0,0,1,1.75-.737V28.931c-1.007.184-2.31.865-3.327.848a19.173,19.173,0,0,1-3.252-.848V33.6a1.61,1.61,0,0,1,1.75.737,6.273,6.273,0,0,1,.166,2.289,1.367,1.367,0,0,1-1.119,1.253,34.546,34.546,0,0,1-3.59.005c-.129,0-.34-.049-.42.078ZM27.406,6.14,16.058,1.315,4.79,6.14c.013,3.654-.1,7.32.065,10.968a14.924,14.924,0,0,0,.8,3.175c.137.353.666,1.612.953,1.725.129.051.293.031.44.1.87.385,1.261,1.1,1.933,1.739.844.8,1.924,1.532,2.718,2.331.406.409.565.917.843,1.222a12.643,12.643,0,0,0,3.584,1.143,15.364,15.364,0,0,0,3.486-1.1c.159-.137.445-.8.689-1.071.759-.838,1.98-1.636,2.833-2.446.659-.625,1.167-1.466,2.01-1.816.167-.07.466-.057.572-.156a15.892,15.892,0,0,0,.861-1.854,14.97,14.97,0,0,0,.839-4.134ZM11.585,33.6V28.586a5.632,5.632,0,0,0-.268-.88c-.339-.748-2.587-2.393-3.328-3.1-.5-.479-1.226-1.756-2.028-1.266-.663.405-.29,1.009.078,1.457.646.786,1.593,1.469,2.248,2.268.233.4-.2.914-.634.868a5.907,5.907,0,0,1-1.194-.955c-1.2-1.109-2.762-2.668-2.9-4.364-.151-1.8.385-6.653-.321-7.943a.819.819,0,0,0-.937-.506c-.583.088-.766.582-.811,1.1-.225,2.623.055,5.476-.23,8.111.106,1.368-.345,2.715.576,3.868,1.339,1.676,3.482,3.185,4.86,4.856a4.765,4.765,0,0,1,.3.385v1.186Zm13.616.077V32.489a4.751,4.751,0,0,1,.3-.385c1.378-1.672,3.522-3.18,4.86-4.856.94-1.177.523-3.058.493-4.474-.038-1.788-.1-3.578-.153-5.356-.022-.731.079-1.6,0-2.3-.1-.979-1.236-1.376-1.746-.445-.706,1.29-.17,6.148-.321,7.943-.144,1.717-1.76,3.322-2.981,4.44a5.187,5.187,0,0,1-1.117.879c-.438.045-.867-.469-.634-.868.655-.8,1.6-1.482,2.248-2.268.308-.375.713-.965.209-1.38-.844-.694-1.574.627-2.083,1.112-.738.7-3.075,2.448-3.4,3.175a5.635,5.635,0,0,0-.268.88V33.6ZM4.777,22.656c.148.022.458-.287.447-.407l-.447-.818Zm22.642,0V21.432a3.951,3.951,0,0,0-.46.8c0,.139.392.5.46.42m-13.922,14V34.937L5.007,34.9v1.837ZM27.19,34.9l-8.491.038v1.722l8.491.077Z" transform="translate(0)"/>
          <path id="Trazado_1243677" data-name="Trazado 1243677" d="M129.692,100.235a2.366,2.366,0,0,1-.664-.522c-.376-.566-.117-.87-.255-1.275-.043-.127-.392-.262-.522-.4-.652-.67-.4-1.623-.46-2.447-.187-2.476-1.134-3.18-1.925-5.19a6.458,6.458,0,1,1,12.486-1.694c-.155,2.357-2.076,3.933-2.289,6.587-.065.805.158,1.877-.352,2.556-.119.159-.616.513-.64.584a5.005,5.005,0,0,0-.019.67c-.116.816-.907,1.044-.975,1.244-.151.442.146.784-.319,1.365-.56.7-1.74.651-2.566.577a1.585,1.585,0,0,1-1.469-1.438c-.034-.172.015-.546-.032-.619m5.137-4.909a10.62,10.62,0,0,1,.456-2.337c.751-2.3,2.3-3.134,1.726-5.93-1.085-5.329-8.873-5.5-10.148-.2-.695,2.889.8,3.645,1.617,5.977a12.812,12.812,0,0,1,.534,2.488h1.3V90.2a2.451,2.451,0,0,1-2.538-1.1,1.984,1.984,0,0,1,3.3-2.154,2.682,2.682,0,0,1,.46,1.95h.765v-1.11a2.671,2.671,0,0,1,.763-1.15,1.972,1.972,0,0,1,3.022,2.335,2.341,2.341,0,0,1-2.562,1.225v5.127ZM130.317,88.9a1.974,1.974,0,0,0-.165-1.1.727.727,0,1,0-1.2.82c.294.448.905.231,1.367.278m3.212,0c.542-.019,1.373.188,1.459-.572a.712.712,0,0,0-1.156-.694c-.43.33-.284.793-.3,1.267m-1.223,1.3h-.765v5.127h.765Zm2.448,6.428h-5.737c-.012.217-.005.563.268.612l5.263-.015.169-.137Zm-.918,1.913H130.01c-.02.43-.026.573.416.617.988.1,2.134-.081,3.141,0,.273-.05.28-.4.268-.612m-.994,1.837H131c-.009.449-.076.645.416.693.589.058,1.657.167,1.42-.693" transform="translate(-115.824 -75.425)"/>
          <path id="Trazado_1243678" data-name="Trazado 1243678" d="M302.729,104.863a.613.613,0,0,1,.7.931,10.5,10.5,0,0,1-1.52.93.634.634,0,0,1-.65-1.035,9.791,9.791,0,0,1,1.468-.826" transform="translate(-278.008 -96.805)"/>
          <path id="Trazado_1243679" data-name="Trazado 1243679" d="M135.4,56.027a.64.64,0,0,1,.971.09,10.2,10.2,0,0,1,.747,1.32c.152.732-.536,1.127-1.054.594a9.423,9.423,0,0,1-.829-1.473.762.762,0,0,1,.165-.53" transform="translate(-124.86 -51.559)"/>
          <path id="Trazado_1243680" data-name="Trazado 1243680" d="M260.157,55.769c.548-.164.892.325.77.849a14.7,14.7,0,0,1-.782,1.36.632.632,0,0,1-1.085-.543,5.227,5.227,0,0,1,1.1-1.666" transform="translate(-239.186 -51.463)"/>
          <path id="Trazado_1243681" data-name="Trazado 1243681" d="M202.775,38.195a3.681,3.681,0,0,1,.058,2.2.646.646,0,0,1-1.035-.033,7.156,7.156,0,0,1-.056-1.9.626.626,0,0,1,1.033-.263" transform="translate(-186.24 -35.107)"/>
          <path id="Trazado_1243682" data-name="Trazado 1243682" d="M87.37,104.953a3.336,3.336,0,0,1,1.783.785.617.617,0,0,1-.48,1.1,10.977,10.977,0,0,1-1.555-.9c-.23-.287-.152-.893.252-.985" transform="translate(-80.319 -96.897)"/>
          <path id="Trazado_1243683" data-name="Trazado 1243683" d="M156.278,459.95a.506.506,0,1,1,.271.968c-.619.112-.754-.826-.271-.968" transform="translate(-144.026 -424.653)"/>
          <path id="Trazado_1243684" data-name="Trazado 1243684" d="M251.287,460.092c.989-.222.717,1.357-.085.894a.477.477,0,0,1,.085-.894" transform="translate(-231.692 -424.795)"/>
        </g>
      </g>
    </g>
  </g>
</svg>
