<svg xmlns="http://www.w3.org/2000/svg" width="993.579" height="359.258" viewBox="0 0 993.579 359.258">
  <g id="Grupo_1218142" data-name="Grupo 1218142" transform="translate(-303.211 -4026.721)">
    <path id="Trazado_1253791" data-name="Trazado 1253791" d="M.5,70.591.587,188.954.5,305.367H235.444l.086-116.413-.086-118.363Z" transform="translate(303.593 4080.606)" fill="#d6bf61"/>
    <path id="Trazado_1254661" data-name="Trazado 1254661" d="M5.389-8.2V0H2.846V-21.706H8.81a7.872,7.872,0,0,1,5.4,1.7,6.053,6.053,0,0,1,1.915,4.783,6.578,6.578,0,0,1-2.127,5.056A8.126,8.126,0,0,1,8.25-8.2Zm0-11.2v8.9H8.053a5.956,5.956,0,0,0,4.019-1.2,4.26,4.26,0,0,0,1.385-3.4q0-4.3-5.086-4.3ZM35.768,0H32.741L29.108-6.085a13.253,13.253,0,0,0-.969-1.446,5.522,5.522,0,0,0-.961-.976,3.329,3.329,0,0,0-1.06-.552,4.357,4.357,0,0,0-1.279-.174H22.75V0H20.208V-21.706h6.479a9.233,9.233,0,0,1,2.626.356A5.876,5.876,0,0,1,31.4-20.268a5.029,5.029,0,0,1,1.385,1.809,6,6,0,0,1,.5,2.535,6.105,6.105,0,0,1-.341,2.081,5.436,5.436,0,0,1-.969,1.688,5.872,5.872,0,0,1-1.514,1.264,7.728,7.728,0,0,1-1.99.81v.061a4.578,4.578,0,0,1,.946.552,5.206,5.206,0,0,1,.764.734,9.724,9.724,0,0,1,.719.961q.356.537.795,1.249ZM22.75-19.405v7.871H26.2a5.234,5.234,0,0,0,1.763-.288,4.082,4.082,0,0,0,1.4-.825,3.741,3.741,0,0,0,.923-1.317,4.409,4.409,0,0,0,.333-1.748,3.4,3.4,0,0,0-1.128-2.717,4.844,4.844,0,0,0-3.262-.976ZM47.2.363A9.528,9.528,0,0,1,39.8-2.679,11.285,11.285,0,0,1,37.024-10.6a11.957,11.957,0,0,1,2.831-8.355,9.886,9.886,0,0,1,7.7-3.118A9.313,9.313,0,0,1,54.8-19.042a11.326,11.326,0,0,1,2.747,7.917q0,5.313-2.815,8.4A9.7,9.7,0,0,1,47.2.363Zm.182-20.132A7,7,0,0,0,41.823-17.3a9.552,9.552,0,0,0-2.134,6.479A9.619,9.619,0,0,0,41.77-4.367,6.788,6.788,0,0,0,47.2-1.922a7.126,7.126,0,0,0,5.631-2.331,9.527,9.527,0,0,0,2.059-6.524,9.954,9.954,0,0,0-2-6.645A6.851,6.851,0,0,0,47.378-19.769ZM61.818,0V-21.706h5.994q11.474,0,11.474,10.581A10.662,10.662,0,0,1,76.1-3.05,11.82,11.82,0,0,1,67.57,0Zm2.543-19.405V-2.3H67.6a9.193,9.193,0,0,0,6.645-2.286,8.568,8.568,0,0,0,2.376-6.479q0-8.34-8.87-8.34ZM99.433-8.779q0,9.143-8.25,9.143-7.9,0-7.9-8.794V-21.706h2.543V-8.6q0,6.675,5.631,6.675,5.434,0,5.434-6.448V-21.706h2.543ZM119.625-.908A12.731,12.731,0,0,1,113.631.363a9.667,9.667,0,0,1-7.417-2.982,11,11,0,0,1-2.785-7.826,11.533,11.533,0,0,1,3.133-8.416,10.635,10.635,0,0,1,7.947-3.209,12.741,12.741,0,0,1,5.116.893v2.709a10.375,10.375,0,0,0-5.146-1.3,7.9,7.9,0,0,0-6.062,2.5,9.409,9.409,0,0,0-2.323,6.675,8.952,8.952,0,0,0,2.172,6.32,7.391,7.391,0,0,0,5.7,2.354,10.691,10.691,0,0,0,5.661-1.453Zm17.256-18.5h-6.267V0h-2.543V-19.405H121.82v-2.3h15.061ZM138.667-.878v-3a5.821,5.821,0,0,0,1.234.817,9.995,9.995,0,0,0,1.514.613,12.05,12.05,0,0,0,1.6.386,8.9,8.9,0,0,0,1.483.136,5.81,5.81,0,0,0,3.5-.87A2.944,2.944,0,0,0,149.157-5.3a2.941,2.941,0,0,0-.386-1.529A4.348,4.348,0,0,0,147.7-8.015a10.589,10.589,0,0,0-1.612-1.029q-.931-.492-2.006-1.037-1.135-.575-2.119-1.166a9.183,9.183,0,0,1-1.71-1.3,5.43,5.43,0,0,1-1.143-1.612,4.99,4.99,0,0,1-.416-2.112,4.965,4.965,0,0,1,.651-2.581,5.583,5.583,0,0,1,1.71-1.809,7.754,7.754,0,0,1,2.414-1.06,11.055,11.055,0,0,1,2.762-.348,10.586,10.586,0,0,1,4.677.772v2.861a8.478,8.478,0,0,0-4.935-1.332,8.116,8.116,0,0,0-1.665.174,4.7,4.7,0,0,0-1.483.568,3.286,3.286,0,0,0-1.06,1.014,2.692,2.692,0,0,0-.409,1.514,3.116,3.116,0,0,0,.31,1.438,3.525,3.525,0,0,0,.916,1.1,9.121,9.121,0,0,0,1.476.969q.87.469,2.006,1.029,1.166.575,2.21,1.211a10.1,10.1,0,0,1,1.832,1.408,6.256,6.256,0,0,1,1.249,1.71,4.808,4.808,0,0,1,.462,2.149,5.451,5.451,0,0,1-.628,2.717,5.155,5.155,0,0,1-1.7,1.809,7.4,7.4,0,0,1-2.46,1.007,13.471,13.471,0,0,1-2.937.31A11.967,11.967,0,0,1,142.83.28Q142.073.2,141.286.038A12.6,12.6,0,0,1,139.8-.356,4.639,4.639,0,0,1,138.667-.878ZM181.444,0h-2.815l-2.3-6.085h-9.2L164.96,0h-2.831l8.325-21.706h2.634ZM175.5-8.371l-3.406-9.249a8.856,8.856,0,0,1-.333-1.453H171.7a8.108,8.108,0,0,1-.348,1.453l-3.375,9.249ZM202.136,0h-3.118L187.847-17.3a7.23,7.23,0,0,1-.7-1.362h-.091a22.346,22.346,0,0,1,.121,2.982V0h-2.543V-21.706h3.3L198.806-4.677q.681,1.06.878,1.453h.061a22.966,22.966,0,0,1-.151-3.194V-21.706h2.543Zm5.691,0V-21.706h5.994q11.474,0,11.474,10.581a10.662,10.662,0,0,1-3.186,8.075A11.82,11.82,0,0,1,213.579,0Zm2.543-19.405V-2.3h3.239a9.193,9.193,0,0,0,6.645-2.286,8.568,8.568,0,0,0,2.376-6.479q0-8.34-8.87-8.34Z" transform="translate(348.063 4302.921)" fill="#fff"/>
    <path id="Trazado_1254662" data-name="Trazado 1254662" d="M1.832-.878v-3a5.821,5.821,0,0,0,1.234.817,9.995,9.995,0,0,0,1.514.613,12.05,12.05,0,0,0,1.6.386,8.9,8.9,0,0,0,1.483.136,5.81,5.81,0,0,0,3.5-.87A2.944,2.944,0,0,0,12.321-5.3a2.941,2.941,0,0,0-.386-1.529,4.348,4.348,0,0,0-1.067-1.188A10.589,10.589,0,0,0,9.256-9.044q-.931-.492-2.006-1.037-1.135-.575-2.119-1.166a9.183,9.183,0,0,1-1.71-1.3A5.43,5.43,0,0,1,2.278-14.16a4.99,4.99,0,0,1-.416-2.112,4.965,4.965,0,0,1,.651-2.581,5.583,5.583,0,0,1,1.71-1.809,7.754,7.754,0,0,1,2.414-1.06A11.055,11.055,0,0,1,9.4-22.069a10.586,10.586,0,0,1,4.677.772v2.861a8.478,8.478,0,0,0-4.935-1.332,8.116,8.116,0,0,0-1.665.174,4.7,4.7,0,0,0-1.483.568,3.286,3.286,0,0,0-1.06,1.014A2.692,2.692,0,0,0,4.526-16.5a3.116,3.116,0,0,0,.31,1.438,3.525,3.525,0,0,0,.916,1.1,9.121,9.121,0,0,0,1.476.969q.87.469,2.006,1.029,1.166.575,2.21,1.211a10.1,10.1,0,0,1,1.832,1.408,6.256,6.256,0,0,1,1.249,1.71,4.808,4.808,0,0,1,.462,2.149,5.451,5.451,0,0,1-.628,2.717,5.155,5.155,0,0,1-1.7,1.809A7.4,7.4,0,0,1,10.2.053a13.471,13.471,0,0,1-2.937.31A11.966,11.966,0,0,1,5.994.28Q5.237.2,4.45.038A12.6,12.6,0,0,1,2.959-.356,4.639,4.639,0,0,1,1.832-.878ZM30.818,0h-11.5V-21.706h11.02v2.3H21.857v7.22H29.7V-9.9H21.857v7.6h8.961ZM50.557,0H47.529L43.9-6.085a13.253,13.253,0,0,0-.969-1.446,5.522,5.522,0,0,0-.961-.976,3.329,3.329,0,0,0-1.06-.552,4.357,4.357,0,0,0-1.279-.174H37.539V0H35V-21.706h6.479a9.233,9.233,0,0,1,2.626.356,5.876,5.876,0,0,1,2.089,1.082,5.029,5.029,0,0,1,1.385,1.809,6,6,0,0,1,.5,2.535,6.105,6.105,0,0,1-.341,2.081,5.436,5.436,0,0,1-.969,1.688,5.872,5.872,0,0,1-1.514,1.264,7.728,7.728,0,0,1-1.99.81v.061a4.578,4.578,0,0,1,.946.552,5.206,5.206,0,0,1,.764.734,9.724,9.724,0,0,1,.719.961q.356.537.795,1.249ZM37.539-19.405v7.871H40.99a5.234,5.234,0,0,0,1.763-.288,4.082,4.082,0,0,0,1.4-.825,3.741,3.741,0,0,0,.923-1.317,4.409,4.409,0,0,0,.333-1.748,3.4,3.4,0,0,0-1.128-2.717,4.844,4.844,0,0,0-3.262-.976Zm32.042-2.3L61.544,0h-2.8L50.872-21.706H53.7L59.712-4.5a10.219,10.219,0,0,1,.439,1.922h.061a9.429,9.429,0,0,1,.5-1.953l6.13-17.18ZM75.242,0H72.7V-21.706h2.543Zm20.48-.908A12.731,12.731,0,0,1,89.728.363a9.667,9.667,0,0,1-7.417-2.982,11,11,0,0,1-2.785-7.826,11.533,11.533,0,0,1,3.133-8.416,10.635,10.635,0,0,1,7.947-3.209,12.741,12.741,0,0,1,5.116.893v2.709a10.375,10.375,0,0,0-5.146-1.3,7.9,7.9,0,0,0-6.062,2.5A9.409,9.409,0,0,0,82.19-10.6a8.952,8.952,0,0,0,2.172,6.32,7.391,7.391,0,0,0,5.7,2.354,10.691,10.691,0,0,0,5.661-1.453ZM111.646,0h-11.5V-21.706h11.02v2.3h-8.477v7.22h7.841V-9.9h-7.841v7.6h8.961Zm3.195-.878v-3a5.821,5.821,0,0,0,1.234.817,9.995,9.995,0,0,0,1.514.613,12.05,12.05,0,0,0,1.6.386,8.9,8.9,0,0,0,1.483.136,5.81,5.81,0,0,0,3.5-.87A2.944,2.944,0,0,0,125.331-5.3a2.941,2.941,0,0,0-.386-1.529,4.348,4.348,0,0,0-1.067-1.188,10.589,10.589,0,0,0-1.612-1.029q-.931-.492-2.006-1.037-1.135-.575-2.119-1.166a9.183,9.183,0,0,1-1.71-1.3,5.43,5.43,0,0,1-1.143-1.612,4.99,4.99,0,0,1-.416-2.112,4.965,4.965,0,0,1,.651-2.581,5.583,5.583,0,0,1,1.71-1.809,7.754,7.754,0,0,1,2.414-1.06,11.055,11.055,0,0,1,2.762-.348,10.586,10.586,0,0,1,4.677.772v2.861a8.478,8.478,0,0,0-4.935-1.332,8.116,8.116,0,0,0-1.665.174,4.7,4.7,0,0,0-1.483.568,3.286,3.286,0,0,0-1.06,1.014,2.692,2.692,0,0,0-.409,1.514,3.116,3.116,0,0,0,.31,1.438,3.525,3.525,0,0,0,.916,1.1,9.121,9.121,0,0,0,1.476.969q.87.469,2.006,1.029,1.166.575,2.21,1.211a10.1,10.1,0,0,1,1.832,1.408,6.256,6.256,0,0,1,1.249,1.71,4.808,4.808,0,0,1,.462,2.149,5.451,5.451,0,0,1-.628,2.717,5.155,5.155,0,0,1-1.7,1.809,7.4,7.4,0,0,1-2.46,1.007,13.471,13.471,0,0,1-2.937.31A11.966,11.966,0,0,1,119,.28Q118.247.2,117.459.038a12.6,12.6,0,0,1-1.491-.394A4.639,4.639,0,0,1,114.841-.878Z" transform="translate(375.725 4341.971)" fill="#fff"/>
    <path id="Trazado_1253792" data-name="Trazado 1253792" d="M109.542,104.189V123.02h1.448v4.345a3.15,3.15,0,0,0,.984-.661c1.435-1.167,3.431-3.5,5.287-3.666a6.676,6.676,0,0,1,5.92,3.151c.832-.3,1.382-1.114,2.292-1.393,3.662-1.123,7.739,4.377,5.073,7.443l-23.832,23.045c-3.562,3.014-10.961,1.961-15.424,3.144l-14.01-1.171,2.373,1.65-2.721,5.322-2.55-1.181c-.129-.171,1.291-2.477,1.4-2.894.035-.145.065-.224-.067-.335l-19.587-13.34a1.548,1.548,0,0,0-1.8.275l-9.653,17.469-2.529-1.368L52,144.947a4.576,4.576,0,0,1,6.385-.471c1.453-2.077,2.73-4.3,4.673-5.985V115.778H86.234V104.189Zm-13.036,2.9H89.262V123.02h17.383V107.086H99.4v2.9h-2.9Zm-21.86,11.587h-8.69v17.778a19.646,19.646,0,0,1,12.012-2.73c2.225.263,4.565,1.386,6.817,1.675V123.217c.347-.376.979-.139,1.449-.2v-4.347H77.543v2.9h-2.9Zm21.86,10.272v-2.83l-.2-.2H87.814v9.942c0,.035-.139.134-.12.249l.309.22,9.6,2.6,10.487-8.995v-3.818l-.2-.2H99.4v2.83c-.8.5-1.994,0-2.9.2m4.608,10.927c1.051.159,2.375.806,3.4.9a.748.748,0,0,0,.6-.122c4.054-3.573,8.845-6.611,12.858-10.187a26.356,26.356,0,0,0,2.638-2.774c.079-.8-2.858-2.273-3.581-1.46Zm16.516.716c3.6-3.486,7.286-6.895,10.811-10.462.331-.727-1.159-2.737-2.1-2.5l-20.749,16.4-.522-.071a5.14,5.14,0,0,1-5.181,5.782l-17.669-2.9-4.72,2.377-1.344-2.5,5.325-2.954,18.117,2.961a2.049,2.049,0,0,0,1.256-3.888c-7.226-1.735-14.329-4.146-21.566-5.823a15.01,15.01,0,0,0-9.9.954c-3.925,1.7-6.431,4.537-8.556,8.163l12.335,8.339c5.034-.543,10.3.483,15.376.809a71.373,71.373,0,0,0,13.678-1.069c1.931-.293,2.876-1.474,4.234-2.746,3.791-3.55,7.448-7.269,11.178-10.878" transform="translate(335.379 4106.254)" fill="#fff"/>
    <path id="Trazado_1253793" data-name="Trazado 1253793" d="M63.412,121.177a16.046,16.046,0,0,1-1.712-32l.471,2.772a13.917,13.917,0,0,0-10.007,6.457,13.088,13.088,0,0,0,6.87,19.049c2.386.845,4.564.707,7.059.711l.2.2c.085.46-.041.982.019,1.432.025.183-.072.229.2.194l5.463-3.225L66.5,113.542c-.266-.035-.169.011-.194.192-.063.467.044,1.035,0,1.518H61.9c-1.9,0-5.112-2.109-6.322-3.555a10.233,10.233,0,0,1,5.849-16.581l.878,2.627c-1.887.7-3.507,1.379-4.74,3.035a7.25,7.25,0,0,0,5.849,11.576v-3.819l14.482,8.23L63.412,125Z" transform="translate(339.369 4094.795)" fill="#fff"/>
    <path id="Trazado_1253794" data-name="Trazado 1253794" d="M63.11,94.933l1.247-2.04L62.648,89.8l8.63-4.879c.127-.021.18.06.259.136.367.349,1.3,2.6,1.541,2.738l2.382.03c.236-.058,1.275-2.451,1.606-2.768.079-.076.132-.157.261-.136L85.766,89.8a.407.407,0,0,1,.007.4c-.183.561-1.462,2.171-1.5,2.587L85.5,94.933h3.357v10.009H85.3l-1.049,2.04c.109.6,1.79,2.656,1.515,3.093l-8.436,4.879-.261-.136-1.606-2.768-2.382.03-1.541,2.738-.259.136-8.487-4.964,1.566-3.008-1.247-2.04H59.753V94.933Zm2.172,2.9H62.648v4.214h2.634a10.022,10.022,0,0,0,2.62,4.569l-1.157,2.395,3.6,1.994,1.248-2.181a13.541,13.541,0,0,0,5.451.065L78.259,111l3.608-1.991-1.164-2.4a10.038,10.038,0,0,0,2.62-4.569h2.633V97.83H83.324a11.96,11.96,0,0,0-2.612-4.7c-.023-.272,1.012-1.624,1.111-2.017.037-.15.088-.227-.078-.33l-3.486-1.915-1.213,2.116a15.1,15.1,0,0,0-5.486,0l-1.213-2.116-3.608,1.991,1.15,2.271a11.618,11.618,0,0,0-2.606,4.7" transform="translate(348.823 4091.542)" fill="#fff"/>
    <path id="Trazado_1253795" data-name="Trazado 1253795" d="M50.924,130.562c.427-.083,1.747,1.585,2.151,1.889L51.036,134.5l-2.031-1.933Z" transform="translate(340.619 4126.383)" fill="#fff"/>
    <path id="Trazado_1253796" data-name="Trazado 1253796" d="M71.428,90.971v2.9h2.9v2.9h-2.9v2.9H68.4v-2.9H65.5v-2.9h2.9v-2.9Z" transform="translate(353.213 4096.164)" fill="#fff"/>
    <path id="Trazado_1253797" data-name="Trazado 1253797" d="M379.079,196.545l-.088,56.635H144.047l.088-56.635-.088-57.584H378.991Z" transform="translate(413.169 4132.797)" fill="#3bafa7"/>
    <path id="Trazado_1253798" data-name="Trazado 1253798" d="M379.079,125.682l-.088,54.182H144.047l.088-54.182-.088-55.089H378.991Z" transform="translate(413.169 4080.608)" fill="#3bafa7"/>
    <path id="Trazado_1254663" data-name="Trazado 1254663" d="M0,0H993.578V359.258H0Z" transform="translate(303.211 4026.721)" fill="none"/>
    <path id="Trazado_1254664" data-name="Trazado 1254664" d="M19.072-1.483A14.515,14.515,0,0,1,11.807.363a9.928,9.928,0,0,1-7.515-3,10.993,10.993,0,0,1-2.868-7.932,11.287,11.287,0,0,1,3.186-8.272,10.862,10.862,0,0,1,8.075-3.232,13.742,13.742,0,0,1,5.949,1.15V-18.1A11.424,11.424,0,0,0,12.4-19.769a7.791,7.791,0,0,0-5.979,2.513,9.19,9.19,0,0,0-2.331,6.509A9.2,9.2,0,0,0,6.251-4.276a7.587,7.587,0,0,0,5.873,2.354,9.074,9.074,0,0,0,4.4-1.014V-9.021H11.776v-2.3h7.3ZM40.915,0H38.1L35.8-6.085H26.6L24.431,0H21.6l8.325-21.706h2.634ZM34.966-8.371,31.56-17.619a8.856,8.856,0,0,1-.333-1.453h-.061a8.108,8.108,0,0,1-.348,1.453L27.443-8.371ZM46.651,0H44.108V-21.706h2.543Zm23.2,0H66.738L55.567-17.3a7.23,7.23,0,0,1-.7-1.362H54.78a22.347,22.347,0,0,1,.121,2.982V0H52.358V-21.706h3.3L66.526-4.677q.681,1.06.878,1.453h.061a22.965,22.965,0,0,1-.151-3.194V-21.706h2.543ZM98.813-.908A12.731,12.731,0,0,1,92.818.363,9.667,9.667,0,0,1,85.4-2.619a11,11,0,0,1-2.785-7.826A11.533,11.533,0,0,1,85.75-18.86,10.635,10.635,0,0,1,93.7-22.069a12.741,12.741,0,0,1,5.116.893v2.709a10.375,10.375,0,0,0-5.146-1.3,7.9,7.9,0,0,0-6.062,2.5A9.409,9.409,0,0,0,85.28-10.6a8.952,8.952,0,0,0,2.172,6.32,7.391,7.391,0,0,0,5.7,2.354,10.691,10.691,0,0,0,5.661-1.453ZM118.793,0h-3.027l-3.633-6.085a13.253,13.253,0,0,0-.969-1.446,5.522,5.522,0,0,0-.961-.976,3.329,3.329,0,0,0-1.06-.552,4.357,4.357,0,0,0-1.279-.174h-2.089V0h-2.543V-21.706h6.479a9.233,9.233,0,0,1,2.626.356,5.876,5.876,0,0,1,2.089,1.082,5.029,5.029,0,0,1,1.385,1.809,6,6,0,0,1,.5,2.535,6.105,6.105,0,0,1-.341,2.081A5.436,5.436,0,0,1,115-12.155a5.872,5.872,0,0,1-1.514,1.264,7.727,7.727,0,0,1-1.99.81v.061a4.578,4.578,0,0,1,.946.552,5.206,5.206,0,0,1,.764.734,9.724,9.724,0,0,1,.719.961q.356.537.795,1.249ZM105.775-19.405v7.871h3.451a5.234,5.234,0,0,0,1.763-.288,4.082,4.082,0,0,0,1.4-.825,3.741,3.741,0,0,0,.923-1.317,4.409,4.409,0,0,0,.333-1.748,3.4,3.4,0,0,0-1.128-2.717,4.844,4.844,0,0,0-3.262-.976ZM133.279,0h-11.5V-21.706h11.02v2.3h-8.477v7.22h7.841V-9.9h-7.841v7.6h8.961Zm21.1,0h-2.815l-2.3-6.085h-9.2L137.9,0h-2.831l8.325-21.706h2.634Zm-5.949-8.371-3.406-9.249a8.856,8.856,0,0,1-.333-1.453h-.061a8.108,8.108,0,0,1-.348,1.453l-3.375,9.249Zm18.358-11.035h-6.267V0h-2.543V-19.405h-6.251v-2.3h15.061ZM177.385.363a9.528,9.528,0,0,1-7.394-3.042,11.285,11.285,0,0,1-2.778-7.917,11.957,11.957,0,0,1,2.831-8.355,9.886,9.886,0,0,1,7.7-3.118,9.313,9.313,0,0,1,7.243,3.027,11.326,11.326,0,0,1,2.747,7.917q0,5.313-2.815,8.4A9.7,9.7,0,0,1,177.385.363Zm.182-20.132a7,7,0,0,0-5.555,2.467,9.552,9.552,0,0,0-2.134,6.479,9.619,9.619,0,0,0,2.081,6.456,6.788,6.788,0,0,0,5.427,2.445,7.126,7.126,0,0,0,5.631-2.331,9.527,9.527,0,0,0,2.059-6.524,9.954,9.954,0,0,0-2-6.645A6.851,6.851,0,0,0,177.566-19.769ZM207.567,0H204.54l-3.633-6.085a13.254,13.254,0,0,0-.969-1.446,5.522,5.522,0,0,0-.961-.976,3.329,3.329,0,0,0-1.06-.552,4.357,4.357,0,0,0-1.279-.174H194.55V0h-2.543V-21.706h6.479a9.233,9.233,0,0,1,2.626.356,5.876,5.876,0,0,1,2.089,1.082,5.029,5.029,0,0,1,1.385,1.809,6,6,0,0,1,.5,2.535,6.105,6.105,0,0,1-.341,2.081,5.436,5.436,0,0,1-.969,1.688,5.872,5.872,0,0,1-1.514,1.264,7.728,7.728,0,0,1-1.99.81v.061a4.578,4.578,0,0,1,.946.552,5.207,5.207,0,0,1,.764.734,9.723,9.723,0,0,1,.719.961q.356.537.795,1.249ZM194.55-19.405v7.871H198a5.234,5.234,0,0,0,1.763-.288,4.083,4.083,0,0,0,1.4-.825,3.741,3.741,0,0,0,.923-1.317,4.409,4.409,0,0,0,.333-1.748,3.4,3.4,0,0,0-1.128-2.717,4.844,4.844,0,0,0-3.262-.976ZM209.535-.878v-3a5.821,5.821,0,0,0,1.234.817,9.995,9.995,0,0,0,1.514.613,12.05,12.05,0,0,0,1.6.386,8.9,8.9,0,0,0,1.483.136,5.81,5.81,0,0,0,3.5-.87A2.944,2.944,0,0,0,220.025-5.3a2.941,2.941,0,0,0-.386-1.529,4.348,4.348,0,0,0-1.067-1.188,10.589,10.589,0,0,0-1.612-1.029q-.931-.492-2.006-1.037-1.135-.575-2.119-1.166a9.183,9.183,0,0,1-1.71-1.3,5.43,5.43,0,0,1-1.143-1.612,4.99,4.99,0,0,1-.416-2.112,4.965,4.965,0,0,1,.651-2.581,5.583,5.583,0,0,1,1.71-1.809,7.754,7.754,0,0,1,2.414-1.06,11.055,11.055,0,0,1,2.762-.348,10.586,10.586,0,0,1,4.677.772v2.861a8.478,8.478,0,0,0-4.935-1.332,8.116,8.116,0,0,0-1.665.174,4.7,4.7,0,0,0-1.483.568,3.286,3.286,0,0,0-1.06,1.014,2.692,2.692,0,0,0-.409,1.514,3.116,3.116,0,0,0,.31,1.438,3.525,3.525,0,0,0,.916,1.1,9.121,9.121,0,0,0,1.476.969q.87.469,2.006,1.029,1.166.575,2.21,1.211a10.1,10.1,0,0,1,1.832,1.408,6.256,6.256,0,0,1,1.249,1.71,4.808,4.808,0,0,1,.462,2.149,5.451,5.451,0,0,1-.628,2.717,5.155,5.155,0,0,1-1.7,1.809,7.4,7.4,0,0,1-2.46,1.007,13.471,13.471,0,0,1-2.937.31A11.967,11.967,0,0,1,213.7.28Q212.941.2,212.154.038a12.6,12.6,0,0,1-1.491-.394A4.639,4.639,0,0,1,209.535-.878Z" transform="translate(591.585 4252.86)" fill="#fff"/>
    <path id="Trazado_1254665" data-name="Trazado 1254665" d="M5.389-8.2V0H2.846V-21.706H8.81a7.872,7.872,0,0,1,5.4,1.7,6.053,6.053,0,0,1,1.915,4.783,6.578,6.578,0,0,1-2.127,5.056A8.126,8.126,0,0,1,8.25-8.2Zm0-11.2v8.9H8.053a5.956,5.956,0,0,0,4.019-1.2,4.26,4.26,0,0,0,1.385-3.4q0-4.3-5.086-4.3ZM33.867,0H31.052l-2.3-6.085h-9.2L17.383,0H14.553l8.325-21.706h2.634ZM27.918-8.371l-3.406-9.249a8.856,8.856,0,0,1-.333-1.453h-.061a8.108,8.108,0,0,1-.348,1.453L20.4-8.371ZM39.6,0H37.061V-21.706H39.6Zm23.2,0H59.69L48.519-17.3a7.23,7.23,0,0,1-.7-1.362h-.091a22.347,22.347,0,0,1,.121,2.982V0H45.31V-21.706h3.3L59.478-4.677q.681,1.06.878,1.453h.061a22.964,22.964,0,0,1-.151-3.194V-21.706h2.543ZM92.552,0H89.525L85.892-6.085a13.253,13.253,0,0,0-.969-1.446,5.522,5.522,0,0,0-.961-.976,3.329,3.329,0,0,0-1.06-.552,4.357,4.357,0,0,0-1.279-.174H79.535V0H76.992V-21.706H83.47a9.233,9.233,0,0,1,2.626.356,5.876,5.876,0,0,1,2.089,1.082,5.029,5.029,0,0,1,1.385,1.809,6,6,0,0,1,.5,2.535,6.105,6.105,0,0,1-.341,2.081,5.436,5.436,0,0,1-.969,1.688,5.872,5.872,0,0,1-1.514,1.264,7.727,7.727,0,0,1-1.99.81v.061a4.578,4.578,0,0,1,.946.552,5.206,5.206,0,0,1,.764.734,9.724,9.724,0,0,1,.719.961q.356.537.795,1.249ZM79.535-19.405v7.871h3.451a5.234,5.234,0,0,0,1.763-.288,4.082,4.082,0,0,0,1.4-.825,3.741,3.741,0,0,0,.923-1.317,4.409,4.409,0,0,0,.333-1.748,3.4,3.4,0,0,0-1.128-2.717,4.844,4.844,0,0,0-3.262-.976ZM107.038,0h-11.5V-21.706h11.02v2.3H98.077v7.22h7.841V-9.9H98.077v7.6h8.961Zm15.439,0H111.216V-21.706h2.543V-2.3h8.719Zm5.873,0h-2.543V-21.706h2.543Zm17.21,0h-11.5V-21.706h11.02v2.3H136.6v7.22h7.841V-9.9H136.6v7.6h8.961ZM166-21.706,157.961,0h-2.8l-7.871-21.706h2.831L156.129-4.5a10.219,10.219,0,0,1,.439,1.922h.061a9.429,9.429,0,0,1,.5-1.953l6.13-17.18ZM180.621,0h-11.5V-21.706h11.02v2.3H171.66v7.22H179.5V-9.9H171.66v7.6h8.961Zm19.738,0h-3.027L193.7-6.085a13.254,13.254,0,0,0-.969-1.446,5.522,5.522,0,0,0-.961-.976,3.329,3.329,0,0,0-1.06-.552,4.357,4.357,0,0,0-1.279-.174h-2.089V0H184.8V-21.706h6.479a9.233,9.233,0,0,1,2.626.356,5.876,5.876,0,0,1,2.089,1.082,5.029,5.029,0,0,1,1.385,1.809,6,6,0,0,1,.5,2.535,6.105,6.105,0,0,1-.341,2.081,5.436,5.436,0,0,1-.969,1.688,5.872,5.872,0,0,1-1.514,1.264,7.728,7.728,0,0,1-1.99.81v.061a4.578,4.578,0,0,1,.946.552,5.207,5.207,0,0,1,.764.734,9.723,9.723,0,0,1,.719.961q.356.537.795,1.249ZM187.341-19.405v7.871h3.451a5.234,5.234,0,0,0,1.763-.288,4.083,4.083,0,0,0,1.4-.825,3.741,3.741,0,0,0,.923-1.317,4.409,4.409,0,0,0,.333-1.748,3.4,3.4,0,0,0-1.128-2.717,4.844,4.844,0,0,0-3.262-.976ZM202.327-.878v-3a5.821,5.821,0,0,0,1.234.817,9.995,9.995,0,0,0,1.514.613,12.05,12.05,0,0,0,1.6.386,8.9,8.9,0,0,0,1.483.136,5.81,5.81,0,0,0,3.5-.87A2.944,2.944,0,0,0,212.816-5.3a2.941,2.941,0,0,0-.386-1.529,4.348,4.348,0,0,0-1.067-1.188,10.589,10.589,0,0,0-1.612-1.029q-.931-.492-2.006-1.037-1.135-.575-2.119-1.166a9.183,9.183,0,0,1-1.71-1.3,5.43,5.43,0,0,1-1.143-1.612,4.99,4.99,0,0,1-.416-2.112,4.965,4.965,0,0,1,.651-2.581,5.583,5.583,0,0,1,1.71-1.809,7.754,7.754,0,0,1,2.414-1.06,11.055,11.055,0,0,1,2.762-.348,10.586,10.586,0,0,1,4.677.772v2.861a8.478,8.478,0,0,0-4.935-1.332,8.116,8.116,0,0,0-1.665.174,4.7,4.7,0,0,0-1.483.568,3.286,3.286,0,0,0-1.06,1.014,2.692,2.692,0,0,0-.409,1.514,3.116,3.116,0,0,0,.31,1.438,3.525,3.525,0,0,0,.916,1.1,9.121,9.121,0,0,0,1.476.969q.87.469,2.006,1.029,1.166.575,2.21,1.211a10.1,10.1,0,0,1,1.832,1.408,6.256,6.256,0,0,1,1.249,1.71,4.808,4.808,0,0,1,.462,2.149,5.451,5.451,0,0,1-.628,2.717,5.155,5.155,0,0,1-1.7,1.809A7.4,7.4,0,0,1,210.7.053a13.471,13.471,0,0,1-2.937.31A11.967,11.967,0,0,1,206.489.28Q205.732.2,204.945.038a12.6,12.6,0,0,1-1.491-.394A4.639,4.639,0,0,1,202.327-.878Z" transform="translate(589.957 4377.074)" fill="#fff"/>
    <path id="Trazado_1253799" data-name="Trazado 1253799" d="M249.554,105.8c-2.243,2.153-4.528,4.549-6.84,6.6a9.225,9.225,0,0,1-2.9,1.8c-4.482,1.926-9.169,3.613-13.782,5.149-5.911.467-12.356-.361-18.2.1a7.076,7.076,0,0,0-1.407.319c-.115.162.437.861.525,1.093a1.679,1.679,0,0,1-.42,1.993l-8.783,5.13a1.782,1.782,0,0,1-2.5-.862c-3.407-6.412-7.535-12.476-10.915-18.894-.624-1.185-1.092-1.98.192-2.98,2.389-1.864,6.084-3.176,8.605-4.992a1.748,1.748,0,0,1,2.061.3c.194.192.238.665.587.577l7.72-5.258a6.093,6.093,0,0,1,2.137-.793c2.326-.342,5.435-.328,7.843-.42a5.886,5.886,0,0,1,3.819.679,11.655,11.655,0,0,0,2.465,1.3c3.447.476,9.422-.956,12.275,1.01,3.393,2.34,3.59,7.459-.148,9.566-1.739.98-8.189,1.781-10.358,1.88a26.34,26.34,0,0,1-6.35-.448,1.731,1.731,0,0,1-.229-3.2c.887-.354,2.922.143,3.966.2a31.378,31.378,0,0,0,5.736-.328,32.321,32.321,0,0,0,5.276-1c2.285-.852,1.173-3.985-.868-4.214-2.987-.337-6.586.3-9.61-.012-1.756-.183-3.1-1.578-4.719-2.079-3.031.206-6.1.206-9.106.621l-8.187,5.618,7.247,12.562a8.747,8.747,0,0,1,3.139-.815c5.905-.379,12.155.376,18.09-.109l13.451-5.272.571-.37L251.482,99.2l0-.229c-.889-.376-1.816-1.368-2.795-1.416a2.312,2.312,0,0,0-1.739.778c-2.328,1.811-4.458,4.045-6.819,5.838a1.722,1.722,0,0,1-2.181-2.6c2.384-1.9,4.622-4.2,7.013-6.061a5.484,5.484,0,0,1,5.768-.963,34.62,34.62,0,0,1,4.731,2.9,1.779,1.779,0,0,1,.324,2.4c-2.042,2.023-4.161,3.966-6.233,5.953m-57.494,1.654a1.7,1.7,0,0,0,.591,3.319,1.7,1.7,0,1,0-.591-3.319" transform="translate(443.444 4098.558)" fill="#fff"/>
    <path id="Trazado_1253800" data-name="Trazado 1253800" d="M227.665,76.844c-1.086.406-2.5,1.659-3.685,1.227a1.7,1.7,0,0,1-.152-3.13c1.971-.755,4.02-2.217,5.962-2.927a1.667,1.667,0,0,1,2.31.762,50.107,50.107,0,0,1,2.9,5.881,1.7,1.7,0,0,1-.855,2.419c-2.017.737-2.342-1.672-3.188-2.871a25.228,25.228,0,0,1-3,6.2c-6.216,9.051-18.5,13.382-29.215,12.31a8.556,8.556,0,0,1-1.966-.335,1.7,1.7,0,0,1,.131-3.174,17.138,17.138,0,0,1,3.506.272,31.042,31.042,0,0,0,19.125-5.359c3.775-2.677,7.106-6.676,8.124-11.277" transform="translate(452.635 4081.555)" fill="#fff"/>
    <path id="Trazado_1253801" data-name="Trazado 1253801" d="M218.514,78.07a1.771,1.771,0,0,1,1.416,1.6l-.025,20.58a1.7,1.7,0,0,1-1.412,1.412,34.577,34.577,0,0,1-5.389,0,1.78,1.78,0,0,1-1.333-1.6l.023-13.682a29.58,29.58,0,0,0,5.565-6.357,16.522,16.522,0,0,1,1.155-1.954" transform="translate(464.866 4086.316)" fill="#fff"/>
    <path id="Trazado_1253802" data-name="Trazado 1253802" d="M213.126,95.782a1.929,1.929,0,0,1-1.516,1.2,33.837,33.837,0,0,1-5.02,0,1.722,1.722,0,0,1-1.52-1.409l0-7.94a36.147,36.147,0,0,0,8.06-3.41Z" transform="translate(459.748 4091.014)" fill="#fff"/>
    <path id="Trazado_1253803" data-name="Trazado 1253803" d="M206.292,86.6a3.981,3.981,0,0,1,.219.882,45.057,45.057,0,0,1,0,6.075,1.711,1.711,0,0,1-1.829,1.622,34.147,34.147,0,0,1-4.712-.005,1.715,1.715,0,0,1-1.621-1.726,44.142,44.142,0,0,1-.005-5.756c.018-.265.106-.513.115-.776a36.489,36.489,0,0,0,7.833-.316" transform="translate(454.547 4092.826)" fill="#fff"/>
    <path id="Trazado_1253804" data-name="Trazado 1253804" d="M219.669,156.639c10.665-1.823,18.713,8.491,13.095,17.981l-27.12,27.224c-10.026,6.874-22.849-5.089-17.268-15.636,1.957-3.7,21.335-22.782,25.449-26.175,1.666-1.374,3.684-3.024,5.846-3.394m2.188,2.686c-5.138.589-11.615,9.988-15.6,13.287l11.719,12.112c3.148-2.961,12.574-10.418,13.2-14.392.857-5.413-3.8-11.642-9.328-11.007m-18.55,16.24-1.961,1.862,12.213,12.211,1.663-1.621v-1.077c-1.705-1.264-10.86-11.561-11.915-11.375m-4.422,4.322-1.663,1.621v1.077c.353.684,9.965,10.272,10.887,10.9.48.33.735.778,1.368.272L211.1,192.1Zm-4.814,4.918c-.786.647-2.352,1.564-1.74,2.67l11.989,11.4,1.663-1.622,0-1.076Zm7.26,15.71L191,190.462c-2.217-.956-.243,4.3.243,5.2,1.927,3.55,6.071,5.965,10.083,4.856" transform="translate(445.972 4146.13)" fill="#fff"/>
    <path id="Trazado_1253805" data-name="Trazado 1253805" d="M212.729,142.431c5.452-1.217,11.007,4.8,7.992,10.169-.607,1.077-14.2,14.682-15.472,15.505-5.786,3.744-13.172-3.264-9.675-9.132,1.058-1.776,13.144-13.835,15.124-15.306a5.1,5.1,0,0,1,2.031-1.236m1.1,2.146c-2.2.4-6,5.773-8,7.253l6.24,6.239c1.569-2.086,7.172-5.978,7.332-8.452.153-2.345-3.213-5.47-5.572-5.04" transform="translate(451.812 4135.324)" fill="#fff"/>
    <path id="Trazado_1253806" data-name="Trazado 1253806" d="M218.577,147c2.356-.187,4.015.751,5.807,2.074,2.6,1.919,17.187,16.42,18.674,18.822,4.549,7.341-4.5,16.382-11.844,11.843-1.642-1.016-18.434-17.921-19.5-19.631-3.294-5.309.866-12.633,6.859-13.107m-1.132,3.262c-3.026.7-4.969,4.664-4.075,7.653.182.6,8.131,9.148,8.78,9.035l7.946-7.84c-3.936-2.906-7.166-10.12-12.65-8.848m14.638,10.79c-1.28,1.52-7.785,6.637-7.353,8.274.141.54,7.106,7.57,7.8,8,5.117,3.156,11.437-3.377,7.649-8.729-.7-.989-7.552-7.642-8.1-7.545" transform="translate(463.938 4138.913)" fill="#fff"/>
    <path id="Trazado_1253807" data-name="Trazado 1253807" d="M208.4,160.794l1.12,2.16c-1.859,1.354-3.687,4.267-5.451,5.47-1.354.924-1.488.109-2.453-.848Z" transform="translate(457.112 4149.463)" fill="#fff"/>
    <path id="Trazado_1253808" data-name="Trazado 1253808" d="M206.277,145.074l1.34.813-4.057,3.528c-2.171-.409,2.426-3.842,2.717-4.341" transform="translate(458.154 4137.463)" fill="#fff"/>
    <path id="Trazado_1253809" data-name="Trazado 1253809" d="M216.909,150.318a36.262,36.262,0,0,1,4.079,4.065c.457.7.582,1.192-.282,1.356l-4.35-3.793c-.732-.494.3-1.638.554-1.628" transform="translate(468.168 4141.466)" fill="#fff"/>
    <path id="Trazado_1253810" data-name="Trazado 1253810" d="M522.039,196.545l-.088,56.635H287.007l.088-56.635-.088-57.584H521.951Z" transform="translate(522.298 4132.797)" fill="#219cd5"/>
    <path id="Trazado_1253811" data-name="Trazado 1253811" d="M522.039,125.682l-.088,54.182H287.007l.088-54.182-.088-55.089H521.951Z" transform="translate(522.298 4080.608)" fill="#219cd5"/>
    <path id="Trazado_1254666" data-name="Trazado 1254666" d="M0,0H993.578V359.258H0Z" transform="translate(303.211 4026.721)" fill="none"/>
    <path id="Trazado_1254667" data-name="Trazado 1254667" d="M19.072-1.483A14.515,14.515,0,0,1,11.807.363a9.928,9.928,0,0,1-7.515-3,10.993,10.993,0,0,1-2.868-7.932,11.287,11.287,0,0,1,3.186-8.272,10.862,10.862,0,0,1,8.075-3.232,13.742,13.742,0,0,1,5.949,1.15V-18.1A11.424,11.424,0,0,0,12.4-19.769a7.791,7.791,0,0,0-5.979,2.513,9.19,9.19,0,0,0-2.331,6.509A9.2,9.2,0,0,0,6.251-4.276a7.587,7.587,0,0,0,5.873,2.354,9.074,9.074,0,0,0,4.4-1.014V-9.021H11.776v-2.3h7.3ZM40.915,0H38.1L35.8-6.085H26.6L24.431,0H21.6l8.325-21.706h2.634ZM34.966-8.371,31.56-17.619a8.856,8.856,0,0,1-.333-1.453h-.061a8.108,8.108,0,0,1-.348,1.453L27.443-8.371ZM46.651,0H44.108V-21.706h2.543Zm23.2,0H66.738L55.567-17.3a7.23,7.23,0,0,1-.7-1.362H54.78a22.347,22.347,0,0,1,.121,2.982V0H52.358V-21.706h3.3L66.526-4.677q.681,1.06.878,1.453h.061a22.965,22.965,0,0,1-.151-3.194V-21.706h2.543Zm4.677-.878v-3a5.821,5.821,0,0,0,1.234.817,9.995,9.995,0,0,0,1.514.613,12.05,12.05,0,0,0,1.6.386,8.9,8.9,0,0,0,1.483.136,5.81,5.81,0,0,0,3.5-.87A2.944,2.944,0,0,0,85.023-5.3a2.941,2.941,0,0,0-.386-1.529A4.348,4.348,0,0,0,83.57-8.015a10.589,10.589,0,0,0-1.612-1.029q-.931-.492-2.006-1.037-1.135-.575-2.119-1.166a9.183,9.183,0,0,1-1.71-1.3A5.43,5.43,0,0,1,74.98-14.16a4.99,4.99,0,0,1-.416-2.112,4.965,4.965,0,0,1,.651-2.581,5.583,5.583,0,0,1,1.71-1.809,7.754,7.754,0,0,1,2.414-1.06,11.055,11.055,0,0,1,2.762-.348,10.586,10.586,0,0,1,4.677.772v2.861a8.478,8.478,0,0,0-4.935-1.332,8.116,8.116,0,0,0-1.665.174,4.7,4.7,0,0,0-1.483.568,3.286,3.286,0,0,0-1.06,1.014,2.692,2.692,0,0,0-.409,1.514,3.116,3.116,0,0,0,.31,1.438,3.525,3.525,0,0,0,.916,1.1,9.121,9.121,0,0,0,1.476.969q.87.469,2.006,1.029,1.166.575,2.21,1.211a10.1,10.1,0,0,1,1.832,1.408,6.256,6.256,0,0,1,1.249,1.71,4.808,4.808,0,0,1,.462,2.149,5.451,5.451,0,0,1-.628,2.717,5.155,5.155,0,0,1-1.7,1.809A7.4,7.4,0,0,1,82.9.053a13.471,13.471,0,0,1-2.937.31A11.966,11.966,0,0,1,78.7.28Q77.939.2,77.152.038a12.6,12.6,0,0,1-1.491-.394A4.639,4.639,0,0,1,74.533-.878Z" transform="translate(889.769 4252.86)" fill="#fff"/>
    <path id="Trazado_1254668" data-name="Trazado 1254668" d="M5.389-8.2V0H2.846V-21.706H8.81a7.872,7.872,0,0,1,5.4,1.7,6.053,6.053,0,0,1,1.915,4.783,6.578,6.578,0,0,1-2.127,5.056A8.126,8.126,0,0,1,8.25-8.2Zm0-11.2v8.9H8.053a5.956,5.956,0,0,0,4.019-1.2,4.26,4.26,0,0,0,1.385-3.4q0-4.3-5.086-4.3ZM33.867,0H31.052l-2.3-6.085h-9.2L17.383,0H14.553l8.325-21.706h2.634ZM27.918-8.371l-3.406-9.249a8.856,8.856,0,0,1-.333-1.453h-.061a8.108,8.108,0,0,1-.348,1.453L20.4-8.371ZM39.6,0H37.061V-21.706H39.6Zm23.2,0H59.69L48.519-17.3a7.23,7.23,0,0,1-.7-1.362h-.091a22.347,22.347,0,0,1,.121,2.982V0H45.31V-21.706h3.3L59.478-4.677q.681,1.06.878,1.453h.061a22.964,22.964,0,0,1-.151-3.194V-21.706h2.543Zm4.677-.878v-3a5.821,5.821,0,0,0,1.234.817,9.995,9.995,0,0,0,1.514.613,12.05,12.05,0,0,0,1.6.386,8.9,8.9,0,0,0,1.483.136,5.81,5.81,0,0,0,3.5-.87A2.944,2.944,0,0,0,77.976-5.3a2.941,2.941,0,0,0-.386-1.529,4.348,4.348,0,0,0-1.067-1.188A10.589,10.589,0,0,0,74.91-9.044q-.931-.492-2.006-1.037-1.135-.575-2.119-1.166a9.183,9.183,0,0,1-1.71-1.3,5.43,5.43,0,0,1-1.143-1.612,4.99,4.99,0,0,1-.416-2.112,4.965,4.965,0,0,1,.651-2.581,5.583,5.583,0,0,1,1.71-1.809,7.754,7.754,0,0,1,2.414-1.06,11.055,11.055,0,0,1,2.762-.348,10.586,10.586,0,0,1,4.677.772v2.861A8.478,8.478,0,0,0,74.8-19.769a8.116,8.116,0,0,0-1.665.174,4.7,4.7,0,0,0-1.483.568,3.286,3.286,0,0,0-1.06,1.014A2.692,2.692,0,0,0,70.18-16.5a3.116,3.116,0,0,0,.31,1.438,3.525,3.525,0,0,0,.916,1.1,9.121,9.121,0,0,0,1.476.969q.87.469,2.006,1.029,1.166.575,2.21,1.211a10.1,10.1,0,0,1,1.832,1.408,6.256,6.256,0,0,1,1.249,1.71,4.808,4.808,0,0,1,.462,2.149,5.451,5.451,0,0,1-.628,2.717,5.155,5.155,0,0,1-1.7,1.809A7.4,7.4,0,0,1,75.856.053a13.471,13.471,0,0,1-2.937.31A11.966,11.966,0,0,1,71.648.28Q70.892.2,70.1.038a12.6,12.6,0,0,1-1.491-.394A4.639,4.639,0,0,1,67.486-.878Z" transform="translate(890.387 4377.074)" fill="#fff"/>
    <path id="Trazado_1253812" data-name="Trazado 1253812" d="M360.533,77.488l2.98.346a26.952,26.952,0,0,1,22.4,23.054l.235,2.22c-.032.8.042,1.6,0,2.4C385,126.634,360.961,138.614,343.6,125.98c-20.487-14.913-10.668-47.125,14.53-48.492ZM357.895,80.9c-17.581,1.063-27.889,20.79-18.441,35.824a23.468,23.468,0,0,0,39.8-.067c10.04-16.149-2.5-36.9-21.361-35.757" transform="translate(557.065 4085.872)" fill="#fff"/>
    <path id="Trazado_1253813" data-name="Trazado 1253813" d="M340.385,94.653c1.606-.333,1.832.853,2.6,1.818,5.121,6.424,17.367,6.5,22.491.062.471-.589.9-1.71,1.717-1.88a1.678,1.678,0,0,1,2.105,1.883c-.1.986-2.118,3.183-2.888,3.872-6.727,6.018-19.469,5.682-25.509-1.2a10.812,10.812,0,0,1-1.636-2.4,1.714,1.714,0,0,1,1.118-2.158" transform="translate(562.144 4098.931)" fill="#fff"/>
    <path id="Trazado_1253814" data-name="Trazado 1253814" d="M343.83,87.046c4.631-.681,5.274,6.064,1.16,6.613-4.613.615-5.223-6.017-1.16-6.613" transform="translate(563.606 4093.131)" fill="#fff"/>
    <path id="Trazado_1253815" data-name="Trazado 1253815" d="M353.256,87.049c5.195-.816,5.286,7.307.092,6.614-3.645-.485-3.611-6.061-.092-6.614" transform="translate(570.853 4093.126)" fill="#fff"/>
    <path id="Trazado_1253816" data-name="Trazado 1253816" d="M360.533,145.579l2.98.346a26.952,26.952,0,0,1,22.4,23.054l.235,2.22c-.032.8.042,1.6,0,2.4C385,194.725,360.961,206.705,343.6,194.071c-20.487-14.913-10.668-47.125,14.53-48.492Zm-2.638,3.412c-17.581,1.063-27.889,20.79-18.441,35.824a23.468,23.468,0,0,0,39.8-.067c10.04-16.149-2.5-36.9-21.361-35.757" transform="translate(557.065 4137.849)" fill="#fff"/>
    <path id="Trazado_1253817" data-name="Trazado 1253817" d="M368.134,172.7c-1.606.333-1.832-.853-2.6-1.818-5.121-6.424-17.367-6.5-22.493-.062-.471.589-.9,1.71-1.717,1.88a1.678,1.678,0,0,1-2.1-1.885c.1-.984,2.118-3.181,2.888-3.871,6.727-6.018,19.469-5.682,25.509,1.2a10.81,10.81,0,0,1,1.636,2.4,1.714,1.714,0,0,1-1.118,2.158" transform="translate(562.144 4150.907)" fill="#fff"/>
    <path id="Trazado_1253818" data-name="Trazado 1253818" d="M343.83,155.138c4.631-.681,5.274,6.064,1.16,6.613-4.613.615-5.223-6.017-1.16-6.613" transform="translate(563.606 4145.109)" fill="#fff"/>
    <path id="Trazado_1253819" data-name="Trazado 1253819" d="M353.256,155.14c5.195-.816,5.286,7.307.092,6.614-3.645-.485-3.611-6.061-.092-6.614" transform="translate(570.853 4145.103)" fill="#fff"/>
    <path id="Trazado_1253820" data-name="Trazado 1253820" d="M665.206,188.956l-.088,116.415H430.174l.088-116.415-.088-118.363H665.117Z" transform="translate(631.584 4080.608)" fill="#7686d5"/>
    <path id="Trazado_1254669" data-name="Trazado 1254669" d="M0,0H993.578V359.258H0Z" transform="translate(303.211 4026.721)" fill="none"/>
    <path id="Trazado_1254670" data-name="Trazado 1254670" d="M14.777-.762A10.678,10.678,0,0,1,9.75.3,8.107,8.107,0,0,1,3.529-2.2,9.228,9.228,0,0,1,1.193-8.76a9.672,9.672,0,0,1,2.628-7.059,8.919,8.919,0,0,1,6.665-2.691,10.686,10.686,0,0,1,4.291.749v2.272a8.7,8.7,0,0,0-4.316-1.092,6.623,6.623,0,0,0-5.084,2.095,7.891,7.891,0,0,0-1.949,5.6,7.508,7.508,0,0,0,1.822,5.3,6.2,6.2,0,0,0,4.78,1.974,8.967,8.967,0,0,0,4.748-1.219ZM25.176.3a7.991,7.991,0,0,1-6.2-2.552,9.465,9.465,0,0,1-2.33-6.64,10.028,10.028,0,0,1,2.374-7.008,8.292,8.292,0,0,1,6.462-2.615,7.811,7.811,0,0,1,6.075,2.539,9.5,9.5,0,0,1,2.3,6.64A10.061,10.061,0,0,1,31.5-2.285,8.138,8.138,0,0,1,25.176.3Zm.152-16.885a5.869,5.869,0,0,0-4.659,2.069,8.011,8.011,0,0,0-1.79,5.434,8.067,8.067,0,0,0,1.746,5.415,5.693,5.693,0,0,0,4.551,2.05A5.977,5.977,0,0,0,29.9-3.567a7.99,7.99,0,0,0,1.727-5.472,8.349,8.349,0,0,0-1.676-5.573A5.746,5.746,0,0,0,25.328-16.58ZM36.589-.736V-3.25a4.882,4.882,0,0,0,1.035.686,8.383,8.383,0,0,0,1.27.514,10.106,10.106,0,0,0,1.339.324,7.467,7.467,0,0,0,1.244.114,4.873,4.873,0,0,0,2.939-.73,2.469,2.469,0,0,0,.971-2.1,2.467,2.467,0,0,0-.324-1.282,3.647,3.647,0,0,0-.9-1,8.881,8.881,0,0,0-1.352-.863q-.781-.413-1.682-.87-.952-.482-1.777-.978a7.7,7.7,0,0,1-1.435-1.092,4.554,4.554,0,0,1-.958-1.352,4.185,4.185,0,0,1-.349-1.771,4.164,4.164,0,0,1,.546-2.165,4.682,4.682,0,0,1,1.435-1.517,6.5,6.5,0,0,1,2.025-.889,9.272,9.272,0,0,1,2.317-.292,8.879,8.879,0,0,1,3.923.647v2.4a7.111,7.111,0,0,0-4.139-1.117,6.807,6.807,0,0,0-1.4.146,3.945,3.945,0,0,0-1.244.476,2.756,2.756,0,0,0-.889.851,2.258,2.258,0,0,0-.343,1.27,2.614,2.614,0,0,0,.26,1.206,2.956,2.956,0,0,0,.768.927,7.65,7.65,0,0,0,1.238.813q.73.394,1.682.863.978.482,1.854,1.016a8.472,8.472,0,0,1,1.536,1.181A5.247,5.247,0,0,1,47.234-6.4a4.033,4.033,0,0,1,.387,1.8,4.572,4.572,0,0,1-.527,2.279A4.324,4.324,0,0,1,45.673-.8,6.21,6.21,0,0,1,43.61.044,11.3,11.3,0,0,1,41.147.3,10.036,10.036,0,0,1,40.08.235q-.635-.07-1.295-.2a10.566,10.566,0,0,1-1.25-.33A3.891,3.891,0,0,1,36.589-.736ZM62.018-16.275H56.762V0H54.629V-16.275H49.386v-1.93H62.018ZM78.192-7.363Q78.192.3,71.273.3q-6.627,0-6.627-7.376V-18.205h2.133V-7.211q0,5.6,4.723,5.6,4.558,0,4.558-5.408V-18.205h2.133ZM101.3,0h-2.12V-12.213q0-1.447.178-3.542H99.3a11.324,11.324,0,0,1-.546,1.765L92.537,0H91.5L85.288-13.889a10.881,10.881,0,0,1-.546-1.866h-.051q.1,1.092.1,3.567V0H82.737V-18.205h2.818l5.586,12.7a16.255,16.255,0,0,1,.838,2.184h.076q.546-1.5.876-2.234l5.7-12.645H101.3Zm14.435,0h-9.648V-18.205h9.242v1.93h-7.109v6.056h6.576V-8.3h-6.576V-1.93h7.516Zm16.555,0h-2.539L126.7-5.1a11.116,11.116,0,0,0-.812-1.212,4.632,4.632,0,0,0-.806-.819,2.792,2.792,0,0,0-.889-.463,3.654,3.654,0,0,0-1.073-.146h-1.752V0h-2.133V-18.205h5.434a7.744,7.744,0,0,1,2.2.3,4.928,4.928,0,0,1,1.752.908,4.218,4.218,0,0,1,1.162,1.517,5.031,5.031,0,0,1,.419,2.126,5.121,5.121,0,0,1-.286,1.746,4.559,4.559,0,0,1-.812,1.416,4.925,4.925,0,0,1-1.27,1.06,6.481,6.481,0,0,1-1.669.679V-8.4a3.84,3.84,0,0,1,.793.463,4.367,4.367,0,0,1,.641.616,8.156,8.156,0,0,1,.6.806q.3.451.667,1.047ZM121.368-16.275v6.6h2.895a4.39,4.39,0,0,0,1.479-.241,3.424,3.424,0,0,0,1.174-.692,3.138,3.138,0,0,0,.774-1.1,3.7,3.7,0,0,0,.279-1.466,2.854,2.854,0,0,0-.946-2.279,4.063,4.063,0,0,0-2.736-.819Z" transform="translate(1130.762 4288.915)" fill="#fff"/>
    <path id="Trazado_1254671" data-name="Trazado 1254671" d="M7.046-6.525A8.137,8.137,0,0,1,5.675-1.492,4.381,4.381,0,0,1,2.006.3,4.337,4.337,0,0,1,.254,0V-2.107a2.964,2.964,0,0,0,1.777.5q2.882,0,2.882-4.888V-18.205H7.046ZM19,.3a7.991,7.991,0,0,1-6.2-2.552,9.465,9.465,0,0,1-2.33-6.64,10.028,10.028,0,0,1,2.374-7.008A8.292,8.292,0,0,1,19.31-18.51a7.811,7.811,0,0,1,6.075,2.539,9.5,9.5,0,0,1,2.3,6.64,10.061,10.061,0,0,1-2.361,7.046A8.138,8.138,0,0,1,19,.3Zm.152-16.885A5.869,5.869,0,0,0,14.5-14.511a8.011,8.011,0,0,0-1.79,5.434,8.067,8.067,0,0,0,1.746,5.415A5.693,5.693,0,0,0,19-1.612a5.977,5.977,0,0,0,4.723-1.955,7.99,7.99,0,0,0,1.727-5.472,8.349,8.349,0,0,0-1.676-5.573A5.746,5.746,0,0,0,19.157-16.58ZM31.269,0V-18.205h5.18a5.661,5.661,0,0,1,3.745,1.155,3.734,3.734,0,0,1,1.384,3.009,4.427,4.427,0,0,1-.838,2.691,4.518,4.518,0,0,1-2.311,1.625v.051a4.632,4.632,0,0,1,2.945,1.39,4.276,4.276,0,0,1,1.1,3.053A4.76,4.76,0,0,1,40.8-1.447,6.237,6.237,0,0,1,36.575,0ZM33.4-16.275V-10.4h2.184a4.147,4.147,0,0,0,2.755-.844,2.94,2.94,0,0,0,1-2.38q0-2.653-3.491-2.653Zm0,7.795V-1.93H36.3a4.337,4.337,0,0,0,2.914-.889,3.044,3.044,0,0,0,1.035-2.437q0-3.225-4.393-3.225ZM45.322-.736V-3.25a4.882,4.882,0,0,0,1.035.686,8.383,8.383,0,0,0,1.27.514,10.106,10.106,0,0,0,1.339.324,7.467,7.467,0,0,0,1.244.114,4.873,4.873,0,0,0,2.939-.73,2.469,2.469,0,0,0,.971-2.1A2.467,2.467,0,0,0,53.8-5.726a3.647,3.647,0,0,0-.9-1,8.881,8.881,0,0,0-1.352-.863q-.781-.413-1.682-.87-.952-.482-1.777-.978a7.7,7.7,0,0,1-1.435-1.092,4.554,4.554,0,0,1-.958-1.352,4.185,4.185,0,0,1-.349-1.771,4.164,4.164,0,0,1,.546-2.165,4.682,4.682,0,0,1,1.435-1.517,6.5,6.5,0,0,1,2.025-.889,9.272,9.272,0,0,1,2.317-.292,8.879,8.879,0,0,1,3.923.647v2.4a7.111,7.111,0,0,0-4.139-1.117,6.807,6.807,0,0,0-1.4.146,3.945,3.945,0,0,0-1.244.476,2.756,2.756,0,0,0-.889.851,2.258,2.258,0,0,0-.343,1.27,2.614,2.614,0,0,0,.26,1.206,2.956,2.956,0,0,0,.768.927,7.65,7.65,0,0,0,1.238.813q.73.394,1.682.863.978.482,1.854,1.016A8.472,8.472,0,0,1,54.92-7.833,5.247,5.247,0,0,1,55.967-6.4a4.033,4.033,0,0,1,.387,1.8,4.572,4.572,0,0,1-.527,2.279A4.324,4.324,0,0,1,54.406-.8a6.21,6.21,0,0,1-2.063.844A11.3,11.3,0,0,1,49.88.3a10.036,10.036,0,0,1-1.066-.07q-.635-.07-1.295-.2a10.566,10.566,0,0,1-1.25-.33A3.891,3.891,0,0,1,45.322-.736Z" transform="translate(1155.802 4323.627)" fill="#fff"/>
    <path id="Trazado_1253821" data-name="Trazado 1253821" d="M531.922,128.371a7.071,7.071,0,0,0-2.384,0V97.961a3.006,3.006,0,0,0-2.019-2.125h-9.378v5.026c0,1.509-1.754,2.349-3.052,2.439-6.24.436-12.982-.333-19.275-.005a2.824,2.824,0,0,1-2.314-1.416,5.922,5.922,0,0,1-.33-.913v-5.13h-9.377a2.824,2.824,0,0,0-2.024,2.328l.071,58.478a2.592,2.592,0,0,0,1.672,1.852c11.529.31,23.126.042,34.68.136l3.162,2.38H483.9a5.214,5.214,0,0,1-4.375-3.811c-.312-19.654-.041-39.361-.138-59.035a5.067,5.067,0,0,1,4.421-4.7l9.506-.026a4.022,4.022,0,0,1,3.123-2.472c1.344-.134,2.867.111,4.23-.018a6.253,6.253,0,0,1,9.984,0c2.4.242,5.026-.737,6.718,1.469.261.339.333.735.635,1.021l9.312.012c2.149.042,4.608,2.359,4.608,4.512Zm-26.44-37.588A4.26,4.26,0,0,0,502.855,92c-.446.476-.554,1.136-1.286,1.3-1.388.321-3.576-.182-5.026.049a1.375,1.375,0,0,0-.991,1.187,35.391,35.391,0,0,0,0,5.08c.088.935.591,1.317,1.5,1.4,5.528-.361,11.645.469,17.1,0,.813-.069,1.5-.407,1.6-1.3a35.089,35.089,0,0,0,0-5.184,1.369,1.369,0,0,0-1.088-1.19c-1.476-.176-3.521.25-4.93-.044-.79-.166-.9-.908-1.39-1.409a4.31,4.31,0,0,0-2.871-1.111" transform="translate(669.135 4094.247)" fill="#fff"/>
    <path id="Trazado_1253822" data-name="Trazado 1253822" d="M514.239,112.238A15.567,15.567,0,1,1,502.467,136.9a15.609,15.609,0,0,1,11.772-24.662m9.554,25.147c.134.1.952-.778,1.088-.931,8.018-8.968.411-23.169-11.49-21.643-10.855,1.391-15.3,15.066-7.214,22.47,1.121-2.654,3.394-5.354,6.191-6.3,5.126-1.726,9.559,1.85,11.425,6.4m-9.034-4.324c-3.08.108-5.482,3.066-6.493,5.743l.083.185a13.308,13.308,0,0,0,11.606.933,10.822,10.822,0,0,0,1.719-.878c.081-.125.03-.2,0-.314a12.331,12.331,0,0,0-.908-1.792c-1.25-2.081-3.437-3.968-6.008-3.878" transform="translate(684.519 4112.378)" fill="#fff"/>
    <path id="Trazado_1253823" data-name="Trazado 1253823" d="M497.115,99.165l-2.227,2.176h-7.824v8.185h8.185c.042-.342-.088-.827.055-1.137a27.137,27.137,0,0,1,2.121-2.075v5.493H484.941l-.155-.155V99.32l.155-.155Z" transform="translate(673.271 4102.418)" fill="#fff"/>
    <path id="Trazado_1253824" data-name="Trazado 1253824" d="M497.115,108.038l-2.456,2.257-7.595.023V118.5h8.03c.335-.307.032-.85.21-1.241a26.833,26.833,0,0,1,2.121-2.075v5.493H484.941l-.155-.155V108.193l.155-.155Z" transform="translate(673.271 4109.192)" fill="#fff"/>
    <path id="Trazado_1253825" data-name="Trazado 1253825" d="M497.012,116.969l-2.125,2.176h-7.822v8.185h8.03c.335-.307.032-.85.21-1.241a26.524,26.524,0,0,1,2.121-2.074v5.491H484.785V116.969Z" transform="translate(673.271 4116.009)" fill="#fff"/>
    <path id="Trazado_1253826" data-name="Trazado 1253826" d="M497.026,99.843a1.168,1.168,0,0,1,1.36,1.774l-6.4,6.443a1.115,1.115,0,0,1-1.606.049,40.36,40.36,0,0,1-3.839-3.83,1.187,1.187,0,0,1,1.3-1.926c.726.227,2.493,2.749,3.349,3.158l5.452-5.435a.811.811,0,0,1,.386-.235" transform="translate(674.367 4102.903)" fill="#fff"/>
    <path id="Trazado_1253827" data-name="Trazado 1253827" d="M486.532,111.522a1.264,1.264,0,0,1,1.511-.182l3.155,3.04,5.622-5.574c1.312-.533,2.336.688,1.441,1.853-1.672,2.174-4.588,4.2-6.373,6.373a1.128,1.128,0,0,1-1.4.051c-1.032-1.33-3.066-2.675-3.989-3.99a1.163,1.163,0,0,1,.035-1.571" transform="translate(674.357 4109.681)" fill="#fff"/>
    <path id="Trazado_1253828" data-name="Trazado 1253828" d="M497.128,117.582a1.177,1.177,0,0,1,1.314,1.73l-6.875,6.8a1.182,1.182,0,0,1-1.093-.16,44.848,44.848,0,0,1-3.941-3.934c-.933-1.261.462-2.576,1.716-1.612,1.005.774,1.866,2.128,2.936,2.844l5.348-5.331a1.593,1.593,0,0,1,.6-.337" transform="translate(674.372 4116.456)" fill="#fff"/>
    <path id="Trazado_1253829" data-name="Trazado 1253829" d="M495.417,100.718l12.617-.025a1.2,1.2,0,0,1,.106,2.386l-12.844-.009a1.186,1.186,0,0,1,.122-2.352" transform="translate(680.539 4103.585)" fill="#fff"/>
    <path id="Trazado_1253830" data-name="Trazado 1253830" d="M496.148,109.59c.391-.009.677.1,1,.086,3.352-.108,6.688-.074,10.051,0,.236.005.451-.116.711-.106a1.227,1.227,0,0,1,.661,2.3l-13.386.074a1.192,1.192,0,0,1-.79-1.608c.277-.7,1.1-.727,1.749-.742" transform="translate(680.541 4110.36)" fill="#fff"/>
    <path id="Trazado_1253831" data-name="Trazado 1253831" d="M495.237,112.277c2.4.182,5.41-.333,7.738-.016a1.19,1.19,0,0,1,.1,2.365c-2.356.333-5.428-.224-7.861,0a1.2,1.2,0,0,1,.019-2.352" transform="translate(680.51 4112.334)" fill="#fff"/>
    <path id="Trazado_1253832" data-name="Trazado 1253832" d="M495.129,103.356l7.949-.016a1.194,1.194,0,0,1-.2,2.377c-2.342.263-5.163-.189-7.554-.009a1.207,1.207,0,0,1-.2-2.352" transform="translate(680.513 4105.605)" fill="#fff"/>
    <path id="Trazado_1253833" data-name="Trazado 1253833" d="M502.08,118.5c-.347.615-.24,1.688-.487,2.259-.044.1-.041.148-.183.13-1.762-.109-3.65.123-5.4,0-.815-.058-1.76-.272-1.712-1.3.016-.321.478-1.09.785-1.09Z" transform="translate(680.534 4117.176)" fill="#fff"/>
    <path id="Trazado_1253834" data-name="Trazado 1253834" d="M495.121,123.839a1.338,1.338,0,0,1-.862-1.268c.092-.809.767-1.067,1.48-1.12,1.855-.138,3.881.111,5.754.005l.312,2.382Z" transform="translate(680.499 4119.398)" fill="#fff"/>
    <path id="Trazado_1253835" data-name="Trazado 1253835" d="M494.752,90.675c2.867-.481,3.22,3.795.584,4.006a2.028,2.028,0,0,1-.584-4.006" transform="translate(679.648 4095.909)" fill="#fff"/>
    <path id="Trazado_1253836" data-name="Trazado 1253836" d="M510.769,114.928c7.967-.182,8.214,12.093.176,12.208-7.914.113-8.191-12.024-.176-12.208m-.421,2.592c-4.392.6-3.833,7.6,1.1,7.008,4.359-.527,3.7-7.658-1.1-7.008" transform="translate(688.612 4114.45)" fill="#fff"/>
    <path id="Trazado_1254672" data-name="Trazado 1254672" d="M0,0H993.578V359.258H0Z" transform="translate(303.211 4026.721)" fill="none"/>
    <path id="Trazado_1254673" data-name="Trazado 1254673" d="M17.705-21.909H10.63V0H7.759V-21.909H.7v-2.6h17ZM39.973,0H37.1V-11.177H24.421V0H21.55V-24.507h2.871v10.75H37.1v-10.75h2.871ZM59.387,0H46.4V-24.507H58.84v2.6H49.27v8.152h8.853v2.581H49.27V-2.6H59.387ZM91.909-24.507,82.834,0H79.673L70.786-24.507h3.2L80.767-5.076a11.537,11.537,0,0,1,.5,2.17h.068a10.646,10.646,0,0,1,.564-2.2l6.921-19.4ZM111.474,0h-3.179l-2.6-6.87H95.307L92.863,0h-3.2l9.4-24.507h2.974Zm-6.716-9.451-3.845-10.442a10,10,0,0,1-.376-1.641h-.068a9.154,9.154,0,0,1-.393,1.641L96.264-9.451ZM127.794,0H115.08V-24.507h2.871V-2.6h9.844Zm21-9.912Q148.8.41,139.484.41q-8.921,0-8.921-9.929V-24.507h2.871v14.8q0,7.537,6.357,7.537,6.135,0,6.135-7.28V-24.507H148.8ZM167.9,0H154.916V-24.507h12.441v2.6h-9.57v8.152h8.853v2.581h-8.853V-2.6H167.9ZM185.08-9.263V0h-2.871V-24.507h6.733a8.887,8.887,0,0,1,6.093,1.914,6.834,6.834,0,0,1,2.162,5.4,7.427,7.427,0,0,1-2.4,5.708,9.174,9.174,0,0,1-6.486,2.222Zm0-12.646V-11.86h3.008a6.725,6.725,0,0,0,4.537-1.359,4.81,4.81,0,0,0,1.564-3.837q0-4.854-5.742-4.854ZM219.379,0h-3.418l-4.1-6.87A14.962,14.962,0,0,0,210.766-8.5a6.235,6.235,0,0,0-1.085-1.1,3.759,3.759,0,0,0-1.2-.624,4.919,4.919,0,0,0-1.444-.2h-2.358V0h-2.871V-24.507h7.314a10.424,10.424,0,0,1,2.965.4,6.634,6.634,0,0,1,2.358,1.222,5.678,5.678,0,0,1,1.564,2.042,6.772,6.772,0,0,1,.564,2.863,6.893,6.893,0,0,1-.385,2.35,6.137,6.137,0,0,1-1.094,1.906,6.63,6.63,0,0,1-1.709,1.427,8.725,8.725,0,0,1-2.247.914v.068a5.169,5.169,0,0,1,1.068.624,5.878,5.878,0,0,1,.863.829,10.979,10.979,0,0,1,.812,1.085q.4.607.9,1.41Zm-14.7-21.909v8.887h3.9a5.91,5.91,0,0,0,1.991-.325,4.609,4.609,0,0,0,1.581-.931,4.224,4.224,0,0,0,1.042-1.487,4.977,4.977,0,0,0,.376-1.974,3.842,3.842,0,0,0-1.273-3.068,5.469,5.469,0,0,0-3.683-1.1ZM232.282.41a10.757,10.757,0,0,1-8.348-3.435,12.741,12.741,0,0,1-3.136-8.938q0-5.913,3.2-9.434a11.162,11.162,0,0,1,8.7-3.521,10.515,10.515,0,0,1,8.177,3.418,12.787,12.787,0,0,1,3.1,8.938q0,6-3.179,9.485A10.955,10.955,0,0,1,232.282.41Zm.205-22.729a7.9,7.9,0,0,0-6.272,2.786,10.784,10.784,0,0,0-2.41,7.314,10.86,10.86,0,0,0,2.35,7.289,7.664,7.664,0,0,0,6.127,2.76A8.046,8.046,0,0,0,238.639-4.8q2.324-2.632,2.324-7.366,0-4.854-2.256-7.5A7.735,7.735,0,0,0,232.487-22.319ZM251.662-9.263V0h-2.871V-24.507h6.733a8.887,8.887,0,0,1,6.093,1.914,6.834,6.834,0,0,1,2.162,5.4,7.427,7.427,0,0,1-2.4,5.708,9.174,9.174,0,0,1-6.486,2.222Zm0-12.646V-11.86h3.008a6.725,6.725,0,0,0,4.537-1.359,4.81,4.81,0,0,0,1.564-3.837q0-4.854-5.742-4.854ZM278.271.41a10.757,10.757,0,0,1-8.348-3.435,12.741,12.741,0,0,1-3.136-8.938q0-5.913,3.2-9.434a11.162,11.162,0,0,1,8.7-3.521,10.515,10.515,0,0,1,8.177,3.418,12.787,12.787,0,0,1,3.1,8.938q0,6-3.179,9.485A10.955,10.955,0,0,1,278.271.41Zm.205-22.729a7.9,7.9,0,0,0-6.272,2.786,10.784,10.784,0,0,0-2.41,7.314,10.86,10.86,0,0,0,2.35,7.289,7.664,7.664,0,0,0,6.127,2.76A8.046,8.046,0,0,0,284.628-4.8q2.324-2.632,2.324-7.366,0-4.854-2.256-7.5A7.735,7.735,0,0,0,278.476-22.319ZM293.634-.991V-4.375a6.572,6.572,0,0,0,1.393.923,11.284,11.284,0,0,0,1.709.692,13.6,13.6,0,0,0,1.8.436,10.052,10.052,0,0,0,1.675.154,6.56,6.56,0,0,0,3.956-.983,3.324,3.324,0,0,0,1.307-2.828,3.321,3.321,0,0,0-.436-1.726,4.909,4.909,0,0,0-1.2-1.342,11.955,11.955,0,0,0-1.82-1.162q-1.051-.555-2.264-1.171-1.282-.649-2.393-1.316a10.367,10.367,0,0,1-1.931-1.47,6.131,6.131,0,0,1-1.29-1.82,5.634,5.634,0,0,1-.47-2.384,5.606,5.606,0,0,1,.735-2.914,6.3,6.3,0,0,1,1.931-2.042,8.755,8.755,0,0,1,2.726-1.2,12.481,12.481,0,0,1,3.119-.393,11.952,11.952,0,0,1,5.281.872v3.23a9.572,9.572,0,0,0-5.571-1.5,9.163,9.163,0,0,0-1.88.2,5.31,5.31,0,0,0-1.675.641,3.71,3.71,0,0,0-1.2,1.145,3.039,3.039,0,0,0-.461,1.709,3.519,3.519,0,0,0,.35,1.624,3.979,3.979,0,0,0,1.034,1.248,10.3,10.3,0,0,0,1.666,1.094q.983.53,2.264,1.162,1.316.649,2.5,1.367a11.4,11.4,0,0,1,2.068,1.589,7.063,7.063,0,0,1,1.41,1.931,5.428,5.428,0,0,1,.521,2.427,6.154,6.154,0,0,1-.709,3.068,5.821,5.821,0,0,1-1.914,2.042A8.359,8.359,0,0,1,303.085.06a15.209,15.209,0,0,1-3.315.35,13.511,13.511,0,0,1-1.436-.094q-.855-.094-1.743-.273A14.224,14.224,0,0,1,294.907-.4,5.238,5.238,0,0,1,293.634-.991ZM316.244,0h-2.871V-24.507h2.871Zm20.935-21.909H330.1V0h-2.871V-21.909h-7.058v-2.6h17ZM343.9,0h-2.871V-24.507H343.9Zm16.321.41a10.757,10.757,0,0,1-8.348-3.435,12.741,12.741,0,0,1-3.136-8.938q0-5.913,3.2-9.434a11.162,11.162,0,0,1,8.7-3.521A10.515,10.515,0,0,1,368.8-21.5a12.787,12.787,0,0,1,3.1,8.938q0,6-3.179,9.485A10.955,10.955,0,0,1,360.216.41Zm.205-22.729a7.9,7.9,0,0,0-6.272,2.786,10.784,10.784,0,0,0-2.41,7.314,10.86,10.86,0,0,0,2.35,7.289,7.664,7.664,0,0,0,6.127,2.76A8.046,8.046,0,0,0,366.574-4.8q2.324-2.632,2.324-7.366,0-4.854-2.256-7.5A7.735,7.735,0,0,0,360.421-22.319ZM396.481,0H392.96L380.348-19.534a8.163,8.163,0,0,1-.786-1.538h-.1a25.228,25.228,0,0,1,.137,3.367V0h-2.871V-24.507h3.726L392.721-5.281q.769,1.2.991,1.641h.068a25.93,25.93,0,0,1-.171-3.606V-24.507h2.871Zm32.693-1.025A14.374,14.374,0,0,1,422.406.41a10.914,10.914,0,0,1-8.374-3.367,12.423,12.423,0,0,1-3.145-8.835,13.021,13.021,0,0,1,3.538-9.5,12.007,12.007,0,0,1,8.972-3.623,14.385,14.385,0,0,1,5.776,1.008v3.059a11.714,11.714,0,0,0-5.811-1.47,8.916,8.916,0,0,0-6.844,2.82,10.623,10.623,0,0,0-2.623,7.537,10.108,10.108,0,0,0,2.452,7.135,8.345,8.345,0,0,0,6.434,2.657,12.071,12.071,0,0,0,6.392-1.641ZM453.134,0h-3.179l-2.6-6.87H436.967L434.523,0h-3.2l9.4-24.507H443.7Zm-6.716-9.451-3.845-10.442a10,10,0,0,1-.376-1.641h-.068a9.154,9.154,0,0,1-.393,1.641L437.924-9.451ZM476.5,0h-3.521L460.363-19.534a8.163,8.163,0,0,1-.786-1.538h-.1a25.228,25.228,0,0,1,.137,3.367V0H456.74V-24.507h3.726L472.736-5.281q.769,1.2.991,1.641h.068a25.93,25.93,0,0,1-.171-3.606V-24.507H476.5Zm24.644-24.507L492.064,0H488.9l-8.887-24.507h3.2L490-5.076a11.537,11.537,0,0,1,.5,2.17h.068a10.647,10.647,0,0,1,.564-2.2l6.921-19.4ZM520.7,0h-3.179l-2.6-6.87H504.537L502.093,0h-3.2l9.4-24.507h2.974Zm-6.716-9.451-3.845-10.442a10,10,0,0,1-.376-1.641H509.7a9.154,9.154,0,0,1-.393,1.641L505.494-9.451Zm9.107,8.459V-4.375a6.572,6.572,0,0,0,1.393.923,11.285,11.285,0,0,0,1.709.692,13.605,13.605,0,0,0,1.8.436,10.052,10.052,0,0,0,1.675.154,6.56,6.56,0,0,0,3.956-.983,3.324,3.324,0,0,0,1.307-2.828,3.321,3.321,0,0,0-.436-1.726,4.909,4.909,0,0,0-1.2-1.342,11.955,11.955,0,0,0-1.82-1.162q-1.051-.555-2.264-1.171-1.282-.649-2.393-1.316a10.368,10.368,0,0,1-1.931-1.47,6.13,6.13,0,0,1-1.29-1.82,5.634,5.634,0,0,1-.47-2.384,5.606,5.606,0,0,1,.735-2.914,6.3,6.3,0,0,1,1.931-2.042,8.755,8.755,0,0,1,2.726-1.2,12.481,12.481,0,0,1,3.119-.393,11.952,11.952,0,0,1,5.281.872v3.23a9.572,9.572,0,0,0-5.571-1.5,9.163,9.163,0,0,0-1.88.2,5.31,5.31,0,0,0-1.675.641,3.71,3.71,0,0,0-1.2,1.145,3.039,3.039,0,0,0-.461,1.709,3.518,3.518,0,0,0,.35,1.624,3.979,3.979,0,0,0,1.034,1.248,10.3,10.3,0,0,0,1.666,1.094q.983.53,2.264,1.162,1.316.649,2.5,1.367a11.405,11.405,0,0,1,2.068,1.589,7.062,7.062,0,0,1,1.41,1.931,5.429,5.429,0,0,1,.521,2.427,6.154,6.154,0,0,1-.709,3.068,5.821,5.821,0,0,1-1.914,2.042A8.36,8.36,0,0,1,532.545.06a15.209,15.209,0,0,1-3.315.35,13.51,13.51,0,0,1-1.436-.094q-.854-.094-1.743-.273A14.223,14.223,0,0,1,524.368-.4,5.238,5.238,0,0,1,523.095-.991Z" transform="translate(618.945 4055.695)" fill="#12263f"/>
    <path id="Trazado_1253837" data-name="Trazado 1253837" d="M.5,31.144V12.214H281.308" transform="translate(303.593 4036.045)" fill="none" stroke="#12263f" stroke-linecap="round" stroke-linejoin="round" stroke-width="1" stroke-dasharray="7 7"/>
    <path id="Trazado_1253838" data-name="Trazado 1253838" d="M396.176,12.214H684.452v18.93" transform="translate(605.631 4036.044)" fill="none" stroke="#12263f" stroke-linecap="round" stroke-linejoin="round" stroke-width="1" stroke-dasharray="7 7"/>
    <path id="Trazado_1253839" data-name="Trazado 1253839" d="M331.181,148.731a33.989,33.989,0,1,1-33.99-33.99,33.99,33.99,0,0,1,33.99,33.99" transform="translate(504.126 4114.309)" fill="#7686d5"/>
    <path id="Trazado_1253840" data-name="Trazado 1253840" d="M312.563,118.879v56.912l-23.149-27.436Z" transform="translate(524.135 4117.467)" fill="#fff"/>
    <path id="Trazado_1253841" data-name="Trazado 1253841" d="M263.152,175.791V118.879L286.3,146.315Z" transform="translate(504.088 4117.467)" fill="#fff"/>
    <path id="Trazado_1254674" data-name="Trazado 1254674" d="M0,0H485.238V48.305H0Z" transform="translate(304.093 4082.651)" fill="#6f88da"/>
    <path id="Trazado_1254675" data-name="Trazado 1254675" d="M0,0H993.578V359.258H0Z" transform="translate(303.211 4026.721)" fill="none"/>
    <path id="Trazado_1254676" data-name="Trazado 1254676" d="M18.981-21.706,10.944,0h-2.8L.272-21.706H3.1L9.112-4.5a10.219,10.219,0,0,1,.439,1.922h.061a9.429,9.429,0,0,1,.5-1.953l6.13-17.18ZM36.31,0H33.495l-2.3-6.085h-9.2L19.826,0H17l8.325-21.706h2.634ZM30.361-8.371l-3.406-9.249a8.856,8.856,0,0,1-.333-1.453h-.061a8.108,8.108,0,0,1-.348,1.453L22.838-8.371ZM50.766,0H39.5V-21.706h2.543V-2.3h8.719Zm18.6-8.779q0,9.143-8.25,9.143-7.9,0-7.9-8.794V-21.706h2.543V-8.6q0,6.675,5.631,6.675,5.434,0,5.434-6.448V-21.706h2.543ZM86.291,0h-11.5V-21.706h11.02v2.3H77.33v7.22h7.841V-9.9H77.33v7.6h8.961ZM101.5-8.2V0H98.961V-21.706h5.964a7.872,7.872,0,0,1,5.4,1.7,6.053,6.053,0,0,1,1.915,4.783,6.578,6.578,0,0,1-2.127,5.056A8.126,8.126,0,0,1,104.365-8.2Zm0-11.2v8.9h2.664a5.956,5.956,0,0,0,4.019-1.2,4.26,4.26,0,0,0,1.385-3.4q0-4.3-5.086-4.3ZM131.883,0h-3.027l-3.633-6.085a13.253,13.253,0,0,0-.969-1.446,5.522,5.522,0,0,0-.961-.976,3.329,3.329,0,0,0-1.06-.552,4.357,4.357,0,0,0-1.279-.174h-2.089V0h-2.543V-21.706H122.8a9.233,9.233,0,0,1,2.626.356,5.876,5.876,0,0,1,2.089,1.082,5.029,5.029,0,0,1,1.385,1.809,6,6,0,0,1,.5,2.535,6.105,6.105,0,0,1-.341,2.081,5.436,5.436,0,0,1-.969,1.688,5.872,5.872,0,0,1-1.514,1.264,7.727,7.727,0,0,1-1.99.81v.061a4.578,4.578,0,0,1,.946.552,5.206,5.206,0,0,1,.764.734,9.724,9.724,0,0,1,.719.961q.356.537.795,1.249ZM118.866-19.405v7.871h3.451a5.234,5.234,0,0,0,1.763-.288,4.082,4.082,0,0,0,1.4-.825,3.741,3.741,0,0,0,.923-1.317,4.409,4.409,0,0,0,.333-1.748,3.4,3.4,0,0,0-1.128-2.717,4.844,4.844,0,0,0-3.262-.976ZM143.311.363a9.528,9.528,0,0,1-7.394-3.042A11.285,11.285,0,0,1,133.14-10.6a11.957,11.957,0,0,1,2.831-8.355,9.886,9.886,0,0,1,7.7-3.118,9.313,9.313,0,0,1,7.243,3.027,11.326,11.326,0,0,1,2.747,7.917q0,5.313-2.815,8.4A9.7,9.7,0,0,1,143.311.363Zm.182-20.132a7,7,0,0,0-5.555,2.467,9.552,9.552,0,0,0-2.134,6.479,9.619,9.619,0,0,0,2.081,6.456,6.788,6.788,0,0,0,5.427,2.445,7.126,7.126,0,0,0,5.631-2.331A9.527,9.527,0,0,0,151-10.777a9.954,9.954,0,0,0-2-6.645A6.851,6.851,0,0,0,143.493-19.769ZM160.476-8.2V0h-2.543V-21.706H163.9a7.872,7.872,0,0,1,5.4,1.7,6.053,6.053,0,0,1,1.915,4.783,6.579,6.579,0,0,1-2.127,5.056A8.126,8.126,0,0,1,163.337-8.2Zm0-11.2v8.9h2.664a5.956,5.956,0,0,0,4.019-1.2,4.26,4.26,0,0,0,1.385-3.4q0-4.3-5.086-4.3ZM184.044.363a9.528,9.528,0,0,1-7.394-3.042,11.285,11.285,0,0,1-2.778-7.917,11.957,11.957,0,0,1,2.831-8.355,9.886,9.886,0,0,1,7.7-3.118,9.313,9.313,0,0,1,7.243,3.027,11.326,11.326,0,0,1,2.747,7.917q0,5.313-2.815,8.4A9.7,9.7,0,0,1,184.044.363Zm.182-20.132a7,7,0,0,0-5.555,2.467,9.552,9.552,0,0,0-2.134,6.479,9.619,9.619,0,0,0,2.081,6.456,6.788,6.788,0,0,0,5.427,2.445,7.126,7.126,0,0,0,5.631-2.331,9.527,9.527,0,0,0,2.059-6.524,9.954,9.954,0,0,0-2-6.645A6.851,6.851,0,0,0,184.226-19.769ZM197.652-.878v-3a5.821,5.821,0,0,0,1.234.817,9.995,9.995,0,0,0,1.514.613,12.05,12.05,0,0,0,1.6.386,8.9,8.9,0,0,0,1.483.136,5.81,5.81,0,0,0,3.5-.87A2.944,2.944,0,0,0,208.142-5.3a2.941,2.941,0,0,0-.386-1.529,4.348,4.348,0,0,0-1.067-1.188,10.589,10.589,0,0,0-1.612-1.029q-.931-.492-2.006-1.037-1.135-.575-2.119-1.166a9.183,9.183,0,0,1-1.71-1.3A5.43,5.43,0,0,1,198.1-14.16a4.99,4.99,0,0,1-.416-2.112,4.965,4.965,0,0,1,.651-2.581,5.583,5.583,0,0,1,1.71-1.809,7.754,7.754,0,0,1,2.414-1.06,11.055,11.055,0,0,1,2.762-.348,10.586,10.586,0,0,1,4.677.772v2.861a8.478,8.478,0,0,0-4.935-1.332,8.116,8.116,0,0,0-1.665.174,4.7,4.7,0,0,0-1.483.568,3.286,3.286,0,0,0-1.06,1.014,2.692,2.692,0,0,0-.409,1.514,3.116,3.116,0,0,0,.31,1.438,3.525,3.525,0,0,0,.916,1.1,9.121,9.121,0,0,0,1.476.969q.87.469,2.006,1.029,1.166.575,2.21,1.211A10.1,10.1,0,0,1,209.1-9.339a6.256,6.256,0,0,1,1.249,1.71,4.808,4.808,0,0,1,.462,2.149,5.451,5.451,0,0,1-.628,2.717,5.155,5.155,0,0,1-1.7,1.809,7.4,7.4,0,0,1-2.46,1.007,13.471,13.471,0,0,1-2.937.31A11.967,11.967,0,0,1,201.815.28Q201.058.2,200.271.038a12.6,12.6,0,0,1-1.491-.394A4.639,4.639,0,0,1,197.652-.878ZM217.678,0h-2.543V-21.706h2.543Zm18.542-19.405h-6.267V0h-2.543V-19.405H221.16v-2.3h15.061ZM242.169,0h-2.543V-21.706h2.543Zm14.456.363a9.528,9.528,0,0,1-7.394-3.042,11.285,11.285,0,0,1-2.778-7.917,11.957,11.957,0,0,1,2.831-8.355,9.886,9.886,0,0,1,7.7-3.118,9.313,9.313,0,0,1,7.243,3.027,11.326,11.326,0,0,1,2.747,7.917q0,5.313-2.815,8.4A9.7,9.7,0,0,1,256.625.363Zm.182-20.132a7,7,0,0,0-5.555,2.467,9.552,9.552,0,0,0-2.134,6.479A9.619,9.619,0,0,0,251.2-4.367a6.788,6.788,0,0,0,5.427,2.445,7.126,7.126,0,0,0,5.631-2.331,9.527,9.527,0,0,0,2.059-6.524,9.954,9.954,0,0,0-2-6.645A6.851,6.851,0,0,0,256.807-19.769ZM288.745,0h-3.118L274.456-17.3a7.229,7.229,0,0,1-.7-1.362h-.091a22.349,22.349,0,0,1,.121,2.982V0h-2.543V-21.706h3.3L285.415-4.677q.681,1.06.878,1.453h.061a22.964,22.964,0,0,1-.151-3.194V-21.706h2.543Z" transform="translate(448.277 4117.999)" fill="#fff"/>
    <path id="Trazado_1254677" data-name="Trazado 1254677" d="M0,0H485.238V48.305H0Z" transform="translate(804.845 4082.651)" fill="#3bafa7"/>
    <path id="Trazado_1254678" data-name="Trazado 1254678" d="M0,0H993.578V359.258H0Z" transform="translate(303.211 4026.721)" fill="none"/>
    <path id="Trazado_1254679" data-name="Trazado 1254679" d="M17.619-.908A12.731,12.731,0,0,1,11.625.363,9.667,9.667,0,0,1,4.208-2.619a11,11,0,0,1-2.785-7.826A11.533,11.533,0,0,1,4.556-18.86,10.635,10.635,0,0,1,12.5-22.069a12.741,12.741,0,0,1,5.116.893v2.709a10.375,10.375,0,0,0-5.146-1.3,7.9,7.9,0,0,0-6.062,2.5A9.409,9.409,0,0,0,4.087-10.6a8.952,8.952,0,0,0,2.172,6.32,7.391,7.391,0,0,0,5.7,2.354,10.691,10.691,0,0,0,5.661-1.453ZM29.987.363a9.528,9.528,0,0,1-7.394-3.042A11.285,11.285,0,0,1,19.815-10.6a11.957,11.957,0,0,1,2.831-8.355,9.886,9.886,0,0,1,7.7-3.118,9.313,9.313,0,0,1,7.243,3.027,11.326,11.326,0,0,1,2.747,7.917q0,5.313-2.815,8.4A9.7,9.7,0,0,1,29.987.363Zm.182-20.132A7,7,0,0,0,24.613-17.3a9.552,9.552,0,0,0-2.134,6.479A9.619,9.619,0,0,0,24.56-4.367a6.788,6.788,0,0,0,5.427,2.445,7.126,7.126,0,0,0,5.631-2.331,9.527,9.527,0,0,0,2.059-6.524,9.954,9.954,0,0,0-2-6.645A6.851,6.851,0,0,0,30.168-19.769ZM43.594-.878v-3a5.821,5.821,0,0,0,1.234.817,9.995,9.995,0,0,0,1.514.613,12.05,12.05,0,0,0,1.6.386,8.9,8.9,0,0,0,1.483.136,5.81,5.81,0,0,0,3.5-.87A2.944,2.944,0,0,0,54.084-5.3,2.941,2.941,0,0,0,53.7-6.827a4.348,4.348,0,0,0-1.067-1.188,10.589,10.589,0,0,0-1.612-1.029q-.931-.492-2.006-1.037-1.135-.575-2.119-1.166a9.183,9.183,0,0,1-1.71-1.3,5.43,5.43,0,0,1-1.143-1.612,4.99,4.99,0,0,1-.416-2.112,4.965,4.965,0,0,1,.651-2.581,5.583,5.583,0,0,1,1.71-1.809,7.754,7.754,0,0,1,2.414-1.06,11.055,11.055,0,0,1,2.762-.348,10.586,10.586,0,0,1,4.677.772v2.861a8.478,8.478,0,0,0-4.935-1.332,8.116,8.116,0,0,0-1.665.174,4.7,4.7,0,0,0-1.483.568,3.286,3.286,0,0,0-1.06,1.014,2.692,2.692,0,0,0-.409,1.514,3.116,3.116,0,0,0,.31,1.438,3.525,3.525,0,0,0,.916,1.1,9.121,9.121,0,0,0,1.476.969q.87.469,2.006,1.029,1.166.575,2.21,1.211a10.1,10.1,0,0,1,1.832,1.408,6.256,6.256,0,0,1,1.249,1.71,4.808,4.808,0,0,1,.462,2.149,5.451,5.451,0,0,1-.628,2.717,5.155,5.155,0,0,1-1.7,1.809A7.4,7.4,0,0,1,51.965.053a13.471,13.471,0,0,1-2.937.31A11.966,11.966,0,0,1,47.757.28Q47,.2,46.213.038a12.6,12.6,0,0,1-1.491-.394A4.639,4.639,0,0,1,43.594-.878ZM73.913-19.405H67.647V0H65.1V-19.405H58.852v-2.3H73.913ZM93.2-8.779q0,9.143-8.25,9.143-7.9,0-7.9-8.794V-21.706H79.59V-8.6q0,6.675,5.631,6.675,5.434,0,5.434-6.448V-21.706H93.2ZM120.746,0h-2.528V-14.562q0-1.726.212-4.223h-.061a13.5,13.5,0,0,1-.651,2.1L110.3,0h-1.241l-7.4-16.56a12.974,12.974,0,0,1-.651-2.225h-.061q.121,1.3.121,4.253V0H98.616V-21.706h3.36l6.66,15.137a19.381,19.381,0,0,1,1,2.6h.091q.651-1.786,1.044-2.664l6.8-15.076h3.179Zm17.21,0h-11.5V-21.706h11.02v2.3H129v7.22h7.841V-9.9H129v7.6h8.961ZM157.7,0h-3.027l-3.633-6.085a13.254,13.254,0,0,0-.969-1.446,5.522,5.522,0,0,0-.961-.976,3.329,3.329,0,0,0-1.06-.552,4.357,4.357,0,0,0-1.279-.174h-2.089V0h-2.543V-21.706h6.479a9.233,9.233,0,0,1,2.626.356,5.876,5.876,0,0,1,2.089,1.082,5.029,5.029,0,0,1,1.385,1.809,6,6,0,0,1,.5,2.535,6.105,6.105,0,0,1-.341,2.081,5.436,5.436,0,0,1-.969,1.688,5.872,5.872,0,0,1-1.514,1.264,7.728,7.728,0,0,1-1.99.81v.061a4.578,4.578,0,0,1,.946.552,5.207,5.207,0,0,1,.764.734,9.723,9.723,0,0,1,.719.961q.356.537.795,1.249ZM144.677-19.405v7.871h3.451a5.234,5.234,0,0,0,1.763-.288,4.083,4.083,0,0,0,1.4-.825,3.741,3.741,0,0,0,.923-1.317,4.409,4.409,0,0,0,.333-1.748,3.4,3.4,0,0,0-1.128-2.717,4.844,4.844,0,0,0-3.262-.976ZM168.155-.878v-3a5.821,5.821,0,0,0,1.234.817,9.995,9.995,0,0,0,1.514.613,12.05,12.05,0,0,0,1.6.386,8.9,8.9,0,0,0,1.483.136,5.81,5.81,0,0,0,3.5-.87A2.944,2.944,0,0,0,178.644-5.3a2.941,2.941,0,0,0-.386-1.529,4.348,4.348,0,0,0-1.067-1.188,10.589,10.589,0,0,0-1.612-1.029q-.931-.492-2.006-1.037-1.135-.575-2.119-1.166a9.183,9.183,0,0,1-1.71-1.3A5.43,5.43,0,0,1,168.6-14.16a4.99,4.99,0,0,1-.416-2.112,4.965,4.965,0,0,1,.651-2.581,5.583,5.583,0,0,1,1.71-1.809,7.754,7.754,0,0,1,2.414-1.06,11.055,11.055,0,0,1,2.762-.348,10.586,10.586,0,0,1,4.677.772v2.861a8.478,8.478,0,0,0-4.935-1.332,8.116,8.116,0,0,0-1.665.174,4.7,4.7,0,0,0-1.483.568,3.286,3.286,0,0,0-1.06,1.014,2.692,2.692,0,0,0-.409,1.514,3.116,3.116,0,0,0,.31,1.438,3.525,3.525,0,0,0,.916,1.1,9.121,9.121,0,0,0,1.476.969q.87.469,2.006,1.029,1.166.575,2.21,1.211A10.1,10.1,0,0,1,179.6-9.339a6.256,6.256,0,0,1,1.249,1.71,4.808,4.808,0,0,1,.462,2.149,5.451,5.451,0,0,1-.628,2.717,5.155,5.155,0,0,1-1.7,1.809,7.4,7.4,0,0,1-2.46,1.007,13.471,13.471,0,0,1-2.937.31A11.967,11.967,0,0,1,172.317.28Q171.56.2,170.773.038a12.6,12.6,0,0,1-1.491-.394A4.639,4.639,0,0,1,168.155-.878ZM197.141,0h-11.5V-21.706h11.02v2.3H188.18v7.22h7.841V-9.9H188.18v7.6h8.961Zm20.4-1.483A14.515,14.515,0,0,1,210.28.363a9.928,9.928,0,0,1-7.515-3,10.992,10.992,0,0,1-2.868-7.932,11.287,11.287,0,0,1,3.186-8.272,10.862,10.862,0,0,1,8.075-3.232,13.742,13.742,0,0,1,5.949,1.15V-18.1a11.424,11.424,0,0,0-6.236-1.665,7.791,7.791,0,0,0-5.979,2.513,9.19,9.19,0,0,0-2.331,6.509,9.2,9.2,0,0,0,2.165,6.471A7.587,7.587,0,0,0,210.6-1.922,9.074,9.074,0,0,0,215-2.937V-9.021H210.25v-2.3h7.3ZM244.716,0h-2.528V-14.562q0-1.726.212-4.223h-.061a13.5,13.5,0,0,1-.651,2.1L234.272,0h-1.241l-7.4-16.56a12.973,12.973,0,0,1-.651-2.225h-.061q.121,1.3.121,4.253V0h-2.452V-21.706h3.36l6.66,15.137a19.381,19.381,0,0,1,1,2.6h.091q.651-1.786,1.044-2.664l6.8-15.076h3.179Zm17.21,0h-11.5V-21.706h11.02v2.3h-8.477v7.22h7.841V-9.9h-7.841v7.6h8.961ZM283.6,0h-3.118L269.313-17.3a7.229,7.229,0,0,1-.7-1.362h-.091a22.349,22.349,0,0,1,.121,2.982V0H266.1V-21.706h3.3L280.272-4.677q.681,1.06.878,1.453h.061a22.964,22.964,0,0,1-.151-3.194V-21.706H283.6ZM302.13-19.405h-6.267V0H293.32V-19.405h-6.251v-2.3H302.13Z" transform="translate(960.96 4117.999)" fill="#fff"/>
  </g>
</svg>
