<svg xmlns="http://www.w3.org/2000/svg" xmlns:xlink="http://www.w3.org/1999/xlink" width="123.104" height="116.406" viewBox="0 0 123.104 116.406">
  <defs>
    <clipPath id="clip-path">
      <rect id="Rectángulo_421141" data-name="Rectángulo 421141" width="79.177" height="73.827" fill="none"/>
    </clipPath>
  </defs>
  <g id="Grupo_1015162" data-name="Grupo 1015162" transform="translate(0 -1.033)">
    <g id="Grupo_156356" data-name="Grupo 156356" transform="translate(0 47.68)">
      <g id="Grupo_156332" data-name="Grupo 156332" transform="translate(0 0)">
        <path id="Trazado_99257" data-name="Trazado 99257" d="M418.612,104.881a2.2,2.2,0,1,1-2.2-2.1A2.153,2.153,0,0,1,418.612,104.881Z" transform="translate(-414.214 -102.779)" fill="#12263f"/>
        <path id="Trazado_116526" data-name="Trazado 116526" d="M418.612,104.881a2.2,2.2,0,1,1-2.2-2.1A2.153,2.153,0,0,1,418.612,104.881Z" transform="translate(-364.418 -102.779)" fill="#12263f"/>
        <path id="Trazado_99258" data-name="Trazado 99258" d="M427.058,104.881a2.2,2.2,0,1,1-2.2-2.1A2.152,2.152,0,0,1,427.058,104.881Z" transform="translate(-412.701 -102.779)" fill="#12263f"/>
        <path id="Trazado_116527" data-name="Trazado 116527" d="M427.058,104.881a2.2,2.2,0,1,1-2.2-2.1A2.152,2.152,0,0,1,427.058,104.881Z" transform="translate(-362.905 -102.779)" fill="#12263f"/>
        <path id="Trazado_99259" data-name="Trazado 99259" d="M435.5,104.881a2.2,2.2,0,1,1-2.2-2.1A2.152,2.152,0,0,1,435.5,104.881Z" transform="translate(-411.188 -102.779)" fill="#12263f"/>
        <path id="Trazado_116531" data-name="Trazado 116531" d="M435.5,104.881a2.2,2.2,0,1,1-2.2-2.1A2.152,2.152,0,0,1,435.5,104.881Z" transform="translate(-361.392 -102.779)" fill="#12263f"/>
        <path id="Trazado_99260" data-name="Trazado 99260" d="M443.951,104.881a2.2,2.2,0,1,1-2.2-2.1A2.152,2.152,0,0,1,443.951,104.881Z" transform="translate(-409.676 -102.779)" fill="#12263f"/>
        <path id="Trazado_116532" data-name="Trazado 116532" d="M443.951,104.881a2.2,2.2,0,1,1-2.2-2.1A2.152,2.152,0,0,1,443.951,104.881Z" transform="translate(-359.879 -102.779)" fill="#12263f"/>
        <path id="Trazado_99261" data-name="Trazado 99261" d="M452.4,104.881a2.2,2.2,0,1,1-2.2-2.1A2.152,2.152,0,0,1,452.4,104.881Z" transform="translate(-408.162 -102.779)" fill="#12263f"/>
      </g>
      <g id="Grupo_156331" data-name="Grupo 156331" transform="translate(0 10.924)">
        <ellipse id="Elipse_3975" data-name="Elipse 3975" cx="2.199" cy="2.103" rx="2.199" ry="2.103" transform="translate(0 0.001)" fill="#12263f"/>
        <ellipse id="Elipse_4742" data-name="Elipse 4742" cx="2.199" cy="2.103" rx="2.199" ry="2.103" transform="translate(49.796 0.001)" fill="#12263f"/>
        <path id="Trazado_99268" data-name="Trazado 99268" d="M427.058,112.389a2.2,2.2,0,1,1-2.2-2.1A2.153,2.153,0,0,1,427.058,112.389Z" transform="translate(-412.701 -110.287)" fill="#12263f"/>
        <path id="Trazado_116528" data-name="Trazado 116528" d="M427.058,112.389a2.2,2.2,0,1,1-2.2-2.1A2.153,2.153,0,0,1,427.058,112.389Z" transform="translate(-362.904 -110.287)" fill="#12263f"/>
        <ellipse id="Elipse_3976" data-name="Elipse 3976" cx="2.199" cy="2.103" rx="2.199" ry="2.103" transform="translate(19.918 0.001)" fill="#12263f"/>
        <ellipse id="Elipse_4743" data-name="Elipse 4743" cx="2.199" cy="2.103" rx="2.199" ry="2.103" transform="translate(69.715 0.001)" fill="#12263f"/>
        <path id="Trazado_99269" data-name="Trazado 99269" d="M443.951,112.389a2.2,2.2,0,1,1-2.2-2.1A2.154,2.154,0,0,1,443.951,112.389Z" transform="translate(-409.676 -110.287)" fill="#12263f"/>
        <path id="Trazado_116533" data-name="Trazado 116533" d="M443.951,112.389a2.2,2.2,0,1,1-2.2-2.1A2.154,2.154,0,0,1,443.951,112.389Z" transform="translate(-359.879 -110.287)" fill="#12263f"/>
        <path id="Trazado_99270" data-name="Trazado 99270" d="M452.4,112.389a2.2,2.2,0,1,1-2.2-2.1A2.153,2.153,0,0,1,452.4,112.389Z" transform="translate(-408.162 -110.287)" fill="#12263f"/>
      </g>
      <g id="Grupo_156330" data-name="Grupo 156330" transform="translate(0 21.85)">
        <path id="Trazado_99274" data-name="Trazado 99274" d="M418.612,119.9a2.2,2.2,0,1,1-2.2-2.1A2.154,2.154,0,0,1,418.612,119.9Z" transform="translate(-414.214 -117.794)" fill="#12263f"/>
        <path id="Trazado_116529" data-name="Trazado 116529" d="M418.612,119.9a2.2,2.2,0,1,1-2.2-2.1A2.154,2.154,0,0,1,418.612,119.9Z" transform="translate(-364.418 -117.794)" fill="#12263f"/>
        <path id="Trazado_99275" data-name="Trazado 99275" d="M427.058,119.9a2.2,2.2,0,1,1-2.2-2.1A2.153,2.153,0,0,1,427.058,119.9Z" transform="translate(-412.701 -117.794)" fill="#12263f"/>
        <path id="Trazado_116530" data-name="Trazado 116530" d="M427.058,119.9a2.2,2.2,0,1,1-2.2-2.1A2.153,2.153,0,0,1,427.058,119.9Z" transform="translate(-362.905 -117.794)" fill="#12263f"/>
        <path id="Trazado_99276" data-name="Trazado 99276" d="M435.5,119.9a2.2,2.2,0,1,1-2.2-2.1A2.153,2.153,0,0,1,435.5,119.9Z" transform="translate(-411.188 -117.794)" fill="#12263f"/>
        <path id="Trazado_116534" data-name="Trazado 116534" d="M435.5,119.9a2.2,2.2,0,1,1-2.2-2.1A2.153,2.153,0,0,1,435.5,119.9Z" transform="translate(-361.392 -117.794)" fill="#12263f"/>
        <path id="Trazado_99277" data-name="Trazado 99277" d="M443.951,119.9a2.2,2.2,0,1,1-2.2-2.1A2.154,2.154,0,0,1,443.951,119.9Z" transform="translate(-409.676 -117.794)" fill="#12263f"/>
        <path id="Trazado_116535" data-name="Trazado 116535" d="M443.951,119.9a2.2,2.2,0,1,1-2.2-2.1A2.154,2.154,0,0,1,443.951,119.9Z" transform="translate(-359.879 -117.794)" fill="#12263f"/>
        <path id="Trazado_99278" data-name="Trazado 99278" d="M452.4,119.9a2.2,2.2,0,1,1-2.2-2.1A2.153,2.153,0,0,1,452.4,119.9Z" transform="translate(-408.162 -117.794)" fill="#12263f"/>
      </g>
      <g id="Grupo_156327" data-name="Grupo 156327" transform="translate(0 54.626)">
        <path id="Trazado_116550" data-name="Trazado 116550" d="M418.612,119.9a2.2,2.2,0,1,1-2.2-2.1A2.154,2.154,0,0,1,418.612,119.9Z" transform="translate(-414.214 -117.794)" fill="#12263f"/>
        <path id="Trazado_116551" data-name="Trazado 116551" d="M418.612,119.9a2.2,2.2,0,1,1-2.2-2.1A2.154,2.154,0,0,1,418.612,119.9Z" transform="translate(-364.418 -117.794)" fill="#12263f"/>
        <path id="Trazado_116552" data-name="Trazado 116552" d="M427.058,119.9a2.2,2.2,0,1,1-2.2-2.1A2.153,2.153,0,0,1,427.058,119.9Z" transform="translate(-412.701 -117.794)" fill="#12263f"/>
        <path id="Trazado_116553" data-name="Trazado 116553" d="M427.058,119.9a2.2,2.2,0,1,1-2.2-2.1A2.153,2.153,0,0,1,427.058,119.9Z" transform="translate(-362.905 -117.794)" fill="#12263f"/>
        <path id="Trazado_116554" data-name="Trazado 116554" d="M435.5,119.9a2.2,2.2,0,1,1-2.2-2.1A2.153,2.153,0,0,1,435.5,119.9Z" transform="translate(-411.188 -117.794)" fill="#12263f"/>
        <path id="Trazado_116555" data-name="Trazado 116555" d="M435.5,119.9a2.2,2.2,0,1,1-2.2-2.1A2.153,2.153,0,0,1,435.5,119.9Z" transform="translate(-361.392 -117.794)" fill="#12263f"/>
        <path id="Trazado_116556" data-name="Trazado 116556" d="M443.951,119.9a2.2,2.2,0,1,1-2.2-2.1A2.154,2.154,0,0,1,443.951,119.9Z" transform="translate(-409.676 -117.794)" fill="#12263f"/>
        <path id="Trazado_116557" data-name="Trazado 116557" d="M443.951,119.9a2.2,2.2,0,1,1-2.2-2.1A2.154,2.154,0,0,1,443.951,119.9Z" transform="translate(-359.879 -117.794)" fill="#12263f"/>
        <path id="Trazado_116558" data-name="Trazado 116558" d="M452.4,119.9a2.2,2.2,0,1,1-2.2-2.1A2.153,2.153,0,0,1,452.4,119.9Z" transform="translate(-408.162 -117.794)" fill="#12263f"/>
      </g>
      <g id="Grupo_156329" data-name="Grupo 156329" transform="translate(0 32.776)">
        <ellipse id="Elipse_3980" data-name="Elipse 3980" cx="2.199" cy="2.103" rx="2.199" ry="2.103" transform="translate(0 0.002)" fill="#12263f"/>
        <ellipse id="Elipse_4744" data-name="Elipse 4744" cx="2.199" cy="2.103" rx="2.199" ry="2.103" transform="translate(49.796 0.002)" fill="#12263f"/>
        <path id="Trazado_99285" data-name="Trazado 99285" d="M427.058,127.406a2.2,2.2,0,1,1-2.2-2.1A2.151,2.151,0,0,1,427.058,127.406Z" transform="translate(-412.701 -125.302)" fill="#12263f"/>
        <path id="Trazado_116536" data-name="Trazado 116536" d="M427.058,127.406a2.2,2.2,0,1,1-2.2-2.1A2.151,2.151,0,0,1,427.058,127.406Z" transform="translate(-362.904 -125.302)" fill="#12263f"/>
        <ellipse id="Elipse_3981" data-name="Elipse 3981" cx="2.199" cy="2.103" rx="2.199" ry="2.103" transform="translate(19.918 0.002)" fill="#12263f"/>
        <ellipse id="Elipse_4745" data-name="Elipse 4745" cx="2.199" cy="2.103" rx="2.199" ry="2.103" transform="translate(69.715 0.002)" fill="#12263f"/>
        <path id="Trazado_99286" data-name="Trazado 99286" d="M443.951,127.406a2.2,2.2,0,1,1-2.2-2.1A2.152,2.152,0,0,1,443.951,127.406Z" transform="translate(-409.676 -125.302)" fill="#12263f"/>
        <path id="Trazado_116537" data-name="Trazado 116537" d="M443.951,127.406a2.2,2.2,0,1,1-2.2-2.1A2.152,2.152,0,0,1,443.951,127.406Z" transform="translate(-359.879 -125.302)" fill="#12263f"/>
        <path id="Trazado_99287" data-name="Trazado 99287" d="M452.4,127.406a2.2,2.2,0,1,1-2.2-2.1A2.151,2.151,0,0,1,452.4,127.406Z" transform="translate(-408.162 -125.302)" fill="#12263f"/>
      </g>
      <g id="Grupo_156326" data-name="Grupo 156326" transform="translate(0 65.553)">
        <ellipse id="Elipse_4754" data-name="Elipse 4754" cx="2.199" cy="2.103" rx="2.199" ry="2.103" transform="translate(0 0.001)" fill="#12263f"/>
        <ellipse id="Elipse_4750" data-name="Elipse 4750" cx="2.199" cy="2.103" rx="2.199" ry="2.103" transform="translate(49.796 0.001)" fill="#12263f"/>
        <path id="Trazado_116548" data-name="Trazado 116548" d="M427.058,127.406a2.2,2.2,0,1,1-2.2-2.1A2.151,2.151,0,0,1,427.058,127.406Z" transform="translate(-412.701 -125.302)" fill="#12263f"/>
        <path id="Trazado_116542" data-name="Trazado 116542" d="M427.058,127.406a2.2,2.2,0,1,1-2.2-2.1A2.151,2.151,0,0,1,427.058,127.406Z" transform="translate(-362.904 -125.302)" fill="#12263f"/>
        <ellipse id="Elipse_4751" data-name="Elipse 4751" cx="2.199" cy="2.103" rx="2.199" ry="2.103" transform="translate(19.918 0.001)" fill="#12263f"/>
        <ellipse id="Elipse_4752" data-name="Elipse 4752" cx="2.199" cy="2.103" rx="2.199" ry="2.103" transform="translate(69.715 0.001)" fill="#12263f"/>
        <path id="Trazado_116543" data-name="Trazado 116543" d="M443.951,127.406a2.2,2.2,0,1,1-2.2-2.1A2.152,2.152,0,0,1,443.951,127.406Z" transform="translate(-409.676 -125.302)" fill="#12263f"/>
        <path id="Trazado_116544" data-name="Trazado 116544" d="M443.951,127.406a2.2,2.2,0,1,1-2.2-2.1A2.152,2.152,0,0,1,443.951,127.406Z" transform="translate(-359.879 -125.302)" fill="#12263f"/>
        <path id="Trazado_116545" data-name="Trazado 116545" d="M452.4,127.406a2.2,2.2,0,1,1-2.2-2.1A2.151,2.151,0,0,1,452.4,127.406Z" transform="translate(-408.162 -125.302)" fill="#12263f"/>
      </g>
      <g id="Grupo_156328" data-name="Grupo 156328" transform="translate(0 43.702)">
        <ellipse id="Elipse_3985" data-name="Elipse 3985" cx="2.199" cy="2.103" rx="2.199" ry="2.103" transform="translate(0 0.001)" fill="#12263f"/>
        <ellipse id="Elipse_4746" data-name="Elipse 4746" cx="2.199" cy="2.103" rx="2.199" ry="2.103" transform="translate(49.796 0.001)" fill="#12263f"/>
        <path id="Trazado_99291" data-name="Trazado 99291" d="M427.058,134.914a2.2,2.2,0,1,1-2.2-2.1A2.151,2.151,0,0,1,427.058,134.914Z" transform="translate(-412.701 -132.81)" fill="#12263f"/>
        <path id="Trazado_116538" data-name="Trazado 116538" d="M427.058,134.914a2.2,2.2,0,1,1-2.2-2.1A2.151,2.151,0,0,1,427.058,134.914Z" transform="translate(-362.904 -132.81)" fill="#12263f"/>
        <ellipse id="Elipse_3986" data-name="Elipse 3986" cx="2.199" cy="2.103" rx="2.199" ry="2.103" transform="translate(19.918 0.001)" fill="#12263f"/>
        <ellipse id="Elipse_4747" data-name="Elipse 4747" cx="2.199" cy="2.103" rx="2.199" ry="2.103" transform="translate(69.715 0.001)" fill="#12263f"/>
        <path id="Trazado_99292" data-name="Trazado 99292" d="M443.951,134.914a2.2,2.2,0,1,1-2.2-2.1A2.152,2.152,0,0,1,443.951,134.914Z" transform="translate(-409.676 -132.81)" fill="#12263f"/>
        <path id="Trazado_116539" data-name="Trazado 116539" d="M443.951,134.914a2.2,2.2,0,1,1-2.2-2.1A2.152,2.152,0,0,1,443.951,134.914Z" transform="translate(-359.879 -132.81)" fill="#12263f"/>
        <path id="Trazado_99293" data-name="Trazado 99293" d="M452.4,134.914a2.2,2.2,0,1,1-2.2-2.1A2.151,2.151,0,0,1,452.4,134.914Z" transform="translate(-408.162 -132.81)" fill="#12263f"/>
      </g>
    </g>
    <g id="Grupo_1175837" data-name="Grupo 1175837" transform="translate(-828.044 -194.967)">
      <circle id="Elipse_11383" data-name="Elipse 11383" cx="54.197" cy="54.197" r="54.197" transform="translate(842.755 196)" fill="#c5cff0" opacity="0.71"/>
      <circle id="Elipse_11384" data-name="Elipse 11384" cx="45.408" cy="45.408" r="45.408" transform="translate(851.543 204.788)" fill="#fff"/>
      <g id="Grupo_1175373" data-name="Grupo 1175373" transform="translate(857.364 213.284)">
        <g id="Grupo_1175373-2" data-name="Grupo 1175373" transform="translate(0 0)" clip-path="url(#clip-path)">
          <path id="Trazado_1039108" data-name="Trazado 1039108" d="M35.984,19.812l-1.193-2.069a.666.666,0,0,0-.909-.244l-1.612.931a6.354,6.354,0,0,0-2.5-1.449V15.128a.665.665,0,0,0-.665-.665H26.719a.665.665,0,0,0-.665.665v1.854a6.379,6.379,0,0,0-2.5,1.449l-1.61-.931a.666.666,0,0,0-.909.244l-1.2,2.069a.666.666,0,0,0,.244.909l1.61.929a6.5,6.5,0,0,0-.168,1.44,6.39,6.39,0,0,0,.17,1.444l-1.612.931a.666.666,0,0,0-.244.909l1.2,2.069a.666.666,0,0,0,.909.244l1.614-.934A6.368,6.368,0,0,0,26.054,29.2v1.859a.665.665,0,0,0,.665.665h2.389a.665.665,0,0,0,.665-.665V29.2a6.384,6.384,0,0,0,2.494-1.446l1.614.934a.666.666,0,0,0,.909-.244l1.193-2.069a.665.665,0,0,0-.242-.909l-1.612-.931a6.195,6.195,0,0,0,0-2.884l1.612-.929a.665.665,0,0,0,.242-.909m-8.072,6.361A3.083,3.083,0,1,1,31,23.09a3.083,3.083,0,0,1-3.086,3.083M35.1,42.387a.445.445,0,0,1-.446-.446V37.793c.022-.815,1.3-2.712,3.491-5.717l.067-.094c.358-.493.71-.972,1.03-1.426a15.074,15.074,0,0,0,2.04-11.686,12.216,12.216,0,0,0-6.536-8.112C26.92,6.762,20.4,9.785,16.913,13.95A11.847,11.847,0,0,0,14.569,21.8a2.857,2.857,0,0,1-.7,1.95l-2.277,2.638A1.894,1.894,0,0,0,12,29.219l1.536,1.021a.449.449,0,0,1,.2.372V35.4a3.093,3.093,0,0,0,3.09,3.09l2.7.054a.444.444,0,0,1,.434.446v2.953a.446.446,0,0,1-.891,0V39.425l-2.253-.045A3.984,3.984,0,0,1,12.84,35.4V30.851l-1.332-.887a2.787,2.787,0,0,1-.593-4.156l2.277-2.638a1.953,1.953,0,0,0,.486-1.339,12.728,12.728,0,0,1,2.553-8.455c3.71-4.427,10.627-7.649,18.919-3.415a13.075,13.075,0,0,1,7,8.695,16.017,16.017,0,0,1-2.179,12.414c-.325.457-.676.94-1.037,1.435l-.067.094c-.817,1.12-3.3,4.521-3.321,5.206v4.136a.445.445,0,0,1-.446.446" transform="translate(12.688 9.89)"/>
          <path id="Trazado_1039109" data-name="Trazado 1039109" d="M36.309,69.149l-.054-2.376h.054c.251,0,.5,0,.75-.011l.054,2.378c-.266.007-.535.009-.8.009M33.8,69.057c-.289-.018-.575-.045-.86-.072l.228-2.367c.266.027.531.049.8.069Zm5.775-.063-.228-2.367c.269-.027.535-.056.8-.087l.28,2.362c-.284.034-.569.065-.853.092M30.5,68.652c-.287-.047-.571-.1-.853-.159l.468-2.331c.26.054.519.1.781.146Zm12.362-.134L42.4,66.184c.262-.052.524-.107.781-.163l.519,2.318c-.28.063-.562.123-.844.179M27.25,67.927c-.278-.076-.553-.159-.826-.242l.69-2.275c.255.078.513.152.773.224Zm18.836-.208L45.4,65.441c.258-.076.513-.159.768-.242l.741,2.259c-.273.09-.549.177-.826.26m-21.993-.837c-.266-.1-.531-.21-.795-.318l.911-2.2c.246.1.495.2.743.3Zm25.13-.278-.9-2.2c.246-.1.493-.206.737-.316l.965,2.174c-.264.116-.531.231-.8.34m-28.16-1.068c-.258-.13-.513-.262-.766-.4l1.126-2.094c.235.125.47.249.708.367Zm31.174-.354-1.12-2.1c.237-.125.47-.255.7-.387l1.173,2.069c-.249.141-.5.28-.757.414M18.174,63.894c-.244-.152-.484-.309-.723-.468l1.326-1.975c.222.148.446.293.672.439Zm36.917-.419L53.772,61.5c.222-.148.443-.3.663-.455L55.8,62.989c-.233.163-.47.327-.71.486M15.46,61.984c-.226-.177-.452-.356-.674-.54L16.3,59.61c.206.168.414.334.625.5Zm42.3-.486-1.5-1.841c.206-.168.412-.34.614-.515l1.552,1.8c-.219.188-.439.374-.663.553M12.944,59.812c-.208-.2-.414-.4-.616-.6l1.679-1.679c.19.188.383.376.575.56Zm47.289-.544-1.682-1.682c.193-.19.381-.383.564-.575l1.717,1.646c-.2.206-.4.41-.6.611m-49.58-1.859c-.19-.219-.376-.439-.558-.665l1.838-1.5c.168.2.338.41.513.609Zm51.814-.6L60.635,55.3c.17-.206.336-.414.5-.625l1.872,1.467c-.177.226-.358.45-.542.672M8.6,54.787c-.166-.235-.327-.472-.488-.712l1.977-1.321c.15.224.3.443.457.663Zm55.856-.638-1.973-1.326c.15-.222.3-.446.441-.672l2,1.283c-.155.237-.309.479-.47.714M6.819,51.984c-.143-.251-.282-.5-.419-.759L8.5,50.1c.125.235.253.47.385.7Zm59.354-.676-2.094-1.126c.128-.235.251-.472.372-.71l2.12,1.075c-.13.255-.262.508-.4.761M5.317,49.01c-.116-.264-.231-.526-.34-.795l2.194-.909c.105.249.21.495.318.741Zm62.285-.7L65.409,47.4c.1-.246.2-.493.3-.741l2.215.862c-.1.266-.21.533-.32.795M4.114,45.9c-.09-.273-.177-.549-.26-.826l2.275-.687c.078.257.159.513.244.768ZM68.73,45.19l-2.273-.7c.078-.255.152-.511.224-.766l2.291.634c-.076.28-.157.555-.242.831M3.228,42.7c-.063-.28-.121-.56-.177-.84l2.331-.464c.054.264.11.528.166.788Zm66.317-.73-2.331-.47c.054-.262.1-.526.15-.788l2.34.412c-.049.282-.1.564-.159.846M2.661,39.422c-.036-.284-.067-.571-.094-.858l2.367-.228c.025.264.054.531.087.795Zm67.379-.743-2.367-.24c.029-.264.051-.528.072-.795l2.371.175c-.022.287-.047.575-.076.86M2.417,36.11c-.007-.287-.011-.573-.011-.862l0-.235,2.376.02v.215c0,.269,0,.535.009.8Zm65.415-.755,0-.128c0-.215,0-.446-.009-.676L70.2,34.5c0,.246.007.5.007.748ZM4.883,32.745l-2.371-.188c.025-.289.049-.573.078-.858l2.365.244c-.027.266-.052.533-.072.8M67.7,32.266c-.027-.266-.056-.533-.087-.8l2.362-.282c.034.284.063.571.09.855ZM5.274,29.677l-2.34-.416c.049-.284.1-.567.161-.849l2.329.479c-.054.262-.1.524-.15.786m61.98-.472c-.049-.262-.1-.522-.161-.781l2.32-.517c.063.28.121.564.177.846ZM5.966,26.665l-2.288-.645c.078-.278.159-.553.244-.826l2.273.7c-.081.258-.157.515-.228.77M66.518,26.2c-.076-.258-.157-.513-.24-.766l2.259-.737c.09.273.175.546.258.822ZM6.952,23.737l-2.215-.869c.105-.266.215-.531.325-.795L7.252,23c-.1.244-.2.49-.3.739m58.534-.448c-.1-.251-.206-.5-.313-.743l2.176-.952c.116.262.228.528.338.793ZM8.217,20.924,6.1,19.843c.13-.258.264-.511.4-.761l2.089,1.135c-.128.233-.253.47-.374.708m55.957-.437c-.128-.235-.255-.47-.387-.7l2.071-1.169c.141.249.28.5.414.759ZM9.757,18.246l-2-1.283c.157-.242.316-.481.477-.721L10.2,17.581c-.15.219-.3.441-.439.665m52.833-.414c-.148-.224-.3-.448-.455-.667l1.95-1.364c.163.237.325.472.484.712Zm-51.04-2.1-1.87-1.469c.179-.228.358-.45.542-.672l1.832,1.516c-.17.208-.338.414-.5.625m49.2-.392c-.168-.208-.34-.412-.515-.618l1.807-1.543q.279.326.551.658ZM13.579,13.4l-1.713-1.648q.3-.309.6-.611l1.67,1.688c-.19.188-.378.378-.562.571m45.106-.363c-.188-.19-.378-.376-.573-.562l1.65-1.713c.206.2.412.4.614.6ZM15.828,11.282,14.285,9.473c.217-.186.437-.369.661-.551l1.5,1.845c-.208.168-.414.34-.618.515m40.578-.325c-.206-.17-.414-.338-.627-.5l1.471-1.87c.226.177.448.358.67.542ZM18.275,9.386,16.911,7.438c.235-.163.475-.325.714-.484l1.312,1.982c-.224.148-.443.3-.663.45M53.934,9.1c-.224-.15-.448-.3-.674-.441l1.285-2c.24.155.479.311.717.472ZM20.893,7.742,19.73,5.669c.249-.141.5-.278.757-.412l1.111,2.1c-.237.125-.472.255-.705.385m30.4-.24c-.235-.125-.47-.251-.71-.369l1.079-2.12c.255.13.508.264.759.4ZM23.66,6.363l-.952-2.179q.393-.171.793-.336l.9,2.2c-.251.1-.5.208-.743.316M48.508,6.17c-.246-.1-.493-.2-.743-.3l.869-2.212c.266.105.531.213.795.322ZM26.555,5.261,25.819,3c.273-.087.549-.175.824-.258l.676,2.279c-.255.076-.511.155-.764.24m19.053-.143c-.258-.081-.517-.155-.777-.231L45.485,2.6c.275.076.549.157.82.24ZM29.54,4.451l-.517-2.32c.282-.063.564-.121.849-.177l.448,2.335c-.26.052-.522.105-.779.161m13.074-.1c-.262-.052-.524-.1-.788-.148l.408-2.342c.284.049.567.1.849.159ZM32.583,3.94l-.278-2.36c.284-.034.569-.065.858-.092l.217,2.369c-.266.025-.531.052-.8.083m6.975-.052c-.266-.027-.535-.052-.8-.074l.19-2.369c.284.022.569.047.853.076ZM35.669,3.73,35.62,1.352c.228,0,.459-.007.69-.007h.166V3.723h-.166c-.215,0-.428,0-.64.007" transform="translate(2.981 1.666)" fill="#6f88da"/>
          <path id="Trazado_1039110" data-name="Trazado 1039110" d="M19.082,38.691l-.213-2.369A32.978,32.978,0,0,0,39.06,26.949l1.67,1.691A35.367,35.367,0,0,1,19.082,38.691" transform="translate(23.382 33.394)" fill="#6f88da"/>
          <path id="Trazado_1039111" data-name="Trazado 1039111" d="M52.09,33.694A32.861,32.861,0,0,0,16.406,3.918L16.086.367A36.419,36.419,0,0,1,55.639,33.374Z" transform="translate(19.933 0.267)" fill="#6f88da"/>
          <path id="Trazado_1039112" data-name="Trazado 1039112" d="M33.979,62.667a29.736,29.736,0,1,1,2.691-.121q-1.357.121-2.691.121M34.051,4.4q-1.3,0-2.615.119A28.441,28.441,0,1,0,34.051,4.4" transform="translate(5.291 3.975)" fill="#d0d0d0"/>
          <path id="Trazado_1039113" data-name="Trazado 1039113" d="M46.584,32.555H43.017a25.5,25.5,0,0,0-25.47-25.47V3.518A29.071,29.071,0,0,1,46.584,32.555" transform="translate(21.744 4.359)" fill="#d0d0d0"/>
          <rect id="Rectángulo_421136" data-name="Rectángulo 421136" width="1.189" height="4.201" transform="translate(38.697)" fill="#596daf"/>
          <rect id="Rectángulo_421137" data-name="Rectángulo 421137" width="1.189" height="4.201" transform="translate(38.697 69.627)" fill="#596daf"/>
          <rect id="Rectángulo_421138" data-name="Rectángulo 421138" width="16.086" height="1.189" transform="translate(0 36.319)" fill="#6f88da"/>
          <rect id="Rectángulo_421139" data-name="Rectángulo 421139" width="16.086" height="1.189" transform="translate(62.495 36.319)" fill="#6f88da"/>
          <rect id="Rectángulo_421140" data-name="Rectángulo 421140" width="1.189" height="7.866" transform="translate(77.988 32.981)" fill="#6f88da"/>
          <path id="Trazado_1039114" data-name="Trazado 1039114" d="M14.074,38.452a38.849,38.849,0,0,1-6.411-5.513A38.611,38.611,0,0,1,2.7,26.351l3.061-1.829A35.169,35.169,0,0,0,10.267,30.5a35.016,35.016,0,0,0,5.824,5.007Z" transform="translate(3.347 30.387)" fill="#d0d0d0"/>
          <path id="Trazado_1039115" data-name="Trazado 1039115" d="M33.355,59.744l-.018-1.189.468-.009.036,1.187Zm-1.216-.007-.479-.02.052-1.189.472.02Zm2.911-.067-.087-1.187.464-.038.105,1.185Zm-4.6-.036-.477-.047.123-1.182.468.047Zm6.294-.141-.157-1.18.461-.065.172,1.176Zm-7.976-.06-.481-.076.2-1.173.455.074Zm9.649-.222-.233-1.164.459-.1.246,1.164Zm-11.321-.085-.472-.105.271-1.158.452.1Zm12.976-.3-.3-1.149.452-.123.316,1.146Zm-14.624-.11-.466-.134.34-1.14.448.13ZM41.7,58.349l-.374-1.129.443-.152.394,1.124Zm-17.873-.137-.455-.161.408-1.117.439.159ZM43.3,57.764l-.443-1.1.434-.177.459,1.095Zm-21.059-.157-.439-.186.472-1.09.43.184Zm22.62-.524-.513-1.073.423-.206.526,1.068ZM20.7,56.909l-.434-.217.544-1.059.412.21Zm25.67-.6L45.8,55.27l.408-.228.591,1.03ZM19.2,56.116l-.419-.242.6-1.023.405.233Zm28.634-.672L47.2,54.439l.39-.251.654.992Zm-30.081-.21-.4-.269.667-.983.39.258Zm31.487-.741-.7-.963.374-.278.714.952Zm-32.88-.228-.385-.291.725-.943.369.28Zm34.226-.806-.752-.923c.121-.1.24-.193.354-.293l.775.9c-.125.105-.251.21-.376.313m-35.551-.246c-.125-.1-.251-.21-.372-.318L15.448,52c.114.1.231.2.347.3Zm36.834-.871-.808-.871.334-.318.831.853Zm-38.1-.26c-.119-.112-.235-.224-.352-.34l.835-.844c.11.107.219.215.331.318Zm39.306-.929-.858-.822.32-.338.871.808Zm-40.5-.28-.327-.356.887-.8.311.345Zm41.644-.981-.911-.768.3-.358.916.757Zm-42.761-.3-.307-.378.931-.737.291.358Zm43.818-1.032-.954-.712.273-.374.965.7Zm-44.857-.311-.284-.394.974-.683.273.378Zm45.829-1.079-.994-.649.251-.39,1.005.634ZM9.458,46.848l-.255-.41,1.01-.625.249.394Zm47.676-1.117L56.1,45.142l.231-.408,1.041.575ZM8.59,45.391l-.233-.432L9.409,44.4l.219.405Zm49.342-1.153-1.066-.528.2-.416,1.075.511ZM7.808,43.875l-.2-.439,1.082-.493.2.421ZM58.635,42.7l-1.095-.461.177-.43,1.1.446Zm-51.51-.376-.177-.455,1.108-.425.17.43Zm52.121-1.207-1.124-.394.152-.439,1.131.369Zm-52.708-.39-.15-.468L7.524,39.9l.143.441Zm53.218-1.229-1.144-.322.123-.45,1.149.307Zm-53.706-.4-.121-.468,1.151-.289.116.452Zm54.123-1.245-1.164-.253.094-.452,1.167.231ZM5.661,37.442l-.092-.479,1.169-.213.09.457Zm54.821-1.263L59.3,36l.069-.461,1.176.163ZM5.376,35.767l-.063-.481,1.18-.143.06.459Zm55.312-1.272-1.182-.11.036-.464,1.189.09ZM5.2,34.078l-.031-.486,1.182-.069.034.464Zm55.6-1.279L59.6,32.762l.011-.464,1.189.018ZM5.114,32.383l0-.486L6.3,31.792l0,.569Zm54.492-1.247-.018-.464,1.191-.054.016.484Zm-53.276-.5-1.191-.056.027-.484,1.187.074Zm53.182-1.122-.045-.461,1.182-.125.047.484Zm-53.059-.5-1.182-.121.056-.484,1.18.148ZM59.32,27.9l-.074-.459,1.176-.2.076.477ZM6.675,27.4,5.5,27.2l.087-.475,1.167.219Zm52.354-1.1-.1-.455,1.155-.269.107.475ZM7,25.809,5.84,25.541l.114-.472,1.153.291Zm51.646-1.086-.13-.446,1.142-.338.132.466ZM7.414,24.237,6.274,23.9l.143-.466,1.133.363Zm50.744-1.064L58,22.735l1.115-.41.163.457ZM7.927,22.7l-1.111-.412.168-.452,1.111.428Zm49.651-1.048-.181-.428,1.086-.479.193.448ZM8.534,21.194l-1.088-.479.2-.441,1.082.5Zm48.375-1.028L56.7,19.75l1.057-.542.222.434ZM9.23,19.73l-1.057-.544.224-.428,1.05.56Zm46.915-1-.233-.4,1.019-.611.246.423ZM10.016,18.31,8.995,17.7l.251-.414,1.01.625Zm45.28-.972-.255-.385.981-.67.269.405Zm-44.409-.4L9.9,16.275l.278-.4.97.687ZM54.367,16l-.28-.372.94-.725.293.387Zm-42.528-.378L10.9,14.9l.3-.381.929.743Zm41.516-.9-.3-.356.9-.777.313.365Zm-40.486-.358-.893-.784.32-.361.884.8Zm39.4-.853-.32-.336.846-.833.336.349Zm-38.292-.343-.851-.828c.114-.119.231-.233.347-.347l.831.853c-.11.105-.219.215-.327.322m37.137-.8-.338-.309.788-.889.361.327Zm-35.959-.322-.8-.88c.121-.11.244-.217.367-.325l.777.9c-.114.1-.231.2-.343.3m34.736-.748c-.119-.1-.237-.195-.358-.289l.737-.936c.125.1.253.2.381.309Zm-33.5-.3-.739-.931.383-.3.723.945Zm32.215-.7-.376-.266.683-.976.392.282ZM17.7,10.034l-.685-.97.4-.278.665.985ZM47.267,9.4l-.394-.244.62-1.017L47.9,8.4ZM19.06,9.143l-.625-1.012c.139-.087.278-.17.419-.253l.6,1.026ZM45.87,8.57l-.405-.222.56-1.05.423.231Zm-25.4-.233-.558-1.05.432-.224.537,1.059ZM44.43,7.824l-.419-.2.5-1.079.434.206Zm-22.5-.206-.488-1.086.443-.195.472,1.09Zm21.017-.446L42.513,7l.432-1.108.446.177ZM23.433,6.989l-.419-1.111.45-.17.41,1.117Zm17.989-.378-.446-.146.367-1.131.455.148ZM24.971,6.454l-.349-1.135.461-.141.338,1.14Zm14.895-.311-.452-.119.3-1.151.466.121Zm-13.33-.128-.28-1.155.472-.11.262,1.158Zm11.747-.244-.455-.09.217-1.169.475.092Zm-10.152-.1-.219-1.169.481-.083L28.585,5.6ZM36.682,5.5l-.461-.06.148-1.18.481.063Zm-6.946-.067L29.6,4.251l.481-.054L30.2,5.379Zm5.329-.11L34.6,5.287,34.68,4.1l.481.034Zm-3.717-.034L31.29,4.1l.475-.025.054,1.189Zm2.1-.043-.468,0,.009-1.189.477,0Z" transform="translate(6.332 5.017)" fill="#6f88da"/>
        </g>
      </g>
    </g>
  </g>
</svg>
