<svg xmlns="http://www.w3.org/2000/svg" xmlns:xlink="http://www.w3.org/1999/xlink" width="560.158" height="742.433" viewBox="0 0 560.158 742.433">
  <defs>
    <clipPath id="clip-path">
      <rect id="Rectángulo_430407" data-name="Rectángulo 430407" width="560.158" height="742.294" fill="none"/>
    </clipPath>
  </defs>
  <g id="Grupo_1218559" data-name="Grupo 1218559" transform="translate(0 0.139)">
    <path id="Trazado_1255477" data-name="Trazado 1255477" d="M2.336,0H5.92L9.984-19.2h3.68l.7-3.2H3.424l-.7,3.2H6.4ZM11.3,0H14.88l2.144-10.08h3.712L18.592,0h3.584l4.768-22.4H23.36l-1.952,9.12H17.7l1.952-9.12H16.064ZM24.8,0h9.6l.672-3.2H29.088l1.472-6.88H35.3l.672-3.2H31.232L32.48-19.2h5.984l.7-3.2h-9.6ZM43.808,0h4.8l8.1-22.4H53.312L47.3-4.8l1.472-17.6h-3.52ZM59.456-22.4,51.04,0h3.392l1.536-4.384h3.968L59.616,0H63.2l1.12-22.4Zm-2.4,14.976,3.872-10.912-.8,10.912ZM64.864,0h9.312l.672-3.2H69.12l4.1-19.2H69.632Zm16.9.32C84.736.32,86.624-1.472,87.3-4.7l3.776-17.7H87.616L83.872-4.832c-.288,1.44-.928,1.952-1.888,1.952-1.088,0-1.76-.384-1.76-1.536a3.587,3.587,0,0,1,.1-.768L84-22.4H80.416L76.864-5.824A8.4,8.4,0,0,0,76.672-4.1C76.672-1.152,78.688.32,81.76.32ZM88.736,0h9.6l.672-3.2H93.024L94.5-10.08h4.736l.672-3.2H95.168l1.248-5.92H102.4l.7-3.2H93.5Zm16.608,0h3.616l1.92-9.12h1.792c3.68,0,5.5-1.824,6.272-5.408l.48-2.272a7.536,7.536,0,0,0,.192-1.632c0-2.528-1.536-3.968-4.352-3.968h-5.152Zm6.24-12.32,1.44-6.88h1.7c.768,0,1.28.288,1.28,1.216a4.125,4.125,0,0,1-.1.8l-.544,2.624c-.32,1.6-1.056,2.24-2.336,2.24ZM117.76,0h3.584l2.048-9.6h1.28c1.184,0,1.7.288,1.7,1.28a6.109,6.109,0,0,1-.192,1.344l-.864,4.1a10.148,10.148,0,0,0-.288,2.048,7.28,7.28,0,0,0,.064.832h3.488a3.526,3.526,0,0,1-.064-.576,11.681,11.681,0,0,1,.32-2.016l.832-3.936a7.917,7.917,0,0,0,.224-1.856,2.607,2.607,0,0,0-1.632-2.784V-11.2c1.856-.48,2.784-1.92,3.328-4.544l.224-1.088A8.643,8.643,0,0,0,132-18.56c0-2.56-1.6-3.84-4.32-3.84h-5.152Zm6.3-12.8,1.376-6.4h1.6c.928,0,1.344.32,1.344,1.152a4.441,4.441,0,0,1-.128,1.024l-.384,1.728c-.448,1.952-1.44,2.5-2.752,2.5ZM136.576.32c2.976,0,4.928-1.728,5.632-5.024l2.528-11.84a7.819,7.819,0,0,0,.192-1.664c0-2.976-2.08-4.512-5.184-4.512-2.944,0-4.928,1.76-5.632,5.056l-2.528,11.84a7.536,7.536,0,0,0-.192,1.632C131.392-1.216,133.472.32,136.576.32Zm.192-3.2c-1.12,0-1.792-.48-1.792-1.6a3.586,3.586,0,0,1,.1-.768L137.664-17.5c.32-1.5.992-2.016,1.92-2.016,1.12,0,1.76.512,1.76,1.6a3.864,3.864,0,0,1-.1.8L138.656-4.864C138.336-3.36,137.664-2.88,136.768-2.88ZM143.52,0h3.616l1.92-9.12h1.792c3.68,0,5.5-1.824,6.272-5.408l.48-2.272a7.536,7.536,0,0,0,.192-1.632c0-2.528-1.536-3.968-4.352-3.968h-5.152Zm6.24-12.32,1.44-6.88h1.7c.768,0,1.28.288,1.28,1.216a4.124,4.124,0,0,1-.1.8l-.544,2.624c-.32,1.6-1.056,2.24-2.336,2.24ZM161.792.32c2.976,0,4.928-1.728,5.632-5.024l2.528-11.84a7.819,7.819,0,0,0,.192-1.664c0-2.976-2.08-4.512-5.184-4.512-2.944,0-4.928,1.76-5.632,5.056L156.8-5.824a7.536,7.536,0,0,0-.192,1.632C156.608-1.216,158.688.32,161.792.32Zm.192-3.2c-1.12,0-1.792-.48-1.792-1.6a3.586,3.586,0,0,1,.1-.768L162.88-17.5c.32-1.5.992-2.016,1.92-2.016,1.12,0,1.76.512,1.76,1.6a3.864,3.864,0,0,1-.1.8L163.872-4.864C163.552-3.36,162.88-2.88,161.984-2.88Zm11.9,3.2C177.7.32,179.84-2.5,179.84-6.3c0-2.144-.9-4.064-2.656-6.144-1.376-1.6-1.952-2.88-1.952-4.16,0-1.44.512-2.912,2.08-2.912,1.024,0,1.6.352,1.6,1.44a5.409,5.409,0,0,1-.1.96l-.192.96h3.36l.1-.416a9.652,9.652,0,0,0,.256-2.016c0-2.688-1.632-4.128-4.8-4.128-3.68,0-5.856,2.752-5.856,6.432a9.045,9.045,0,0,0,2.656,6.016,6.44,6.44,0,0,1,1.952,4.256c0,1.568-.48,3.136-2.176,3.136-1.024,0-1.664-.32-1.664-1.472a4.45,4.45,0,0,1,.1-.864l.256-1.376h-3.36l-.16.768a9.187,9.187,0,0,0-.224,1.984C169.056-1.088,170.624.32,173.888.32Zm6.72-.32h3.584l4.768-22.4h-3.584Zm8.96,0h3.584l4.064-19.2h3.68l.7-3.2H190.656l-.7,3.2h3.68Zm8.96,0h3.584l4.768-22.4H203.3Zm12.064.32c2.976,0,4.928-1.728,5.632-5.024l2.528-11.84a7.819,7.819,0,0,0,.192-1.664c0-2.976-2.08-4.512-5.184-4.512-2.944,0-4.928,1.76-5.632,5.056L205.6-5.824a7.536,7.536,0,0,0-.192,1.632C205.408-1.216,207.488.32,210.592.32Zm.192-3.2c-1.12,0-1.792-.48-1.792-1.6a3.586,3.586,0,0,1,.1-.768L211.68-17.5c.32-1.5.992-2.016,1.92-2.016,1.12,0,1.76.512,1.76,1.6a3.864,3.864,0,0,1-.1.8L212.672-4.864C212.352-3.36,211.68-2.88,210.784-2.88ZM217.536,0h3.2l3.488-16.352L225.12,0h3.456l4.768-22.4h-3.2l-2.88,13.408-.7-13.408H222.3Zm24.512.32c2.912,0,4.8-1.7,5.472-4.928l.736-3.584H244.9l-.7,3.488A1.954,1.954,0,0,1,242.24-2.88c-.992,0-1.7-.448-1.7-1.536a3.065,3.065,0,0,1,.1-.7l2.688-12.512c.288-1.312.96-1.888,1.888-1.888,1.024,0,1.7.48,1.7,1.5a3.1,3.1,0,0,1-.1.736l-.512,2.432H249.7l.384-1.856a8.106,8.106,0,0,0,.192-1.7c0-2.688-1.664-4.32-4.992-4.32-2.912,0-4.832,1.792-5.5,4.928L237.184-5.7a8.055,8.055,0,0,0-.192,1.664C236.992-1.312,238.688.32,242.048.32Zm13.92-22.72L247.552,0h3.392l1.536-4.384h3.968L256.128,0h3.584l1.12-22.4Zm-2.4,14.976,3.872-10.912-.8,10.912ZM261.376,0h3.2l3.488-16.352L268.96,0h3.456l4.768-22.4h-3.2L271.1-8.992,270.4-22.4h-4.256ZM277.44,0h4.8l8.1-22.4h-3.392L280.928-4.8,282.4-22.4h-3.52Zm15.648-22.4L284.672,0h3.392L289.6-4.384h3.968L293.248,0h3.584l1.12-22.4Zm-2.4,14.976,3.872-10.912-.8,10.912ZM303.488.32C307.3.32,309.44-2.5,309.44-6.3c0-2.144-.9-4.064-2.656-6.144-1.376-1.6-1.952-2.88-1.952-4.16,0-1.44.512-2.912,2.08-2.912,1.024,0,1.6.352,1.6,1.44a5.409,5.409,0,0,1-.1.96l-.192.96h3.36l.1-.416a9.652,9.652,0,0,0,.256-2.016c0-2.688-1.632-4.128-4.8-4.128-3.68,0-5.856,2.752-5.856,6.432a9.045,9.045,0,0,0,2.656,6.016,6.44,6.44,0,0,1,1.952,4.256c0,1.568-.48,3.136-2.176,3.136-1.024,0-1.664-.32-1.664-1.472a4.45,4.45,0,0,1,.1-.864l.256-1.376h-3.36l-.16.768a9.187,9.187,0,0,0-.224,1.984C298.656-1.088,300.224.32,303.488.32Z" transform="translate(124.158 22.581)" fill="#12263f"/>
    <g id="Grupo_1216917" data-name="Grupo 1216917">
      <g id="Grupo_1216916" data-name="Grupo 1216916" clip-path="url(#clip-path)">
        <path id="Trazado_1253842" data-name="Trazado 1253842" d="M.5,22.948V12.213H118.646" fill="none" stroke="#12263f" stroke-linecap="round" stroke-linejoin="round" stroke-width="1" stroke-dasharray="7 7"/>
        <path id="Trazado_1253843" data-name="Trazado 1253843" d="M396.176,12.213H516.457V22.948" transform="translate(43.201)" fill="none" stroke="#12263f" stroke-linecap="round" stroke-linejoin="round" stroke-width="1" stroke-dasharray="7 7"/>
      </g>
    </g>
    <path id="Trazado_1253844" data-name="Trazado 1253844" d="M271.139,249.644l-.1,132.692H3.244l.1-132.692-.1-134.913H271.039Z" fill="#d6bf61"/>
    <path id="Trazado_1255459" data-name="Trazado 1255459" d="M-.482,0H3.709L5.935-10.571H8.012c4.266,0,6.38-2.114,7.27-6.269l.556-2.634a8.735,8.735,0,0,0,.223-1.892c0-2.93-1.78-4.6-5.045-4.6H5.045ZM6.751-14.281,8.42-22.256h1.966c.89,0,1.484.334,1.484,1.41a4.781,4.781,0,0,1-.111.927l-.631,3.042c-.371,1.855-1.224,2.6-2.708,2.6ZM13.91,0h4.154l2.374-11.128h1.484c1.372,0,1.966.334,1.966,1.484a7.081,7.081,0,0,1-.223,1.558l-1,4.748A11.763,11.763,0,0,0,22.33-.964,8.439,8.439,0,0,0,22.4,0h4.043a4.087,4.087,0,0,1-.074-.668A13.54,13.54,0,0,1,26.744-3l.964-4.562a9.178,9.178,0,0,0,.26-2.151c0-1.632-.593-2.782-1.892-3.227v-.037c2.151-.556,3.227-2.226,3.858-5.267l.26-1.261a10.019,10.019,0,0,0,.223-2c0-2.967-1.855-4.451-5.008-4.451H19.437Zm7.307-14.837,1.595-7.419h1.855c1.076,0,1.558.371,1.558,1.335a5.148,5.148,0,0,1-.148,1.187l-.445,2c-.519,2.263-1.669,2.893-3.19,2.893ZM35.72.371c3.45,0,5.712-2,6.528-5.824l2.93-13.724a9.063,9.063,0,0,0,.223-1.929c0-3.45-2.411-5.23-6.009-5.23-3.413,0-5.712,2.04-6.528,5.861L29.934-6.751a8.735,8.735,0,0,0-.223,1.892C29.711-1.41,32.122.371,35.72.371Zm.223-3.709c-1.3,0-2.077-.556-2.077-1.855a4.158,4.158,0,0,1,.111-.89l3-14.206c.371-1.743,1.15-2.337,2.226-2.337,1.3,0,2.04.593,2.04,1.855a4.478,4.478,0,0,1-.111.927l-3,14.206C37.76-3.895,36.981-3.338,35.943-3.338ZM43.769,0h6.677c4.08,0,6.194-2.114,7.085-6.269L60.313-19.4a9.336,9.336,0,0,0,.223-1.929c0-2.967-1.818-4.637-5.23-4.637H49.3Zm4.97-3.709,3.932-18.546h2.114c1.039,0,1.558.334,1.558,1.372a5.834,5.834,0,0,1-.111,1L53.339-6.38c-.408,1.855-1.484,2.671-2.782,2.671ZM65.765.371c3.45,0,5.638-2.077,6.417-5.824l4.377-20.512H72.553L68.213-5.6c-.334,1.669-1.076,2.263-2.188,2.263-1.261,0-2.04-.445-2.04-1.78a4.157,4.157,0,0,1,.111-.89l4.266-19.956H64.207L60.09-6.751a9.736,9.736,0,0,0-.223,2C59.867-1.335,62.2.371,65.765.371Zm14.726,0c3.375,0,5.564-1.966,6.343-5.712L87.687-9.5H83.792l-.816,4.043a2.264,2.264,0,0,1-2.263,2.114c-1.15,0-1.966-.519-1.966-1.78a3.553,3.553,0,0,1,.111-.816l3.116-14.5c.334-1.521,1.113-2.188,2.188-2.188,1.187,0,1.966.556,1.966,1.743a3.6,3.6,0,0,1-.111.853l-.593,2.819h3.932l.445-2.151a9.4,9.4,0,0,0,.223-1.966c0-3.116-1.929-5.008-5.786-5.008-3.375,0-5.6,2.077-6.38,5.712l-3,14.021a9.336,9.336,0,0,0-.223,1.929C74.63-1.521,76.6.371,80.491.371ZM91.174,0h4.154l4.711-22.256H104.3l.816-3.709H92.435l-.816,3.709h4.266Zm16.358.371c4.414,0,6.9-3.264,6.9-7.678,0-2.485-1.039-4.711-3.079-7.122-1.595-1.855-2.263-3.338-2.263-4.822,0-1.669.593-3.375,2.411-3.375,1.187,0,1.855.408,1.855,1.669a6.269,6.269,0,0,1-.111,1.113l-.223,1.113h3.895l.111-.482a11.188,11.188,0,0,0,.3-2.337c0-3.116-1.892-4.785-5.564-4.785-4.266,0-6.788,3.19-6.788,7.456a10.484,10.484,0,0,0,3.079,6.973c1.595,1.855,2.263,3.338,2.263,4.933,0,1.818-.556,3.635-2.522,3.635-1.187,0-1.929-.371-1.929-1.706a5.157,5.157,0,0,1,.111-1l.3-1.595h-3.895l-.185.89a10.65,10.65,0,0,0-.26,2.3C101.93-1.261,103.748.371,107.531.371ZM129.9-25.965,120.143,0h3.932l1.78-5.082h4.6L130.084,0h4.154l1.3-25.965ZM127.116-8.605,131.6-21.254l-.927,12.649ZM136.167,0h3.709l4.043-18.954L144.958,0h4.006l5.527-25.965h-3.709l-3.338,15.542-.816-15.542h-4.933Zm15.839,0h6.677c4.08,0,6.194-2.114,7.085-6.269L168.549-19.4a9.336,9.336,0,0,0,.223-1.929c0-2.967-1.818-4.637-5.23-4.637h-6.009Zm4.97-3.709,3.932-18.546h2.114c1.039,0,1.558.334,1.558,1.372a5.834,5.834,0,0,1-.111,1l-2.893,13.5c-.408,1.855-1.484,2.671-2.782,2.671Z" transform="translate(53.363 288.512)" fill="#fff"/>
    <path id="Trazado_1255458" data-name="Trazado 1255458" d="M5.49.371c4.414,0,6.9-3.264,6.9-7.678,0-2.485-1.039-4.711-3.079-7.122-1.595-1.855-2.263-3.338-2.263-4.822,0-1.669.593-3.375,2.411-3.375,1.187,0,1.855.408,1.855,1.669a6.269,6.269,0,0,1-.111,1.113l-.223,1.113h3.895l.111-.482a11.188,11.188,0,0,0,.3-2.337c0-3.116-1.892-4.785-5.564-4.785-4.266,0-6.788,3.19-6.788,7.456a10.484,10.484,0,0,0,3.079,6.973C7.6-10.052,8.272-8.568,8.272-6.973c0,1.818-.556,3.635-2.522,3.635-1.187,0-1.929-.371-1.929-1.706a5.157,5.157,0,0,1,.111-1l.3-1.595H.334l-.185.89a10.65,10.65,0,0,0-.26,2.3C-.111-1.261,1.706.371,5.49.371ZM13.279,0H24.407l.779-3.709H18.25l1.706-7.975h5.49l.779-3.709h-5.49l1.447-6.862h6.936l.816-3.709H18.806ZM26.6,0H30.75l2.374-11.128h1.484c1.372,0,1.966.334,1.966,1.484a7.081,7.081,0,0,1-.223,1.558l-1,4.748a11.763,11.763,0,0,0-.334,2.374A8.44,8.44,0,0,0,35.09,0h4.043a4.087,4.087,0,0,1-.074-.668A13.54,13.54,0,0,1,39.429-3l.964-4.562a9.178,9.178,0,0,0,.26-2.151c0-1.632-.593-2.782-1.892-3.227v-.037c2.151-.556,3.227-2.226,3.858-5.267l.26-1.261a10.019,10.019,0,0,0,.223-2c0-2.967-1.855-4.451-5.007-4.451H32.122ZM33.9-14.837,35.5-22.256h1.855c1.076,0,1.558.371,1.558,1.335a5.148,5.148,0,0,1-.148,1.187l-.445,2c-.519,2.263-1.669,2.893-3.19,2.893ZM44.14,0H49.7l9.384-25.965H55.157l-6.973,20.4,1.706-20.4h-4.08ZM55.528,0h4.154l5.527-25.965H61.054ZM69.363.371c3.375,0,5.564-1.966,6.343-5.712L76.559-9.5H72.664l-.816,4.043a2.264,2.264,0,0,1-2.263,2.114c-1.15,0-1.966-.519-1.966-1.78a3.553,3.553,0,0,1,.111-.816l3.116-14.5c.334-1.521,1.113-2.188,2.188-2.188,1.187,0,1.966.556,1.966,1.743a3.6,3.6,0,0,1-.111.853L74.3-17.211h3.932l.445-2.151a9.4,9.4,0,0,0,.223-1.966c0-3.116-1.929-5.008-5.786-5.008-3.375,0-5.6,2.077-6.38,5.712l-3,14.021A9.336,9.336,0,0,0,63.5-4.674C63.5-1.521,65.468.371,69.363.371ZM76.856,0H87.984l.779-3.709H81.826l1.706-7.975h5.49l.779-3.709h-5.49l1.447-6.862h6.936l.816-3.709H82.383Zm19.4.371c4.414,0,6.9-3.264,6.9-7.678,0-2.485-1.039-4.711-3.079-7.122-1.595-1.855-2.263-3.338-2.263-4.822,0-1.669.593-3.375,2.411-3.375,1.187,0,1.855.408,1.855,1.669a6.269,6.269,0,0,1-.111,1.113l-.223,1.113h3.895l.111-.482a11.188,11.188,0,0,0,.3-2.337c0-3.116-1.892-4.785-5.564-4.785-4.266,0-6.788,3.19-6.788,7.456a10.484,10.484,0,0,0,3.079,6.973c1.595,1.855,2.263,3.338,2.263,4.933,0,1.818-.556,3.635-2.522,3.635-1.187,0-1.929-.371-1.929-1.706a5.157,5.157,0,0,1,.111-1l.3-1.595H91.1l-.185.89a10.65,10.65,0,0,0-.26,2.3C90.654-1.261,92.472.371,96.255.371Z" transform="translate(84.892 333.023)" fill="#fff"/>
    <g id="Grupo_1216919" data-name="Grupo 1216919">
      <g id="Grupo_1216918" data-name="Grupo 1216918" clip-path="url(#clip-path)">
        <path id="Trazado_1253845" data-name="Trazado 1253845" d="M163.763,182.26v21.463h1.651v4.953a3.622,3.622,0,0,0,1.122-.754c1.635-1.331,3.911-3.992,6.025-4.18a7.61,7.61,0,0,1,6.747,3.594c.949-.346,1.577-1.272,2.613-1.59,4.175-1.278,8.822,4.989,5.783,8.485L160.539,240.5c-4.06,3.433-12.493,2.234-17.581,3.583l-15.968-1.334,2.706,1.88-3.1,6.065-2.906-1.345c-.147-.2,1.471-2.825,1.591-3.3.042-.165.076-.255-.077-.382l-22.325-15.205a1.764,1.764,0,0,0-2.056.314l-11,19.913-2.883-1.56,11.24-20.413a5.215,5.215,0,0,1,7.278-.537c1.656-2.368,3.112-4.9,5.326-6.821V195.468H137.2V182.26Zm-14.86,3.3h-8.255v18.161h19.813V185.562h-8.256v3.3h-3.3ZM123.988,198.77h-9.906v20.262a22.4,22.4,0,0,1,13.692-3.11c2.537.3,5.2,1.578,7.771,1.91V203.948c.4-.427,1.115-.157,1.651-.225V198.77H127.29v3.3h-3.3ZM148.9,210.477V207.25l-.225-.225H139v11.332c0,.042-.159.152-.136.283l.352.253,10.946,2.962L162.112,211.6V207.25l-.226-.225h-9.681v3.227c-.911.565-2.274,0-3.3.225m5.254,12.456c1.2.18,2.707.918,3.87,1.023a.855.855,0,0,0,.688-.14c4.62-4.072,10.081-7.536,14.656-11.611a30.288,30.288,0,0,0,3.007-3.162c.089-.917-3.259-2.591-4.082-1.663Zm18.824.815c4.106-3.975,8.3-7.859,12.323-11.925.378-.828-1.321-3.12-2.4-2.849l-23.651,18.7-.6-.081a5.859,5.859,0,0,1-5.9,6.592l-20.14-3.306-5.381,2.709-1.532-2.847,6.071-3.366,20.65,3.375a2.336,2.336,0,0,0,1.431-4.432c-8.238-1.979-16.332-4.726-24.581-6.638a17.123,17.123,0,0,0-11.285,1.088c-4.474,1.935-7.33,5.171-9.752,9.3l14.06,9.506c5.738-.619,11.744.551,17.527.922,4.652.3,10.916-.508,15.591-1.217,2.2-.334,3.277-1.681,4.824-3.13,4.322-4.046,8.492-8.284,12.742-12.4" fill="#fff"/>
        <path id="Trazado_1253846" data-name="Trazado 1253846" d="M115.733,188.563a18.29,18.29,0,0,1-1.951-36.474l.536,3.159c-4.779.845-8.885,3.132-11.406,7.361a14.917,14.917,0,0,0,7.831,21.713c2.719.962,5.2.806,8.046.81l.225.225c.1.524-.048,1.121.021,1.633.028.208-.083.26.223.221l6.228-3.676-6.229-3.675c-.305-.04-.194.012-.222.22-.071.532.051,1.18,0,1.729h-5.028c-2.17,0-5.828-2.4-7.206-4.051a11.664,11.664,0,0,1,6.666-18.9l1,2.993c-2.151.8-4,1.574-5.4,3.46a8.263,8.263,0,0,0,6.666,13.2v-4.353l16.507,9.381-16.507,9.381Z" fill="#fff"/>
        <path id="Trazado_1253847" data-name="Trazado 1253847" d="M126.164,154.942l1.421-2.326-1.946-3.525,9.835-5.562c.146-.023.206.07.3.156.417.4,1.483,2.961,1.756,3.12l2.715.035c.27-.066,1.453-2.795,1.832-3.155.09-.086.151-.179.3-.156l9.618,5.561a.461.461,0,0,1,.007.452c-.209.639-1.665,2.474-1.711,2.947l1.4,2.453h3.828v11.407h-4.053l-1.2,2.326c.124.686,2.04,3.028,1.727,3.526l-9.617,5.561-.3-.155-1.832-3.155-2.715.034-1.756,3.121-.3.155L125.8,172.1l1.784-3.43-1.421-2.326h-3.827V154.942Zm2.477,3.3h-3v4.8h3a11.434,11.434,0,0,0,2.986,5.209l-1.317,2.728,4.1,2.274,1.424-2.486a15.435,15.435,0,0,0,6.212.073l1.382,2.413,4.113-2.269-1.326-2.733a11.443,11.443,0,0,0,2.986-5.209h3v-4.8h-3a13.619,13.619,0,0,0-2.977-5.353c-.025-.309,1.154-1.85,1.266-2.3.042-.17.1-.258-.088-.376l-3.974-2.183-1.382,2.413a17.231,17.231,0,0,0-6.254,0l-1.382-2.413L130.3,150.3l1.312,2.589a13.234,13.234,0,0,0-2.972,5.352" fill="#fff"/>
        <path id="Trazado_1253848" data-name="Trazado 1253848" d="M102.922,235.265c.487-.1,1.992,1.808,2.452,2.153l-2.323,2.332-2.316-2.2Z" fill="#fff"/>
        <path id="Trazado_1253849" data-name="Trazado 1253849" d="M140.648,155.693v3.3h3.3v3.3h-3.3v3.3H137.2v-3.3h-3.3v-3.3h3.3v-3.3Z" fill="#fff"/>
        <path id="Trazado_1253850" data-name="Trazado 1253850" d="M559.657,317.785l-.1,64.555h-267.8l.1-64.555-.1-65.636h267.8Z" transform="translate(0.396)" fill="#3bafa7"/>
        <path id="Trazado_1253851" data-name="Trazado 1253851" d="M559.657,177.528l-.1,61.758h-267.8l.1-61.758-.1-62.792h267.8Z" transform="translate(0.396)" fill="#3bafa7"/>
        <path id="Trazado_1255461" data-name="Trazado 1255461" d="M6.269.371c3.375,0,5.527-2,6.343-5.861l1.966-9.162H8.568l-.779,3.709H9.867L8.717-5.6C8.346-3.932,7.53-3.338,6.38-3.338s-1.966-.519-1.966-1.78a4.478,4.478,0,0,1,.111-.927L7.6-20.364c.371-1.669,1.15-2.3,2.3-2.3,1.224,0,1.966.519,1.966,1.818a4.478,4.478,0,0,1-.111.927l-.482,2.337h3.932l.334-1.669a10.019,10.019,0,0,0,.223-2c0-3.227-1.929-5.082-5.9-5.082-3.413,0-5.564,1.892-6.417,5.824L.519-6.788A10.435,10.435,0,0,0,.3-4.711C.3-1.224,2.745.371,6.269.371ZM22.7-25.965,12.945,0h3.932l1.78-5.082h4.6L22.886,0h4.154l1.3-25.965ZM19.919-8.605l4.488-12.649L23.48-8.605ZM28.969,0h4.154L38.65-25.965H34.5Zm7.2,0h3.709l4.043-18.954L44.956,0h4.006l5.527-25.965H50.78L47.441-10.423l-.816-15.542H41.692ZM64.578.371c3.375,0,5.564-1.966,6.343-5.712L71.774-9.5H67.879l-.816,4.043A2.264,2.264,0,0,1,64.8-3.338c-1.15,0-1.966-.519-1.966-1.78a3.553,3.553,0,0,1,.111-.816l3.116-14.5c.334-1.521,1.113-2.188,2.188-2.188,1.187,0,1.966.556,1.966,1.743a3.6,3.6,0,0,1-.111.853l-.593,2.819h3.932l.445-2.151a9.4,9.4,0,0,0,.223-1.966c0-3.116-1.929-5.008-5.786-5.008-3.375,0-5.6,2.077-6.38,5.712L58.94-6.6a9.336,9.336,0,0,0-.223,1.929C58.718-1.521,60.683.371,64.578.371ZM72.071,0h4.154L78.6-11.128h1.484c1.372,0,1.966.334,1.966,1.484a7.08,7.08,0,0,1-.223,1.558l-1,4.748a11.762,11.762,0,0,0-.334,2.374A8.439,8.439,0,0,0,80.565,0h4.043a4.088,4.088,0,0,1-.074-.668A13.54,13.54,0,0,1,84.9-3l.964-4.562a9.178,9.178,0,0,0,.26-2.151c0-1.632-.593-2.782-1.892-3.227v-.037c2.151-.556,3.227-2.226,3.858-5.267l.26-1.261a10.018,10.018,0,0,0,.223-2c0-2.967-1.855-4.451-5.007-4.451H77.6Zm7.307-14.837,1.595-7.419h1.855c1.076,0,1.558.371,1.558,1.335a5.148,5.148,0,0,1-.148,1.187l-.445,2c-.519,2.263-1.669,2.893-3.19,2.893ZM87.093,0H98.221L99-3.709H92.064l1.706-7.975h5.49l.779-3.709h-5.49L96-22.256h6.936l.816-3.709H92.62Zm22.256-25.965L99.594,0h3.932l1.78-5.082h4.6L109.534,0h4.154l1.3-25.965ZM106.567-8.605l4.488-12.649-.927,12.649ZM115.469,0h4.154l4.711-22.256H128.6l.816-3.709H116.73l-.816,3.709h4.266Zm16.877.371c3.45,0,5.712-2,6.528-5.824l2.93-13.724a9.063,9.063,0,0,0,.223-1.929c0-3.45-2.411-5.23-6.009-5.23-3.413,0-5.712,2.04-6.528,5.861L126.56-6.751a8.735,8.735,0,0,0-.223,1.892C126.337-1.41,128.748.371,132.346.371Zm.223-3.709c-1.3,0-2.077-.556-2.077-1.855a4.157,4.157,0,0,1,.111-.89l3-14.206c.371-1.743,1.15-2.337,2.226-2.337,1.3,0,2.04.593,2.04,1.855a4.479,4.479,0,0,1-.111.927l-3,14.206C134.387-3.895,133.608-3.338,132.569-3.338ZM140.4,0h4.154l2.374-11.128h1.484c1.372,0,1.966.334,1.966,1.484a7.081,7.081,0,0,1-.223,1.558l-1,4.748a11.763,11.763,0,0,0-.334,2.374A8.439,8.439,0,0,0,148.89,0h4.043a4.087,4.087,0,0,1-.074-.668A13.539,13.539,0,0,1,153.23-3l.964-4.562a9.177,9.177,0,0,0,.26-2.151c0-1.632-.593-2.782-1.892-3.227v-.037c2.151-.556,3.227-2.226,3.858-5.267l.26-1.261a10.019,10.019,0,0,0,.223-2c0-2.967-1.855-4.451-5.008-4.451h-5.972ZM147.7-14.837l1.595-7.419h1.855c1.076,0,1.558.371,1.558,1.335a5.149,5.149,0,0,1-.148,1.187l-.445,2c-.519,2.263-1.669,2.893-3.19,2.893ZM161.39.371c4.414,0,6.9-3.264,6.9-7.678,0-2.485-1.039-4.711-3.079-7.122-1.595-1.855-2.263-3.338-2.263-4.822,0-1.669.593-3.375,2.411-3.375,1.187,0,1.855.408,1.855,1.669a6.269,6.269,0,0,1-.111,1.113l-.223,1.113h3.895l.111-.482a11.188,11.188,0,0,0,.3-2.337c0-3.116-1.892-4.785-5.564-4.785-4.266,0-6.788,3.19-6.788,7.456a10.484,10.484,0,0,0,3.079,6.973c1.595,1.855,2.263,3.338,2.263,4.933,0,1.818-.556,3.635-2.522,3.635-1.187,0-1.929-.371-1.929-1.706a5.158,5.158,0,0,1,.111-1l.3-1.595h-3.895l-.185.89a10.649,10.649,0,0,0-.26,2.3C155.789-1.261,157.606.371,161.39.371Z" transform="translate(340.158 231.451)" fill="#fff"/>
        <path id="Trazado_1255460" data-name="Trazado 1255460" d="M-.482,0H3.709L5.935-10.571H8.012c4.266,0,6.38-2.114,7.27-6.269l.556-2.634a8.735,8.735,0,0,0,.223-1.892c0-2.93-1.78-4.6-5.045-4.6H5.045ZM6.751-14.281,8.42-22.256h1.966c.89,0,1.484.334,1.484,1.41a4.781,4.781,0,0,1-.111.927l-.631,3.042c-.371,1.855-1.224,2.6-2.708,2.6ZM20.067-25.965,10.312,0h3.932l1.78-5.082h4.6L20.253,0h4.154l1.3-25.965ZM17.285-8.605l4.488-12.649L20.846-8.605ZM26.336,0H30.49l5.527-25.965H31.863Zm7.2,0h3.709l4.043-18.954L42.323,0h4.006l5.527-25.965H48.146L44.808-10.423l-.816-15.542H39.059ZM55.305,0h4.154l2.374-11.128h1.484c1.372,0,1.966.334,1.966,1.484a7.081,7.081,0,0,1-.223,1.558l-1,4.748a11.763,11.763,0,0,0-.334,2.374A8.44,8.44,0,0,0,63.8,0h4.043a4.087,4.087,0,0,1-.074-.668A13.54,13.54,0,0,1,68.139-3L69.1-7.567a9.178,9.178,0,0,0,.26-2.151c0-1.632-.593-2.782-1.892-3.227v-.037c2.151-.556,3.227-2.226,3.858-5.267l.26-1.261a10.019,10.019,0,0,0,.223-2c0-2.967-1.855-4.451-5.008-4.451H60.832Zm7.307-14.837,1.595-7.419h1.855c1.076,0,1.558.371,1.558,1.335a5.148,5.148,0,0,1-.148,1.187l-.445,2c-.519,2.263-1.669,2.893-3.19,2.893ZM70.328,0H81.455l.779-3.709H75.3L77-11.684h5.49l.779-3.709h-5.49l1.447-6.862h6.936l.816-3.709H75.854ZM83.644,0H94.438l.779-3.709h-6.64l4.748-22.256H89.171ZM96.4,0h4.154l5.527-25.965H101.93Zm7.2,0h11.128l.779-3.709H108.57l1.706-7.975h5.49l.779-3.709h-5.49l1.447-6.862h6.936l.816-3.709H109.126Zm16.358,0h5.564l9.384-25.965h-3.932L124-5.564l1.706-20.4h-4.08Zm11.387,0h11.128l.779-3.709h-6.936l1.706-7.975h5.49l.779-3.709H138.8l1.447-6.862h6.936L148-25.965H136.872Zm13.316,0h4.154l2.374-11.128h1.484c1.372,0,1.966.334,1.966,1.484a7.081,7.081,0,0,1-.223,1.558l-1,4.748a11.763,11.763,0,0,0-.334,2.374,8.439,8.439,0,0,0,.074.964H157.2a4.087,4.087,0,0,1-.074-.668A13.539,13.539,0,0,1,157.5-3l.964-4.562a9.177,9.177,0,0,0,.26-2.151c0-1.632-.593-2.782-1.892-3.227v-.037c2.151-.556,3.227-2.226,3.858-5.267l.26-1.261a10.019,10.019,0,0,0,.223-2c0-2.967-1.855-4.451-5.008-4.451h-5.972Zm7.307-14.837,1.595-7.419h1.855c1.076,0,1.558.371,1.558,1.335a5.149,5.149,0,0,1-.148,1.187l-.445,2c-.519,2.263-1.669,2.893-3.19,2.893ZM165.656.371c4.414,0,6.9-3.264,6.9-7.678,0-2.485-1.039-4.711-3.079-7.122-1.595-1.855-2.263-3.338-2.263-4.822,0-1.669.593-3.375,2.411-3.375,1.187,0,1.855.408,1.855,1.669a6.269,6.269,0,0,1-.111,1.113l-.223,1.113h3.895l.111-.482a11.188,11.188,0,0,0,.3-2.337c0-3.116-1.892-4.785-5.564-4.785-4.266,0-6.788,3.19-6.788,7.456a10.484,10.484,0,0,0,3.079,6.973c1.595,1.855,2.263,3.338,2.263,4.933,0,1.818-.556,3.635-2.522,3.635-1.187,0-1.929-.371-1.929-1.706a5.158,5.158,0,0,1,.111-1l.3-1.595H160.5l-.185.89a10.649,10.649,0,0,0-.26,2.3C160.055-1.261,161.872.371,165.656.371Z" transform="translate(338.158 373.033)" fill="#fff"/>
      </g>
    </g>
    <g id="Grupo_1216921" data-name="Grupo 1216921">
      <g id="Grupo_1216920" data-name="Grupo 1216920" clip-path="url(#clip-path)">
        <path id="Trazado_1253852" data-name="Trazado 1253852" d="M446.53,175.326c-2.556,2.453-5.16,5.186-7.8,7.522a10.468,10.468,0,0,1-3.31,2.055c-5.108,2.2-10.45,4.119-15.708,5.869-6.737.533-14.083-.413-20.746.117a8.006,8.006,0,0,0-1.6.364c-.131.184.5.981.6,1.245a1.915,1.915,0,0,1-.48,2.272l-10.01,5.846a2.031,2.031,0,0,1-2.845-.983c-3.884-7.307-8.587-14.22-12.441-21.535-.713-1.351-1.244-2.257.22-3.4,2.724-2.124,6.934-3.62,9.807-5.69a2,2,0,0,1,2.35.346c.22.22.272.757.669.657l8.8-5.994a6.939,6.939,0,0,1,2.435-.9c2.652-.39,6.2-.374,8.94-.479a6.7,6.7,0,0,1,4.355.774,13.324,13.324,0,0,0,2.809,1.482c3.93.541,10.738-1.09,13.991,1.152,3.867,2.665,4.092,8.5-.168,10.9-1.982,1.117-9.336,2.03-11.807,2.142a30.007,30.007,0,0,1-7.237-.51,1.973,1.973,0,0,1-.261-3.65c1.012-.4,3.33.163,4.52.225a35.784,35.784,0,0,0,6.539-.373,36.886,36.886,0,0,0,6.013-1.14c2.6-.971,1.337-4.543-.989-4.8-3.406-.384-7.507.345-10.954-.015-2-.209-3.532-1.8-5.38-2.369-3.455.234-6.957.236-10.378.708l-9.333,6.4,8.262,14.32a9.986,9.986,0,0,1,3.576-.93c6.734-.43,13.855.43,20.62-.124l15.331-6.009.651-.422,13.16-12.6,0-.263c-1.015-.427-2.071-1.558-3.186-1.613-.931-.047-1.317.368-1.982.887-2.654,2.064-5.082,4.61-7.772,6.654a1.962,1.962,0,0,1-2.487-2.963c2.717-2.163,5.269-4.787,7.993-6.909a6.255,6.255,0,0,1,6.576-1.1,39.56,39.56,0,0,1,5.392,3.31,2.027,2.027,0,0,1,.369,2.733c-2.328,2.3-4.743,4.519-7.105,6.785M381,177.211c-2.114.439-1.7,4.01.675,3.782a1.925,1.925,0,1,0-.675-3.782" fill="#fff"/>
        <path id="Trazado_1253853" data-name="Trazado 1253853" d="M432.054,122.939c-1.239.463-2.854,1.891-4.2,1.4a1.94,1.94,0,0,1-.174-3.568c2.25-.86,4.586-2.526,6.8-3.336a1.9,1.9,0,0,1,2.631.869,57.221,57.221,0,0,1,3.312,6.7c.411,1.123.249,2.311-.977,2.759-2.3.841-2.668-1.906-3.633-3.272a28.686,28.686,0,0,1-3.42,7.069c-7.084,10.315-21.09,15.253-33.3,14.03a9.726,9.726,0,0,1-2.241-.382c-1.637-.66-1.549-3.258.147-3.618,1.054-.224,2.843.251,4,.31a35.391,35.391,0,0,0,21.8-6.108c4.3-3.051,8.1-7.609,9.26-12.853" fill="#fff"/>
        <path id="Trazado_1253854" data-name="Trazado 1253854" d="M435.568,129.763a2.019,2.019,0,0,1,1.614,1.819l-.028,23.458a1.94,1.94,0,0,1-1.61,1.609,39.492,39.492,0,0,1-6.143,0,2.027,2.027,0,0,1-1.518-1.82l.025-15.594a33.736,33.736,0,0,0,6.343-7.247,19.272,19.272,0,0,1,1.317-2.226" fill="#fff"/>
        <path id="Trazado_1253855" data-name="Trazado 1253855" d="M423.591,155.307a2.2,2.2,0,0,1-1.728,1.371,38.779,38.779,0,0,1-5.724,0,1.961,1.961,0,0,1-1.731-1.607l0-9.05a41.133,41.133,0,0,0,9.187-3.888Z" fill="#fff"/>
        <path id="Trazado_1253856" data-name="Trazado 1253856" d="M409.874,146.906a4.576,4.576,0,0,1,.25,1,51.277,51.277,0,0,1,0,6.924,1.949,1.949,0,0,1-2.086,1.848,38.8,38.8,0,0,1-5.37-.005,1.955,1.955,0,0,1-1.847-1.968,50.55,50.55,0,0,1-.006-6.56c.02-.3.12-.584.13-.884a41.545,41.545,0,0,0,8.929-.36" fill="#fff"/>
        <path id="Trazado_1253857" data-name="Trazado 1253857" d="M415.347,287.5c12.156-2.079,21.33,9.679,14.925,20.5l-30.911,31.03c-11.428,7.834-26.045-5.8-19.685-17.821,2.232-4.218,24.319-25.968,29.009-29.836,1.9-1.565,4.2-3.448,6.662-3.869m2.493,3.061c-5.856.673-13.238,11.385-17.775,15.146l13.359,13.8c3.586-3.374,14.333-11.875,15.05-16.4.977-6.17-4.328-13.27-10.634-12.546M396.7,309.07l-2.237,2.123,13.922,13.918,1.9-1.847v-1.228c-1.945-1.442-12.379-13.178-13.581-12.966M391.657,314l-1.9,1.847v1.227c.4.781,11.358,11.707,12.408,12.43.548.376.839.886,1.562.309l1.848-1.895Zm-5.489,5.6c-.9.737-2.68,1.783-1.983,3.043l13.667,13,1.9-1.848v-1.227Zm8.276,17.906-11.77-11.458c-2.526-1.089-.278,4.9.278,5.923,2.2,4.045,6.92,6.8,11.492,5.535" fill="#fff"/>
        <path id="Trazado_1253858" data-name="Trazado 1253858" d="M414.092,258.986c6.216-1.389,12.546,5.473,9.109,11.59-.69,1.229-16.185,16.735-17.634,17.673-6.6,4.267-15.013-3.72-11.029-10.41,1.206-2.023,14.983-15.77,17.24-17.444a5.788,5.788,0,0,1,2.314-1.409m1.253,2.445c-2.511.458-6.836,6.581-9.119,8.266l7.113,7.112c1.788-2.378,8.174-6.813,8.358-9.633.174-2.674-3.663-6.235-6.352-5.745" fill="#fff"/>
        <path id="Trazado_1253859" data-name="Trazado 1253859" d="M434.581,268.279c2.686-.213,4.577.858,6.619,2.365,2.959,2.186,19.59,18.716,21.286,21.454,5.183,8.367-5.127,18.672-13.5,13.5-1.873-1.157-21.013-20.427-22.222-22.377-3.755-6.051.987-14.4,7.818-14.94m-1.29,3.72c-3.449.8-5.664,5.316-4.644,8.722.206.689,9.266,10.429,10.007,10.3l9.057-8.935c-4.488-3.313-8.169-11.536-14.42-10.086m16.684,12.3c-1.458,1.732-8.873,7.566-8.382,9.431.162.616,8.1,8.628,8.9,9.119,5.832,3.6,13.035-3.85,8.718-9.949-.8-1.128-8.608-8.712-9.233-8.6" fill="#fff"/>
        <path id="Trazado_1253860" data-name="Trazado 1253860" d="M415.2,296.03l1.276,2.462c-2.119,1.543-4.2,4.863-6.213,6.236-1.543,1.053-1.7.124-2.8-.967Z" fill="#fff"/>
        <path id="Trazado_1253861" data-name="Trazado 1253861" d="M413.968,264.436l1.528.927-4.625,4.022c-2.475-.468,2.765-4.38,3.1-4.949" fill="#fff"/>
        <path id="Trazado_1253862" data-name="Trazado 1253862" d="M437.5,274.974a41.285,41.285,0,0,1,4.649,4.633c.521.8.663,1.359-.322,1.545l-4.958-4.323c-.834-.564.339-1.867.631-1.855" fill="#fff"/>
        <rect id="Rectángulo_430409" data-name="Rectángulo 430409" width="553.088" height="55.059" transform="translate(3.158 42.501)" fill="#6f88da"/>
        <path id="Trazado_1255462" data-name="Trazado 1255462" d="M2.3,0H7.864l9.384-25.965H13.316L6.343-5.564l1.706-20.4H3.969ZM20.438-25.965,10.683,0h3.932l1.78-5.082h4.6L20.623,0h4.154l1.3-25.965ZM17.656-8.605l4.488-12.649L21.217-8.605ZM26.707,0H37.5l.779-3.709H31.64l4.748-22.256H32.233ZM46.292.371c3.45,0,5.638-2.077,6.417-5.824l4.377-20.512H53.08L48.74-5.6c-.334,1.669-1.076,2.263-2.188,2.263-1.261,0-2.04-.445-2.04-1.78a4.158,4.158,0,0,1,.111-.89l4.266-19.956H44.734L40.616-6.751a9.736,9.736,0,0,0-.223,2C40.394-1.335,42.731.371,46.292.371ZM54.378,0H65.506l.779-3.709H59.348l1.706-7.975h5.49l.779-3.709h-5.49l1.447-6.862h6.936l.816-3.709H59.9ZM73.629,0H77.82l2.226-10.571h2.077c4.266,0,6.38-2.114,7.27-6.269l.556-2.634a8.735,8.735,0,0,0,.223-1.892c0-2.93-1.78-4.6-5.045-4.6H79.156Zm7.233-14.281,1.669-7.975H84.5c.89,0,1.484.334,1.484,1.41a4.781,4.781,0,0,1-.111.927l-.631,3.042c-.371,1.855-1.224,2.6-2.708,2.6ZM88.021,0h4.154l2.374-11.128h1.484c1.372,0,1.966.334,1.966,1.484a7.08,7.08,0,0,1-.223,1.558l-1,4.748a11.762,11.762,0,0,0-.334,2.374A8.439,8.439,0,0,0,96.515,0h4.043a4.088,4.088,0,0,1-.074-.668A13.54,13.54,0,0,1,100.855-3l.964-4.562a9.178,9.178,0,0,0,.26-2.151c0-1.632-.593-2.782-1.892-3.227v-.037c2.151-.556,3.227-2.226,3.858-5.267l.26-1.261a10.018,10.018,0,0,0,.223-2c0-2.967-1.855-4.451-5.007-4.451H93.548Zm7.307-14.837,1.595-7.419h1.855c1.076,0,1.558.371,1.558,1.335a5.148,5.148,0,0,1-.148,1.187l-.445,2c-.519,2.263-1.669,2.893-3.19,2.893ZM109.831.371c3.45,0,5.712-2,6.528-5.824l2.93-13.724a9.063,9.063,0,0,0,.223-1.929c0-3.45-2.411-5.23-6.009-5.23-3.413,0-5.712,2.04-6.528,5.861l-2.93,13.724a8.735,8.735,0,0,0-.223,1.892C103.822-1.41,106.233.371,109.831.371Zm.223-3.709c-1.3,0-2.077-.556-2.077-1.855a4.157,4.157,0,0,1,.111-.89l3-14.206c.371-1.743,1.15-2.337,2.226-2.337,1.3,0,2.04.593,2.04,1.855a4.478,4.478,0,0,1-.111.927l-3,14.206C111.871-3.895,111.092-3.338,110.054-3.338ZM117.88,0h4.191L124.3-10.571h2.077c4.266,0,6.38-2.114,7.27-6.269l.556-2.634a8.735,8.735,0,0,0,.223-1.892c0-2.93-1.78-4.6-5.045-4.6h-5.972Zm7.233-14.281,1.669-7.975h1.966c.89,0,1.484.334,1.484,1.41a4.781,4.781,0,0,1-.111.927l-.631,3.042c-.371,1.855-1.224,2.6-2.708,2.6ZM139.06.371c3.45,0,5.712-2,6.528-5.824l2.93-13.724a9.063,9.063,0,0,0,.223-1.929c0-3.45-2.411-5.23-6.009-5.23-3.413,0-5.712,2.04-6.528,5.861l-2.93,13.724a8.735,8.735,0,0,0-.223,1.892C133.051-1.41,135.462.371,139.06.371Zm.223-3.709c-1.3,0-2.077-.556-2.077-1.855a4.157,4.157,0,0,1,.111-.89l3-14.206c.371-1.743,1.15-2.337,2.226-2.337,1.3,0,2.04.593,2.04,1.855a4.479,4.479,0,0,1-.111.927l-3,14.206C141.1-3.895,140.321-3.338,139.283-3.338Zm13.8,3.709c4.414,0,6.9-3.264,6.9-7.678,0-2.485-1.039-4.711-3.079-7.122-1.595-1.855-2.263-3.338-2.263-4.822,0-1.669.593-3.375,2.411-3.375,1.187,0,1.855.408,1.855,1.669a6.269,6.269,0,0,1-.111,1.113l-.223,1.113h3.895l.111-.482a11.188,11.188,0,0,0,.3-2.337c0-3.116-1.892-4.785-5.564-4.785-4.266,0-6.788,3.19-6.788,7.456a10.484,10.484,0,0,0,3.079,6.973c1.595,1.855,2.263,3.338,2.263,4.933,0,1.818-.556,3.635-2.522,3.635-1.187,0-1.929-.371-1.929-1.706a5.158,5.158,0,0,1,.111-1l.3-1.595h-3.895l-.185.89a10.649,10.649,0,0,0-.26,2.3C147.48-1.261,149.3.371,153.081.371ZM160.871,0h4.154l5.527-25.965H166.4Zm10.386,0h4.154l4.711-22.256h4.266l.816-3.709H172.518l-.816,3.709h4.266Zm10.386,0H185.8l5.527-25.965h-4.154Zm13.984.371c3.45,0,5.712-2,6.528-5.824l2.93-13.724a9.063,9.063,0,0,0,.223-1.929c0-3.45-2.411-5.23-6.009-5.23-3.413,0-5.712,2.04-6.528,5.861L189.84-6.751a8.735,8.735,0,0,0-.223,1.892C189.617-1.41,192.028.371,195.626.371Zm.223-3.709c-1.3,0-2.077-.556-2.077-1.855a4.157,4.157,0,0,1,.111-.89l3-14.206c.371-1.743,1.15-2.337,2.226-2.337,1.3,0,2.04.593,2.04,1.855a4.479,4.479,0,0,1-.111.927l-3,14.206C197.666-3.895,196.888-3.338,195.849-3.338ZM203.675,0h3.709l4.043-18.954L212.466,0h4.006L222-25.965H218.29l-3.338,15.542-.816-15.542H209.2Z" transform="translate(169.158 83.633)" fill="#fff"/>
      </g>
    </g>
    <g id="Grupo_1216923" data-name="Grupo 1216923">
      <g id="Grupo_1216922" data-name="Grupo 1216922" clip-path="url(#clip-path)">
        <path id="Trazado_1253863" data-name="Trazado 1253863" d="M271.082,605.367l-.1,64.74H2.422l.1-64.74-.1-65.824h268.56Z" transform="translate(-0.264)" fill="#219cd5"/>
        <path id="Trazado_1253864" data-name="Trazado 1253864" d="M271.082,464.708l-.1,61.935H2.422l.1-61.935-.1-62.972h268.56Z" transform="translate(-0.264)" fill="#219cd5"/>
        <path id="Trazado_1255464" data-name="Trazado 1255464" d="M6.287.372c3.385,0,5.543-2.009,6.361-5.877l1.972-9.188H8.593l-.781,3.72H9.895L8.742-5.617C8.37-3.943,7.551-3.348,6.4-3.348S4.427-3.869,4.427-5.133a4.491,4.491,0,0,1,.112-.93L7.626-20.422C8-22.1,8.779-22.728,9.932-22.728c1.228,0,1.972.521,1.972,1.823a4.491,4.491,0,0,1-.112.93l-.484,2.344h3.943l.335-1.674a10.047,10.047,0,0,0,.223-2.009c0-3.236-1.934-5.1-5.915-5.1-3.422,0-5.58,1.9-6.435,5.84L.521-6.807A10.464,10.464,0,0,0,.3-4.724C.3-1.228,2.753.372,6.287.372ZM22.766-26.039,12.982,0h3.943l1.786-5.1h4.613L22.952,0h4.166l1.3-26.039ZM19.976-8.63l4.5-12.685L23.547-8.63ZM29.052,0h4.166l5.543-26.039H34.595Zm7.217,0h3.72l4.055-19.008L45.085,0H49.1l5.543-26.039h-3.72L47.577-10.453l-.818-15.586H41.811ZM58.141.372c4.427,0,6.919-3.273,6.919-7.7,0-2.492-1.042-4.724-3.087-7.142-1.6-1.86-2.269-3.348-2.269-4.836,0-1.674.6-3.385,2.418-3.385,1.19,0,1.86.409,1.86,1.674A6.287,6.287,0,0,1,63.87-19.9l-.223,1.116h3.906l.112-.484a11.22,11.22,0,0,0,.3-2.344c0-3.125-1.9-4.8-5.58-4.8-4.278,0-6.807,3.2-6.807,7.477,0,2.344,1,4.65,3.087,6.993,1.6,1.86,2.269,3.348,2.269,4.947,0,1.823-.558,3.645-2.53,3.645-1.19,0-1.934-.372-1.934-1.711a5.172,5.172,0,0,1,.112-1l.3-1.6H52.971l-.186.893a10.68,10.68,0,0,0-.26,2.306C52.524-1.265,54.347.372,58.141.372Z" transform="translate(103.158 518.785)" fill="#fff"/>
        <path id="Trazado_1255463" data-name="Trazado 1255463" d="M-.484,0h4.2L5.952-10.6H8.035c4.278,0,6.4-2.12,7.291-6.287l.558-2.641a8.76,8.76,0,0,0,.223-1.9c0-2.939-1.786-4.613-5.059-4.613H5.059ZM6.77-14.321l1.674-8h1.972c.893,0,1.488.335,1.488,1.414a4.8,4.8,0,0,1-.112.93l-.632,3.05c-.372,1.86-1.228,2.6-2.715,2.6ZM20.124-26.039,10.341,0h3.943L16.07-5.1h4.613L20.31,0h4.166l1.3-26.039ZM17.335-8.63l4.5-12.685L20.906-8.63ZM26.411,0h4.166L36.12-26.039H31.954Zm7.217,0h3.72L41.4-19.008,42.444,0h4.017L52-26.039h-3.72L44.936-10.453l-.818-15.586H39.17ZM55.5.372c4.427,0,6.919-3.273,6.919-7.7,0-2.492-1.042-4.724-3.087-7.142-1.6-1.86-2.269-3.348-2.269-4.836,0-1.674.6-3.385,2.418-3.385,1.19,0,1.86.409,1.86,1.674a6.287,6.287,0,0,1-.112,1.116l-.223,1.116h3.906l.112-.484a11.22,11.22,0,0,0,.3-2.344c0-3.125-1.9-4.8-5.58-4.8-4.278,0-6.807,3.2-6.807,7.477,0,2.344,1,4.65,3.087,6.993,1.6,1.86,2.269,3.348,2.269,4.947,0,1.823-.558,3.645-2.53,3.645-1.19,0-1.934-.372-1.934-1.711a5.172,5.172,0,0,1,.112-1l.3-1.6H50.33l-.186.893a10.68,10.68,0,0,0-.26,2.306C49.883-1.265,51.706.372,55.5.372Z" transform="translate(104.158 660.772)" fill="#fff"/>
      </g>
    </g>
    <g id="Grupo_1216925" data-name="Grupo 1216925">
      <g id="Grupo_1216924" data-name="Grupo 1216924" clip-path="url(#clip-path)">
        <path id="Trazado_1253865" data-name="Trazado 1253865" d="M126.21,415.634l3.405.395a30.811,30.811,0,0,1,25.6,26.353l.267,2.537c-.036.908.049,1.834,0,2.741-1.31,24.151-28.787,37.846-48.627,23.4-23.419-17.047-12.195-53.868,16.609-55.431Zm-3.016,3.9c-20.1,1.215-31.88,23.765-21.08,40.951a26.827,26.827,0,0,0,45.5-.078c11.477-18.459-2.857-42.177-24.418-40.873" transform="translate(12)" fill="#fff"/>
        <path id="Trazado_1253866" data-name="Trazado 1253866" d="M108.983,450.181c1.837-.382,2.093.976,2.972,2.079,5.854,7.342,19.854,7.433,25.714.07.536-.674,1.032-1.956,1.961-2.149a1.917,1.917,0,0,1,2.4,2.154c-.117,1.126-2.421,3.637-3.3,4.425-7.689,6.88-22.254,6.5-29.157-1.372a12.268,12.268,0,0,1-1.871-2.74,1.959,1.959,0,0,1,1.278-2.467" transform="translate(12)" fill="#fff"/>
        <path id="Trazado_1253867" data-name="Trazado 1253867" d="M114.594,434.857c5.292-.777,6.029,6.931,1.327,7.559-5.275.7-5.97-6.877-1.327-7.559" transform="translate(12)" fill="#fff"/>
        <path id="Trazado_1253868" data-name="Trazado 1253868" d="M133.652,434.855c5.939-.933,6.043,8.353.105,7.561-4.167-.555-4.128-6.929-.105-7.561" transform="translate(12)" fill="#fff"/>
        <path id="Trazado_1253869" data-name="Trazado 1253869" d="M126.21,552.883l3.405.4a30.811,30.811,0,0,1,25.6,26.353l.267,2.537c-.036.908.049,1.834,0,2.741-1.31,24.151-28.787,37.846-48.627,23.405-23.419-17.047-12.195-53.868,16.609-55.431Zm-3.016,3.9c-20.1,1.215-31.88,23.765-21.08,40.951a26.827,26.827,0,0,0,45.5-.078c11.477-18.459-2.857-42.177-24.418-40.873" transform="translate(11)" fill="#fff"/>
        <path id="Trazado_1253870" data-name="Trazado 1253870" d="M140.7,598.808c-1.837.382-2.093-.976-2.972-2.079-5.854-7.342-19.854-7.433-25.714-.07-.536.674-1.032,1.956-1.961,2.149a1.917,1.917,0,0,1-2.4-2.154c.117-1.126,2.421-3.637,3.3-4.425,7.689-6.88,22.254-6.5,29.157,1.372a12.266,12.266,0,0,1,1.871,2.74,1.959,1.959,0,0,1-1.278,2.467" transform="translate(11)" fill="#fff"/>
        <path id="Trazado_1253871" data-name="Trazado 1253871" d="M114.594,572.107c5.292-.777,6.029,6.931,1.327,7.559-5.275.7-5.97-6.877-1.327-7.559" transform="translate(11)" fill="#fff"/>
        <path id="Trazado_1253872" data-name="Trazado 1253872" d="M133.652,572.1c5.939-.933,6.043,8.353.105,7.561-4.167-.555-4.128-6.929-.105-7.561" transform="translate(11)" fill="#fff"/>
        <path id="Trazado_1253873" data-name="Trazado 1253873" d="M559.657,537.036l-.1,133.071H291l.1-133.071-.1-135.3h268.56Z" transform="translate(0.161)" fill="#6f88da"/>
        <text id="COSTUMER" transform="translate(371.158 561.683)" fill="#fff" font-size="33.065" font-family="SegoeUI, Segoe UI"><tspan x="0" y="0" letter-spacing="0.002em">C</tspan><tspan y="0">OSTUMER</tspan></text>
        <text id="JOBS" transform="translate(401.158 601.361)" fill="#fff" font-size="33.065" font-family="SegoeUI, Segoe UI"><tspan x="0" y="0">JOBS</tspan></text>
      </g>
    </g>
    <g id="Grupo_1216927" data-name="Grupo 1216927">
      <g id="Grupo_1216926" data-name="Grupo 1216926" clip-path="url(#clip-path)">
        <path id="Trazado_1253874" data-name="Trazado 1253874" d="M450.228,483.371a8.12,8.12,0,0,0-2.725,0V448.609a3.44,3.44,0,0,0-2.309-2.428H434.475v5.744c0,1.726-2.006,2.686-3.489,2.789-7.133.5-14.84-.381-22.033-.007a3.23,3.23,0,0,1-2.645-1.619,6.969,6.969,0,0,1-.377-1.044v-5.863H395.212a3.229,3.229,0,0,0-2.314,2.66l.081,66.847a2.968,2.968,0,0,0,1.911,2.116c13.178.354,26.435.048,39.642.154l3.615,2.722H395.331c-2.122,0-4.6-2.293-5-4.356-.355-22.466-.045-44.994-.156-67.483a5.792,5.792,0,0,1,5.053-5.37l10.866-.03a4.6,4.6,0,0,1,3.57-2.826c1.536-.152,3.276.128,4.836-.02a7.146,7.146,0,0,1,11.411,0c2.742.275,5.745-.843,7.68,1.678.3.388.382.841.726,1.168l10.645.015c2.456.046,5.267,2.7,5.267,5.156Zm-30.223-42.965a4.869,4.869,0,0,0-3,1.39c-.511.545-.634,1.3-1.469,1.492-1.588.366-4.088-.206-5.746.057a1.569,1.569,0,0,0-1.132,1.356,40.353,40.353,0,0,0,0,5.808c.1,1.067.676,1.505,1.717,1.6,6.319-.414,13.311.535,19.551,0,.931-.08,1.716-.466,1.832-1.485a40.252,40.252,0,0,0,0-5.924,1.565,1.565,0,0,0-1.244-1.362c-1.687-.2-4.025.286-5.635-.05-.9-.189-1.024-1.038-1.588-1.61a4.923,4.923,0,0,0-3.282-1.27" fill="#fff"/>
        <path id="Trazado_1253875" data-name="Trazado 1253875" d="M447.6,485.656c13.752-.789,23.2,14.015,16.627,26.22a17.795,17.795,0,1,1-16.627-26.22M458.52,514.4c.152.111,1.087-.889,1.244-1.064,9.165-10.251.469-26.484-13.134-24.741-12.41,1.591-17.487,17.223-8.248,25.687,1.282-3.035,3.881-6.12,7.077-7.2,5.861-1.974,10.928,2.114,13.061,7.314m-10.327-4.942c-3.522.123-6.267,3.506-7.422,6.566l.1.211a15.214,15.214,0,0,0,13.267,1.065,12.371,12.371,0,0,0,1.964-1c.093-.143.035-.223,0-.358a14.151,14.151,0,0,0-1.038-2.048c-1.431-2.379-3.928-4.536-6.868-4.433" fill="#fff"/>
        <path id="Trazado_1253876" data-name="Trazado 1253876" d="M415.169,459.328l-2.546,2.487H403.68v9.357h9.357c.048-.391-.1-.945.061-1.3a31.121,31.121,0,0,1,2.426-2.371v6.278H401.252l-.177-.178V459.506l.177-.178Z" fill="#fff"/>
        <path id="Trazado_1253877" data-name="Trazado 1253877" d="M415.169,477.212l-2.808,2.581-8.681.025v9.356h9.179c.383-.349.036-.971.24-1.419a30.739,30.739,0,0,1,2.425-2.371v6.278H401.252l-.177-.178V477.39l.177-.178Z" fill="#fff"/>
        <path id="Trazado_1253878" data-name="Trazado 1253878" d="M415.051,495.215l-2.428,2.487h-8.942v9.357h9.179c.383-.35.035-.972.239-1.419a30.761,30.761,0,0,1,2.426-2.371v6.277h-14.45V495.215Z" fill="#fff"/>
        <path id="Trazado_1253879" data-name="Trazado 1253879" d="M416.319,460.656a1.335,1.335,0,0,1,1.555,2.027l-7.321,7.366a1.278,1.278,0,0,1-1.838.056,46.117,46.117,0,0,1-4.386-4.378,1.357,1.357,0,0,1,1.49-2.2c.829.26,2.848,3.144,3.827,3.61l6.232-6.212a.942.942,0,0,1,.441-.268" fill="#fff"/>
        <path id="Trazado_1253880" data-name="Trazado 1253880" d="M404.313,481.753a1.448,1.448,0,0,1,1.727-.208l3.606,3.476,6.427-6.372c1.5-.609,2.67.787,1.646,2.119-1.91,2.484-5.244,4.8-7.285,7.284a1.289,1.289,0,0,1-1.6.058c-1.179-1.519-3.506-3.058-4.56-4.56a1.331,1.331,0,0,1,.041-1.8" fill="#fff"/>
        <path id="Trazado_1253881" data-name="Trazado 1253881" d="M416.44,496.426a1.346,1.346,0,0,1,1.5,1.977l-7.86,7.773a1.354,1.354,0,0,1-1.251-.183,51.385,51.385,0,0,1-4.5-4.5c-1.067-1.44.527-2.945,1.961-1.841,1.149.884,2.132,2.432,3.356,3.251l6.113-6.094a1.848,1.848,0,0,1,.682-.385" fill="#fff"/>
        <path id="Trazado_1253882" data-name="Trazado 1253882" d="M421.534,462.435l14.421-.028a1.366,1.366,0,0,1,.121,2.726l-14.681-.01a1.355,1.355,0,0,1,.139-2.688" fill="#fff"/>
        <path id="Trazado_1253883" data-name="Trazado 1253883" d="M422.372,480.323c.447-.011.774.111,1.146.1,3.832-.124,7.646-.084,11.489,0,.271.005.517-.135.813-.123a1.4,1.4,0,0,1,.756,2.628l-15.3.083a1.362,1.362,0,0,1-.9-1.838c.317-.8,1.259-.83,2-.848" fill="#fff"/>
        <path id="Trazado_1253884" data-name="Trazado 1253884" d="M421.3,485.649c2.742.208,6.185-.38,8.845-.018a1.36,1.36,0,0,1,.118,2.7c-2.693.381-6.2-.256-8.984,0a1.373,1.373,0,0,1,.021-2.689" fill="#fff"/>
        <path id="Trazado_1253885" data-name="Trazado 1253885" d="M421.175,467.762l9.087-.017a1.365,1.365,0,0,1-.229,2.717c-2.676.3-5.9-.216-8.635-.012a1.379,1.379,0,0,1-.223-2.688" fill="#fff"/>
        <path id="Trazado_1253886" data-name="Trazado 1253886" d="M429.145,498.294c-.4.7-.274,1.929-.556,2.581-.051.119-.047.171-.21.151-2.014-.126-4.172.14-6.167,0-.932-.067-2.012-.31-1.957-1.484.016-.366.546-1.245.895-1.245Z" fill="#fff"/>
        <path id="Trazado_1253887" data-name="Trazado 1253887" d="M421.15,506.941a1.529,1.529,0,0,1-.985-1.449c.1-.925.877-1.221,1.691-1.28,2.12-.158,4.436.127,6.577.005l.356,2.724Z" fill="#fff"/>
        <path id="Trazado_1253888" data-name="Trazado 1253888" d="M419.757,442.182c3.277-.549,3.68,4.339.667,4.581a2.319,2.319,0,0,1-.667-4.581" fill="#fff"/>
        <path id="Trazado_1253889" data-name="Trazado 1253889" d="M448.312,491.1c9.106-.207,9.389,13.823.2,13.954-9.048.13-9.363-13.745-.2-13.954m-.482,2.963c-5.021.68-4.382,8.692,1.259,8.01,4.984-.6,4.227-8.753-1.259-8.01" fill="#fff"/>
        <path id="Trazado_1253890" data-name="Trazado 1253890" d="M282.079,432.559a38.964,38.964,0,1,1,38.965-38.965,38.965,38.965,0,0,1-38.965,38.965" fill="#6f88da"/>
        <path id="Trazado_1253891" data-name="Trazado 1253891" d="M312.679,434.152H247.436l31.453-26.538Z" fill="#fff"/>
        <path id="Trazado_1253892" data-name="Trazado 1253892" d="M247.436,354.529h65.243l-31.453,26.538Z" fill="#fff"/>
        <rect id="Rectángulo_430413" data-name="Rectángulo 430413" width="558.325" height="55.58" transform="translate(1.333 686.714)" fill="#3bafa7"/>
      </g>
    </g>
    <path id="Trazado_1255465" data-name="Trazado 1255465" d="M6.216.374c3.407,0,5.617-1.985,6.4-5.766l.861-4.194H9.548L8.724-5.5A2.286,2.286,0,0,1,6.44-3.37c-1.161,0-1.985-.524-1.985-1.8a3.587,3.587,0,0,1,.112-.824L7.713-20.632c.337-1.535,1.123-2.209,2.209-2.209,1.2,0,1.985.562,1.985,1.76a3.629,3.629,0,0,1-.112.861l-.6,2.846h3.969l.449-2.172a9.485,9.485,0,0,0,.225-1.985c0-3.145-1.947-5.055-5.841-5.055-3.407,0-5.654,2.1-6.44,5.766L.524-6.665A9.424,9.424,0,0,0,.3-4.718C.3-1.535,2.284.374,6.216.374Zm14.528,0c3.482,0,5.766-2.022,6.59-5.879l2.958-13.854a9.148,9.148,0,0,0,.225-1.947c0-3.482-2.434-5.28-6.066-5.28-3.445,0-5.766,2.059-6.59,5.916L14.9-6.815a8.818,8.818,0,0,0-.225,1.91C14.678-1.423,17.112.374,20.744.374Zm.225-3.744c-1.311,0-2.1-.562-2.1-1.872a4.2,4.2,0,0,1,.112-.9l3.033-14.341c.374-1.76,1.161-2.359,2.247-2.359,1.311,0,2.059.6,2.059,1.872a4.521,4.521,0,0,1-.112.936L23.178-5.691C22.8-3.932,22.017-3.37,20.969-3.37ZM34.9.374c4.456,0,6.965-3.3,6.965-7.751,0-2.509-1.048-4.755-3.108-7.189-1.61-1.872-2.284-3.37-2.284-4.868,0-1.685.6-3.407,2.434-3.407,1.2,0,1.872.412,1.872,1.685a6.328,6.328,0,0,1-.112,1.123l-.225,1.123h3.932l.112-.487a11.294,11.294,0,0,0,.3-2.359c0-3.145-1.91-4.83-5.617-4.83-4.306,0-6.852,3.22-6.852,7.526,0,2.359,1.011,4.68,3.108,7.039,1.61,1.872,2.284,3.37,2.284,4.98,0,1.835-.562,3.669-2.546,3.669-1.2,0-1.947-.374-1.947-1.722A5.206,5.206,0,0,1,33.325-6.1l.3-1.61H29.693l-.187.9a10.751,10.751,0,0,0-.262,2.322C29.244-1.273,31.078.374,34.9.374ZM45.944,0h4.194l4.755-22.466H59.2l.824-3.744H47.217l-.824,3.744H50.7ZM63.317.374c3.482,0,5.691-2.1,6.478-5.879l4.418-20.706H70.17L65.789-5.654C65.452-3.969,64.7-3.37,63.58-3.37c-1.273,0-2.059-.449-2.059-1.8a4.2,4.2,0,0,1,.112-.9l4.306-20.145H61.745l-4.156,19.4a9.828,9.828,0,0,0-.225,2.022C57.364-1.348,59.723.374,63.317.374ZM71.48,0H75.15l4.231-19.845L78.22,0h3.37l7.3-19.845L84.66,0h3.969l5.579-26.211H88.292L81.515-7.189l1.311-19.021H77.059ZM91.625,0h11.233l.786-3.744h-7l1.722-8.05h5.542l.786-3.744H99.151l1.46-6.927h7l.824-3.744H97.2Zm13.442,0h4.194l2.4-11.233h1.5c1.385,0,1.985.337,1.985,1.5a7.148,7.148,0,0,1-.225,1.573L113.9-3.37a11.874,11.874,0,0,0-.337,2.4,8.519,8.519,0,0,0,.075.974h4.081a4.126,4.126,0,0,1-.075-.674,13.668,13.668,0,0,1,.374-2.359L119-7.639a9.264,9.264,0,0,0,.262-2.172c0-1.648-.6-2.808-1.91-3.258v-.037c2.172-.562,3.258-2.247,3.894-5.317l.262-1.273a10.113,10.113,0,0,0,.225-2.022c0-3-1.872-4.493-5.055-4.493h-6.028Zm7.376-14.978,1.61-7.489h1.872c1.086,0,1.573.374,1.573,1.348a5.2,5.2,0,0,1-.15,1.2L116.9-17.9c-.524,2.284-1.685,2.921-3.22,2.921ZM132.252.374c4.456,0,6.965-3.3,6.965-7.751,0-2.509-1.048-4.755-3.108-7.189-1.61-1.872-2.284-3.37-2.284-4.868,0-1.685.6-3.407,2.434-3.407,1.2,0,1.872.412,1.872,1.685a6.328,6.328,0,0,1-.112,1.123l-.225,1.123h3.932l.112-.487a11.294,11.294,0,0,0,.3-2.359c0-3.145-1.91-4.83-5.617-4.83-4.306,0-6.852,3.22-6.852,7.526,0,2.359,1.011,4.68,3.108,7.039,1.61,1.872,2.284,3.37,2.284,4.98,0,1.835-.562,3.669-2.546,3.669-1.2,0-1.947-.374-1.947-1.722a5.206,5.206,0,0,1,.112-1.011l.3-1.61h-3.932l-.187.9a10.751,10.751,0,0,0-.262,2.322C126.6-1.273,128.432.374,132.252.374ZM140.115,0h11.233l.786-3.744h-7l1.722-8.05H152.4l.786-3.744h-5.542l1.46-6.927h7l.824-3.744H145.694Zm20.257.374c3.407,0,5.579-2.022,6.4-5.916l1.985-9.249h-6.066l-.786,3.744H164l-1.161,5.392c-.374,1.685-1.2,2.284-2.359,2.284s-1.985-.524-1.985-1.8a4.521,4.521,0,0,1,.112-.936l3.108-14.453c.374-1.685,1.161-2.322,2.322-2.322,1.236,0,1.985.524,1.985,1.835a4.521,4.521,0,0,1-.112.936l-.487,2.359H169.4l.337-1.685a10.113,10.113,0,0,0,.225-2.022c0-3.258-1.947-5.13-5.954-5.13-3.445,0-5.617,1.91-6.478,5.879L154.568-6.852a10.533,10.533,0,0,0-.225,2.1C154.343-1.236,156.815.374,160.372.374ZM168.235,0H171.9l4.231-19.845L174.975,0h3.37l7.3-19.845L181.415,0h3.969l5.579-26.211h-5.916L178.27-7.189l1.311-19.021h-5.766ZM188.38,0h11.233l.786-3.744h-7l1.722-8.05h5.542l.786-3.744h-5.542l1.46-6.927h7l.824-3.744H193.959Zm13.442,0h3.744l4.081-19.134L210.7,0h4.044l5.579-26.211h-3.744l-3.37,15.689-.824-15.689H207.4Zm19.209,0h4.194l4.755-22.466h4.306l.824-3.744H222.3l-.824,3.744h4.306Z" transform="translate(180.964 728.237)" fill="#fff"/>
  </g>
</svg>
