<svg xmlns="http://www.w3.org/2000/svg" xmlns:xlink="http://www.w3.org/1999/xlink" width="993.578" height="359.257" viewBox="0 0 993.578 359.257">
  <defs>
    <clipPath id="clip-path">
      <rect id="Rectángulo_430399" data-name="Rectángulo 430399" width="993.578" height="359.258" fill="none"/>
    </clipPath>
  </defs>
  <g id="Grupo_1218560" data-name="Grupo 1218560" transform="translate(0 -2.608)">
    <path id="Trazado_1253791" data-name="Trazado 1253791" d="M.5,70.591.587,188.954.5,305.367H235.444l.086-116.413-.086-118.363Z" transform="translate(0.289 56.494)" fill="#d6bf61"/>
    <path id="Trazado_1255470" data-name="Trazado 1255470" d="M-.4,0H3.1L4.96-8.835H6.7c3.565,0,5.332-1.767,6.076-5.239l.465-2.2a7.3,7.3,0,0,0,.186-1.581c0-2.449-1.488-3.844-4.216-3.844H4.216ZM5.642-11.935,7.037-18.6H8.68c.744,0,1.24.279,1.24,1.178a4,4,0,0,1-.093.775L9.3-14.105c-.31,1.55-1.023,2.17-2.263,2.17ZM11.625,0H15.1l1.984-9.3h1.24c1.147,0,1.643.279,1.643,1.24a5.918,5.918,0,0,1-.186,1.3L18.941-2.79a9.831,9.831,0,0,0-.279,1.984A7.054,7.054,0,0,0,18.724,0H22.1a3.416,3.416,0,0,1-.062-.558,11.316,11.316,0,0,1,.31-1.953l.806-3.813a7.67,7.67,0,0,0,.217-1.8,2.526,2.526,0,0,0-1.581-2.7v-.031c1.8-.465,2.7-1.86,3.224-4.4l.217-1.054a8.373,8.373,0,0,0,.186-1.674c0-2.48-1.55-3.72-4.185-3.72H16.244Zm6.107-12.4,1.333-6.2h1.55c.9,0,1.3.31,1.3,1.116a4.3,4.3,0,0,1-.124.992l-.372,1.674c-.434,1.891-1.4,2.418-2.666,2.418ZM29.853.31c2.883,0,4.774-1.674,5.456-4.867l2.449-11.47a7.574,7.574,0,0,0,.186-1.612c0-2.883-2.015-4.371-5.022-4.371-2.852,0-4.774,1.705-5.456,4.9L25.017-5.642a7.3,7.3,0,0,0-.186,1.581C24.831-1.178,26.846.31,29.853.31Zm.186-3.1c-1.085,0-1.736-.465-1.736-1.55a3.475,3.475,0,0,1,.093-.744l2.511-11.873c.31-1.457.961-1.953,1.86-1.953,1.085,0,1.705.5,1.705,1.55a3.743,3.743,0,0,1-.093.775L31.868-4.712C31.558-3.255,30.907-2.79,30.039-2.79ZM36.58,0h5.58c3.41,0,5.177-1.767,5.921-5.239l2.325-10.974a7.8,7.8,0,0,0,.186-1.612c0-2.48-1.519-3.875-4.371-3.875H41.2Zm4.154-3.1L44.02-18.6h1.767c.868,0,1.3.279,1.3,1.147a4.876,4.876,0,0,1-.093.837L44.578-5.332c-.341,1.55-1.24,2.232-2.325,2.232ZM54.963.31c2.883,0,4.712-1.736,5.363-4.867L63.984-21.7H60.636L57.009-4.681c-.279,1.395-.9,1.891-1.829,1.891-1.054,0-1.705-.372-1.705-1.488a3.474,3.474,0,0,1,.093-.744L57.133-21.7H53.661L50.22-5.642a8.137,8.137,0,0,0-.186,1.674C50.034-1.116,51.987.31,54.963.31ZM67.27.31c2.821,0,4.65-1.643,5.3-4.774l.713-3.472H70.029l-.682,3.379A1.893,1.893,0,0,1,67.456-2.79c-.961,0-1.643-.434-1.643-1.488a2.97,2.97,0,0,1,.093-.682l2.6-12.121c.279-1.271.93-1.829,1.829-1.829.992,0,1.643.465,1.643,1.457a3,3,0,0,1-.093.713l-.5,2.356h3.286l.372-1.8a7.853,7.853,0,0,0,.186-1.643c0-2.6-1.612-4.185-4.836-4.185-2.821,0-4.681,1.736-5.332,4.774L62.558-5.518a7.8,7.8,0,0,0-.186,1.612C62.372-1.271,64.015.31,67.27.31ZM76.2,0H79.67l3.937-18.6h3.565l.682-3.1h-10.6l-.682,3.1h3.565ZM89.869.31c3.689,0,5.766-2.728,5.766-6.417a9.073,9.073,0,0,0-2.573-5.952,6.229,6.229,0,0,1-1.891-4.03c0-1.4.5-2.821,2.015-2.821.992,0,1.55.341,1.55,1.4a5.239,5.239,0,0,1-.093.93l-.186.93h3.255l.093-.4a9.35,9.35,0,0,0,.248-1.953c0-2.6-1.581-4-4.65-4-3.565,0-5.673,2.666-5.673,6.231A8.762,8.762,0,0,0,90.3-9.951a6.239,6.239,0,0,1,1.891,4.123c0,1.519-.465,3.038-2.108,3.038-.992,0-1.612-.31-1.612-1.426a4.31,4.31,0,0,1,.093-.837l.248-1.333H85.56l-.155.744a8.9,8.9,0,0,0-.217,1.922C85.188-1.054,86.707.31,89.869.31ZM108.562-21.7,100.409,0h3.286l1.488-4.247h3.844L108.717,0h3.472l1.085-21.7ZM106.237-7.192l3.751-10.571-.775,10.571ZM113.8,0h3.1l3.379-15.841L121.148,0H124.5l4.619-21.7h-3.1l-2.79,12.989L122.543-21.7H118.42Zm13.237,0h5.58c3.41,0,5.177-1.767,5.921-5.239l2.325-10.974a7.8,7.8,0,0,0,.186-1.612c0-2.48-1.519-3.875-4.371-3.875h-5.022Zm4.154-3.1,3.286-15.5h1.767c.868,0,1.3.279,1.3,1.147a4.876,4.876,0,0,1-.093.837L135.036-5.332C134.7-3.782,133.8-3.1,132.711-3.1Z" transform="translate(47.789 278.808)" fill="#fff"/>
    <path id="Trazado_1255471" data-name="Trazado 1255471" d="M4.588.31c3.689,0,5.766-2.728,5.766-6.417a9.073,9.073,0,0,0-2.573-5.952,6.229,6.229,0,0,1-1.891-4.03c0-1.4.5-2.821,2.015-2.821.992,0,1.55.341,1.55,1.4a5.239,5.239,0,0,1-.093.93l-.186.93h3.255l.093-.4a9.35,9.35,0,0,0,.248-1.953c0-2.6-1.581-4-4.65-4-3.565,0-5.673,2.666-5.673,6.231A8.762,8.762,0,0,0,5.022-9.951,6.239,6.239,0,0,1,6.913-5.828c0,1.519-.465,3.038-2.108,3.038-.992,0-1.612-.31-1.612-1.426a4.31,4.31,0,0,1,.093-.837l.248-1.333H.279l-.155.744A8.9,8.9,0,0,0-.093-3.72C-.093-1.054,1.426.31,4.588.31ZM11.1,0h9.3l.651-3.1h-5.8l1.426-6.665h4.588l.651-3.1H17.329L18.538-18.6h5.8l.682-3.1h-9.3ZM22.227,0H25.7l1.984-9.3h1.24c1.147,0,1.643.279,1.643,1.24a5.918,5.918,0,0,1-.186,1.3L29.543-2.79a9.831,9.831,0,0,0-.279,1.984A7.053,7.053,0,0,0,29.326,0H32.7a3.416,3.416,0,0,1-.062-.558,11.316,11.316,0,0,1,.31-1.953l.806-3.813a7.67,7.67,0,0,0,.217-1.8,2.526,2.526,0,0,0-1.581-2.7v-.031c1.8-.465,2.7-1.86,3.224-4.4l.217-1.054a8.373,8.373,0,0,0,.186-1.674c0-2.48-1.55-3.72-4.185-3.72H26.846Zm6.107-12.4,1.333-6.2h1.55c.9,0,1.3.31,1.3,1.116a4.3,4.3,0,0,1-.124.992l-.372,1.674c-.434,1.891-1.4,2.418-2.666,2.418ZM36.89,0h4.65l7.843-21.7H46.1L40.269-4.65,41.695-21.7h-3.41Zm9.517,0h3.472L54.5-21.7H51.026ZM57.97.31c2.821,0,4.65-1.643,5.3-4.774l.713-3.472H60.729l-.682,3.379A1.893,1.893,0,0,1,58.156-2.79c-.961,0-1.643-.434-1.643-1.488a2.969,2.969,0,0,1,.093-.682l2.6-12.121c.279-1.271.93-1.829,1.829-1.829.992,0,1.643.465,1.643,1.457a3,3,0,0,1-.093.713l-.5,2.356h3.286l.372-1.8a7.853,7.853,0,0,0,.186-1.643c0-2.6-1.612-4.185-4.836-4.185-2.821,0-4.681,1.736-5.332,4.774L53.258-5.518a7.8,7.8,0,0,0-.186,1.612C53.072-1.271,54.715.31,57.97.31ZM64.232,0h9.3l.651-3.1h-5.8l1.426-6.665H74.4l.651-3.1H70.463L71.672-18.6h5.8l.682-3.1h-9.3ZM80.445.31c3.689,0,5.766-2.728,5.766-6.417a9.073,9.073,0,0,0-2.573-5.952,6.229,6.229,0,0,1-1.891-4.03c0-1.4.5-2.821,2.015-2.821.992,0,1.55.341,1.55,1.4a5.239,5.239,0,0,1-.093.93l-.186.93h3.255l.093-.4a9.35,9.35,0,0,0,.248-1.953c0-2.6-1.581-4-4.65-4-3.565,0-5.673,2.666-5.673,6.231a8.762,8.762,0,0,0,2.573,5.828A6.239,6.239,0,0,1,82.77-5.828c0,1.519-.465,3.038-2.108,3.038-.992,0-1.612-.31-1.612-1.426a4.31,4.31,0,0,1,.093-.837l.248-1.333H76.136l-.155.744a8.9,8.9,0,0,0-.217,1.922C75.764-1.054,77.283.31,80.445.31Z" transform="translate(73.789 317.858)" fill="#fff"/>
    <g id="Grupo_1216904" data-name="Grupo 1216904" transform="translate(0 2.609)">
      <g id="Grupo_1216903" data-name="Grupo 1216903" clip-path="url(#clip-path)">
        <path id="Trazado_1253792" data-name="Trazado 1253792" d="M109.542,104.189V123.02h1.448v4.345a3.15,3.15,0,0,0,.984-.661c1.435-1.167,3.431-3.5,5.287-3.666a6.676,6.676,0,0,1,5.92,3.151c.832-.3,1.382-1.114,2.292-1.393,3.662-1.123,7.739,4.377,5.073,7.443l-23.832,23.045c-3.562,3.014-10.961,1.961-15.424,3.144l-14.01-1.171,2.373,1.65-2.721,5.322-2.55-1.181c-.129-.171,1.291-2.477,1.4-2.894.035-.145.065-.224-.067-.335l-19.587-13.34a1.548,1.548,0,0,0-1.8.275l-9.653,17.469-2.529-1.368L52,144.947a4.576,4.576,0,0,1,6.385-.471c1.453-2.077,2.73-4.3,4.673-5.985V115.778H86.234V104.189Zm-13.036,2.9H89.262V123.02h17.383V107.086H99.4v2.9h-2.9Zm-21.86,11.587h-8.69v17.778a19.646,19.646,0,0,1,12.012-2.73c2.225.263,4.565,1.386,6.817,1.675V123.217c.347-.376.979-.139,1.449-.2v-4.347H77.543v2.9h-2.9Zm21.86,10.272v-2.83l-.2-.2H87.814v9.942c0,.035-.139.134-.12.249l.309.22,9.6,2.6,10.487-8.995v-3.818l-.2-.2H99.4v2.83c-.8.5-1.994,0-2.9.2m4.608,10.927c1.051.159,2.375.806,3.4.9a.748.748,0,0,0,.6-.122c4.054-3.573,8.845-6.611,12.858-10.187a26.356,26.356,0,0,0,2.638-2.774c.079-.8-2.858-2.273-3.581-1.46Zm16.516.716c3.6-3.486,7.286-6.895,10.811-10.462.331-.727-1.159-2.737-2.1-2.5l-20.749,16.4-.522-.071a5.14,5.14,0,0,1-5.181,5.782l-17.669-2.9-4.72,2.377-1.344-2.5,5.325-2.954,18.117,2.961a2.049,2.049,0,0,0,1.256-3.888c-7.226-1.735-14.329-4.146-21.566-5.823a15.01,15.01,0,0,0-9.9.954c-3.925,1.7-6.431,4.537-8.556,8.163l12.335,8.339c5.034-.543,10.3.483,15.376.809a71.373,71.373,0,0,0,13.678-1.069c1.931-.293,2.876-1.474,4.234-2.746,3.791-3.55,7.448-7.269,11.178-10.878" transform="translate(32.168 79.533)" fill="#fff"/>
        <path id="Trazado_1253793" data-name="Trazado 1253793" d="M63.412,121.177a16.046,16.046,0,0,1-1.712-32l.471,2.772a13.917,13.917,0,0,0-10.007,6.457,13.088,13.088,0,0,0,6.87,19.049c2.386.845,4.564.707,7.059.711l.2.2c.085.46-.041.982.019,1.432.025.183-.072.229.2.194l5.463-3.225L66.5,113.542c-.266-.035-.169.011-.194.192-.063.467.044,1.035,0,1.518H61.9c-1.9,0-5.112-2.109-6.322-3.555a10.233,10.233,0,0,1,5.849-16.581l.878,2.627c-1.887.7-3.507,1.379-4.74,3.035a7.25,7.25,0,0,0,5.849,11.576v-3.819l14.482,8.23L63.412,125Z" transform="translate(36.159 68.074)" fill="#fff"/>
        <path id="Trazado_1253794" data-name="Trazado 1253794" d="M63.11,94.933l1.247-2.04L62.648,89.8l8.63-4.879c.127-.021.18.06.259.136.367.349,1.3,2.6,1.541,2.738l2.382.03c.236-.058,1.275-2.451,1.606-2.768.079-.076.132-.157.261-.136L85.766,89.8a.407.407,0,0,1,.007.4c-.183.561-1.462,2.171-1.5,2.587L85.5,94.933h3.357v10.009H85.3l-1.049,2.04c.109.6,1.79,2.656,1.515,3.093l-8.436,4.879-.261-.136-1.606-2.768-2.382.03-1.541,2.738-.259.136-8.487-4.964,1.566-3.008-1.247-2.04H59.753V94.933Zm2.172,2.9H62.648v4.214h2.634a10.022,10.022,0,0,0,2.62,4.569l-1.157,2.395,3.6,1.994,1.248-2.181a13.541,13.541,0,0,0,5.451.065L78.259,111l3.608-1.991-1.164-2.4a10.038,10.038,0,0,0,2.62-4.569h2.633V97.83H83.324a11.96,11.96,0,0,0-2.612-4.7c-.023-.272,1.012-1.624,1.111-2.017.037-.15.088-.227-.078-.33l-3.486-1.915-1.213,2.116a15.1,15.1,0,0,0-5.486,0l-1.213-2.116-3.608,1.991,1.15,2.271a11.618,11.618,0,0,0-2.606,4.7" transform="translate(45.612 64.821)" fill="#fff"/>
        <path id="Trazado_1253795" data-name="Trazado 1253795" d="M50.924,130.562c.427-.083,1.747,1.585,2.151,1.889L51.036,134.5l-2.031-1.933Z" transform="translate(37.408 99.662)" fill="#fff"/>
        <path id="Trazado_1253796" data-name="Trazado 1253796" d="M71.428,90.971v2.9h2.9v2.9h-2.9v2.9H68.4v-2.9H65.5v-2.9h2.9v-2.9Z" transform="translate(50.002 69.443)" fill="#fff"/>
        <path id="Trazado_1253797" data-name="Trazado 1253797" d="M379.079,196.545l-.088,56.635H144.047l.088-56.635-.088-57.584H378.991Z" transform="translate(109.742 106.076)" fill="#3bafa7"/>
        <path id="Trazado_1253798" data-name="Trazado 1253798" d="M379.079,125.682l-.088,54.182H144.047l.088-54.182-.088-55.089H378.991Z" transform="translate(109.742 53.887)" fill="#3bafa7"/>
        <path id="Trazado_1255469" data-name="Trazado 1255469" d="M5.239.31c2.821,0,4.619-1.674,5.3-4.9l1.643-7.657H7.161l-.651,3.1H8.246L7.285-4.681C6.975-3.286,6.293-2.79,5.332-2.79S3.689-3.224,3.689-4.278a3.743,3.743,0,0,1,.093-.775L6.355-17.019c.31-1.395.961-1.922,1.922-1.922,1.023,0,1.643.434,1.643,1.519a3.743,3.743,0,0,1-.093.775l-.4,1.953H12.71l.279-1.4a8.373,8.373,0,0,0,.186-1.674c0-2.7-1.612-4.247-4.929-4.247-2.852,0-4.65,1.581-5.363,4.867L.434-5.673A8.721,8.721,0,0,0,.248-3.937C.248-1.023,2.294.31,5.239.31ZM18.972-21.7,10.819,0h3.286l1.488-4.247h3.844L19.127,0H22.6l1.085-21.7ZM16.647-7.192,20.4-17.763,19.623-7.192ZM24.211,0h3.472L32.3-21.7H28.83Zm6.014,0h3.1L36.7-15.841,37.572,0H40.92l4.619-21.7h-3.1L39.649-8.711,38.967-21.7H34.844ZM53.971.31c2.821,0,4.65-1.643,5.3-4.774l.713-3.472H56.73l-.682,3.379A1.893,1.893,0,0,1,54.157-2.79c-.961,0-1.643-.434-1.643-1.488a2.969,2.969,0,0,1,.093-.682l2.6-12.121c.279-1.271.93-1.829,1.829-1.829.992,0,1.643.465,1.643,1.457a3,3,0,0,1-.093.713l-.5,2.356H61.38l.372-1.8a7.853,7.853,0,0,0,.186-1.643c0-2.6-1.612-4.185-4.836-4.185-2.821,0-4.681,1.736-5.332,4.774L49.259-5.518a7.8,7.8,0,0,0-.186,1.612C49.073-1.271,50.716.31,53.971.31ZM60.233,0h3.472l1.984-9.3h1.24c1.147,0,1.643.279,1.643,1.24a5.918,5.918,0,0,1-.186,1.3L67.549-2.79A9.83,9.83,0,0,0,67.27-.806,7.054,7.054,0,0,0,67.332,0h3.379a3.416,3.416,0,0,1-.062-.558,11.316,11.316,0,0,1,.31-1.953l.806-3.813a7.67,7.67,0,0,0,.217-1.8,2.526,2.526,0,0,0-1.581-2.7v-.031c1.8-.465,2.7-1.86,3.224-4.4l.217-1.054a8.373,8.373,0,0,0,.186-1.674c0-2.48-1.55-3.72-4.185-3.72H64.852ZM66.34-12.4l1.333-6.2h1.55c.9,0,1.3.31,1.3,1.116a4.3,4.3,0,0,1-.124.992l-.372,1.674C69.6-12.927,68.634-12.4,67.363-12.4ZM72.788,0h9.3l.651-3.1h-5.8l1.426-6.665h4.588l.651-3.1H79.019L80.228-18.6h5.8l.682-3.1h-9.3Zm18.6-21.7L83.235,0h3.286l1.488-4.247h3.844L91.543,0h3.472L96.1-21.7ZM89.063-7.192l3.751-10.571L92.039-7.192ZM96.5,0h3.472l3.937-18.6h3.565l.682-3.1h-10.6l-.682,3.1h3.565Zm14.1.31c2.883,0,4.774-1.674,5.456-4.867l2.449-11.47a7.575,7.575,0,0,0,.186-1.612c0-2.883-2.015-4.371-5.022-4.371-2.852,0-4.774,1.705-5.456,4.9l-2.449,11.47a7.3,7.3,0,0,0-.186,1.581C105.586-1.178,107.6.31,110.608.31Zm.186-3.1c-1.085,0-1.736-.465-1.736-1.55a3.474,3.474,0,0,1,.093-.744l2.511-11.873c.31-1.457.961-1.953,1.86-1.953,1.085,0,1.705.5,1.705,1.55a3.743,3.743,0,0,1-.093.775L112.623-4.712C112.313-3.255,111.662-2.79,110.794-2.79ZM117.335,0h3.472l1.984-9.3h1.24c1.147,0,1.643.279,1.643,1.24a5.918,5.918,0,0,1-.186,1.3l-.837,3.968a9.83,9.83,0,0,0-.279,1.984,7.054,7.054,0,0,0,.062.806h3.379a3.416,3.416,0,0,1-.062-.558,11.315,11.315,0,0,1,.31-1.953l.806-3.813a7.67,7.67,0,0,0,.217-1.8,2.526,2.526,0,0,0-1.581-2.7v-.031c1.8-.465,2.7-1.86,3.224-4.4l.217-1.054a8.374,8.374,0,0,0,.186-1.674c0-2.48-1.55-3.72-4.185-3.72h-4.991Zm6.107-12.4,1.333-6.2h1.55c.9,0,1.3.31,1.3,1.116a4.3,4.3,0,0,1-.124.992l-.372,1.674c-.434,1.891-1.395,2.418-2.666,2.418ZM134.881.31c3.689,0,5.766-2.728,5.766-6.417a9.073,9.073,0,0,0-2.573-5.952,6.229,6.229,0,0,1-1.891-4.03c0-1.4.5-2.821,2.015-2.821.992,0,1.55.341,1.55,1.4a5.24,5.24,0,0,1-.093.93l-.186.93h3.255l.093-.4a9.35,9.35,0,0,0,.248-1.953c0-2.6-1.581-4-4.65-4-3.565,0-5.673,2.666-5.673,6.231a8.762,8.762,0,0,0,2.573,5.828,6.239,6.239,0,0,1,1.891,4.123c0,1.519-.465,3.038-2.108,3.038-.992,0-1.612-.31-1.612-1.426a4.311,4.311,0,0,1,.093-.837l.248-1.333h-3.255l-.155.744A8.9,8.9,0,0,0,130.2-3.72C130.2-1.054,131.719.31,134.881.31Z" transform="translate(299.789 226.139)" fill="#fff"/>
        <path id="Trazado_1255472" data-name="Trazado 1255472" d="M-.4,0H3.1L4.96-8.835H6.7c3.565,0,5.332-1.767,6.076-5.239l.465-2.2a7.3,7.3,0,0,0,.186-1.581c0-2.449-1.488-3.844-4.216-3.844H4.216ZM5.642-11.935,7.037-18.6H8.68c.744,0,1.24.279,1.24,1.178a4,4,0,0,1-.093.775L9.3-14.105c-.31,1.55-1.023,2.17-2.263,2.17ZM16.771-21.7,8.618,0H11.9l1.488-4.247h3.844L16.926,0H20.4l1.085-21.7ZM14.446-7.192,18.2-17.763,17.422-7.192ZM22.01,0h3.472L30.1-21.7H26.629Zm6.014,0h3.1L34.5-15.841,35.371,0h3.348l4.619-21.7h-3.1L37.448-8.711,36.766-21.7H32.643Zm18.2,0h3.472l1.984-9.3h1.24c1.147,0,1.643.279,1.643,1.24a5.918,5.918,0,0,1-.186,1.3L53.537-2.79a9.831,9.831,0,0,0-.279,1.984A7.054,7.054,0,0,0,53.32,0H56.7a3.416,3.416,0,0,1-.062-.558,11.316,11.316,0,0,1,.31-1.953l.806-3.813a7.67,7.67,0,0,0,.217-1.8,2.526,2.526,0,0,0-1.581-2.7v-.031c1.8-.465,2.7-1.86,3.224-4.4l.217-1.054a8.373,8.373,0,0,0,.186-1.674c0-2.48-1.55-3.72-4.185-3.72H50.84Zm6.107-12.4,1.333-6.2h1.55c.9,0,1.3.31,1.3,1.116a4.3,4.3,0,0,1-.124.992l-.372,1.674c-.434,1.891-1.395,2.418-2.666,2.418ZM58.776,0h9.3l.651-3.1h-5.8l1.426-6.665h4.588l.651-3.1H65.007L66.216-18.6h5.8l.682-3.1H63.4ZM69.9,0h9.021l.651-3.1H74.028L78-21.7H74.524ZM80.569,0h3.472L88.66-21.7H85.188Zm6.014,0h9.3l.651-3.1h-5.8l1.426-6.665h4.588l.651-3.1H92.814L94.023-18.6h5.8l.682-3.1H91.2Zm13.7,0h4.65l7.843-21.7h-3.286L103.664-4.65,105.09-21.7h-3.41ZM109.8,0h9.3l.651-3.1h-5.8l1.426-6.665h4.588l.651-3.1h-4.588l1.209-5.735h5.8l.682-3.1h-9.3Zm11.129,0H124.4l1.984-9.3h1.24c1.147,0,1.643.279,1.643,1.24a5.918,5.918,0,0,1-.186,1.3l-.837,3.968a9.831,9.831,0,0,0-.279,1.984A7.054,7.054,0,0,0,128.03,0h3.379a3.417,3.417,0,0,1-.062-.558,11.316,11.316,0,0,1,.31-1.953l.806-3.813a7.67,7.67,0,0,0,.217-1.8,2.526,2.526,0,0,0-1.581-2.7v-.031c1.8-.465,2.7-1.86,3.224-4.4l.217-1.054a8.372,8.372,0,0,0,.186-1.674c0-2.48-1.55-3.72-4.185-3.72H125.55Zm6.107-12.4,1.333-6.2h1.55c.9,0,1.3.31,1.3,1.116a4.3,4.3,0,0,1-.124.992l-.372,1.674c-.434,1.891-1.4,2.418-2.666,2.418ZM138.477.31c3.689,0,5.766-2.728,5.766-6.417a9.073,9.073,0,0,0-2.573-5.952,6.229,6.229,0,0,1-1.891-4.03c0-1.4.5-2.821,2.015-2.821.992,0,1.55.341,1.55,1.4a5.24,5.24,0,0,1-.093.93l-.186.93h3.255l.093-.4a9.35,9.35,0,0,0,.248-1.953c0-2.6-1.581-4-4.65-4-3.565,0-5.673,2.666-5.673,6.231a8.762,8.762,0,0,0,2.573,5.828A6.239,6.239,0,0,1,140.8-5.828c0,1.519-.465,3.038-2.108,3.038-.992,0-1.612-.31-1.612-1.426a4.311,4.311,0,0,1,.093-.837l.248-1.333h-3.255l-.155.744A8.9,8.9,0,0,0,133.8-3.72C133.8-1.054,135.315.31,138.477.31Z" transform="translate(297.789 350.353)" fill="#fff"/>
      </g>
    </g>
    <g id="Grupo_1216906" data-name="Grupo 1216906" transform="translate(0 2.609)">
      <g id="Grupo_1216905" data-name="Grupo 1216905" clip-path="url(#clip-path)">
        <path id="Trazado_1253799" data-name="Trazado 1253799" d="M249.554,105.8c-2.243,2.153-4.528,4.549-6.84,6.6a9.225,9.225,0,0,1-2.9,1.8c-4.482,1.926-9.169,3.613-13.782,5.149-5.911.467-12.356-.361-18.2.1a7.076,7.076,0,0,0-1.407.319c-.115.162.437.861.525,1.093a1.679,1.679,0,0,1-.42,1.993l-8.783,5.13a1.782,1.782,0,0,1-2.5-.862c-3.407-6.412-7.535-12.476-10.915-18.894-.624-1.185-1.092-1.98.192-2.98,2.389-1.864,6.084-3.176,8.605-4.992a1.748,1.748,0,0,1,2.061.3c.194.192.238.665.587.577l7.72-5.258a6.093,6.093,0,0,1,2.137-.793c2.326-.342,5.435-.328,7.843-.42a5.886,5.886,0,0,1,3.819.679,11.655,11.655,0,0,0,2.465,1.3c3.447.476,9.422-.956,12.275,1.01,3.393,2.34,3.59,7.459-.148,9.566-1.739.98-8.189,1.781-10.358,1.88a26.34,26.34,0,0,1-6.35-.448,1.731,1.731,0,0,1-.229-3.2c.887-.354,2.922.143,3.966.2a31.378,31.378,0,0,0,5.736-.328,32.321,32.321,0,0,0,5.276-1c2.285-.852,1.173-3.985-.868-4.214-2.987-.337-6.586.3-9.61-.012-1.756-.183-3.1-1.578-4.719-2.079-3.031.206-6.1.206-9.106.621l-8.187,5.618,7.247,12.562a8.747,8.747,0,0,1,3.139-.815c5.905-.379,12.155.376,18.09-.109l13.451-5.272.571-.37L251.482,99.2l0-.229c-.889-.376-1.816-1.368-2.795-1.416a2.312,2.312,0,0,0-1.739.778c-2.328,1.811-4.458,4.045-6.819,5.838a1.722,1.722,0,0,1-2.181-2.6c2.384-1.9,4.622-4.2,7.013-6.061a5.484,5.484,0,0,1,5.768-.963,34.62,34.62,0,0,1,4.731,2.9,1.779,1.779,0,0,1,.324,2.4c-2.042,2.023-4.161,3.966-6.233,5.953m-57.494,1.654a1.7,1.7,0,0,0,.591,3.319,1.7,1.7,0,1,0-.591-3.319" transform="translate(140.234 71.837)" fill="#fff"/>
        <path id="Trazado_1253800" data-name="Trazado 1253800" d="M227.665,76.844c-1.086.406-2.5,1.659-3.685,1.227a1.7,1.7,0,0,1-.152-3.13c1.971-.755,4.02-2.217,5.962-2.927a1.667,1.667,0,0,1,2.31.762,50.107,50.107,0,0,1,2.9,5.881,1.7,1.7,0,0,1-.855,2.419c-2.017.737-2.342-1.672-3.188-2.871a25.228,25.228,0,0,1-3,6.2c-6.216,9.051-18.5,13.382-29.215,12.31a8.556,8.556,0,0,1-1.966-.335,1.7,1.7,0,0,1,.131-3.174,17.138,17.138,0,0,1,3.506.272,31.042,31.042,0,0,0,19.125-5.359c3.775-2.677,7.106-6.676,8.124-11.277" transform="translate(149.424 54.834)" fill="#fff"/>
        <path id="Trazado_1253801" data-name="Trazado 1253801" d="M218.514,78.07a1.771,1.771,0,0,1,1.416,1.6l-.025,20.58a1.7,1.7,0,0,1-1.412,1.412,34.577,34.577,0,0,1-5.389,0,1.78,1.78,0,0,1-1.333-1.6l.023-13.682a29.58,29.58,0,0,0,5.565-6.357,16.522,16.522,0,0,1,1.155-1.954" transform="translate(161.655 59.595)" fill="#fff"/>
        <path id="Trazado_1253802" data-name="Trazado 1253802" d="M213.126,95.782a1.929,1.929,0,0,1-1.516,1.2,33.837,33.837,0,0,1-5.02,0,1.722,1.722,0,0,1-1.52-1.409l0-7.94a36.147,36.147,0,0,0,8.06-3.41Z" transform="translate(156.537 64.293)" fill="#fff"/>
        <path id="Trazado_1253803" data-name="Trazado 1253803" d="M206.292,86.6a3.981,3.981,0,0,1,.219.882,45.057,45.057,0,0,1,0,6.075,1.711,1.711,0,0,1-1.829,1.622,34.147,34.147,0,0,1-4.712-.005,1.715,1.715,0,0,1-1.621-1.726,44.142,44.142,0,0,1-.005-5.756c.018-.265.106-.513.115-.776a36.489,36.489,0,0,0,7.833-.316" transform="translate(151.336 66.105)" fill="#fff"/>
        <path id="Trazado_1253804" data-name="Trazado 1253804" d="M219.669,156.639c10.665-1.823,18.713,8.491,13.095,17.981l-27.12,27.224c-10.026,6.874-22.849-5.089-17.268-15.636,1.957-3.7,21.335-22.782,25.449-26.175,1.666-1.374,3.684-3.024,5.846-3.394m2.188,2.686c-5.138.589-11.615,9.988-15.6,13.287l11.719,12.112c3.148-2.961,12.574-10.418,13.2-14.392.857-5.413-3.8-11.642-9.328-11.007m-18.55,16.24-1.961,1.862,12.213,12.211,1.663-1.621v-1.077c-1.705-1.264-10.86-11.561-11.915-11.375m-4.422,4.322-1.663,1.621v1.077c.353.684,9.965,10.272,10.887,10.9.48.33.735.778,1.368.272L211.1,192.1Zm-4.814,4.918c-.786.647-2.352,1.564-1.74,2.67l11.989,11.4,1.663-1.622,0-1.076Zm7.26,15.71L191,190.462c-2.217-.956-.243,4.3.243,5.2,1.927,3.55,6.071,5.965,10.083,4.856" transform="translate(142.761 119.409)" fill="#fff"/>
        <path id="Trazado_1253805" data-name="Trazado 1253805" d="M212.729,142.431c5.452-1.217,11.007,4.8,7.992,10.169-.607,1.077-14.2,14.682-15.472,15.505-5.786,3.744-13.172-3.264-9.675-9.132,1.058-1.776,13.144-13.835,15.124-15.306a5.1,5.1,0,0,1,2.031-1.236m1.1,2.146c-2.2.4-6,5.773-8,7.253l6.24,6.239c1.569-2.086,7.172-5.978,7.332-8.452.153-2.345-3.213-5.47-5.572-5.04" transform="translate(148.601 108.603)" fill="#fff"/>
        <path id="Trazado_1253806" data-name="Trazado 1253806" d="M218.577,147c2.356-.187,4.015.751,5.807,2.074,2.6,1.919,17.187,16.42,18.674,18.822,4.549,7.341-4.5,16.382-11.844,11.843-1.642-1.016-18.434-17.921-19.5-19.631-3.294-5.309.866-12.633,6.859-13.107m-1.132,3.262c-3.026.7-4.969,4.664-4.075,7.653.182.6,8.131,9.148,8.78,9.035l7.946-7.84c-3.936-2.906-7.166-10.12-12.65-8.848m14.638,10.79c-1.28,1.52-7.785,6.637-7.353,8.274.141.54,7.106,7.57,7.8,8,5.117,3.156,11.437-3.377,7.649-8.729-.7-.989-7.552-7.642-8.1-7.545" transform="translate(160.728 112.192)" fill="#fff"/>
        <path id="Trazado_1253807" data-name="Trazado 1253807" d="M208.4,160.794l1.12,2.16c-1.859,1.354-3.687,4.267-5.451,5.47-1.354.924-1.488.109-2.453-.848Z" transform="translate(153.902 122.742)" fill="#fff"/>
        <path id="Trazado_1253808" data-name="Trazado 1253808" d="M206.277,145.074l1.34.813-4.057,3.528c-2.171-.409,2.426-3.842,2.717-4.341" transform="translate(154.944 110.742)" fill="#fff"/>
        <path id="Trazado_1253809" data-name="Trazado 1253809" d="M216.909,150.318a36.262,36.262,0,0,1,4.079,4.065c.457.7.582,1.192-.282,1.356l-4.35-3.793c-.732-.494.3-1.638.554-1.628" transform="translate(164.957 114.745)" fill="#fff"/>
        <path id="Trazado_1253810" data-name="Trazado 1253810" d="M522.039,196.545l-.088,56.635H287.007l.088-56.635-.088-57.584H521.951Z" transform="translate(218.781 106.076)" fill="#219cd5"/>
        <path id="Trazado_1253811" data-name="Trazado 1253811" d="M522.039,125.682l-.088,54.182H287.007l.088-54.182-.088-55.089H521.951Z" transform="translate(218.781 53.887)" fill="#219cd5"/>
        <path id="Trazado_1255473" data-name="Trazado 1255473" d="M5.239.31c2.821,0,4.619-1.674,5.3-4.9l1.643-7.657H7.161l-.651,3.1H8.246L7.285-4.681C6.975-3.286,6.293-2.79,5.332-2.79S3.689-3.224,3.689-4.278a3.743,3.743,0,0,1,.093-.775L6.355-17.019c.31-1.395.961-1.922,1.922-1.922,1.023,0,1.643.434,1.643,1.519a3.743,3.743,0,0,1-.093.775l-.4,1.953H12.71l.279-1.4a8.373,8.373,0,0,0,.186-1.674c0-2.7-1.612-4.247-4.929-4.247-2.852,0-4.65,1.581-5.363,4.867L.434-5.673A8.721,8.721,0,0,0,.248-3.937C.248-1.023,2.294.31,5.239.31ZM18.972-21.7,10.819,0h3.286l1.488-4.247h3.844L19.127,0H22.6l1.085-21.7ZM16.647-7.192,20.4-17.763,19.623-7.192ZM24.211,0h3.472L32.3-21.7H28.83Zm6.014,0h3.1L36.7-15.841,37.572,0H40.92l4.619-21.7h-3.1L39.649-8.711,38.967-21.7H34.844ZM48.453.31c3.689,0,5.766-2.728,5.766-6.417a9.073,9.073,0,0,0-2.573-5.952,6.229,6.229,0,0,1-1.891-4.03c0-1.4.5-2.821,2.015-2.821.992,0,1.55.341,1.55,1.4a5.239,5.239,0,0,1-.093.93l-.186.93H56.3l.093-.4a9.35,9.35,0,0,0,.248-1.953c0-2.6-1.581-4-4.65-4-3.565,0-5.673,2.666-5.673,6.231a8.762,8.762,0,0,0,2.573,5.828,6.239,6.239,0,0,1,1.891,4.123c0,1.519-.465,3.038-2.108,3.038-.992,0-1.612-.31-1.612-1.426a4.31,4.31,0,0,1,.093-.837L47.4-6.386H44.144l-.155.744a8.9,8.9,0,0,0-.217,1.922C43.772-1.054,45.291.31,48.453.31Z" transform="translate(594.789 226.139)" fill="#fff"/>
        <path id="Trazado_1255474" data-name="Trazado 1255474" d="M-.4,0H3.1L4.96-8.835H6.7c3.565,0,5.332-1.767,6.076-5.239l.465-2.2a7.3,7.3,0,0,0,.186-1.581c0-2.449-1.488-3.844-4.216-3.844H4.216ZM5.642-11.935,7.037-18.6H8.68c.744,0,1.24.279,1.24,1.178a4,4,0,0,1-.093.775L9.3-14.105c-.31,1.55-1.023,2.17-2.263,2.17ZM16.771-21.7,8.618,0H11.9l1.488-4.247h3.844L16.926,0H20.4l1.085-21.7ZM14.446-7.192,18.2-17.763,17.422-7.192ZM22.01,0h3.472L30.1-21.7H26.629Zm6.014,0h3.1L34.5-15.841,35.371,0h3.348l4.619-21.7h-3.1L37.448-8.711,36.766-21.7H32.643ZM46.252.31c3.689,0,5.766-2.728,5.766-6.417a9.073,9.073,0,0,0-2.573-5.952,6.229,6.229,0,0,1-1.891-4.03c0-1.4.5-2.821,2.015-2.821.992,0,1.55.341,1.55,1.4a5.239,5.239,0,0,1-.093.93l-.186.93H54.1l.093-.4a9.35,9.35,0,0,0,.248-1.953c0-2.6-1.581-4-4.65-4-3.565,0-5.673,2.666-5.673,6.231a8.762,8.762,0,0,0,2.573,5.828,6.239,6.239,0,0,1,1.891,4.123c0,1.519-.465,3.038-2.108,3.038-.992,0-1.612-.31-1.612-1.426a4.31,4.31,0,0,1,.093-.837L45.2-6.386H41.943l-.155.744a8.9,8.9,0,0,0-.217,1.922C41.571-1.054,43.09.31,46.252.31Z" transform="translate(596.789 350.353)" fill="#fff"/>
      </g>
    </g>
    <g id="Grupo_1216908" data-name="Grupo 1216908" transform="translate(0 2.609)">
      <g id="Grupo_1216907" data-name="Grupo 1216907" clip-path="url(#clip-path)">
        <path id="Trazado_1253812" data-name="Trazado 1253812" d="M360.533,77.488l2.98.346a26.952,26.952,0,0,1,22.4,23.054l.235,2.22c-.032.8.042,1.6,0,2.4C385,126.634,360.961,138.614,343.6,125.98c-20.487-14.913-10.668-47.125,14.53-48.492ZM357.895,80.9c-17.581,1.063-27.889,20.79-18.441,35.824a23.468,23.468,0,0,0,39.8-.067c10.04-16.149-2.5-36.9-21.361-35.757" transform="translate(267.855 59.15)" fill="#fff"/>
        <path id="Trazado_1253813" data-name="Trazado 1253813" d="M340.385,94.653c1.606-.333,1.832.853,2.6,1.818,5.121,6.424,17.367,6.5,22.491.062.471-.589.9-1.71,1.717-1.88a1.678,1.678,0,0,1,2.105,1.883c-.1.986-2.118,3.183-2.888,3.872-6.727,6.018-19.469,5.682-25.509-1.2a10.812,10.812,0,0,1-1.636-2.4,1.714,1.714,0,0,1,1.118-2.158" transform="translate(272.933 72.209)" fill="#fff"/>
        <path id="Trazado_1253814" data-name="Trazado 1253814" d="M343.83,87.046c4.631-.681,5.274,6.064,1.16,6.613-4.613.615-5.223-6.017-1.16-6.613" transform="translate(274.396 66.41)" fill="#fff"/>
        <path id="Trazado_1253815" data-name="Trazado 1253815" d="M353.256,87.049c5.195-.816,5.286,7.307.092,6.614-3.645-.485-3.611-6.061-.092-6.614" transform="translate(281.642 66.405)" fill="#fff"/>
        <path id="Trazado_1253816" data-name="Trazado 1253816" d="M360.533,145.579l2.98.346a26.952,26.952,0,0,1,22.4,23.054l.235,2.22c-.032.8.042,1.6,0,2.4C385,194.725,360.961,206.705,343.6,194.071c-20.487-14.913-10.668-47.125,14.53-48.492Zm-2.638,3.412c-17.581,1.063-27.889,20.79-18.441,35.824a23.468,23.468,0,0,0,39.8-.067c10.04-16.149-2.5-36.9-21.361-35.757" transform="translate(263.855 111.128)" fill="#fff"/>
        <path id="Trazado_1253817" data-name="Trazado 1253817" d="M368.134,172.7c-1.606.333-1.832-.853-2.6-1.818-5.121-6.424-17.367-6.5-22.493-.062-.471.589-.9,1.71-1.717,1.88a1.678,1.678,0,0,1-2.1-1.885c.1-.984,2.118-3.181,2.888-3.871,6.727-6.018,19.469-5.682,25.509,1.2a10.81,10.81,0,0,1,1.636,2.4,1.714,1.714,0,0,1-1.118,2.158" transform="translate(268.933 124.186)" fill="#fff"/>
        <path id="Trazado_1253818" data-name="Trazado 1253818" d="M343.83,155.138c4.631-.681,5.274,6.064,1.16,6.613-4.613.615-5.223-6.017-1.16-6.613" transform="translate(270.396 118.387)" fill="#fff"/>
        <path id="Trazado_1253819" data-name="Trazado 1253819" d="M353.256,155.14c5.195-.816,5.286,7.307.092,6.614-3.645-.485-3.611-6.061-.092-6.614" transform="translate(277.642 118.382)" fill="#fff"/>
        <path id="Trazado_1253820" data-name="Trazado 1253820" d="M660.327,188.956l-.086,116.415H430.174l.086-116.415-.086-118.363H660.241Z" transform="translate(328.615 53.887)" fill="#7686d5"/>
        <path id="Trazado_1255476" data-name="Trazado 1255476" d="M5.146.31c2.821,0,4.65-1.643,5.3-4.774l.713-3.472H7.9L7.223-4.557A1.893,1.893,0,0,1,5.332-2.79c-.961,0-1.643-.434-1.643-1.488a2.969,2.969,0,0,1,.093-.682l2.6-12.121c.279-1.271.93-1.829,1.829-1.829.992,0,1.643.465,1.643,1.457a3,3,0,0,1-.093.713l-.5,2.356h3.286l.372-1.8a7.853,7.853,0,0,0,.186-1.643c0-2.6-1.612-4.185-4.836-4.185-2.821,0-4.681,1.736-5.332,4.774L.434-5.518A7.8,7.8,0,0,0,.248-3.906C.248-1.271,1.891.31,5.146.31ZM17.2.31c2.883,0,4.774-1.674,5.456-4.867l2.449-11.47a7.574,7.574,0,0,0,.186-1.612c0-2.883-2.015-4.371-5.022-4.371-2.852,0-4.774,1.705-5.456,4.9L12.369-5.642a7.3,7.3,0,0,0-.186,1.581C12.183-1.178,14.2.31,17.2.31Zm.186-3.1c-1.085,0-1.736-.465-1.736-1.55a3.475,3.475,0,0,1,.093-.744l2.511-11.873c.31-1.457.961-1.953,1.86-1.953,1.085,0,1.705.5,1.705,1.55a3.743,3.743,0,0,1-.093.775L19.22-4.712C18.91-3.255,18.259-2.79,17.391-2.79ZM28.923.31c3.689,0,5.766-2.728,5.766-6.417a9.073,9.073,0,0,0-2.573-5.952,6.229,6.229,0,0,1-1.891-4.03c0-1.4.5-2.821,2.015-2.821.992,0,1.55.341,1.55,1.4a5.239,5.239,0,0,1-.093.93l-.186.93h3.255l.093-.4a9.35,9.35,0,0,0,.248-1.953c0-2.6-1.581-4-4.65-4-3.565,0-5.673,2.666-5.673,6.231a8.762,8.762,0,0,0,2.573,5.828,6.239,6.239,0,0,1,1.891,4.123c0,1.519-.465,3.038-2.108,3.038-.992,0-1.612-.31-1.612-1.426a4.31,4.31,0,0,1,.093-.837l.248-1.333H24.614l-.155.744a8.9,8.9,0,0,0-.217,1.922C24.242-1.054,25.761.31,28.923.31ZM38.068,0H41.54l3.937-18.6h3.565l.682-3.1h-10.6l-.682,3.1h3.565ZM52.452.31c2.883,0,4.712-1.736,5.363-4.867L61.473-21.7H58.125L54.5-4.681c-.279,1.395-.9,1.891-1.829,1.891-1.054,0-1.705-.372-1.705-1.488a3.475,3.475,0,0,1,.093-.744L54.622-21.7H51.15L47.709-5.642a8.137,8.137,0,0,0-.186,1.674C47.523-1.116,49.476.31,52.452.31ZM59.21,0h3.038l3.5-16.43L64.79,0h2.79l6.045-16.43L70.122,0h3.286l4.619-21.7h-4.9L67.518-5.952,68.6-21.7H63.829ZM75.888,0h9.3l.651-3.1h-5.8l1.426-6.665h4.588l.651-3.1H82.119L83.328-18.6h5.8l.682-3.1h-9.3ZM87.017,0h3.472l1.984-9.3h1.24c1.147,0,1.643.279,1.643,1.24a5.918,5.918,0,0,1-.186,1.3L94.333-2.79a9.83,9.83,0,0,0-.279,1.984A7.054,7.054,0,0,0,94.116,0h3.379a3.416,3.416,0,0,1-.062-.558,11.316,11.316,0,0,1,.31-1.953l.806-3.813a7.67,7.67,0,0,0,.217-1.8,2.526,2.526,0,0,0-1.581-2.7v-.031c1.8-.465,2.7-1.86,3.224-4.4l.217-1.054a8.373,8.373,0,0,0,.186-1.674c0-2.48-1.55-3.72-4.185-3.72H91.636Zm6.107-12.4,1.333-6.2h1.55c.9,0,1.3.31,1.3,1.116a4.3,4.3,0,0,1-.124.992l-.372,1.674c-.434,1.891-1.395,2.418-2.666,2.418Z" transform="translate(823.789 262.193)" fill="#fff"/>
        <path id="Trazado_1255475" data-name="Trazado 1255475" d="M1.085.124c2.821,0,4.5-1.55,5.177-4.743L9.92-21.7h-3.5L2.852-4.867A2.008,2.008,0,0,1,.744-3.007,6.293,6.293,0,0,1-.682-3.286L-1.333-.248A7.477,7.477,0,0,0,1.085.124ZM13.361.31c2.883,0,4.774-1.674,5.456-4.867l2.449-11.47a7.574,7.574,0,0,0,.186-1.612c0-2.883-2.015-4.371-5.022-4.371-2.852,0-4.774,1.705-5.456,4.9L8.525-5.642a7.3,7.3,0,0,0-.186,1.581C8.339-1.178,10.354.31,13.361.31Zm.186-3.1c-1.085,0-1.736-.465-1.736-1.55a3.475,3.475,0,0,1,.093-.744l2.511-11.873c.31-1.457.961-1.953,1.86-1.953,1.085,0,1.7.5,1.7,1.55a3.743,3.743,0,0,1-.093.775L15.376-4.712C15.066-3.255,14.415-2.79,13.547-2.79ZM20.088,0h5.735c3.441,0,5.239-1.643,5.952-5.022l.4-1.891A6.51,6.51,0,0,0,32.364-8.4,3.145,3.145,0,0,0,30.6-11.47V-11.5c1.829-.4,2.6-1.8,3.1-4.185l.186-.9a7.253,7.253,0,0,0,.186-1.55c0-2.356-1.457-3.565-4.4-3.565h-4.96Zm6.231-12.865L27.528-18.6h1.581c.93,0,1.4.341,1.4,1.24a5.606,5.606,0,0,1-.124.9l-.248,1.178c-.372,1.736-1.333,2.418-2.6,2.418ZM24.242-3.1l1.426-6.665h1.457c1.209,0,1.8.31,1.8,1.364a6.2,6.2,0,0,1-.155,1.147l-.4,1.891C28.024-3.751,27.218-3.1,26.071-3.1ZM37.7.31c3.689,0,5.766-2.728,5.766-6.417a9.073,9.073,0,0,0-2.573-5.952A6.229,6.229,0,0,1,39-16.089c0-1.4.5-2.821,2.015-2.821.992,0,1.55.341,1.55,1.4a5.239,5.239,0,0,1-.093.93l-.186.93h3.255l.093-.4a9.35,9.35,0,0,0,.248-1.953c0-2.6-1.581-4-4.65-4-3.565,0-5.673,2.666-5.673,6.231A8.762,8.762,0,0,0,38.13-9.951a6.239,6.239,0,0,1,1.891,4.123c0,1.519-.465,3.038-2.108,3.038-.992,0-1.612-.31-1.612-1.426a4.31,4.31,0,0,1,.093-.837l.248-1.333H33.387l-.155.744a8.9,8.9,0,0,0-.217,1.922C33.015-1.054,34.534.31,37.7.31Z" transform="translate(851.789 296.906)" fill="#fff"/>
      </g>
    </g>
    <g id="Grupo_1216910" data-name="Grupo 1216910" transform="translate(0 2.609)">
      <g id="Grupo_1216909" data-name="Grupo 1216909" clip-path="url(#clip-path)">
        <path id="Trazado_1253821" data-name="Trazado 1253821" d="M531.922,128.371a7.071,7.071,0,0,0-2.384,0V97.961a3.006,3.006,0,0,0-2.019-2.125h-9.378v5.026c0,1.509-1.754,2.349-3.052,2.439-6.24.436-12.982-.333-19.275-.005a2.824,2.824,0,0,1-2.314-1.416,5.922,5.922,0,0,1-.33-.913v-5.13h-9.377a2.824,2.824,0,0,0-2.024,2.328l.071,58.478a2.592,2.592,0,0,0,1.672,1.852c11.529.31,23.126.042,34.68.136l3.162,2.38H483.9a5.214,5.214,0,0,1-4.375-3.811c-.312-19.654-.041-39.361-.138-59.035a5.067,5.067,0,0,1,4.421-4.7l9.506-.026a4.022,4.022,0,0,1,3.123-2.472c1.344-.134,2.867.111,4.23-.018a6.253,6.253,0,0,1,9.984,0c2.4.242,5.026-.737,6.718,1.469.261.339.333.735.635,1.021l9.312.012c2.149.042,4.608,2.359,4.608,4.512Zm-26.44-37.588A4.26,4.26,0,0,0,502.855,92c-.446.476-.554,1.136-1.286,1.3-1.388.321-3.576-.182-5.026.049a1.375,1.375,0,0,0-.991,1.187,35.391,35.391,0,0,0,0,5.08c.088.935.591,1.317,1.5,1.4,5.528-.361,11.645.469,17.1,0,.813-.069,1.5-.407,1.6-1.3a35.089,35.089,0,0,0,0-5.184,1.369,1.369,0,0,0-1.088-1.19c-1.476-.176-3.521.25-4.93-.044-.79-.166-.9-.908-1.39-1.409a4.31,4.31,0,0,0-2.871-1.111" transform="translate(365.924 67.526)" fill="#fff"/>
        <path id="Trazado_1253822" data-name="Trazado 1253822" d="M514.239,112.238A15.567,15.567,0,1,1,502.467,136.9a15.609,15.609,0,0,1,11.772-24.662m9.554,25.147c.134.1.952-.778,1.088-.931,8.018-8.968.411-23.169-11.49-21.643-10.855,1.391-15.3,15.066-7.214,22.47,1.121-2.654,3.394-5.354,6.191-6.3,5.126-1.726,9.559,1.85,11.425,6.4m-9.034-4.324c-3.08.108-5.482,3.066-6.493,5.743l.083.185a13.308,13.308,0,0,0,11.606.933,10.822,10.822,0,0,0,1.719-.878c.081-.125.03-.2,0-.314a12.331,12.331,0,0,0-.908-1.792c-1.25-2.081-3.437-3.968-6.008-3.878" transform="translate(381.308 85.657)" fill="#fff"/>
        <path id="Trazado_1253823" data-name="Trazado 1253823" d="M497.115,99.165l-2.227,2.176h-7.824v8.185h8.185c.042-.342-.088-.827.055-1.137a27.137,27.137,0,0,1,2.121-2.075v5.493H484.941l-.155-.155V99.32l.155-.155Z" transform="translate(370.061 75.697)" fill="#fff"/>
        <path id="Trazado_1253824" data-name="Trazado 1253824" d="M497.115,108.038l-2.456,2.257-7.595.023V118.5h8.03c.335-.307.032-.85.21-1.241a26.833,26.833,0,0,1,2.121-2.075v5.493H484.941l-.155-.155V108.193l.155-.155Z" transform="translate(370.061 82.471)" fill="#fff"/>
        <path id="Trazado_1253825" data-name="Trazado 1253825" d="M497.012,116.969l-2.125,2.176h-7.822v8.185h8.03c.335-.307.032-.85.21-1.241a26.524,26.524,0,0,1,2.121-2.074v5.491H484.785V116.969Z" transform="translate(370.06 89.288)" fill="#fff"/>
        <path id="Trazado_1253826" data-name="Trazado 1253826" d="M497.026,99.843a1.168,1.168,0,0,1,1.36,1.774l-6.4,6.443a1.115,1.115,0,0,1-1.606.049,40.36,40.36,0,0,1-3.839-3.83,1.187,1.187,0,0,1,1.3-1.926c.726.227,2.493,2.749,3.349,3.158l5.452-5.435a.811.811,0,0,1,.386-.235" transform="translate(371.157 76.182)" fill="#fff"/>
        <path id="Trazado_1253827" data-name="Trazado 1253827" d="M486.532,111.522a1.264,1.264,0,0,1,1.511-.182l3.155,3.04,5.622-5.574c1.312-.533,2.336.688,1.441,1.853-1.672,2.174-4.588,4.2-6.373,6.373a1.128,1.128,0,0,1-1.4.051c-1.032-1.33-3.066-2.675-3.989-3.99a1.163,1.163,0,0,1,.035-1.571" transform="translate(371.147 82.959)" fill="#fff"/>
        <path id="Trazado_1253828" data-name="Trazado 1253828" d="M497.128,117.582a1.177,1.177,0,0,1,1.314,1.73l-6.875,6.8a1.182,1.182,0,0,1-1.093-.16,44.848,44.848,0,0,1-3.941-3.934c-.933-1.261.462-2.576,1.716-1.612,1.005.774,1.866,2.128,2.936,2.844l5.348-5.331a1.593,1.593,0,0,1,.6-.337" transform="translate(371.161 89.735)" fill="#fff"/>
        <path id="Trazado_1253829" data-name="Trazado 1253829" d="M495.417,100.718l12.617-.025a1.2,1.2,0,0,1,.106,2.386l-12.844-.009a1.186,1.186,0,0,1,.122-2.352" transform="translate(377.328 76.864)" fill="#fff"/>
        <path id="Trazado_1253830" data-name="Trazado 1253830" d="M496.148,109.59c.391-.009.677.1,1,.086,3.352-.108,6.688-.074,10.051,0,.236.005.451-.116.711-.106a1.227,1.227,0,0,1,.661,2.3l-13.386.074a1.192,1.192,0,0,1-.79-1.608c.277-.7,1.1-.727,1.749-.742" transform="translate(377.33 83.639)" fill="#fff"/>
        <path id="Trazado_1253831" data-name="Trazado 1253831" d="M495.237,112.277c2.4.182,5.41-.333,7.738-.016a1.19,1.19,0,0,1,.1,2.365c-2.356.333-5.428-.224-7.861,0a1.2,1.2,0,0,1,.019-2.352" transform="translate(377.299 85.613)" fill="#fff"/>
        <path id="Trazado_1253832" data-name="Trazado 1253832" d="M495.129,103.356l7.949-.016a1.194,1.194,0,0,1-.2,2.377c-2.342.263-5.163-.189-7.554-.009a1.207,1.207,0,0,1-.2-2.352" transform="translate(377.302 78.884)" fill="#fff"/>
        <path id="Trazado_1253833" data-name="Trazado 1253833" d="M502.08,118.5c-.347.615-.24,1.688-.487,2.259-.044.1-.041.148-.183.13-1.762-.109-3.65.123-5.4,0-.815-.058-1.76-.272-1.712-1.3.016-.321.478-1.09.785-1.09Z" transform="translate(377.323 90.454)" fill="#fff"/>
        <path id="Trazado_1253834" data-name="Trazado 1253834" d="M495.121,123.839a1.338,1.338,0,0,1-.862-1.268c.092-.809.767-1.067,1.48-1.12,1.855-.138,3.881.111,5.754.005l.312,2.382Z" transform="translate(377.288 92.677)" fill="#fff"/>
        <path id="Trazado_1253835" data-name="Trazado 1253835" d="M494.752,90.675c2.867-.481,3.22,3.795.584,4.006a2.028,2.028,0,0,1-.584-4.006" transform="translate(376.437 69.188)" fill="#fff"/>
        <path id="Trazado_1253836" data-name="Trazado 1253836" d="M510.769,114.928c7.967-.182,8.214,12.093.176,12.208-7.914.113-8.191-12.024-.176-12.208m-.421,2.592c-4.392.6-3.833,7.6,1.1,7.008,4.359-.527,3.7-7.658-1.1-7.008" transform="translate(385.402 87.729)" fill="#fff"/>
      </g>
    </g>
    <path id="Trazado_1255466" data-name="Trazado 1255466" d="M2.555,0h3.92L10.92-21h4.025l.77-3.5H3.745L2.975-21H7Zm9.8,0h3.92L18.62-11.025h4.06L20.335,0h3.92L29.47-24.5H25.55l-2.135,9.975h-4.06L21.49-24.5H17.57Zm14.77,0h10.5l.735-3.5H31.815l1.61-7.525H38.6l.735-3.5H34.16L35.525-21H42.07l.77-3.5H32.34Zm20.79,0h5.25L62.02-24.5H58.31L51.73-5.25,53.34-24.5H49.49ZM65.03-24.5,55.825,0h3.71l1.68-4.795h4.34L65.205,0h3.92L70.35-24.5ZM62.405-8.12,66.64-20.055,65.765-8.12ZM70.945,0H81.13l.735-3.5H75.6l4.48-21H76.16Zm18.48.35c3.255,0,5.32-1.96,6.055-5.495L99.61-24.5H95.83l-4.1,19.215C91.42-3.71,90.72-3.15,89.67-3.15c-1.19,0-1.925-.42-1.925-1.68a3.923,3.923,0,0,1,.105-.84L91.875-24.5h-3.92L84.07-6.37a9.187,9.187,0,0,0-.21,1.89C83.86-1.26,86.065.35,89.425.35ZM97.055,0h10.5l.735-3.5h-6.545l1.61-7.525h5.18l.735-3.5h-5.18L105.455-21H112l.77-3.5h-10.5ZM115.22,0h3.955l2.1-9.975h1.96c4.025,0,6.02-2,6.86-5.915l.525-2.485a8.241,8.241,0,0,0,.21-1.785c0-2.765-1.68-4.34-4.76-4.34h-5.635Zm6.825-13.475L123.62-21h1.855c.84,0,1.4.315,1.4,1.33a4.512,4.512,0,0,1-.1.875l-.6,2.87c-.35,1.75-1.155,2.45-2.555,2.45ZM128.8,0h3.92l2.24-10.5h1.4c1.295,0,1.855.315,1.855,1.4a6.681,6.681,0,0,1-.21,1.47l-.945,4.48a11.1,11.1,0,0,0-.315,2.24,7.962,7.962,0,0,0,.07.91h3.815a3.856,3.856,0,0,1-.07-.63,12.776,12.776,0,0,1,.35-2.205l.91-4.3a8.66,8.66,0,0,0,.245-2.03c0-1.54-.56-2.625-1.785-3.045v-.035c2.03-.525,3.045-2.1,3.64-4.97l.245-1.19a9.453,9.453,0,0,0,.21-1.89c0-2.8-1.75-4.2-4.725-4.2h-5.635Zm6.9-14,1.505-7h1.75c1.015,0,1.47.35,1.47,1.26a4.857,4.857,0,0,1-.14,1.12l-.42,1.89c-.49,2.135-1.575,2.73-3.01,2.73ZM149.38.35c3.255,0,5.39-1.89,6.16-5.495L158.3-18.1a8.551,8.551,0,0,0,.21-1.82c0-3.255-2.275-4.935-5.67-4.935-3.22,0-5.39,1.925-6.16,5.53L143.92-6.37a8.242,8.242,0,0,0-.21,1.785C143.71-1.33,145.985.35,149.38.35Zm.21-3.5c-1.225,0-1.96-.525-1.96-1.75a3.923,3.923,0,0,1,.1-.84l2.835-13.405c.35-1.645,1.085-2.2,2.1-2.2,1.225,0,1.925.56,1.925,1.75a4.225,4.225,0,0,1-.1.875L151.655-5.32C151.3-3.675,150.57-3.15,149.59-3.15ZM156.975,0h3.955l2.1-9.975h1.96c4.025,0,6.02-2,6.86-5.915l.525-2.485a8.242,8.242,0,0,0,.21-1.785c0-2.765-1.68-4.34-4.76-4.34H162.19ZM163.8-13.475,165.375-21h1.855c.84,0,1.4.315,1.4,1.33a4.512,4.512,0,0,1-.1.875l-.6,2.87c-.35,1.75-1.155,2.45-2.555,2.45ZM176.96.35c3.255,0,5.39-1.89,6.16-5.495l2.765-12.95a8.551,8.551,0,0,0,.21-1.82c0-3.255-2.275-4.935-5.67-4.935-3.22,0-5.39,1.925-6.16,5.53L171.5-6.37a8.242,8.242,0,0,0-.21,1.785C171.29-1.33,173.565.35,176.96.35Zm.21-3.5c-1.225,0-1.96-.525-1.96-1.75a3.923,3.923,0,0,1,.105-.84l2.835-13.405c.35-1.645,1.085-2.2,2.1-2.2,1.225,0,1.925.56,1.925,1.75a4.225,4.225,0,0,1-.1.875L179.235-5.32C178.885-3.675,178.15-3.15,177.17-3.15ZM190.19.35c4.165,0,6.51-3.08,6.51-7.245,0-2.345-.98-4.445-2.9-6.72-1.505-1.75-2.135-3.15-2.135-4.55,0-1.575.56-3.185,2.275-3.185,1.12,0,1.75.385,1.75,1.575a5.915,5.915,0,0,1-.105,1.05l-.21,1.05h3.675l.1-.455a10.557,10.557,0,0,0,.28-2.2c0-2.94-1.785-4.515-5.25-4.515-4.025,0-6.4,3.01-6.4,7.035a9.893,9.893,0,0,0,2.9,6.58c1.505,1.75,2.135,3.15,2.135,4.655,0,1.715-.525,3.43-2.38,3.43-1.12,0-1.82-.35-1.82-1.61a4.866,4.866,0,0,1,.105-.945L189-7.21h-3.675l-.175.84A10.049,10.049,0,0,0,184.9-4.2C184.9-1.19,186.62.35,190.19.35ZM197.54,0h3.92l5.215-24.5h-3.92Zm9.8,0h3.92l4.445-21h4.025l.77-3.5H208.53l-.77,3.5h4.025Zm9.8,0h3.92l5.215-24.5h-3.92Zm13.195.35c3.255,0,5.39-1.89,6.16-5.495L239.26-18.1a8.551,8.551,0,0,0,.21-1.82c0-3.255-2.275-4.935-5.67-4.935-3.22,0-5.39,1.925-6.16,5.53L224.875-6.37a8.242,8.242,0,0,0-.21,1.785C224.665-1.33,226.94.35,230.335.35Zm.21-3.5c-1.225,0-1.96-.525-1.96-1.75a3.923,3.923,0,0,1,.105-.84l2.835-13.405c.35-1.645,1.085-2.2,2.1-2.2,1.225,0,1.925.56,1.925,1.75a4.225,4.225,0,0,1-.1.875L232.61-5.32C232.26-3.675,231.525-3.15,230.545-3.15ZM237.93,0h3.5l3.815-17.885L246.225,0H250l5.215-24.5h-3.5L248.57-9.835,247.8-24.5h-4.655Zm26.81.35c3.185,0,5.25-1.855,5.985-5.39l.8-3.92h-3.675l-.77,3.815A2.137,2.137,0,0,1,264.95-3.15c-1.085,0-1.855-.49-1.855-1.68a3.354,3.354,0,0,1,.1-.77l2.94-13.685c.315-1.435,1.05-2.065,2.065-2.065,1.12,0,1.855.525,1.855,1.645a3.392,3.392,0,0,1-.105.8l-.56,2.66h3.71l.42-2.03a8.867,8.867,0,0,0,.21-1.855c0-2.94-1.82-4.725-5.46-4.725-3.185,0-5.285,1.96-6.02,5.39L259.42-6.23a8.81,8.81,0,0,0-.21,1.82C259.21-1.435,261.065.35,264.74.35ZM279.965-24.5,270.76,0h3.71l1.68-4.795h4.34L280.14,0h3.92l1.225-24.5ZM277.34-8.12l4.235-11.935L280.7-8.12ZM285.88,0h3.5l3.815-17.885L294.175,0h3.78l5.215-24.5h-3.5L296.52-9.835,295.75-24.5H291.1Zm17.57,0h5.25l8.855-24.5h-3.71l-6.58,19.25,1.61-19.25h-3.85Zm17.115-24.5L311.36,0h3.71l1.68-4.795h4.34L320.74,0h3.92l1.225-24.5ZM317.94-8.12l4.235-11.935L321.3-8.12Zm14,8.47c4.165,0,6.51-3.08,6.51-7.245,0-2.345-.98-4.445-2.9-6.72-1.505-1.75-2.135-3.15-2.135-4.55,0-1.575.56-3.185,2.275-3.185,1.12,0,1.75.385,1.75,1.575a5.914,5.914,0,0,1-.1,1.05l-.21,1.05H340.8l.105-.455a10.558,10.558,0,0,0,.28-2.2c0-2.94-1.785-4.515-5.25-4.515-4.025,0-6.4,3.01-6.4,7.035a9.893,9.893,0,0,0,2.9,6.58c1.5,1.75,2.135,3.15,2.135,4.655,0,1.715-.525,3.43-2.38,3.43-1.12,0-1.82-.35-1.82-1.61a4.868,4.868,0,0,1,.1-.945l.28-1.505h-3.675l-.175.84a10.048,10.048,0,0,0-.245,2.17C326.655-1.19,328.37.35,331.94.35Z" transform="translate(315.734 31.583)" fill="#12263f"/>
    <g id="Grupo_1216912" data-name="Grupo 1216912" transform="translate(0 2.609)">
      <g id="Grupo_1216911" data-name="Grupo 1216911" clip-path="url(#clip-path)">
        <path id="Trazado_1253837" data-name="Trazado 1253837" d="M.5,31.144V12.214H281.308" transform="translate(0.382 9.324)" fill="none" stroke="#12263f" stroke-linecap="round" stroke-linejoin="round" stroke-width="1" stroke-dasharray="7 7"/>
        <path id="Trazado_1253838" data-name="Trazado 1253838" d="M396.176,12.214H684.452v18.93" transform="translate(302.42 9.323)" fill="none" stroke="#12263f" stroke-linecap="round" stroke-linejoin="round" stroke-width="1" stroke-dasharray="7 7"/>
        <path id="Trazado_1253839" data-name="Trazado 1253839" d="M331.181,148.731a33.989,33.989,0,1,1-33.99-33.99,33.99,33.99,0,0,1,33.99,33.99" transform="translate(200.915 87.587)" fill="#7686d5"/>
        <path id="Trazado_1253840" data-name="Trazado 1253840" d="M312.563,118.879v56.912l-23.149-27.436Z" transform="translate(220.924 90.746)" fill="#fff"/>
        <path id="Trazado_1253841" data-name="Trazado 1253841" d="M263.152,175.791V118.879L286.3,146.315Z" transform="translate(200.877 90.746)" fill="#fff"/>
        <rect id="Rectángulo_430403" data-name="Rectángulo 430403" width="485.238" height="48.305" transform="translate(0.789 55.93)" fill="#6f88da"/>
        <path id="Trazado_1255468" data-name="Trazado 1255468" d="M1.922,0h4.65l7.843-21.7H11.129L5.3-4.65,6.727-21.7H3.317ZM17.081-21.7,8.928,0h3.286L13.7-4.247h3.844L17.236,0h3.472l1.085-21.7ZM14.756-7.192l3.751-10.571L17.732-7.192ZM22.32,0h9.021l.651-3.1H26.443l3.968-18.6H26.939ZM38.688.31c2.883,0,4.712-1.736,5.363-4.867L47.709-21.7H44.361L40.734-4.681c-.279,1.395-.9,1.891-1.829,1.891-1.054,0-1.705-.372-1.705-1.488a3.475,3.475,0,0,1,.093-.744L40.858-21.7H37.386L33.945-5.642a8.137,8.137,0,0,0-.186,1.674C33.759-1.116,35.712.31,38.688.31ZM45.446,0h9.3L55.4-3.1H49.6l1.426-6.665h4.588l.651-3.1H51.677L52.886-18.6h5.8l.682-3.1h-9.3ZM61.535,0h3.5L66.9-8.835h1.736c3.565,0,5.332-1.767,6.076-5.239l.465-2.2a7.3,7.3,0,0,0,.186-1.581c0-2.449-1.488-3.844-4.216-3.844H66.154ZM67.58-11.935,68.975-18.6h1.643c.744,0,1.24.279,1.24,1.178a4,4,0,0,1-.093.775l-.527,2.542c-.31,1.55-1.023,2.17-2.263,2.17ZM73.563,0h3.472l1.984-9.3h1.24c1.147,0,1.643.279,1.643,1.24a5.918,5.918,0,0,1-.186,1.3L80.879-2.79A9.83,9.83,0,0,0,80.6-.806,7.054,7.054,0,0,0,80.662,0h3.379a3.416,3.416,0,0,1-.062-.558,11.316,11.316,0,0,1,.31-1.953L85.1-6.324a7.67,7.67,0,0,0,.217-1.8,2.526,2.526,0,0,0-1.581-2.7v-.031c1.8-.465,2.7-1.86,3.224-4.4l.217-1.054a8.373,8.373,0,0,0,.186-1.674c0-2.48-1.55-3.72-4.185-3.72H78.182ZM79.67-12.4,81-18.6h1.55c.9,0,1.3.31,1.3,1.116a4.3,4.3,0,0,1-.124.992l-.372,1.674c-.434,1.891-1.395,2.418-2.666,2.418ZM91.791.31c2.883,0,4.774-1.674,5.456-4.867L99.7-16.027a7.574,7.574,0,0,0,.186-1.612c0-2.883-2.015-4.371-5.022-4.371-2.852,0-4.774,1.705-5.456,4.9L86.955-5.642a7.3,7.3,0,0,0-.186,1.581C86.769-1.178,88.784.31,91.791.31Zm.186-3.1c-1.085,0-1.736-.465-1.736-1.55a3.474,3.474,0,0,1,.093-.744l2.511-11.873c.31-1.457.961-1.953,1.86-1.953,1.085,0,1.705.5,1.705,1.55a3.743,3.743,0,0,1-.093.775L93.806-4.712C93.5-3.255,92.845-2.79,91.977-2.79ZM98.518,0h3.5l1.86-8.835h1.736c3.565,0,5.332-1.767,6.076-5.239l.465-2.2a7.3,7.3,0,0,0,.186-1.581c0-2.449-1.488-3.844-4.216-3.844h-4.991Zm6.045-11.935,1.4-6.665H107.6c.744,0,1.24.279,1.24,1.178a4,4,0,0,1-.093.775l-.527,2.542c-.31,1.55-1.023,2.17-2.263,2.17ZM116.219.31c2.883,0,4.774-1.674,5.456-4.867l2.449-11.47a7.574,7.574,0,0,0,.186-1.612c0-2.883-2.015-4.371-5.022-4.371-2.852,0-4.774,1.705-5.456,4.9l-2.449,11.47a7.3,7.3,0,0,0-.186,1.581C111.2-1.178,113.212.31,116.219.31Zm.186-3.1c-1.085,0-1.736-.465-1.736-1.55a3.474,3.474,0,0,1,.093-.744l2.511-11.873c.31-1.457.961-1.953,1.86-1.953,1.085,0,1.705.5,1.705,1.55a3.743,3.743,0,0,1-.093.775L118.234-4.712C117.924-3.255,117.273-2.79,116.4-2.79ZM127.937.31c3.689,0,5.766-2.728,5.766-6.417a9.073,9.073,0,0,0-2.573-5.952,6.229,6.229,0,0,1-1.891-4.03c0-1.4.5-2.821,2.015-2.821.992,0,1.55.341,1.55,1.4a5.24,5.24,0,0,1-.093.93l-.186.93h3.255l.093-.4a9.35,9.35,0,0,0,.248-1.953c0-2.6-1.581-4-4.65-4-3.565,0-5.673,2.666-5.673,6.231a8.762,8.762,0,0,0,2.573,5.828,6.239,6.239,0,0,1,1.891,4.123c0,1.519-.465,3.038-2.108,3.038-.992,0-1.612-.31-1.612-1.426a4.31,4.31,0,0,1,.093-.837l.248-1.333h-3.255l-.155.744a8.9,8.9,0,0,0-.217,1.922C123.256-1.054,124.775.31,127.937.31Zm6.51-.31h3.472l4.619-21.7h-3.472Zm8.68,0H146.6l3.937-18.6H154.1l.682-3.1h-10.6l-.682,3.1h3.565Zm8.68,0h3.472L159.9-21.7h-3.472Zm11.687.31c2.883,0,4.774-1.674,5.456-4.867l2.449-11.47a7.574,7.574,0,0,0,.186-1.612c0-2.883-2.015-4.371-5.022-4.371-2.852,0-4.774,1.705-5.456,4.9l-2.449,11.47a7.3,7.3,0,0,0-.186,1.581C158.472-1.178,160.487.31,163.494.31Zm.186-3.1c-1.085,0-1.736-.465-1.736-1.55a3.475,3.475,0,0,1,.093-.744l2.511-11.873c.31-1.457.961-1.953,1.86-1.953,1.085,0,1.705.5,1.705,1.55a3.743,3.743,0,0,1-.093.775L165.509-4.712C165.2-3.255,164.548-2.79,163.68-2.79ZM170.221,0h3.1L176.7-15.841,177.568,0h3.348l4.619-21.7h-3.1l-2.79,12.989L178.963-21.7H174.84Z" transform="translate(150.789 91.278)" fill="#fff"/>
      </g>
    </g>
    <g id="Grupo_1216914" data-name="Grupo 1216914" transform="translate(0 2.609)">
      <g id="Grupo_1216913" data-name="Grupo 1216913" clip-path="url(#clip-path)">
        <rect id="Rectángulo_430405" data-name="Rectángulo 430405" width="485.238" height="48.305" transform="translate(501.789 55.93)" fill="#3bafa7"/>
        <path id="Trazado_1255467" data-name="Trazado 1255467" d="M5.146.31c2.821,0,4.65-1.643,5.3-4.774l.713-3.472H7.9L7.223-4.557A1.893,1.893,0,0,1,5.332-2.79c-.961,0-1.643-.434-1.643-1.488a2.969,2.969,0,0,1,.093-.682l2.6-12.121c.279-1.271.93-1.829,1.829-1.829.992,0,1.643.465,1.643,1.457a3,3,0,0,1-.093.713l-.5,2.356h3.286l.372-1.8a7.853,7.853,0,0,0,.186-1.643c0-2.6-1.612-4.185-4.836-4.185-2.821,0-4.681,1.736-5.332,4.774L.434-5.518A7.8,7.8,0,0,0,.248-3.906C.248-1.271,1.891.31,5.146.31Zm12.028,0c2.883,0,4.774-1.674,5.456-4.867l2.449-11.47a7.574,7.574,0,0,0,.186-1.612c0-2.883-2.015-4.371-5.022-4.371-2.852,0-4.774,1.705-5.456,4.9L12.338-5.642a7.3,7.3,0,0,0-.186,1.581C12.152-1.178,14.167.31,17.174.31Zm.186-3.1c-1.085,0-1.736-.465-1.736-1.55a3.475,3.475,0,0,1,.093-.744l2.511-11.873c.31-1.457.961-1.953,1.86-1.953,1.085,0,1.7.5,1.7,1.55a3.743,3.743,0,0,1-.093.775L19.189-4.712C18.879-3.255,18.228-2.79,17.36-2.79ZM28.892.31c3.689,0,5.766-2.728,5.766-6.417a9.073,9.073,0,0,0-2.573-5.952,6.229,6.229,0,0,1-1.891-4.03c0-1.4.5-2.821,2.015-2.821.992,0,1.55.341,1.55,1.4a5.239,5.239,0,0,1-.093.93l-.186.93h3.255l.093-.4a9.35,9.35,0,0,0,.248-1.953c0-2.6-1.581-4-4.65-4-3.565,0-5.673,2.666-5.673,6.231a8.762,8.762,0,0,0,2.573,5.828,6.239,6.239,0,0,1,1.891,4.123c0,1.519-.465,3.038-2.108,3.038-.992,0-1.612-.31-1.612-1.426a4.31,4.31,0,0,1,.093-.837l.248-1.333H24.583l-.155.744a8.9,8.9,0,0,0-.217,1.922C24.211-1.054,25.73.31,28.892.31ZM38.037,0h3.472l3.937-18.6h3.565l.682-3.1h-10.6l-.682,3.1h3.565ZM52.421.31c2.883,0,4.712-1.736,5.363-4.867L61.442-21.7H58.094L54.467-4.681c-.279,1.395-.9,1.891-1.829,1.891-1.054,0-1.705-.372-1.705-1.488a3.474,3.474,0,0,1,.093-.744L54.591-21.7H51.119L47.678-5.642a8.137,8.137,0,0,0-.186,1.674C47.492-1.116,49.445.31,52.421.31ZM59.179,0h3.038l3.5-16.43L64.759,0h2.79l6.045-16.43L70.091,0h3.286L78-21.7H73.1L67.487-5.952,68.572-21.7H63.8ZM75.857,0h9.3l.651-3.1h-5.8l1.426-6.665h4.588l.651-3.1H82.088L83.3-18.6h5.8l.682-3.1h-9.3ZM86.986,0h3.472l1.984-9.3h1.24c1.147,0,1.643.279,1.643,1.24a5.918,5.918,0,0,1-.186,1.3L94.3-2.79a9.83,9.83,0,0,0-.279,1.984A7.054,7.054,0,0,0,94.085,0h3.379A3.416,3.416,0,0,1,97.4-.558a11.316,11.316,0,0,1,.31-1.953l.806-3.813a7.67,7.67,0,0,0,.217-1.8,2.526,2.526,0,0,0-1.581-2.7v-.031c1.8-.465,2.7-1.86,3.224-4.4l.217-1.054a8.373,8.373,0,0,0,.186-1.674c0-2.48-1.55-3.72-4.185-3.72H91.605Zm6.107-12.4,1.333-6.2h1.55c.9,0,1.3.31,1.3,1.116a4.3,4.3,0,0,1-.124.992l-.372,1.674c-.434,1.891-1.395,2.418-2.666,2.418ZM109.492.31c3.689,0,5.766-2.728,5.766-6.417a9.073,9.073,0,0,0-2.573-5.952,6.229,6.229,0,0,1-1.891-4.03c0-1.4.5-2.821,2.015-2.821.992,0,1.55.341,1.55,1.4a5.239,5.239,0,0,1-.093.93l-.186.93h3.255l.093-.4a9.35,9.35,0,0,0,.248-1.953c0-2.6-1.581-4-4.65-4-3.565,0-5.673,2.666-5.673,6.231a8.762,8.762,0,0,0,2.573,5.828,6.239,6.239,0,0,1,1.891,4.123c0,1.519-.465,3.038-2.108,3.038-.992,0-1.612-.31-1.612-1.426a4.31,4.31,0,0,1,.093-.837l.248-1.333h-3.255l-.155.744a8.9,8.9,0,0,0-.217,1.922C104.811-1.054,106.33.31,109.492.31ZM116,0h9.3l.651-3.1h-5.8l1.426-6.665h4.588l.651-3.1h-4.588l1.209-5.735h5.8l.682-3.1h-9.3Zm16.771.31c2.821,0,4.619-1.674,5.3-4.9l1.643-7.657h-5.022l-.651,3.1h1.736l-.961,4.464c-.31,1.395-.992,1.891-1.953,1.891s-1.643-.434-1.643-1.488a3.743,3.743,0,0,1,.093-.775l2.573-11.966c.31-1.395.961-1.922,1.922-1.922,1.023,0,1.643.434,1.643,1.519a3.742,3.742,0,0,1-.093.775l-.4,1.953h3.286l.279-1.4a8.372,8.372,0,0,0,.186-1.674c0-2.7-1.612-4.247-4.929-4.247-2.852,0-4.65,1.581-5.363,4.867l-2.449,11.47a8.721,8.721,0,0,0-.186,1.736C127.782-1.023,129.828.31,132.773.31Zm6.51-.31h3.038l3.5-16.43L144.863,0h2.79L153.7-16.43,150.2,0h3.286L158.1-21.7h-4.9L147.591-5.952,148.676-21.7H143.9Zm16.678,0h9.3l.651-3.1h-5.8l1.426-6.665h4.588l.651-3.1h-4.588L163.4-18.6h5.8l.682-3.1h-9.3ZM167.09,0h3.1l3.379-15.841L174.437,0h3.348L182.4-21.7h-3.1l-2.79,12.989L175.832-21.7h-4.123Zm15.9,0h3.472L190.4-18.6h3.565l.682-3.1h-10.6l-.682,3.1h3.565Z" transform="translate(646.789 91.278)" fill="#fff"/>
      </g>
    </g>
  </g>
</svg>
