<svg xmlns="http://www.w3.org/2000/svg" width="37.253" height="66.969" viewBox="0 0 37.253 66.969">
  <g id="Grupo_1216902" data-name="Grupo 1216902" transform="translate(37.253 -0.029) rotate(90)">
    <g id="Grupo_78414" data-name="Grupo 78414" transform="translate(0.029 0)">
      <path id="Trazado_114078" data-name="Trazado 114078" d="M57.774,0C55.14,0,53.84,2.821,52.8,5.089c-1.058,2.294-1.775,3.7-3.123,3.7s-2.064-1.406-3.12-3.7C45.508,2.821,44.207,0,41.575,0S37.64,2.821,36.6,5.089c-1.057,2.294-1.773,3.7-3.121,3.7s-2.063-1.406-3.12-3.7C29.311,2.821,28.01,0,25.377,0S21.444,2.823,20.4,5.09c-1.057,2.293-1.772,3.7-3.118,3.7s-2.062-1.406-3.118-3.7C13.12,2.821,11.821,0,9.188,0S5.256,2.821,4.211,5.09c-1.057,2.293-1.772,3.7-3.118,3.7C.489,8.79,0,9.446,0,10.254s.489,1.465,1.093,1.465c2.632,0,3.932-2.821,4.976-5.089,1.056-2.294,1.772-3.7,3.118-3.7s2.062,1.406,3.118,3.7c1.044,2.268,2.345,5.089,4.976,5.089S21.215,8.9,22.258,6.63c1.057-2.294,1.772-3.7,3.12-3.7s2.063,1.406,3.12,3.7c1.044,2.268,2.345,5.089,4.978,5.089S37.408,8.9,38.454,6.63c1.056-2.294,1.772-3.7,3.121-3.7s2.063,1.406,3.12,3.7c1.043,2.268,2.345,5.089,4.978,5.089S53.608,8.9,54.652,6.63c1.058-2.294,1.775-3.7,3.122-3.7S59.84,4.336,60.9,6.63c1.044,2.268,2.346,5.089,4.98,5.089.6,0,1.092-.655,1.092-1.465S66.481,8.79,65.878,8.79c-1.349,0-2.065-1.406-3.123-3.7C61.71,2.821,60.41,0,57.774,0Z" transform="translate(0 25.534)" fill="#6f88da"/>
      <path id="Trazado_114079" data-name="Trazado 114079" d="M57.774,0C55.14,0,53.84,2.823,52.8,5.089c-1.058,2.3-1.775,3.7-3.123,3.7s-2.064-1.406-3.12-3.7C45.508,2.823,44.207,0,41.575,0S37.64,2.823,36.6,5.09c-1.057,2.294-1.773,3.7-3.121,3.7s-2.063-1.406-3.12-3.7C29.311,2.823,28.01,0,25.377,0S21.444,2.824,20.4,5.09c-1.057,2.294-1.772,3.7-3.118,3.7s-2.062-1.406-3.118-3.7C13.12,2.823,11.821,0,9.188,0S5.256,2.823,4.211,5.09c-1.057,2.294-1.772,3.7-3.118,3.7C.489,8.791,0,9.446,0,10.256s.489,1.465,1.093,1.465c2.632,0,3.932-2.823,4.976-5.09,1.056-2.293,1.772-3.7,3.118-3.7s2.062,1.406,3.118,3.7c1.044,2.268,2.345,5.09,4.976,5.09S21.215,8.9,22.258,6.63c1.057-2.293,1.772-3.7,3.12-3.7s2.063,1.406,3.12,3.7c1.044,2.268,2.345,5.09,4.978,5.09S37.408,8.9,38.454,6.63c1.056-2.293,1.772-3.7,3.121-3.7s2.063,1.406,3.12,3.7c1.043,2.268,2.345,5.09,4.978,5.09s3.936-2.823,4.98-5.09c1.058-2.293,1.775-3.7,3.122-3.7S59.84,4.337,60.9,6.63c1.044,2.268,2.346,5.09,4.98,5.09.6,0,1.092-.657,1.092-1.465s-.488-1.465-1.092-1.465c-1.349,0-2.065-1.406-3.123-3.7C61.71,2.823,60.41,0,57.774,0Z" transform="translate(0 12.765)" fill="#6f88da"/>
      <path id="Trazado_114080" data-name="Trazado 114080" d="M57.774,0C55.14,0,53.84,2.821,52.8,5.089c-1.058,2.294-1.775,3.7-3.123,3.7s-2.064-1.406-3.12-3.7C45.508,2.821,44.207,0,41.575,0S37.64,2.821,36.6,5.089c-1.057,2.294-1.773,3.7-3.121,3.7s-2.063-1.406-3.12-3.7C29.311,2.821,28.01,0,25.377,0S21.444,2.821,20.4,5.089c-1.057,2.294-1.772,3.7-3.118,3.7s-2.062-1.406-3.118-3.7C13.12,2.821,11.821,0,9.188,0S5.256,2.821,4.211,5.089c-1.057,2.294-1.772,3.7-3.118,3.7C.489,8.79,0,9.444,0,10.254s.489,1.465,1.093,1.465c2.632,0,3.932-2.823,4.976-5.09,1.056-2.293,1.772-3.7,3.118-3.7s2.062,1.406,3.118,3.7c1.044,2.268,2.345,5.09,4.976,5.09S21.215,8.9,22.258,6.63c1.057-2.294,1.772-3.7,3.12-3.7s2.063,1.406,3.12,3.7c1.044,2.266,2.345,5.089,4.978,5.089S37.408,8.9,38.454,6.63c1.056-2.294,1.772-3.7,3.121-3.7s2.063,1.406,3.12,3.7c1.043,2.266,2.345,5.089,4.978,5.089S53.608,8.9,54.652,6.63c1.058-2.294,1.775-3.7,3.122-3.7S59.84,4.336,60.9,6.63c1.044,2.266,2.346,5.089,4.98,5.089.6,0,1.092-.657,1.092-1.465S66.481,8.79,65.878,8.79c-1.349,0-2.065-1.406-3.123-3.7C61.71,2.821,60.41,0,57.774,0Z" transform="translate(0 0)" fill="#6f88da"/>
    </g>
  </g>
</svg>
