<svg id="Grupo_1217025" data-name="Grupo 1217025" xmlns="http://www.w3.org/2000/svg" xmlns:xlink="http://www.w3.org/1999/xlink" width="121" height="121" viewBox="0 0 121 121">
  <defs>
    <clipPath id="clip-path">
      <rect id="Rectángulo_421141" data-name="Rectángulo 421141" width="88.562" height="82.578" fill="none"/>
    </clipPath>
  </defs>
  <circle id="Elipse_11383" data-name="Elipse 11383" cx="60.5" cy="60.5" r="60.5" fill="#b6f0ec" opacity="0.71"/>
  <circle id="Elipse_11384" data-name="Elipse 11384" cx="50.79" cy="50.79" r="50.79" transform="translate(9.83 9.83)" fill="#fff"/>
  <g id="Grupo_1175373" data-name="Grupo 1175373" transform="translate(16.341 19.332)">
    <g id="Grupo_1175373-2" data-name="Grupo 1175373" transform="translate(0 0)" clip-path="url(#clip-path)">
      <path id="Trazado_1039109" data-name="Trazado 1039109" d="M40.328,77.186l-.06-2.657h.06c.281,0,.561-.005.839-.013l.06,2.66c-.3.008-.6.01-.9.01m-2.81-.1c-.323-.02-.644-.05-.962-.08l.255-2.647c.3.03.594.055.894.078Zm6.459-.07-.255-2.647c.3-.03.6-.063.9-.1l.313,2.642c-.318.038-.636.073-.954.1M33.828,76.63c-.321-.053-.639-.113-.954-.178l.523-2.607c.291.06.581.115.874.163Zm13.828-.15-.511-2.61c.293-.058.586-.12.874-.183l.581,2.592c-.313.07-.629.138-.944.2m-17.462-.661c-.311-.085-.619-.178-.924-.27L30.041,73c.286.088.574.17.864.25Zm21.068-.233L50.5,73.038c.288-.085.574-.178.859-.27l.829,2.527c-.306.1-.614.2-.924.291m-24.6-.937c-.3-.115-.594-.235-.889-.356l1.019-2.457c.276.115.554.225.832.333Zm28.109-.311-1.009-2.459c.275-.115.551-.23.824-.353l1.079,2.432c-.3.13-.594.258-.894.381m-31.5-1.195c-.288-.145-.574-.293-.857-.446l1.26-2.342c.263.14.526.278.791.411Zm34.869-.4L56.89,70.4c.265-.14.526-.286.786-.433l1.312,2.314c-.278.158-.561.313-.847.463m-38.1-1.44c-.273-.17-.541-.346-.809-.523l1.483-2.209c.248.165.5.328.751.491Zm41.293-.468-1.475-2.212c.248-.165.5-.336.741-.508L62.13,70.3c-.26.183-.526.366-.794.543M17.008,69.171c-.253-.2-.506-.4-.754-.6l1.691-2.051c.23.188.463.373.7.559Zm47.316-.544-1.681-2.059c.23-.188.461-.381.686-.576l1.736,2.016c-.245.21-.491.418-.741.619M14.193,66.742c-.233-.223-.463-.446-.689-.674l1.878-1.878c.213.21.428.421.644.626Zm52.894-.609-1.881-1.881c.215-.213.426-.428.631-.644l1.921,1.841c-.22.23-.446.458-.671.684M11.63,64.054c-.213-.245-.421-.491-.624-.744l2.056-1.683c.188.228.378.458.574.681Zm57.956-.666L67.537,61.7c.19-.23.376-.463.561-.7l2.094,1.64c-.2.253-.4.5-.606.751M9.334,61.122c-.185-.263-.366-.528-.546-.8L11,58.847c.168.25.336.5.511.741Zm62.477-.714L69.6,58.925c.168-.248.331-.5.493-.751l2.239,1.435c-.173.265-.346.536-.526.8M7.343,57.986c-.16-.281-.316-.564-.468-.849l2.344-1.255c.14.263.283.526.431.781Zm66.389-.756-2.342-1.26c.143-.263.281-.528.416-.794l2.372,1.2c-.145.286-.293.569-.446.852M5.662,54.66c-.13-.3-.258-.589-.381-.889l2.454-1.017c.118.278.235.554.356.829Zm69.667-.781-2.452-1.024c.113-.276.225-.551.333-.829l2.477.964c-.115.3-.235.6-.358.889M4.317,51.186c-.1-.306-.2-.614-.291-.924l2.545-.769c.088.288.178.574.273.859Zm72.274-.8-2.542-.781c.088-.286.17-.571.25-.857l2.562.709c-.085.313-.175.621-.27.929M3.325,47.6c-.07-.313-.135-.626-.2-.939l2.607-.518c.06.3.123.591.185.882ZM77.5,46.78,74.9,46.254c.06-.293.115-.589.168-.882l2.617.461c-.055.316-.113.631-.178.947M2.692,43.935c-.04-.318-.075-.639-.105-.959l2.647-.255c.028.3.06.594.1.889ZM78.057,43.1l-2.647-.268c.033-.3.058-.591.08-.889l2.652.2c-.025.321-.053.644-.085.962M2.419,40.231c-.008-.321-.013-.641-.013-.964l0-.263,2.657.023v.24c0,.3.005.6.01.9Zm73.169-.844,0-.143c0-.24-.005-.5-.01-.756l2.66-.058c.005.275.008.556.008.837ZM5.176,36.467l-2.652-.21c.028-.323.055-.641.088-.959l2.645.273c-.03.3-.058.6-.08.9m70.258-.536c-.03-.3-.063-.6-.1-.892l2.642-.316c.038.318.07.639.1.957Zm-69.82-2.9L3,32.57c.055-.318.115-.634.18-.949l2.6.536c-.06.293-.115.586-.168.879m69.327-.528c-.055-.293-.115-.584-.18-.874l2.595-.579c.07.313.135.631.2.947ZM6.388,29.667l-2.56-.721c.088-.311.178-.619.273-.924l2.542.784c-.09.288-.175.576-.255.862m67.729-.516c-.085-.288-.175-.574-.268-.857l2.527-.824c.1.306.2.611.288.919ZM7.49,26.391l-2.477-.972c.118-.3.24-.594.363-.889l2.449,1.034c-.115.273-.228.549-.336.827m65.472-.5c-.113-.281-.23-.556-.351-.832l2.434-1.064c.13.293.255.591.378.887ZM8.905,23.245l-2.367-1.21c.145-.288.3-.571.448-.852l2.337,1.27c-.143.26-.283.526-.418.791m62.589-.488c-.143-.263-.286-.526-.433-.786l2.317-1.307c.158.278.313.561.463.849ZM10.629,20.25,8.387,18.814c.175-.27.353-.538.533-.806l2.2,1.5c-.168.245-.331.493-.491.744m59.1-.463c-.165-.25-.336-.5-.508-.746L71.4,17.515c.183.265.363.528.541.8ZM12.635,17.437l-2.091-1.643c.2-.255.4-.5.606-.751l2.049,1.7c-.19.233-.378.463-.564.7M67.67,17c-.188-.233-.381-.461-.576-.691l2.021-1.726q.312.364.616.736ZM14.9,14.832l-1.916-1.843q.331-.346.676-.684l1.868,1.888c-.213.21-.423.423-.629.639m50.452-.406c-.21-.213-.423-.421-.641-.629l1.846-1.916c.23.223.461.446.686.676ZM17.418,12.46l-1.726-2.024c.243-.208.488-.413.739-.616l1.678,2.064c-.233.188-.463.381-.691.576M62.806,12.1c-.23-.19-.463-.378-.7-.564l1.645-2.091c.253.2.5.4.749.606Zm-42.65-1.758L18.631,8.16c.263-.183.531-.363.8-.541L20.9,9.836c-.25.165-.5.333-.741.5m39.885-.316c-.25-.168-.5-.331-.754-.493l1.438-2.239c.268.173.536.348.8.528ZM23.084,8.5l-1.3-2.319c.278-.158.561-.311.847-.461L23.873,8.07c-.265.14-.528.286-.789.431m34-.268c-.263-.14-.526-.281-.794-.413L57.5,5.447c.286.145.569.3.849.446ZM26.179,6.958,25.115,4.521q.44-.192.887-.376L27.011,6.6c-.281.115-.556.233-.832.353m27.793-.215c-.276-.115-.551-.228-.832-.338l.972-2.475c.3.118.594.238.889.361ZM29.418,5.725,28.594,3.2c.306-.1.614-.2.922-.288l.756,2.55c-.286.085-.571.173-.854.268m21.311-.16c-.288-.09-.579-.173-.869-.258l.731-2.555c.308.085.614.175.917.268ZM32.756,4.819l-.579-2.595c.316-.07.631-.135.949-.2l.5,2.612c-.291.058-.584.118-.872.18m14.624-.11c-.293-.058-.586-.115-.882-.165l.456-2.62c.318.055.634.115.949.178ZM36.16,4.248l-.311-2.64c.318-.038.636-.073.959-.1l.243,2.65c-.3.028-.594.058-.892.093m7.8-.058c-.3-.03-.6-.058-.9-.083l.213-2.65c.318.025.636.053.954.085Zm-4.35-.178-.055-2.66c.255-.005.513-.008.771-.008h.185V4h-.185c-.24,0-.478,0-.716.008" transform="translate(3.62 2.023)" fill="#27c9aa"/>
      <path id="Trazado_1039110" data-name="Trazado 1039110" d="M19.107,40.083l-.238-2.65A36.887,36.887,0,0,0,41.453,26.949l1.868,1.891A39.559,39.559,0,0,1,19.107,40.083" transform="translate(28.39 40.546)" fill="#00ffce"/>
      <path id="Trazado_1039111" data-name="Trazado 1039111" d="M56.357,37.663A36.756,36.756,0,0,0,16.444,4.357L16.086.384A40.736,40.736,0,0,1,60.327,37.3Z" transform="translate(24.203 0.324)" fill="#00ffce"/>
      <path id="Trazado_1039112" data-name="Trazado 1039112" d="M37.5,69.714a33.26,33.26,0,1,1,3.01-.135q-1.518.135-3.01.135m.08-65.177q-1.458,0-2.925.133a31.813,31.813,0,1,0,2.925-.133" transform="translate(6.425 4.826)" fill="#d0d0d0"/>
      <path id="Trazado_1039113" data-name="Trazado 1039113" d="M50.026,36h-3.99a28.521,28.521,0,0,0-28.49-28.49V3.518A32.516,32.516,0,0,1,50.026,36" transform="translate(26.401 5.293)" fill="#d0d0d0"/>
      <rect id="Rectángulo_421136" data-name="Rectángulo 421136" width="1.33" height="4.699" transform="translate(43.284)" fill="#2d847e"/>
      <rect id="Rectángulo_421137" data-name="Rectángulo 421137" width="1.33" height="4.699" transform="translate(43.284 77.88)" fill="#2d847e"/>
      <rect id="Rectángulo_421138" data-name="Rectángulo 421138" width="17.993" height="1.33" transform="translate(0 40.624)" fill="#00ffce"/>
      <rect id="Rectángulo_421139" data-name="Rectángulo 421139" width="17.993" height="1.33" transform="translate(69.903 40.624)" fill="#00ffce"/>
      <rect id="Rectángulo_421140" data-name="Rectángulo 421140" width="1.33" height="8.799" transform="translate(87.232 36.89)" fill="#2d847e"/>
      <path id="Trazado_1039114" data-name="Trazado 1039114" d="M15.422,40.1a43.453,43.453,0,0,1-7.171-6.166A43.188,43.188,0,0,1,2.7,26.568l3.424-2.046a39.338,39.338,0,0,0,5.039,6.69,39.167,39.167,0,0,0,6.514,5.6Z" transform="translate(4.064 36.895)" fill="#d0d0d0"/>
      <path id="Trazado_1039115" data-name="Trazado 1039115" d="M36.7,66.345l-.02-1.33.523-.01.04,1.327Zm-1.36-.008-.536-.023.058-1.33.528.023Zm3.256-.075-.1-1.327.518-.043.118,1.325Zm-5.149-.04-.533-.053.138-1.322.523.053Zm7.04-.158-.175-1.32.516-.073.193,1.315ZM31.568,66l-.538-.085.225-1.312.508.083Zm10.792-.248-.26-1.3.513-.108.276,1.3Zm-12.663-.1-.528-.118.3-1.295.506.115Zm14.514-.331-.338-1.285.506-.138.353,1.282ZM27.854,65.2l-.521-.15.381-1.275.5.145Zm18.178-.416-.418-1.262.5-.17.441,1.257Zm-19.991-.153-.508-.18.456-1.25.491.178Zm21.782-.5-.5-1.235.486-.2.513,1.225Zm-23.556-.175-.491-.208.528-1.22.481.205Zm25.3-.586L49,62.17l.473-.23.589,1.195Zm-27.019-.2-.486-.243.609-1.185.461.235ZM51.262,62.5l-.644-1.162.456-.255.661,1.152Zm-30.39-.215-.468-.27.676-1.145.453.26ZM52.9,61.536l-.714-1.125.436-.281.731,1.11ZM19.253,61.3,18.8,61l.746-1.1.436.288Zm35.219-.829L53.694,59.4l.418-.311.8,1.064ZM17.7,60.217l-.431-.326.811-1.054.413.313Zm38.282-.9-.842-1.032c.135-.108.268-.215.4-.328l.867,1.009c-.14.118-.281.235-.421.351m-39.765-.275c-.14-.115-.281-.235-.416-.356l.877-1c.128.113.258.223.388.336Zm41.2-.974-.9-.974.373-.356.929.954ZM14.8,57.775c-.133-.125-.263-.25-.393-.381l.934-.944c.123.12.245.24.371.356Zm43.965-1.039-.959-.919.358-.378.974.9Zm-45.305-.313-.366-.4.992-.892.348.386Zm46.58-1.1-1.019-.859.336-.4,1.024.847Zm-47.83-.331-.343-.423,1.042-.824.326.4ZM61.22,53.84l-1.067-.8.306-.418,1.079.779Zm-50.174-.348-.318-.441,1.089-.764.306.423Zm51.261-1.207-1.112-.726.281-.436,1.125.709ZM9.974,51.921l-.286-.458,1.13-.7.278.441ZM63.3,50.672l-1.157-.659.258-.456,1.165.644ZM9,50.291l-.26-.483,1.177-.621.245.453ZM64.193,49,63,48.41l.225-.466,1.2.571ZM8.128,48.6,7.9,48.1l1.21-.551.22.471Zm56.851-1.317-1.225-.516.2-.481,1.235.5ZM7.364,46.857l-.2-.508,1.24-.476.19.481Zm58.3-1.35-1.257-.441.17-.491,1.265.413ZM6.708,45.071l-.168-.523,1.27-.4.16.493ZM66.234,43.7l-1.28-.361.138-.5,1.285.343ZM6.162,43.246l-.135-.523L7.314,42.4l.13.506ZM66.7,41.853l-1.3-.283.105-.506,1.3.258ZM5.726,41.4l-.1-.536,1.307-.238.1.511Zm61.319-1.413-1.317-.2.078-.516,1.315.183ZM5.408,39.526l-.07-.538,1.32-.16.068.513ZM67.276,38.1l-1.322-.123.04-.518,1.33.1ZM5.205,37.638l-.035-.543,1.322-.078.038.518Zm62.189-1.43-1.33-.043.013-.518,1.33.02ZM5.115,35.742,5.11,35.2l1.33-.118,0,.636Zm60.951-1.4-.02-.518,1.332-.06.018.541ZM6.475,33.786l-1.332-.063.03-.541,1.327.083Zm59.486-1.255-.05-.516,1.322-.14.053.541ZM6.613,31.967,5.29,31.832l.063-.541,1.32.165Zm59.133-1.24-.083-.513,1.315-.22.085.533ZM6.861,30.172l-1.31-.225.1-.531,1.3.245ZM65.42,28.939l-.11-.508,1.292-.3.12.531Zm-58.2-.551-1.292-.3.128-.528,1.29.326Zm57.768-1.215-.145-.5,1.277-.378.148.521Zm-57.3-.543-1.275-.378.16-.521,1.267.406Zm56.759-1.19-.175-.491,1.247-.458L65.7,25ZM8.261,24.91l-1.242-.461.188-.506,1.242.478ZM63.8,23.737l-.2-.478,1.215-.536.215.5ZM8.939,23.227l-1.217-.536.22-.493,1.21.556Zm54.109-1.15-.238-.466L63.993,21l.248.486Zm-53.33-.488L8.536,20.98l.25-.478,1.175.626Zm52.476-1.122-.26-.446,1.14-.684.276.473ZM10.6,20l-1.142-.679.281-.463,1.13.7Zm50.647-1.087-.286-.431,1.1-.749.3.453Zm-49.673-.448-1.1-.741.311-.451,1.084.769Zm48.634-1.044-.313-.416,1.052-.811.328.433ZM12.636,17l-1.052-.814.333-.426,1.039.832Zm46.437-1-.338-.4,1.007-.869.351.408Zm-45.285-.4-1-.877.358-.4.989.892Zm44.07-.954-.358-.376.947-.932.376.391Zm-42.831-.383-.952-.927c.128-.133.258-.26.388-.388l.929.954c-.123.118-.245.24-.366.361m41.538-.894-.378-.346.882-.994.4.366ZM16.346,13l-.9-.984c.135-.123.273-.243.411-.363l.869,1.007c-.128.11-.258.225-.383.341M55.2,12.166c-.133-.11-.265-.218-.4-.323l.824-1.047c.14.113.283.228.426.346Zm-37.468-.333L16.9,10.791l.428-.336.809,1.057Zm36.033-.781-.421-.3.764-1.092.438.316Zm-34.571-.308-.766-1.084.448-.311.744,1.1Zm33.07-.711-.441-.273.694-1.137.461.288Zm-31.55-.286-.7-1.132c.155-.1.311-.19.468-.283l.671,1.147ZM50.7,9.106l-.453-.248.626-1.175.473.258Zm-28.409-.26-.624-1.175.483-.25.6,1.185Zm26.8-.574-.468-.22.556-1.207.486.23Zm-25.166-.23-.546-1.215.5-.218.528,1.22Zm23.508-.5-.486-.193.483-1.24.5.2ZM25.6,7.338,25.137,6.1l.5-.19.458,1.25Zm20.122-.423-.5-.163.411-1.265.508.165Zm-18.4-.175-.391-1.27.516-.158.378,1.275Zm16.66-.348-.506-.133.331-1.287.521.135Zm-14.91-.143-.313-1.292.528-.123.293,1.295Zm13.139-.273-.508-.1.243-1.307.531.1ZM30.86,5.867,30.614,4.56l.538-.093.215,1.312Zm9.565-.2L39.909,5.6l.165-1.32.538.07Zm-7.769-.075L32.5,4.274l.538-.06.133,1.322Zm5.961-.123L38.1,5.434l.088-1.327.538.038Zm-4.158-.038L34.393,4.1l.531-.028.06,1.33ZM36.8,5.384l-.523-.005.01-1.33.533.005Z" transform="translate(7.688 6.092)" fill="#27c9aa"/>
      <g id="check" transform="translate(-114.341 -408.332)">
        <g id="Icon" transform="translate(145 433)">
          <g id="Grupo_1215966" data-name="Grupo 1215966" transform="translate(19.729 23.566) rotate(-45)">
            <path id="Trazado_1252361" data-name="Trazado 1252361" d="M0,.674v2.7a.674.674,0,0,0,.674.674H6.065a.674.674,0,0,0,0-1.348H1.348V.674A.674.674,0,0,0,0,.674Z" transform="translate(0)" fill-rule="evenodd"/>
          </g>
          <path id="Trazado_1252362" data-name="Trazado 1252362" d="M153.674,452.348h13.478a.674.674,0,1,0,0-1.348H153.674a.674.674,0,1,0,0,1.348Z" transform="translate(-147.609 -438.87)" fill-rule="evenodd"/>
          <path id="Trazado_1252363" data-name="Trazado 1252363" d="M153.674,458.348h9.435a.674.674,0,1,0,0-1.348h-9.435a.674.674,0,1,0,0,1.348Z" transform="translate(-147.609 -440.826)" fill-rule="evenodd"/>
          <path id="Trazado_1252364" data-name="Trazado 1252364" d="M153.674,464.348h8.087a.674.674,0,0,0,0-1.348h-8.087a.674.674,0,1,0,0,1.348Z" transform="translate(-147.609 -442.783)" fill-rule="evenodd"/>
          <path id="Trazado_1252365" data-name="Trazado 1252365" d="M153.674,470.348h8.087a.674.674,0,0,0,0-1.348h-8.087a.674.674,0,1,0,0,1.348Z" transform="translate(-147.609 -444.739)" fill-rule="evenodd"/>
          <path id="Trazado_1252366" data-name="Trazado 1252366" d="M168.587,464H148.37a3.368,3.368,0,0,1-3.37-3.37v-19.1a3.372,3.372,0,0,1,.987-2.383l5.16-5.16A3.372,3.372,0,0,1,153.53,433h13.709a3.368,3.368,0,0,1,3.37,3.37v13.084A7.414,7.414,0,0,1,168.587,464Zm.674-14.8V436.37a2.023,2.023,0,0,0-2.022-2.022H153.53a2.023,2.023,0,0,0-.443.049v3.32a3.369,3.369,0,0,1-3.37,3.37H146.4a2.02,2.02,0,0,0-.049.443v19.1a2.022,2.022,0,0,0,2.022,2.022h15.956a7.413,7.413,0,0,1,4.261-13.478Q168.928,449.174,169.261,449.2Zm-.674,1.318a6.065,6.065,0,1,1-6.065,6.065A6.068,6.068,0,0,1,168.587,450.522ZM151.739,435.3l-4.438,4.438h2.417a2.022,2.022,0,0,0,2.022-2.022Z" transform="translate(-145 -433)" fill-rule="evenodd"/>
        </g>
      </g>
    </g>
  </g>
</svg>
