<svg xmlns="http://www.w3.org/2000/svg" width="72" height="72" viewBox="0 0 72 72">
  <g id="Grupo_1215443" data-name="Grupo 1215443" transform="translate(-304 -3248.466)">
    <path id="Trazado_824488" data-name="Trazado 824488" d="M36,0A36,36,0,1,1,0,36,36,36,0,0,1,36,0Z" transform="translate(304 3248.466)" fill="#f3f9ff"/>
    <g id="Grupo_1215442" data-name="Grupo 1215442" transform="translate(306 3250.466)">
      <g id="Grupo_1215431" data-name="Grupo 1215431">
        <g id="Grupo_1215398" data-name="Grupo 1215398">
          <path id="Trazado_1284079" data-name="Trazado 1284079" d="M47.189,46.148a6.1,6.1,0,0,1-2.764,4.789L18.993,65.619a1.936,1.936,0,0,1-2,.175.275.275,0,0,0,.029.019l-2.272-1.32a1.939,1.939,0,0,1-.809-1.78l-.365-40.861a6.093,6.093,0,0,1,2.764-4.789L41.769,2.381a1.952,1.952,0,0,1,1.973-.193l2.233,1.3.041.024a1.944,1.944,0,0,1,.808,1.78Z" fill="#edeef2"/>
        </g>
        <path id="Trazado_1284080" data-name="Trazado 1284080" d="M43.743,2.187a1.957,1.957,0,0,0-1.974.194L16.339,17.063a6.093,6.093,0,0,0-2.765,4.789l.365,40.862a1.941,1.941,0,0,0,.809,1.779l2.272,1.32a1.941,1.941,0,0,1-.809-1.779l-.365-40.862a6.093,6.093,0,0,1,2.765-4.789L44.041,3.7a1.957,1.957,0,0,1,1.974-.194Z" fill="#d3d3dd"/>
        <g id="Grupo_1215399" data-name="Grupo 1215399">
          <path id="Trazado_1284081" data-name="Trazado 1284081" d="M44.041,3.7c1.533-.885,2.778-.175,2.783,1.586l.366,40.861a6.1,6.1,0,0,1-2.765,4.789L18.994,65.62c-1.531.884-2.778.174-2.783-1.586l-.365-40.862a6.093,6.093,0,0,1,2.765-4.789Z" fill="#edeef2"/>
        </g>
        <g id="Grupo_1215400" data-name="Grupo 1215400">
          <path id="Trazado_1284082" data-name="Trazado 1284082" d="M47.189,46.148a6.1,6.1,0,0,1-2.764,4.789L18.993,65.619c-1.53.884-2.777.175-2.782-1.586L15.98,38.142a13.009,13.009,0,0,0,5.6,1.266c7.665,0,13.879-6.675,13.879-14.908A15.22,15.22,0,0,0,29.38,12.165L44.041,3.7c1.532-.886,2.777-.175,2.782,1.586Z" fill="#e0e1ec"/>
        </g>
        <g id="Grupo_1215430" data-name="Grupo 1215430">
          <g id="Grupo_1215429" data-name="Grupo 1215429">
            <g id="Grupo_1215403" data-name="Grupo 1215403">
              <g id="Grupo_1215401" data-name="Grupo 1215401">
                <path id="Trazado_1284083" data-name="Trazado 1284083" d="M37.354,44.873a.381.381,0,0,1-.191-.711l5.318-3.07a.381.381,0,1,1,.381.66l-5.318,3.07a.379.379,0,0,1-.19.051Z" fill="#b5b7c6"/>
              </g>
              <g id="Grupo_1215402" data-name="Grupo 1215402">
                <path id="Trazado_1284084" data-name="Trazado 1284084" d="M19.958,54.916a.381.381,0,0,1-.191-.711L34.89,45.473a.381.381,0,1,1,.381.66L20.148,54.865a.379.379,0,0,1-.19.051Z" fill="#b5b7c6"/>
              </g>
            </g>
            <g id="Grupo_1215428" data-name="Grupo 1215428">
              <g id="Grupo_1215424" data-name="Grupo 1215424">
                <g id="Grupo_1215404" data-name="Grupo 1215404">
                  <path id="Trazado_1284085" data-name="Trazado 1284085" d="M38.727,17.135a.381.381,0,0,1-.191-.711l4.352-2.512a.381.381,0,1,1,.381.66l-4.352,2.512A.379.379,0,0,1,38.727,17.135Z" fill="#423751"/>
                </g>
                <g id="Grupo_1215408" data-name="Grupo 1215408">
                  <g id="Grupo_1215405" data-name="Grupo 1215405">
                    <path id="Trazado_1284086" data-name="Trazado 1284086" d="M19.958,23.463a.381.381,0,0,1-.191-.711l3.33-1.923a.381.381,0,1,1,.381.66l-3.33,1.923a.379.379,0,0,1-.19.051Z" fill="#b5b7c6"/>
                  </g>
                  <g id="Grupo_1215406" data-name="Grupo 1215406">
                    <path id="Trazado_1284087" data-name="Trazado 1284087" d="M25.976,19.988a.381.381,0,0,1-.191-.711l10.143-5.856a.381.381,0,1,1,.381.66L26.166,19.937A.379.379,0,0,1,25.976,19.988Z" fill="#b5b7c6"/>
                  </g>
                  <g id="Grupo_1215407" data-name="Grupo 1215407">
                    <path id="Trazado_1284088" data-name="Trazado 1284088" d="M38.32,12.862a.381.381,0,0,1-.191-.711l4.352-2.512a.381.381,0,1,1,.381.66L38.51,12.811A.379.379,0,0,1,38.32,12.862Z" fill="#b5b7c6"/>
                  </g>
                </g>
                <g id="Grupo_1215412" data-name="Grupo 1215412">
                  <g id="Grupo_1215409" data-name="Grupo 1215409">
                    <path id="Trazado_1284089" data-name="Trazado 1284089" d="M20.365,23.463a.381.381,0,0,1-.191-.711l3.33-1.923a.381.381,0,1,1,.381.66l-3.33,1.923a.379.379,0,0,1-.19.051Z" fill="#423751"/>
                  </g>
                  <g id="Grupo_1215410" data-name="Grupo 1215410">
                    <path id="Trazado_1284090" data-name="Trazado 1284090" d="M26.383,19.988a.381.381,0,0,1-.191-.711l10.143-5.856a.381.381,0,1,1,.381.66L26.573,19.937a.379.379,0,0,1-.19.051Z" fill="#423751"/>
                  </g>
                  <g id="Grupo_1215411" data-name="Grupo 1215411">
                    <path id="Trazado_1284091" data-name="Trazado 1284091" d="M38.727,12.862a.381.381,0,0,1-.191-.711l4.352-2.512a.381.381,0,1,1,.381.66l-4.352,2.512A.379.379,0,0,1,38.727,12.862Z" fill="#423751"/>
                  </g>
                </g>
                <g id="Grupo_1215413" data-name="Grupo 1215413">
                  <path id="Trazado_1284092" data-name="Trazado 1284092" d="M33.912,19.68a.381.381,0,0,1-.191-.711l8.76-5.057a.381.381,0,1,1,.381.66L34.1,19.629A.379.379,0,0,1,33.912,19.68Z" fill="#b5b7c6"/>
                </g>
                <g id="Grupo_1215417" data-name="Grupo 1215417">
                  <g id="Grupo_1215414" data-name="Grupo 1215414">
                    <path id="Trazado_1284093" data-name="Trazado 1284093" d="M20.114,27.514a.381.381,0,0,1-.191-.711l11.09-6.4a.381.381,0,1,1,.381.66l-11.09,6.4a.379.379,0,0,1-.19.051Z" fill="#b5b7c6"/>
                  </g>
                  <g id="Grupo_1215415" data-name="Grupo 1215415">
                    <path id="Trazado_1284094" data-name="Trazado 1284094" d="M20.365,27.736a.381.381,0,0,1-.191-.711l11.09-6.4a.381.381,0,1,1,.381.66l-11.09,6.4a.379.379,0,0,1-.19.051Z" fill="#423751"/>
                  </g>
                  <g id="Grupo_1215416" data-name="Grupo 1215416">
                    <path id="Trazado_1284095" data-name="Trazado 1284095" d="M34.319,19.68a.381.381,0,0,1-.191-.711l8.76-5.057a.381.381,0,1,1,.381.66l-8.76,5.057A.379.379,0,0,1,34.319,19.68Z" fill="#423751"/>
                  </g>
                </g>
                <g id="Grupo_1215420" data-name="Grupo 1215420">
                  <g id="Grupo_1215418" data-name="Grupo 1215418">
                    <path id="Trazado_1284096" data-name="Trazado 1284096" d="M19.958,59.734a.381.381,0,0,1-.191-.711l4.765-2.751a.381.381,0,1,1,.381.66l-4.765,2.751a.379.379,0,0,1-.19.051Z" fill="#b5b7c6"/>
                  </g>
                  <g id="Grupo_1215419" data-name="Grupo 1215419">
                    <path id="Trazado_1284097" data-name="Trazado 1284097" d="M26.98,55.679a.381.381,0,0,1-.191-.711l15.691-9.059a.381.381,0,1,1,.381.66L27.171,55.628A.379.379,0,0,1,26.98,55.679Z" fill="#b5b7c6"/>
                  </g>
                </g>
                <g id="Grupo_1215423" data-name="Grupo 1215423">
                  <g id="Grupo_1215421" data-name="Grupo 1215421">
                    <path id="Trazado_1284098" data-name="Trazado 1284098" d="M20.365,59.734a.381.381,0,0,1-.191-.711l4.765-2.751a.381.381,0,1,1,.381.66l-4.765,2.751A.379.379,0,0,1,20.365,59.734Z" fill="#423751"/>
                  </g>
                  <g id="Grupo_1215422" data-name="Grupo 1215422">
                    <path id="Trazado_1284099" data-name="Trazado 1284099" d="M27.387,55.679a.381.381,0,0,1-.191-.711l15.691-9.059a.381.381,0,1,1,.381.66L27.578,55.628a.379.379,0,0,1-.19.051Z" fill="#423751"/>
                  </g>
                </g>
              </g>
              <g id="Grupo_1215426" data-name="Grupo 1215426">
                <g id="Grupo_1215425" data-name="Grupo 1215425">
                  <path id="Trazado_1284100" data-name="Trazado 1284100" d="M37.761,44.873a.381.381,0,0,1-.191-.711l5.318-3.07a.381.381,0,1,1,.381.66l-5.318,3.07a.379.379,0,0,1-.19.051Z" fill="#423751"/>
                </g>
              </g>
              <g id="Grupo_1215427" data-name="Grupo 1215427">
                <path id="Trazado_1284101" data-name="Trazado 1284101" d="M20.365,54.916a.381.381,0,0,1-.191-.711L35.3,45.473a.381.381,0,1,1,.381.66L20.555,54.865A.379.379,0,0,1,20.365,54.916Z" fill="#423751"/>
              </g>
            </g>
          </g>
        </g>
      </g>
      <path id="Trazado_1284102" data-name="Trazado 1284102" d="M54.426,27.768A5.136,5.136,0,0,1,52.1,31.8l-19.56,11.29a1.533,1.533,0,0,1-1.79.07.642.642,0,0,0,.13.1l-1.39-.81a1.624,1.624,0,0,1-.68-1.5l-.03-10.7a5.133,5.133,0,0,1,2.33-4.02l19.56-11.29a1.653,1.653,0,0,1,1.66-.17l1.3.76a.255.255,0,0,1,.07.04,1.59,1.59,0,0,1,.7,1.5Z" fill="#ff3d47"/>
      <path id="Trazado_1284103" data-name="Trazado 1284103" d="M52.33,14.773a1.648,1.648,0,0,0-1.662.164L31.105,26.232a5.112,5.112,0,0,0-2.324,4.019l.026,10.7a1.632,1.632,0,0,0,.68,1.5l1.39.808a1.632,1.632,0,0,1-.68-1.5l-.026-10.7A5.111,5.111,0,0,1,32.5,27.04L52.059,15.745a1.648,1.648,0,0,1,1.662-.164Z" fill="#6f88da"/>
      <g id="Grupo_1215432" data-name="Grupo 1215432">
        <path id="Trazado_1284104" data-name="Trazado 1284104" d="M52.059,15.745c1.288-.743,2.335-.153,2.339,1.327l.026,10.7A5.123,5.123,0,0,1,52.1,31.8L32.537,43.093c-1.288.743-2.335.146-2.339-1.333l-.026-10.7A5.112,5.112,0,0,1,32.5,27.04Z" fill="#5e77c9"/>
      </g>
      <g id="Grupo_1215433" data-name="Grupo 1215433">
        <path id="Trazado_1284105" data-name="Trazado 1284105" d="M54.426,27.768A5.136,5.136,0,0,1,52.1,31.8l-19.56,11.29c-1.29.75-2.33.15-2.34-1.33l-.02-8.21a6.193,6.193,0,0,0,3.54,1.11c3.7,0,6.7-3.28,6.7-7.33a7.8,7.8,0,0,0-1.19-4.18l12.83-7.4c1.29-.75,2.34-.16,2.34,1.32Z" fill="#5e77c9"/>
      </g>
      <g id="Grupo_1215437" data-name="Grupo 1215437">
        <g id="Grupo_1215434" data-name="Grupo 1215434">
          <path id="Trazado_1284106" data-name="Trazado 1284106" d="M37.826,29.083a1.935,1.935,0,0,1,.246,1.022,3.839,3.839,0,0,1-.239,1.3,4.411,4.411,0,0,1-.8,1.347,5.374,5.374,0,0,1-1.452,1.184l-1.7.984.007,2.3a.812.812,0,0,1-.125.416.858.858,0,0,1-.3.317.293.293,0,0,1-.3.032.289.289,0,0,1-.122-.273l-.019-6.587a.86.86,0,0,1,.12-.42.816.816,0,0,1,.3-.318l2.135-1.233a2.945,2.945,0,0,1,1.454-.5.918.918,0,0,1,.808.419Zm-.992,2.782A2.434,2.434,0,0,0,37.22,30.6a.827.827,0,0,0-.391-.82q-.39-.2-1.345.356l-1.621.936L33.871,34l1.621-.936a3.631,3.631,0,0,0,1.342-1.2" fill="#3a1d71"/>
        </g>
        <g id="Grupo_1215435" data-name="Grupo 1215435">
          <path id="Trazado_1284107" data-name="Trazado 1284107" d="M44.544,25.927a3.116,3.116,0,0,1,.38,1.591,6.144,6.144,0,0,1-.369,2.025,7.277,7.277,0,0,1-1.115,2.051,6.071,6.071,0,0,1-1.811,1.59l-1.882,1.087a.255.255,0,0,1-.423-.241L39.3,27.5a.86.86,0,0,1,.12-.42.812.812,0,0,1,.3-.318l1.882-1.087a2.892,2.892,0,0,1,1.814-.5,1.492,1.492,0,0,1,1.123.758Zm-.776,3.742A4.579,4.579,0,0,0,44.082,28a2.248,2.248,0,0,0-.323-1.3,1.1,1.1,0,0,0-.9-.481,2.566,2.566,0,0,0-1.351.419l-1.348.778.016,5.683,1.348-.778a5,5,0,0,0,1.349-1.14,5.378,5.378,0,0,0,.9-1.52" fill="#3a1d71"/>
        </g>
        <g id="Grupo_1215436" data-name="Grupo 1215436">
          <path id="Trazado_1284108" data-name="Trazado 1284108" d="M50.4,20.593a.244.244,0,0,1,.4.23.757.757,0,0,1-.116.392.8.8,0,0,1-.285.294l-3.214,1.855.007,2.379,2.886-1.666a.275.275,0,0,1,.285-.03.271.271,0,0,1,.118.26.757.757,0,0,1-.116.392.8.8,0,0,1-.285.294L47.2,26.657l.008,2.874a.812.812,0,0,1-.125.416.859.859,0,0,1-.3.317.293.293,0,0,1-.3.032.289.289,0,0,1-.122-.273l-.019-6.587a.86.86,0,0,1,.12-.42.817.817,0,0,1,.3-.318Z" fill="#3a1d71"/>
        </g>
      </g>
      <g id="Grupo_1215441" data-name="Grupo 1215441">
        <g id="Grupo_1215438" data-name="Grupo 1215438">
          <path id="Trazado_1284109" data-name="Trazado 1284109" d="M38.217,29.224a1.935,1.935,0,0,1,.246,1.022,3.839,3.839,0,0,1-.239,1.3,4.411,4.411,0,0,1-.8,1.347,5.374,5.374,0,0,1-1.452,1.184l-1.7.984.007,2.3a.812.812,0,0,1-.125.416.858.858,0,0,1-.3.317.293.293,0,0,1-.3.032.289.289,0,0,1-.122-.273L33.4,31.272a.86.86,0,0,1,.12-.42.816.816,0,0,1,.3-.318L35.955,29.3a2.945,2.945,0,0,1,1.454-.5.918.918,0,0,1,.808.419Zm-.992,2.782a2.434,2.434,0,0,0,.385-1.268.827.827,0,0,0-.391-.82q-.39-.2-1.345.356l-1.621.936.008,2.928,1.621-.936a3.631,3.631,0,0,0,1.342-1.2" fill="#e0e1ec"/>
        </g>
        <g id="Grupo_1215439" data-name="Grupo 1215439">
          <path id="Trazado_1284110" data-name="Trazado 1284110" d="M44.934,26.068a3.116,3.116,0,0,1,.38,1.591,6.144,6.144,0,0,1-.369,2.025,7.277,7.277,0,0,1-1.115,2.051,6.071,6.071,0,0,1-1.811,1.59l-1.882,1.087a.255.255,0,0,1-.423-.241l-.019-6.533a.86.86,0,0,1,.12-.42.812.812,0,0,1,.3-.318L42,25.812a2.892,2.892,0,0,1,1.814-.5,1.492,1.492,0,0,1,1.123.758Zm-.776,3.742a4.579,4.579,0,0,0,.314-1.665,2.248,2.248,0,0,0-.323-1.3,1.1,1.1,0,0,0-.9-.481,2.566,2.566,0,0,0-1.351.419l-1.348.778.016,5.683,1.348-.778a5,5,0,0,0,1.349-1.14,5.378,5.378,0,0,0,.9-1.52" fill="#e0e1ec"/>
        </g>
        <g id="Grupo_1215440" data-name="Grupo 1215440">
          <path id="Trazado_1284111" data-name="Trazado 1284111" d="M50.793,20.734a.244.244,0,0,1,.4.23.757.757,0,0,1-.116.392.8.8,0,0,1-.285.294L47.582,23.5l.007,2.379,2.886-1.666a.275.275,0,0,1,.285-.03.271.271,0,0,1,.118.26.757.757,0,0,1-.116.392.8.8,0,0,1-.285.294L47.592,26.8l.008,2.874a.812.812,0,0,1-.125.416.859.859,0,0,1-.3.317.293.293,0,0,1-.3.032.289.289,0,0,1-.122-.273l-.019-6.587a.86.86,0,0,1,.12-.42.817.817,0,0,1,.3-.318Z" fill="#e0e1ec"/>
        </g>
      </g>
    </g>
  </g>
</svg>
