<svg xmlns="http://www.w3.org/2000/svg" width="31.541" height="56.727" viewBox="0 0 31.541 56.727">
  <g id="Grupo_1200951" data-name="Grupo 1200951" transform="translate(31.541) rotate(90)">
    <g id="Grupo_78414" data-name="Grupo 78414" transform="translate(0 0)">
      <path id="Trazado_114078" data-name="Trazado 114078" d="M48.938,0c-2.231,0-3.333,2.388-4.217,4.309-.9,1.943-1.5,3.133-2.646,3.133s-1.748-1.191-2.643-3.133C38.547,2.388,37.446,0,35.216,0S31.883,2.388,31,4.309c-.9,1.943-1.5,3.133-2.644,3.133s-1.747-1.191-2.643-3.133C24.828,2.388,23.726,0,21.5,0s-3.332,2.39-4.215,4.31c-.9,1.941-1.5,3.132-2.642,3.132S12.893,6.251,12,4.31C11.113,2.388,10.013,0,7.782,0S4.452,2.388,3.567,4.31c-.9,1.941-1.5,3.132-2.641,3.132C.414,7.442,0,8,0,8.682s.414,1.24.926,1.24c2.229,0,3.331-2.388,4.215-4.309.894-1.943,1.5-3.133,2.642-3.133s1.746,1.191,2.642,3.133c.885,1.92,1.986,4.309,4.215,4.309s3.331-2.388,4.214-4.309c.9-1.943,1.5-3.133,2.643-3.133s1.747,1.191,2.643,3.133c.885,1.92,1.986,4.309,4.216,4.309s3.332-2.388,4.217-4.309c.894-1.943,1.5-3.133,2.644-3.133s1.747,1.191,2.643,3.133c.884,1.92,1.986,4.309,4.216,4.309s3.334-2.388,4.218-4.309c.9-1.943,1.5-3.133,2.645-3.133s1.749,1.191,2.646,3.133c.885,1.92,1.987,4.309,4.218,4.309.511,0,.925-.554.925-1.24s-.413-1.24-.925-1.24c-1.142,0-1.749-1.191-2.646-3.133C52.271,2.388,51.17,0,48.938,0Z" transform="translate(0 21.619)" fill="#6f88da"/>
      <path id="Trazado_114079" data-name="Trazado 114079" d="M48.938,0c-2.231,0-3.333,2.39-4.217,4.309-.9,1.944-1.5,3.135-2.646,3.135S40.326,6.253,39.432,4.31C38.547,2.39,37.446,0,35.216,0S31.883,2.39,31,4.31c-.9,1.943-1.5,3.133-2.644,3.133S26.608,6.253,25.712,4.31C24.828,2.39,23.726,0,21.5,0s-3.332,2.391-4.215,4.31c-.9,1.943-1.5,3.133-2.642,3.133S12.893,6.253,12,4.31C11.113,2.39,10.013,0,7.782,0S4.452,2.39,3.567,4.31c-.9,1.943-1.5,3.133-2.641,3.133C.414,7.443,0,8,0,8.683s.414,1.24.926,1.24c2.229,0,3.331-2.39,4.215-4.31.894-1.941,1.5-3.132,2.642-3.132s1.746,1.191,2.642,3.132c.885,1.92,1.986,4.31,4.215,4.31s3.331-2.39,4.214-4.31c.9-1.941,1.5-3.132,2.643-3.132s1.747,1.191,2.643,3.132c.885,1.92,1.986,4.31,4.216,4.31s3.332-2.39,4.217-4.31c.894-1.941,1.5-3.132,2.644-3.132s1.747,1.191,2.643,3.132c.884,1.92,1.986,4.31,4.216,4.31s3.334-2.39,4.218-4.31c.9-1.941,1.5-3.132,2.645-3.132s1.749,1.191,2.646,3.132c.885,1.92,1.987,4.31,4.218,4.31.511,0,.925-.556.925-1.24s-.413-1.24-.925-1.24c-1.142,0-1.749-1.191-2.646-3.133C52.271,2.39,51.17,0,48.938,0Z" transform="translate(0 10.808)" fill="#6f88da"/>
      <path id="Trazado_114080" data-name="Trazado 114080" d="M48.938,0c-2.231,0-3.333,2.388-4.217,4.309-.9,1.943-1.5,3.133-2.646,3.133s-1.748-1.191-2.643-3.133C38.547,2.388,37.446,0,35.216,0S31.883,2.388,31,4.309c-.9,1.943-1.5,3.133-2.644,3.133s-1.747-1.191-2.643-3.133C24.828,2.388,23.726,0,21.5,0s-3.332,2.388-4.215,4.309c-.9,1.943-1.5,3.133-2.642,3.133S12.893,6.251,12,4.309C11.113,2.388,10.013,0,7.782,0S4.452,2.388,3.567,4.309c-.9,1.943-1.5,3.133-2.641,3.133C.414,7.442,0,8,0,8.682s.414,1.24.926,1.24c2.229,0,3.331-2.39,4.215-4.31.894-1.941,1.5-3.132,2.642-3.132s1.746,1.191,2.642,3.132c.885,1.92,1.986,4.31,4.215,4.31s3.331-2.39,4.214-4.309c.9-1.943,1.5-3.133,2.643-3.133s1.747,1.191,2.643,3.133c.885,1.919,1.986,4.309,4.216,4.309s3.332-2.39,4.217-4.309c.894-1.943,1.5-3.133,2.644-3.133s1.747,1.191,2.643,3.133c.884,1.919,1.986,4.309,4.216,4.309s3.334-2.39,4.218-4.309c.9-1.943,1.5-3.133,2.645-3.133s1.749,1.191,2.646,3.133c.885,1.919,1.987,4.309,4.218,4.309.511,0,.925-.556.925-1.24s-.413-1.24-.925-1.24c-1.142,0-1.749-1.191-2.646-3.133C52.271,2.388,51.17,0,48.938,0Z" transform="translate(0 0)" fill="#6f88da"/>
    </g>
  </g>
</svg>
