<svg xmlns="http://www.w3.org/2000/svg" width="26.296" height="48.285" viewBox="0 0 26.296 48.285">
  <g id="Grupo_1216622" data-name="Grupo 1216622" transform="translate(-518.618 -1916.031)">
    <path id="Trazado_151731" data-name="Trazado 151731" d="M10.969,4.618a6.35,6.35,0,1,0,6.35,6.35,6.357,6.357,0,0,0-6.35-6.35m0-4.618A10.969,10.969,0,1,1,0,10.969,10.969,10.969,0,0,1,10.969,0Z" transform="translate(518.618 1916.031)" fill="#00ffce"/>
    <g id="Grupo_1203123" data-name="Grupo 1203123" transform="translate(537.197 1956.598)">
      <g id="Grupo_80145" data-name="Grupo 80145" transform="translate(3.359)">
        <path id="Trazado_151662" data-name="Trazado 151662" d="M-12997.418-11381.446v2.591" transform="translate(12997.418 11385.574)" fill="none" stroke="#31313c" stroke-linecap="round" stroke-width="2"/>
        <path id="Trazado_151663" data-name="Trazado 151663" d="M-12997.418-11381.446v2.591" transform="translate(12997.418 11381.446)" fill="none" stroke="#31313c" stroke-linecap="round" stroke-width="2"/>
      </g>
      <g id="Grupo_80146" data-name="Grupo 80146" transform="translate(6.718 3.358) rotate(90)">
        <path id="Trazado_151662-2" data-name="Trazado 151662" d="M0,0V2.11" transform="translate(0 4.607)" fill="none" stroke="#31313c" stroke-linecap="round" stroke-width="2"/>
        <path id="Trazado_151663-2" data-name="Trazado 151663" d="M0,0V1.647" fill="none" stroke="#31313c" stroke-linecap="round" stroke-width="2"/>
      </g>
    </g>
  </g>
</svg>
