<svg id="Grupo_1218146" data-name="Grupo 1218146" xmlns="http://www.w3.org/2000/svg" xmlns:xlink="http://www.w3.org/1999/xlink" width="71.025" height="94.711" viewBox="0 0 71.025 94.711">
  <defs>
    <clipPath id="clip-path">
      <rect id="Rectángulo_430952" data-name="Rectángulo 430952" width="71.025" height="94.711" fill="#2d847e"/>
    </clipPath>
  </defs>
  <g id="Grupo_1218146-2" data-name="Grupo 1218146" clip-path="url(#clip-path)">
    <path id="Trazado_1254662" data-name="Trazado 1254662" d="M22.677,67.393a1.082,1.082,0,0,1-.611-.717c-.205-1.306.1-3.158,0-4.55-.01-.14-.02-.4-.123-.494s-1.428-.59-1.746-.766a20.827,20.827,0,0,1-1.957-1.329L14,61.942a1.065,1.065,0,0,1-1.127-.3c-.921-1.778-2.171-3.5-3.064-5.28-.253-.5-.537-.814-.213-1.384a48.35,48.35,0,0,1,4.412-2.706l-.11-1.184A13.141,13.141,0,0,1,7.22,26.237,13.15,13.15,0,0,1,23.861,14.858,17.5,17.5,0,0,1,30.416,3.63,17.264,17.264,0,0,1,56.484,24.908a13.181,13.181,0,0,1,11.609,6.267A13.05,13.05,0,0,1,57.907,50.987v7.871h8.487a1.179,1.179,0,0,1,.856.756l.049,34c-.073.758-.46,1.026-1.186,1.09h-18.4c-.48.049-1.181-.413-1.181-.9V77.729H30.074a4.462,4.462,0,0,1-2.586,2.724c-5.032,1.689-7.395-5.986-2.3-7.371v-5.69c-.719-.106-1.85.143-2.513,0m15.789-18.3,19.207,0C72.3,47.646,70.913,26.149,55.964,26.9c-.647.033-1.276.407-1.883-.016-.985-.686.259-2.032.619-2.766A15.313,15.313,0,1,0,26.012,14.114c-.152.747-.15,1.569-.295,2.266-.312,1.5-2,.456-2.913.247A11.155,11.155,0,0,0,9.476,24.795c-.2.865-.237,1.749-.419,2.615-.206.407-1.662,1.015-2.16,1.348a11.326,11.326,0,0,0-4.418,5.919A11.148,11.148,0,0,0,13.851,49.1c.088-.015.271-1.134.056-1.287A38.2,38.2,0,0,1,9.6,45.195c-.324-.57-.04-.881.213-1.383.9-1.794,2.159-3.548,3.108-5.332A.987.987,0,0,1,14,38.231l4.3,2.405A11.76,11.76,0,0,1,21.975,38.5a1.228,1.228,0,0,0,.09-.457c.1-1.391-.2-3.246,0-4.55a.889.889,0,0,1,.891-.721l6.79.047a1.111,1.111,0,0,1,.65.867c.2,1.38-.162,3.158,0,4.548.014.116,0,.19.1.282s1.536.692,1.868.882c.653.373,1.219.853,1.863,1.234L38.3,38.258a1,1,0,0,1,1.286.371c.9,1.79,2.247,3.553,3.1,5.339.257.538.387.874-.006,1.419l-4.29,2.489ZM28.415,34.772H23.958V39.56c0,.493-1.383.8-1.771.979a13.579,13.579,0,0,0-1.388.7,23.388,23.388,0,0,1-2.205,1.589,1.411,1.411,0,0,1-.615-.038L14.06,40.57,11.828,44.3c.019.251,3.906,2,4.236,2.675.264.539-.117,1.366-.166,1.971a17.009,17.009,0,0,0-.005,2.183c.047.654.458,1.561.138,2.122s-4.184,2.366-4.2,2.614L14.06,59.6l3.854-2.188a1.217,1.217,0,0,1,.679-.069A23.5,23.5,0,0,1,20.8,58.935a15.365,15.365,0,0,0,1.388.7c.391.179,1.771.484,1.771.979V65.4h4.457V60.707c0-.544,2.269-1.25,2.814-1.548a11.811,11.811,0,0,0,1.254-.832c.683-.5,1.006-1.235,1.976-.913,1.087.361,2.594,1.687,3.728,2.152.086.035.178.092.269.039l2.085-3.722c-.066-.349-3.93-2.055-4.184-2.644s.169-1.817.212-2.49a11.308,11.308,0,0,0,0-1.236c-.049-.881-.677-2.342.1-2.93.989-.752,2.575-1.327,3.63-2.059.094-.065.2-.118.24-.235l-2.134-3.741a.613.613,0,0,0-.292.082c-1.073.462-2.628,1.818-3.657,2.128-1.005.3-1.262-.393-1.975-.912a11.825,11.825,0,0,0-1.254-.832c-.544-.3-2.814-1-2.814-1.548Zm27.5,16.311H38.466L38.392,52.3l4.288,2.492c.422.567.247.926-.024,1.478a52.245,52.245,0,0,1-2.879,4.992c-.405.606-.66.927-1.474.657l-4.072-2.377c-.644.38-1.209.862-1.863,1.234-.335.19-1.744.761-1.868.882-.094.092-.084.166-.1.282-.166,1.391.192,3.168,0,4.549-.041.288-.424.91-.7.91H27.182V72.94a6.672,6.672,0,0,0,1.011.506,4.932,4.932,0,0,1,1.881,2.386H46.527V59.759c0-.366.635-.9,1-.9h8.392ZM65.3,60.85H48.518v9.293H65.3Zm0,11.285H48.518v9.293H65.3ZM25.829,74.907a1.91,1.91,0,0,0,.634,3.762,1.91,1.91,0,1,0-.634-3.762M65.3,83.419H48.518v9.293H65.3Z" transform="translate(0 0)" fill="#2d847e"/>
    <path id="Trazado_1254663" data-name="Trazado 1254663" d="M729.872,628.772a.981.981,0,0,1,1.1.758l0,33.157a1,1,0,0,1-1.886.115v-33.39a1.133,1.133,0,0,1,.789-.64" transform="translate(-659.944 -569.137)" fill="#2d847e"/>
    <path id="Trazado_1254664" data-name="Trazado 1254664" d="M317.3,841.675l11.929-.024a1,1,0,0,1-.1,1.993H317.658a1.006,1.006,0,0,1-.357-1.97" transform="translate(-286.541 -761.838)" fill="#2d847e"/>
    <path id="Trazado_1254665" data-name="Trazado 1254665" d="M127.57,51.838a1.087,1.087,0,0,1-.942.293c-2.842-.964-5.3-2.63-8.438-2.135a7.964,7.964,0,0,0-6.605,6.766c-.109.61.089,1.584-.913,1.654-1.593.111-1.045-2.066-.817-3.005A9.9,9.9,0,0,1,121.36,48.1a45.419,45.419,0,0,1,4.531,1.585,44.073,44.073,0,0,1,.6-5.425,14.1,14.1,0,1,1,27.1,7.75c-.242.757-1.266,3.227-1.906,3.593a1,1,0,0,1-1.49-.917,18.942,18.942,0,0,1,1.135-2.282c4.434-10.46-6.758-20.773-16.8-15.476-4.523,2.385-6.121,6.212-6.54,11.1-.065.759,0,3.351-.41,3.81" transform="translate(-99.185 -30.372)" fill="#2d847e"/>
    <path id="Trazado_1254666" data-name="Trazado 1254666" d="M204.423,449.571a7.453,7.453,0,1,1-4.909,12.155,7.461,7.461,0,0,1,4.909-12.155m0,1.99a5.626,5.626,0,0,0-4.624,4.859,5.492,5.492,0,1,0,4.624-4.859" transform="translate(-179.062 -406.901)" fill="#2d847e"/>
    <path id="Trazado_1254667" data-name="Trazado 1254667" d="M545.136,799.747l9.173-.015a.966.966,0,0,1-.087,1.893l-9.005-.008a.98.98,0,0,1-.08-1.871" transform="translate(-492.852 -723.894)" fill="#2d847e"/>
    <path id="Trazado_1254668" data-name="Trazado 1254668" d="M545.363,916.875c2.716.153,5.838-.291,8.508-.024,1.3.131,1.585,1.508.375,1.985h-9.093a1,1,0,0,1,.209-1.961" transform="translate(-492.789 -829.827)" fill="#2d847e"/>
    <path id="Trazado_1254669" data-name="Trazado 1254669" d="M554.807,681.359a1.457,1.457,0,0,1-.865.32c-2.672.25-5.729-.194-8.443,0-1.2-.033-1.414-1.849-.192-1.994,2.812.247,6.173-.322,8.918,0a1.008,1.008,0,0,1,.582,1.677" transform="translate(-492.855 -615.136)" fill="#2d847e"/>
  </g>
</svg>
