<svg id="Grupo_1216661" data-name="Grupo 1216661" xmlns="http://www.w3.org/2000/svg" xmlns:xlink="http://www.w3.org/1999/xlink" width="99.474" height="99.474" viewBox="0 0 99.474 99.474">
  <defs>
    <clipPath id="clip-path">
      <rect id="Rectángulo_421141" data-name="Rectángulo 421141" width="72.661" height="67.752" fill="none"/>
    </clipPath>
  </defs>
  <circle id="Elipse_11383" data-name="Elipse 11383" cx="49.737" cy="49.737" r="49.737" transform="translate(0 0)" fill="#b6f0ec" opacity="0.71"/>
  <circle id="Elipse_11384" data-name="Elipse 11384" cx="41.671" cy="41.671" r="41.671" transform="translate(8.065 8.065)" fill="#fff"/>
  <g id="Grupo_1175373" data-name="Grupo 1175373" transform="translate(13.407 15.861)">
    <g id="Grupo_1175373-2" data-name="Grupo 1175373" transform="translate(0 0)" clip-path="url(#clip-path)">
      <path id="Trazado_1039108" data-name="Trazado 1039108" d="M33.866,18.839l-1.1-1.9a.611.611,0,0,0-.834-.224l-1.48.855a5.831,5.831,0,0,0-2.291-1.33v-1.7a.61.61,0,0,0-.61-.61H25.363a.61.61,0,0,0-.61.61v1.7a5.854,5.854,0,0,0-2.293,1.33l-1.477-.855a.611.611,0,0,0-.834.224l-1.1,1.9a.611.611,0,0,0,.224.834l1.477.853a5.96,5.96,0,0,0-.154,1.321,5.864,5.864,0,0,0,.156,1.325l-1.48.855a.611.611,0,0,0-.224.834l1.1,1.9a.611.611,0,0,0,.834.224l1.482-.857a5.844,5.844,0,0,0,2.289,1.327V29.16a.61.61,0,0,0,.61.61h2.193a.61.61,0,0,0,.61-.61V27.455a5.859,5.859,0,0,0,2.289-1.327l1.482.857a.611.611,0,0,0,.834-.224l1.1-1.9a.611.611,0,0,0-.222-.834l-1.48-.855a5.685,5.685,0,0,0,0-2.647l1.48-.853a.611.611,0,0,0,.222-.834m-7.408,5.838a2.83,2.83,0,1,1,2.832-2.83,2.83,2.83,0,0,1-2.832,2.83m6.594,14.88a.409.409,0,0,1-.409-.409V35.339c.021-.748,1.192-2.488,3.2-5.246l.062-.086c.329-.452.651-.892.945-1.309a13.834,13.834,0,0,0,1.872-10.725,11.21,11.21,0,0,0-6-7.445c-7.18-3.666-13.162-.892-16.363,2.93a10.872,10.872,0,0,0-2.151,7.207,2.622,2.622,0,0,1-.643,1.79l-2.09,2.421a1.738,1.738,0,0,0,.372,2.6l1.41.937a.412.412,0,0,1,.183.341v4.393a2.839,2.839,0,0,0,2.836,2.836l2.478.049a.408.408,0,0,1,.4.409v2.71a.409.409,0,0,1-.818,0v-2.31L16.272,36.8a3.656,3.656,0,0,1-3.645-3.654V28.969L11.4,28.156a2.558,2.558,0,0,1-.545-3.814l2.09-2.421a1.793,1.793,0,0,0,.446-1.229,11.681,11.681,0,0,1,2.343-7.759C19.142,8.87,25.49,5.913,33.1,9.8a12,12,0,0,1,6.422,7.979,14.7,14.7,0,0,1-2,11.392c-.3.419-.621.863-.951,1.317l-.062.086c-.75,1.027-3.029,4.149-3.047,4.778v3.8a.409.409,0,0,1-.409.409" transform="translate(10.802 8.419)"/>
      <path id="Trazado_1039109" data-name="Trazado 1039109" d="M33.519,63.569l-.049-2.18h.049c.23,0,.46,0,.688-.01l.049,2.182c-.245.006-.491.008-.738.008m-2.306-.084c-.265-.016-.528-.041-.789-.066l.21-2.172c.245.025.487.045.734.064Zm5.3-.058-.21-2.172c.247-.025.491-.051.736-.08l.257,2.168c-.261.031-.522.06-.783.084m-8.326-.314c-.263-.043-.524-.092-.783-.146l.429-2.139c.238.049.477.095.717.134Zm11.345-.123-.419-2.141c.24-.047.481-.1.717-.15l.477,2.127c-.257.058-.516.113-.775.164m-14.327-.542c-.255-.07-.508-.146-.758-.222l.633-2.088c.234.072.471.14.709.205Zm17.286-.191-.627-2.09c.236-.07.471-.146.7-.222l.68,2.073c-.251.082-.5.162-.758.238m-20.183-.769c-.245-.095-.487-.193-.729-.292l.836-2.016c.226.095.454.185.682.273Zm23.062-.255-.828-2.018c.226-.095.452-.189.676-.29l.886,2c-.242.107-.487.212-.734.312m-25.842-.98c-.236-.119-.471-.24-.7-.366l1.034-1.921c.216.115.432.228.649.337Zm28.608-.325L47.108,58c.218-.115.432-.234.645-.355l1.077,1.9c-.228.129-.46.257-.695.38M16.877,58.747c-.224-.14-.444-.284-.664-.429L17.429,56.5c.2.136.409.269.616.4Zm33.879-.384-1.21-1.814c.2-.136.407-.275.608-.417l1.253,1.786c-.214.15-.432.3-.651.446m-36.37-1.369c-.208-.162-.415-.327-.619-.5l1.387-1.683c.189.154.38.306.573.458Zm38.821-.446-1.379-1.689c.189-.154.378-.312.563-.473l1.424,1.654c-.2.173-.4.343-.608.508M12.076,55c-.191-.183-.38-.366-.565-.553l1.541-1.541c.175.173.351.345.528.514Zm43.4-.5-1.543-1.543c.177-.175.349-.351.518-.528l1.576,1.51c-.181.189-.366.376-.551.561M9.974,52.8c-.175-.2-.345-.4-.512-.61L11.15,50.8c.154.187.31.376.471.559Zm47.55-.547L55.844,50.86c.156-.189.308-.38.46-.573l1.718,1.346c-.162.208-.329.413-.5.616M8.09,50.389c-.152-.216-.3-.434-.448-.653l1.814-1.212c.138.205.275.407.419.608Zm51.26-.586-1.81-1.216c.138-.2.271-.409.4-.616l1.837,1.177c-.142.218-.284.44-.432.656M6.456,47.817c-.132-.23-.259-.462-.384-.7L8,46.09c.115.216.232.432.353.641ZM60.925,47.2,59,46.162c.117-.216.23-.434.341-.651l1.946.986c-.119.234-.24.466-.366.7M5.077,45.088c-.107-.242-.212-.483-.312-.729l2.014-.834c.1.228.193.454.292.68Zm57.159-.641-2.012-.84c.092-.226.185-.452.273-.68l2.032.791c-.095.245-.193.489-.294.729M3.974,42.238c-.082-.251-.162-.5-.238-.758l2.088-.631c.072.236.146.471.224.7Zm59.3-.656-2.086-.641c.072-.234.14-.469.205-.7l2.1.582c-.07.257-.144.51-.222.762M3.16,39.293c-.058-.257-.111-.514-.162-.771L5.137,38.1c.049.242.1.485.152.723Zm60.86-.67-2.139-.432c.049-.24.095-.483.138-.723l2.147.378c-.045.259-.092.518-.146.777M2.64,36.289c-.033-.261-.062-.524-.086-.787l2.172-.21c.023.242.049.487.08.729Zm61.834-.682-2.172-.22c.027-.242.047-.485.066-.729l2.176.16c-.021.263-.043.528-.07.789M2.416,33.249c-.006-.263-.01-.526-.01-.791l0-.216,2.18.018v.2c0,.247,0,.491.008.736Zm60.032-.693,0-.117c0-.2,0-.409-.008-.621l2.182-.047c0,.226.006.456.006.686Zm-57.769-2.4L2.5,29.988c.023-.265.045-.526.072-.787l2.17.224c-.025.245-.047.489-.066.736m57.644-.44c-.025-.245-.051-.489-.08-.732l2.168-.259c.031.261.058.524.082.785ZM5.038,27.346l-2.147-.382c.045-.261.095-.52.148-.779l2.137.44c-.049.24-.095.481-.138.721m56.88-.434c-.045-.24-.095-.479-.148-.717L63.9,25.72c.058.257.111.518.162.777ZM5.673,24.582l-2.1-.592c.072-.255.146-.508.224-.758l2.086.643c-.074.236-.144.473-.21.707m55.569-.423c-.07-.236-.144-.471-.22-.7L63.1,22.78c.082.251.16.5.236.754ZM6.577,21.894l-2.032-.8c.1-.245.2-.487.3-.729l2.01.849c-.095.224-.187.45-.275.678m53.717-.411c-.092-.23-.189-.456-.288-.682l2-.873c.107.24.21.485.31.727ZM7.738,19.313,5.8,18.321c.119-.236.242-.469.368-.7l1.917,1.042c-.117.214-.232.432-.343.649m51.352-.4c-.117-.216-.234-.432-.355-.645l1.9-1.073c.129.228.257.46.38.7ZM9.152,16.855,7.313,15.678c.144-.222.29-.442.438-.662l1.8,1.229c-.138.2-.271.4-.4.61m48.485-.38c-.136-.205-.275-.411-.417-.612l1.79-1.251c.15.218.3.434.444.653ZM10.8,14.548,9.082,13.2c.164-.21.329-.413.5-.616l1.681,1.391c-.156.191-.31.38-.462.573m45.154-.36c-.154-.191-.312-.378-.473-.567l1.658-1.416q.256.3.506.6ZM12.66,12.411,11.088,10.9q.271-.284.555-.561l1.533,1.549c-.175.173-.347.347-.516.524m41.394-.333c-.173-.175-.347-.345-.526-.516L55.042,9.99c.189.183.378.366.563.555ZM14.723,10.465,13.307,8.8c.2-.171.4-.339.606-.506L15.29,9.992c-.191.154-.38.312-.567.473m37.239-.3c-.189-.156-.38-.31-.575-.462l1.35-1.716c.208.162.411.329.614.5ZM16.969,8.724,15.718,6.936c.216-.15.436-.3.656-.444l1.2,1.819c-.205.136-.407.273-.608.413m32.724-.259c-.205-.138-.411-.271-.619-.4l1.18-1.837c.22.142.44.286.658.434ZM19.371,7.216,18.3,5.313c.228-.129.46-.255.695-.378l1.019,1.927c-.218.115-.434.234-.647.353M47.269,7c-.216-.115-.432-.23-.651-.339l.99-1.946c.234.119.466.242.7.366ZM21.911,5.95l-.873-2q.361-.157.727-.308l.828,2.018c-.23.095-.456.191-.682.29m22.8-.177c-.226-.095-.452-.187-.682-.277l.8-2.03c.245.1.487.2.729.3ZM24.568,4.939l-.676-2.075c.251-.08.5-.16.756-.236l.621,2.092c-.234.07-.469.142-.7.22m17.485-.132c-.236-.074-.475-.142-.713-.212l.6-2.1c.253.07.5.144.752.22ZM27.307,4.2l-.475-2.129c.259-.058.518-.111.779-.162l.411,2.143c-.238.047-.479.1-.715.148m12-.09c-.24-.047-.481-.095-.723-.136l.374-2.149c.261.045.52.095.779.146ZM30.1,3.727l-.255-2.166c.261-.031.522-.06.787-.084l.2,2.174c-.245.023-.487.047-.732.076m6.4-.047c-.245-.025-.491-.047-.738-.068l.175-2.174c.261.021.522.043.783.07Zm-3.569-.146-.045-2.182c.21,0,.421-.006.633-.006h.152V3.527h-.152c-.2,0-.392,0-.588.006" transform="translate(2.538 1.419)" fill="#00ffce"/>
      <path id="Trazado_1039110" data-name="Trazado 1039110" d="M19.064,37.725l-.2-2.174a30.265,30.265,0,0,0,18.529-8.6L38.931,28.5a32.457,32.457,0,0,1-19.867,9.224" transform="translate(19.905 28.428)" fill="#00ffce"/>
      <path id="Trazado_1039111" data-name="Trazado 1039111" d="M49.127,30.939A30.157,30.157,0,0,0,16.38,3.613L16.086.354a33.422,33.422,0,0,1,36.3,30.291Z" transform="translate(16.969 0.227)" fill="#00ffce"/>
      <path id="Trazado_1039112" data-name="Trazado 1039112" d="M31.534,57.774A27.289,27.289,0,1,1,34,57.663q-1.245.111-2.47.111M31.6,4.3q-1.2,0-2.4.109A26.1,26.1,0,1,0,31.6,4.3" transform="translate(4.504 3.384)" fill="#d0d0d0"/>
      <path id="Trazado_1039113" data-name="Trazado 1039113" d="M44.195,30.166H40.922A23.4,23.4,0,0,0,17.547,6.791V3.518A26.678,26.678,0,0,1,44.195,30.166" transform="translate(18.51 3.711)" fill="#d0d0d0"/>
      <rect id="Rectángulo_421136" data-name="Rectángulo 421136" width="1.091" height="3.855" transform="translate(35.513)" fill="#00ffce"/>
      <rect id="Rectángulo_421137" data-name="Rectángulo 421137" width="1.091" height="3.855" transform="translate(35.513 63.897)" fill="#00ffce"/>
      <rect id="Rectángulo_421138" data-name="Rectángulo 421138" width="14.762" height="1.091" transform="translate(0 33.331)" fill="#00ffce"/>
      <rect id="Rectángulo_421139" data-name="Rectángulo 421139" width="14.762" height="1.091" transform="translate(57.352 33.331)" fill="#00ffce"/>
      <rect id="Rectángulo_421140" data-name="Rectángulo 421140" width="1.091" height="7.219" transform="translate(71.57 30.267)" fill="#00ffce"/>
      <path id="Trazado_1039114" data-name="Trazado 1039114" d="M13.138,37.306a35.652,35.652,0,0,1-5.883-5.059A35.434,35.434,0,0,1,2.7,26.2L5.51,24.522a32.275,32.275,0,0,0,4.134,5.489,32.135,32.135,0,0,0,5.345,4.595Z" transform="translate(2.849 25.868)" fill="#d0d0d0"/>
      <path id="Trazado_1039115" data-name="Trazado 1039115" d="M31.031,55.161l-.016-1.091.429-.008.033,1.089Zm-1.116-.006-.44-.018.047-1.091.434.019Zm2.671-.062L32.506,54l.425-.035.1,1.087Zm-4.225-.033-.438-.043.113-1.085.429.043Zm5.776-.129-.144-1.083.423-.06.158,1.079Zm-7.32-.055-.442-.07.185-1.077.417.068Zm8.855-.2L35.459,53.6l.421-.088.226,1.069Zm-10.39-.078-.434-.1.249-1.062.415.095Zm11.908-.271-.277-1.054.415-.113.29,1.052Zm-13.421-.1-.427-.123.312-1.046.411.119Zm14.914-.341-.343-1.036.407-.14.362,1.032Zm-16.4-.125-.417-.148.374-1.025.4.146Zm17.871-.411-.407-1.013.4-.162.421,1ZM20.828,53.2l-.4-.171.434-1,.395.169Zm20.759-.481-.471-.984.388-.189.483.98Zm-22.168-.16-.4-.2.5-.972.378.193Zm23.557-.551-.528-.953.374-.21.542.945Zm-24.934-.177-.384-.222.555-.939.372.214Zm26.278-.616-.586-.923.358-.23.6.91Zm-27.606-.193-.37-.247.612-.9.358.236Zm28.9-.68-.639-.884.343-.255.656.873Zm-30.174-.21-.353-.267L15.748,49l.339.257Zm31.409-.74-.69-.847c.111-.088.22-.177.325-.269l.711.828c-.115.1-.23.193-.345.288m-32.626-.226c-.115-.095-.23-.193-.341-.292l.719-.82c.1.092.212.183.319.275Zm33.8-.8-.742-.8.306-.292.762.783Zm-34.964-.238c-.109-.1-.216-.205-.323-.312l.766-.775c.1.1.2.2.3.292Zm36.072-.853-.787-.754.294-.31.8.742Zm-37.171-.257-.3-.327.814-.732.286.316Zm38.217-.9-.836-.7.275-.329.84.695Zm-39.242-.271-.282-.347.855-.676.267.329ZM51.146,44.9l-.875-.653.251-.343.886.639ZM9.98,44.615l-.261-.362.894-.627.251.347Zm42.058-.99-.912-.6.23-.358.923.582ZM9.1,43.326l-.234-.376.927-.573.228.362ZM52.854,42.3l-.949-.54.212-.374.956.528ZM8.3,41.989l-.214-.4.966-.51.2.372ZM53.585,40.93l-.978-.485.185-.382.986.469Zm-46-.333-.187-.4.993-.452.181.386ZM54.23,39.517l-1-.423.162-.395,1.013.409ZM6.959,39.171,6.8,38.754l1.017-.39.156.395Zm47.832-1.108L53.76,37.7l.14-.4,1.038.339Zm-48.37-.358-.138-.429,1.042-.325.132.4ZM55.26,36.578l-1.05-.3.113-.413,1.054.282Zm-49.287-.37-.111-.429,1.056-.265.107.415Zm49.669-1.143-1.069-.232.086-.415,1.071.212ZM5.616,34.694l-.084-.44,1.073-.2.082.419Zm50.31-1.159-1.081-.166.064-.423,1.079.15ZM5.355,33.157,5.3,32.715l1.083-.132L6.435,33Zm50.76-1.167-1.085-.1.033-.425,1.091.082ZM5.188,31.607l-.029-.446L6.244,31.1l.031.425Zm51.023-1.173L55.12,30.4l.01-.425,1.091.016Zm-51.1-.382,0-.446,1.091-.1,0,.522Zm50.008-1.145-.016-.425,1.093-.049.014.444ZM6.23,28.447,5.137,28.4l.025-.444,1.089.068Zm48.806-1.03-.041-.423,1.085-.115.043.444ZM6.343,26.955l-1.085-.111.051-.444,1.083.136Zm48.516-1.017-.068-.421,1.079-.181.07.438ZM6.546,25.482,5.472,25.3l.08-.436,1.071.2Zm48.046-1.011-.09-.417,1.06-.247.1.436ZM6.84,24.019l-1.06-.247.1-.434,1.058.267Zm47.4-1-.119-.409,1.048-.31.121.427ZM7.224,22.576l-1.046-.31.132-.427,1.04.333ZM53.793,21.6l-.144-.4,1.023-.376.15.419ZM7.7,21.164l-1.019-.378.154-.415,1.019.392ZM53.26,20.2l-.166-.392,1-.44.177.411ZM8.252,19.783l-1-.44.181-.4.993.456Zm44.394-.943-.2-.382.97-.5.2.4Zm-43.755-.4-.97-.5.205-.392.964.514Zm43.054-.921-.214-.366.935-.561.226.388ZM9.612,17.137l-.937-.557.23-.38.927.573Zm41.554-.892-.234-.353.9-.614.247.372Zm-40.755-.368-.9-.608.255-.37.89.631Zm39.9-.857-.257-.341.863-.666.269.355Zm-39.029-.347-.863-.668.273-.349.853.682Zm38.1-.822-.277-.327.826-.713.288.335ZM12.23,13.522l-.82-.719.294-.331.812.732Zm36.158-.783-.294-.308.777-.764.308.321Zm-35.141-.314-.781-.76c.1-.109.212-.214.319-.319l.762.783c-.1.1-.2.2-.3.3m34.081-.734-.31-.284.723-.816.331.3Zm-33-.3-.736-.808c.111-.1.224-.2.337-.3l.713.826c-.1.09-.212.185-.314.279m31.878-.686c-.109-.09-.218-.179-.329-.265l.676-.859c.115.092.232.187.349.284Zm-30.741-.273-.678-.855.351-.275.664.867Zm29.564-.641-.345-.245.627-.9.36.259ZM16.665,9.542l-.629-.89L16.4,8.4l.61.9ZM43.8,8.958l-.362-.224.569-.933.378.236ZM17.912,8.724,17.339,7.8c.127-.08.255-.156.384-.232l.551.941Zm24.6-.526-.372-.2.514-.964.388.212ZM19.207,7.984l-.512-.964.4-.205.493.972Zm21.987-.471-.384-.181.456-.99.4.189ZM20.546,7.325l-.448-1,.407-.179.434,1Zm19.287-.409-.4-.158.4-1.017.409.162ZM21.925,6.747l-.384-1.019.413-.156L22.33,6.6ZM38.434,6.4l-.409-.134.337-1.038.417.136Zm-15.1-.144-.321-1.042.423-.129.31,1.046ZM37.006,5.97l-.415-.109.271-1.056.427.111ZM24.773,5.853l-.257-1.06.434-.1.24,1.062Zm10.78-.224-.417-.082.2-1.073.436.084Zm-9.317-.088-.2-1.073.442-.076.177,1.077Zm7.848-.164-.423-.055L33.8,4.238l.442.058ZM27.71,5.315,27.58,4.234l.442-.049.109,1.085Zm4.891-.1-.425-.029L32.247,4.1l.442.031Zm-3.411-.031-.053-1.089.436-.023.049,1.091Zm1.923-.039-.429,0,.008-1.091.438,0Z" transform="translate(5.391 4.271)" fill="#00ffce"/>
    </g>
  </g>
</svg>
