<svg id="Grupo_1218148" data-name="Grupo 1218148" xmlns="http://www.w3.org/2000/svg" xmlns:xlink="http://www.w3.org/1999/xlink" width="71.337" height="81.336" viewBox="0 0 71.337 81.336">
  <defs>
    <clipPath id="clip-path">
      <rect id="Rectángulo_430953" data-name="Rectángulo 430953" width="71.337" height="81.336" fill="#596daf"/>
    </clipPath>
  </defs>
  <g id="Grupo_1218147" data-name="Grupo 1218147" clip-path="url(#clip-path)">
    <path id="Trazado_1254670" data-name="Trazado 1254670" d="M0,5.878A6.55,6.55,0,0,1,5.513.216C12.889.523,20.829-.345,28.142.164c2.882.2,6.1,2.714,6.1,5.793v6.42a23.548,23.548,0,0,1,4.043-.633c.827-.067,1.931.133,2.686-.008.465-.087.844-.546,1.591-.627a3.249,3.249,0,0,1,2.627.716L47,10.954c-.048-1.9.747-3.787,2.844-3.972,1.244-.11,3.876-.158,4.894.508,1.207.79,1.285,2.155,1.451,3.463l1.456.917c1.431-.726,2.882-1.31,4.323-.2a15.469,15.469,0,0,1,2.506,4.309c.34,1.971-.8,2.869-2.313,3.781l.027,1.741c1.423.946,2.55,1.669,2.311,3.622-.067.547-.627,1.38-.6,1.715.052.541,1.04,2.405,1.289,3.167a12.5,12.5,0,0,1,.721,3.178,1.186,1.186,0,0,1-2.122.443l-1.34-4.289c-.73.317-1.277.911-2.144.958-1.039.057-1.74-.572-2.68-.8l-1.438.792c-.042,2.246-.79,3.846-3.188,4.1-3.172.342-6.323-.125-5.95-4.077l-1.559-.9c-1.451.817-2.994,1.422-4.429.147a16.108,16.108,0,0,1-2.539-4.606,3.358,3.358,0,0,1,2.345-3.256l-.054-2.035c-1.585-.874-2.675-2.09-2.095-4a10.013,10.013,0,0,1,.746-1.315c.143-.357-.5-.251-.718-.242a40.849,40.849,0,0,0-4.5.647V28.157a6.671,6.671,0,0,1-6.267,6.256H15.851l-.318,3.805a2.417,2.417,0,0,1,2.948,2.552c.405.3,1.813-.624,3,.142a5.952,5.952,0,0,1,1.815,3.548c-.11,1.171-1.225,1.6-1.275,1.924-.1.691.835.819,1.132,1.731.493,1.513-1.267,4.769-3.179,4.371L22.9,56.128l4.639-4.514a10.706,10.706,0,0,1,12.683-15.5,28.47,28.47,0,0,0,2.646,1.158c7.2.483,15.266-.655,22.361-.011.825.075,1.1.26,1.3,1.078.512,2.123.339,4.727.874,6.894.958,1.651,4,3.926,3.929,5.9-.088,2.523-3.459,3.234-4.892,4.789L65.62,65.4c-.983,7.044-8.009,4.259-12.92,4.833a1.489,1.489,0,0,0-1.335,1.2c-.53,3.352,1.5,8.419-2.862,9.9H27.58a4.006,4.006,0,0,1-2.815-2.812c-.489-2.923.152-7.285-.031-10.432a20.628,20.628,0,0,0-2.357-8.264c-1.18-2.172-2.93-3.939-4.386-5.915-.853,1.33-4.05,1.278-5.06.3-.628-.606-.479-1.771-.885-1.978-.235-.12-1.258.327-1.966.231-1.439-.2-2.961-3.012-2.507-4.381.26-.785,1.162-1.015,1.162-1.548,0-.564-.347-.411-.658-.783-1.164-1.394-.453-2.811.512-4.1A2.132,2.132,0,0,1,10.7,40.583c.48.029.872.329,1.108.327.667-.007.486-.879.624-1.272.144-.41.631-.75.713-1.19.187-1.006.025-2.567.188-3.775.171-1.266.111-2.666,1.634-2.8,4.206-.38,9.375.532,13.467-.006a4,4,0,0,0,3.269-3.388c.637-7.11-.5-15.156,0-22.365-.236-2.244-1.891-3.4-4.043-3.566-6.831-.536-14.347.417-21.251,0A4.028,4.028,0,0,0,2.536,5.8l.038,23.107c1.044,3.887,4.141,2.528,6.821,3.008a1.18,1.18,0,0,1,.027,2.331,24.209,24.209,0,0,1-3.952.008C2.595,33.968.5,31.419,0,28.706ZM49.454,29.1V31.48a1.416,1.416,0,0,0,.319.315,18.721,18.721,0,0,0,3.405.081.512.512,0,0,0,.4-.238V29.261c0-.636,1.668-1.192,2.167-1.479.473-.273,1.3-1.046,1.753-1.106.854-.114,1.984,1.3,2.785,1.055a10.7,10.7,0,0,0,1.852-3.071c-.009-.631-2.113-1.146-2.342-1.931a29.346,29.346,0,0,1-.029-4.085c.163-.873,2.352-1.3,2.369-2.06a19.017,19.017,0,0,0-1.74-3.022c-.777-.385-1.935,1.138-2.918,1.036-.633-.065-2.49-1.715-3.345-1.9-1.232-.758.22-3.142-1.259-3.338a17.752,17.752,0,0,0-3.1.085c-.662.391,0,2.471-.556,3.089l-3.4,2c-.87.371-2.412-1.435-3.141-1.009a23.927,23.927,0,0,0-1.616,2.914c-.131,1.1,2.18,1.143,2.369,2.376a9.844,9.844,0,0,1-.162,1.73c-.007.745.331,1.425.1,2.152-.25.784-1.741,1.146-2.313,1.688A8.027,8.027,0,0,0,42.84,27.8c.627.282,1.86-1.2,2.834-1.073A13.432,13.432,0,0,1,47.92,28.1c.449.259,1.394.351,1.534,1m-14.145,9c-9.176,1.242-8.981,15.831.912,16.442C48.06,55.274,47.849,36.4,35.309,38.1m29.045,1.544H45.174A10.727,10.727,0,0,1,35.9,56.93a11.454,11.454,0,0,1-6.946-3.324l-4.684,4.531c.574,1.558,1.41,2.965,1.892,4.57,1.628,5.422.343,9.887.945,15.066a1.224,1.224,0,0,0,1.343,1.193c6.124-.438,13,.557,19.036,0,.55-.051,1.219-.264,1.336-.883.573-3.027-1.335-7.817,2.138-9.751,1.918-1.068,7.353-.19,9.833-.47,3.247-.366,2.285-4.2,2.773-6.5h-5.31c-.443,0-.888-1.2-.537-1.806.657-1.126,4.758-.275,6.015-.641.282-.2.226-3.636.549-4.365.364-.821,4.526-2.8,4.646-3.436L65.062,45.99Zm-48.344.95H14.74a2.515,2.515,0,0,1-.24,1.583c-.071.1-1.863,1.246-2.018,1.309-1.1.453-1.452-.438-1.927-.368l-.5,1.126c.8.415,1.122.533,1.209,1.495.116,1.293.212,2.631-1.209,3.1l.5,1.126c.387.057.75-.59,1.557-.485.122.016,2.007,1.076,2.147,1.192.61.5.493,1.1.481,1.817h1.27c-.041-.813-.088-1.464.646-1.97.186-.128,1.853-1.024,1.982-1.041.782-.1.94.5,1.638.462l.491-1.017c0-.086-1.132-.4-1.267-1.116a14.645,14.645,0,0,1,.029-2.659,1.831,1.831,0,0,1,1.235-.907l-.488-1.1c-.7-.038-.856.565-1.638.462-.129-.017-1.8-.913-1.982-1.041-.734-.505-.687-1.157-.646-1.97" transform="translate(0 0)" fill="#596daf"/>
    <path id="Trazado_1254671" data-name="Trazado 1254671" d="M50.183,67.589c-.314.8-.827,3.038-1.541,3.45a1.231,1.231,0,0,1-1.734-1.574l5.675-14.934a1.632,1.632,0,0,1,2.894.2L61.025,69.47A1.219,1.219,0,0,1,59.117,70.9c-.708-.577-1.075-3.124-1.607-3.307Zm1.092-2.555h5.389l-2.772-6.976Z" transform="translate(-39.386 -45.205)" fill="#596daf"/>
    <path id="Trazado_1254672" data-name="Trazado 1254672" d="M153.648,53.82c1.033-.233,1.545.139,1.637,1.148.438,4.779-.345,10.22,0,15.071-.183,1.583-2.223,1.669-2.389-.154-.434-4.783.342-10.217,0-15.07a.964.964,0,0,1,.751-.994" transform="translate(-128.49 -45.214)" fill="#596daf"/>
    <path id="Trazado_1254673" data-name="Trazado 1254673" d="M90.939,283.542c-1.27-1.386-3.1.989-1.624,1.863a1.244,1.244,0,0,0,1.624-1.863" transform="translate(-74.664 -238.141)" fill="#596daf"/>
    <path id="Trazado_1254674" data-name="Trazado 1254674" d="M294.867,95.825c6.036-.817,8.755,7.142,3.574,10.074a5.457,5.457,0,0,1-8.129-5.118,5.628,5.628,0,0,1,4.556-4.955m.639,2.37c-3.873.312-3.509,6.339.587,5.993,3.792-.32,3.268-6.3-.587-5.993" transform="translate(-244.183 -80.553)" fill="#596daf"/>
    <path id="Trazado_1254675" data-name="Trazado 1254675" d="M197.818,250.744c8.273-.48,9.078,12.017,1.058,12.8-8.673.844-9.6-12.3-1.058-12.8m-.488,2.532c-5.211.893-3.264,9.414,2.1,7.649,4.417-1.453,3.025-8.528-2.1-7.649" transform="translate(-161.391 -210.899)" fill="#596daf"/>
    <path id="Trazado_1254676" data-name="Trazado 1254676" d="M90.939,283.542a1.244,1.244,0,0,1-1.624,1.863c-1.479-.874.354-3.249,1.624-1.863" transform="translate(-74.664 -238.141)" fill="#596daf"/>
  </g>
</svg>
