<svg xmlns="http://www.w3.org/2000/svg" xmlns:xlink="http://www.w3.org/1999/xlink" width="98.647" height="98.647" viewBox="0 0 98.647 98.647">
  <defs>
    <clipPath id="clip-path">
      <rect id="Rectángulo_421141" data-name="Rectángulo 421141" width="72.058" height="67.189" fill="none"/>
    </clipPath>
  </defs>
  <g id="Grupo_1176073" data-name="Grupo 1176073" transform="translate(-842.755 -196)">
    <circle id="Elipse_11383" data-name="Elipse 11383" cx="49.324" cy="49.324" r="49.324" transform="translate(842.755 196)" fill="#c5cff0" opacity="0.71"/>
    <circle id="Elipse_11384" data-name="Elipse 11384" cx="41.325" cy="41.325" r="41.325" transform="translate(850.753 203.998)" fill="#fff"/>
    <g id="Grupo_1175373" data-name="Grupo 1175373" transform="translate(856.051 211.729)">
      <g id="Grupo_1175373-2" data-name="Grupo 1175373" transform="translate(0 0)" clip-path="url(#clip-path)">
        <path id="Trazado_1039108" data-name="Trazado 1039108" d="M33.67,18.748l-1.086-1.883a.606.606,0,0,0-.827-.222l-1.467.848a5.783,5.783,0,0,0-2.272-1.318V14.485a.605.605,0,0,0-.605-.605H25.237a.605.605,0,0,0-.605.605v1.687a5.805,5.805,0,0,0-2.274,1.318l-1.465-.848a.606.606,0,0,0-.827.222l-1.088,1.883a.606.606,0,0,0,.222.827l1.465.846a5.911,5.911,0,0,0-.153,1.31,5.815,5.815,0,0,0,.155,1.314l-1.467.848a.606.606,0,0,0-.222.827L20.065,26.6a.606.606,0,0,0,.827.222l1.469-.85a5.8,5.8,0,0,0,2.27,1.316v1.691a.605.605,0,0,0,.605.605h2.174a.605.605,0,0,0,.605-.605V27.293a5.81,5.81,0,0,0,2.27-1.316l1.469.85a.606.606,0,0,0,.827-.222l1.086-1.883a.606.606,0,0,0-.22-.827l-1.467-.848a5.638,5.638,0,0,0,0-2.625l1.467-.846a.606.606,0,0,0,.22-.827m-7.346,5.789a2.806,2.806,0,1,1,2.808-2.806,2.806,2.806,0,0,1-2.808,2.806m6.539,14.756a.405.405,0,0,1-.406-.406V35.112c.02-.742,1.182-2.468,3.177-5.2l.061-.086c.326-.448.646-.884.937-1.3A13.719,13.719,0,0,0,38.489,17.89a11.117,11.117,0,0,0-5.948-7.383c-7.12-3.635-13.052-.884-16.227,2.906A10.782,10.782,0,0,0,14.18,20.56a2.6,2.6,0,0,1-.638,1.775l-2.072,2.4a1.724,1.724,0,0,0,.369,2.574l1.4.929a.409.409,0,0,1,.181.338v4.357a2.815,2.815,0,0,0,2.812,2.812l2.458.049a.4.4,0,0,1,.4.406v2.688a.406.406,0,0,1-.811,0V36.6l-2.05-.041a3.625,3.625,0,0,1-3.615-3.623V28.795l-1.213-.807a2.536,2.536,0,0,1-.54-3.782l2.072-2.4a1.778,1.778,0,0,0,.442-1.219,11.584,11.584,0,0,1,2.323-7.695c3.377-4.029,9.672-6.961,17.218-3.108A11.9,11.9,0,0,1,39.278,17.7a14.577,14.577,0,0,1-1.983,11.3c-.3.416-.615.856-.944,1.306l-.061.086c-.744,1.019-3,4.114-3.022,4.738v3.764a.405.405,0,0,1-.406.406" transform="translate(10.627 8.283)"/>
        <path id="Trazado_1039109" data-name="Trazado 1039109" d="M33.261,63.053l-.049-2.162h.049c.228,0,.456,0,.683-.01l.049,2.164c-.243.006-.487.008-.732.008m-2.286-.084c-.263-.016-.524-.041-.783-.065L30.4,60.75c.243.024.483.045.728.063Zm5.256-.057-.208-2.154c.245-.024.487-.051.73-.079l.255,2.15c-.259.031-.518.059-.776.084M27.973,62.6c-.261-.043-.52-.092-.776-.145l.426-2.121c.236.049.473.094.711.132Zm11.251-.122-.416-2.123c.238-.047.477-.1.711-.149l.473,2.109c-.255.057-.511.112-.768.163M25.016,61.94c-.253-.069-.5-.145-.752-.22l.628-2.07c.232.071.467.139.7.2Zm17.142-.19-.622-2.072c.234-.069.467-.145.7-.22l.675,2.056c-.249.082-.5.161-.752.236m-20.016-.762c-.243-.094-.483-.192-.723-.289l.829-2c.224.094.45.183.677.271Zm22.871-.253-.821-2c.224-.094.448-.187.67-.287l.878,1.979c-.24.106-.483.21-.728.31m-25.628-.972c-.234-.118-.467-.238-.7-.363L19.713,57.5c.214.114.428.226.644.334Zm28.371-.322-1.019-1.907c.216-.114.428-.232.64-.353l1.068,1.883c-.226.128-.456.255-.689.377m-31-1.172c-.222-.139-.44-.281-.658-.426l1.206-1.8c.2.135.406.267.611.4Zm33.6-.381-1.2-1.8c.2-.134.4-.273.6-.414L51,57.447c-.212.149-.428.3-.646.442M14.287,56.532c-.206-.161-.412-.324-.613-.491l1.376-1.669c.187.153.377.3.569.454Zm38.5-.442-1.367-1.675c.187-.153.375-.31.558-.469l1.412,1.64c-.2.171-.4.34-.6.5M12,54.555c-.19-.181-.377-.363-.56-.548l1.528-1.528c.173.171.348.342.524.509Zm43.037-.5-1.53-1.53c.175-.173.346-.348.514-.524l1.563,1.5c-.179.187-.363.373-.546.556M9.911,52.368c-.173-.2-.342-.4-.507-.605l1.673-1.369c.153.185.308.373.467.554Zm47.155-.542L55.4,50.449c.155-.187.306-.377.456-.569l1.7,1.335c-.161.206-.326.41-.493.611M8.043,49.982c-.151-.214-.3-.43-.444-.648l1.8-1.2c.137.2.273.4.416.6ZM58.876,49.4l-1.8-1.206c.137-.2.269-.406.4-.611L59.3,48.751c-.141.216-.281.436-.428.65M6.423,47.431c-.13-.228-.257-.459-.381-.691l1.907-1.021c.114.214.23.428.351.636Zm54.017-.615L58.534,45.79c.116-.214.228-.43.338-.646l1.93.978c-.118.232-.238.463-.363.693M5.055,44.724c-.106-.24-.21-.479-.31-.723l2-.827c.1.226.192.45.289.675Zm56.684-.636-2-.833c.092-.224.183-.448.271-.675l2.015.785c-.094.243-.192.485-.291.723M3.961,41.9c-.082-.249-.161-.5-.236-.752l2.07-.626c.071.234.145.467.222.7Zm58.806-.65L60.7,40.612c.071-.232.139-.465.2-.7l2.085.577c-.069.255-.143.505-.22.756M3.154,38.978c-.057-.255-.11-.509-.161-.764l2.121-.422c.049.24.1.481.151.717Zm60.354-.664-2.121-.428c.049-.238.094-.479.137-.717l2.13.375c-.045.257-.092.514-.145.77M2.638,36c-.033-.259-.061-.52-.086-.78l2.154-.208c.022.24.049.483.079.723Zm61.32-.677L61.8,35.1c.026-.24.047-.481.065-.723l2.158.159c-.02.261-.043.524-.069.783M2.416,32.984c-.006-.261-.01-.522-.01-.785l0-.214L4.57,32v.2c0,.245,0,.487.008.73ZM61.949,32.3l0-.116c0-.2,0-.406-.008-.615l2.164-.047c0,.224.006.452.006.681ZM4.66,29.922,2.5,29.75c.022-.263.045-.522.071-.78l2.152.222c-.024.243-.047.485-.065.73m57.165-.436c-.024-.243-.051-.485-.079-.725L63.9,28.5c.031.259.057.52.082.778ZM5.016,27.13l-2.13-.379c.045-.259.094-.516.147-.772l2.119.436c-.049.238-.094.477-.137.715m56.407-.43c-.045-.238-.094-.475-.147-.711l2.111-.471c.057.255.11.514.161.77ZM5.646,24.389,3.563,23.8c.071-.253.145-.5.222-.752l2.068.638c-.073.234-.143.469-.208.7m55.107-.42c-.069-.234-.143-.467-.218-.7l2.056-.67c.082.249.159.5.234.748ZM6.543,21.723l-2.015-.791c.1-.242.2-.483.3-.723l1.993.842c-.094.222-.185.446-.273.672m53.271-.408c-.092-.228-.187-.452-.285-.677l1.981-.866c.106.238.208.481.308.721ZM7.694,19.164,5.768,18.18c.118-.234.24-.465.365-.693l1.9,1.033c-.116.212-.23.428-.34.644m50.925-.4c-.116-.214-.232-.428-.353-.64l1.885-1.064c.128.226.255.456.377.691ZM9.1,16.727,7.272,15.559c.143-.22.287-.438.434-.656L9.5,16.121c-.137.2-.269.4-.4.605m48.083-.377c-.134-.2-.273-.408-.414-.607L58.54,14.5c.149.216.3.43.44.648Zm-46.45-1.911L9.027,13.1c.163-.208.326-.41.493-.611l1.667,1.38c-.155.19-.308.377-.459.569m44.779-.357c-.153-.19-.31-.375-.469-.562l1.645-1.4q.254.3.5.6ZM12.575,12.319l-1.559-1.5q.269-.281.55-.556l1.52,1.537c-.173.171-.344.344-.511.52m41.05-.33c-.171-.173-.344-.342-.522-.511l1.5-1.559c.187.181.375.363.558.55Zm-39-1.6-1.4-1.647c.2-.169.4-.336.6-.5L15.183,9.92c-.19.153-.377.31-.562.469m36.93-.3c-.187-.155-.377-.308-.571-.459l1.339-1.7c.206.161.408.326.609.493Zm-34.7-1.431L15.607,6.89c.214-.149.432-.3.65-.44l1.194,1.8c-.2.134-.4.271-.6.41M49.3,8.406c-.2-.137-.408-.269-.613-.4l1.17-1.822c.218.141.436.283.652.43ZM19.23,7.167,18.173,5.28c.226-.128.456-.253.689-.375l1.011,1.911c-.216.114-.43.232-.642.351M46.9,6.949c-.214-.114-.428-.228-.646-.336l.982-1.93c.232.118.463.24.691.363ZM21.749,5.912l-.866-1.983q.358-.156.721-.306l.821,2c-.228.094-.452.19-.677.287m22.614-.175c-.224-.094-.448-.185-.677-.275l.791-2.013c.243.1.483.194.723.293ZM24.384,4.909l-.67-2.058c.249-.079.5-.159.75-.234l.615,2.075c-.232.069-.465.141-.695.218m17.34-.13c-.234-.073-.471-.141-.707-.21l.6-2.079c.251.069.5.143.746.218ZM27.1,4.171,26.63,2.06c.257-.057.514-.11.772-.161l.408,2.125c-.236.047-.475.1-.709.147M39,4.082c-.238-.047-.477-.094-.717-.134l.371-2.132c.259.045.516.094.772.145ZM29.87,3.707l-.253-2.148c.259-.031.518-.059.78-.084l.2,2.156c-.243.022-.483.047-.725.075m6.348-.047c-.243-.024-.487-.047-.732-.067l.173-2.156c.259.02.518.043.776.069Zm-3.54-.145-.045-2.164c.208,0,.418-.006.628-.006h.151V3.509h-.151c-.2,0-.389,0-.583.006" transform="translate(2.497 1.396)" fill="#6f88da"/>
        <path id="Trazado_1039110" data-name="Trazado 1039110" d="M19.063,37.635l-.194-2.156a30.013,30.013,0,0,0,18.375-8.53l1.52,1.539a32.187,32.187,0,0,1-19.7,9.148" transform="translate(19.583 27.968)" fill="#6f88da"/>
        <path id="Trazado_1039111" data-name="Trazado 1039111" d="M48.852,30.684a29.906,29.906,0,0,0-32.475-27.1L16.086.353a33.144,33.144,0,0,1,36,30.04Z" transform="translate(16.695 0.224)" fill="#6f88da"/>
        <path id="Trazado_1039112" data-name="Trazado 1039112" d="M31.308,57.321a27.062,27.062,0,1,1,2.449-.11q-1.235.11-2.449.11M31.373,4.29q-1.186,0-2.38.108a25.884,25.884,0,1,0,2.38-.108" transform="translate(4.432 3.329)" fill="#d0d0d0"/>
        <path id="Trazado_1039113" data-name="Trazado 1039113" d="M43.974,29.945H40.727a23.206,23.206,0,0,0-23.18-23.18V3.518A26.457,26.457,0,0,1,43.974,29.945" transform="translate(18.211 3.651)" fill="#d0d0d0"/>
        <rect id="Rectángulo_421136" data-name="Rectángulo 421136" width="1.082" height="3.823" transform="translate(35.218)" fill="#596daf"/>
        <rect id="Rectángulo_421137" data-name="Rectángulo 421137" width="1.082" height="3.823" transform="translate(35.218 63.366)" fill="#596daf"/>
        <rect id="Rectángulo_421138" data-name="Rectángulo 421138" width="14.64" height="1.082" transform="translate(0 33.054)" fill="#6f88da"/>
        <rect id="Rectángulo_421139" data-name="Rectángulo 421139" width="14.64" height="1.082" transform="translate(56.876 33.054)" fill="#6f88da"/>
        <rect id="Rectángulo_421140" data-name="Rectángulo 421140" width="1.082" height="7.159" transform="translate(70.976 30.015)" fill="#6f88da"/>
        <path id="Trazado_1039114" data-name="Trazado 1039114" d="M13.051,37.2a35.356,35.356,0,0,1-5.834-5.017,35.139,35.139,0,0,1-4.516-6l2.786-1.665a32.007,32.007,0,0,0,4.1,5.443,31.868,31.868,0,0,0,5.3,4.557Z" transform="translate(2.803 25.45)" fill="#d0d0d0"/>
        <path id="Trazado_1039115" data-name="Trazado 1039115" d="M30.815,54.736,30.8,53.654l.426-.008.033,1.08Zm-1.107-.006-.436-.018.047-1.082.43.018Zm2.649-.061-.079-1.08.422-.035.1,1.078Zm-4.19-.033-.434-.043.112-1.076.426.043Zm5.728-.128-.143-1.074.42-.059.157,1.07Zm-7.259-.055-.438-.069.183-1.068.414.067Zm8.781-.2-.212-1.06.418-.088.224,1.06Zm-10.3-.077-.43-.1.247-1.054.412.094ZM36.925,53.9l-.275-1.045.412-.112.287,1.043Zm-13.309-.1-.424-.122.31-1.037.408.118Zm14.791-.338-.34-1.027.4-.139.359,1.023ZM22.14,53.342l-.414-.147.371-1.017.4.145Zm17.723-.408-.4-1,.4-.161.418,1ZM20.7,52.792l-.4-.169.43-.992.391.167Zm20.586-.477-.467-.976.385-.187.479.972ZM19.3,52.156l-.4-.2.5-.964.375.192Zm23.362-.546-.524-.946.371-.208.538.937Zm-24.727-.175-.381-.22.55-.931.369.212Zm26.06-.611-.581-.915.355-.228.6.9Zm-27.376-.192-.367-.245.607-.895.355.234Zm28.656-.675-.634-.876.34-.253.65.866ZM15.35,49.749,15,49.485l.66-.858.336.255ZM46.5,49.016l-.685-.84c.11-.088.218-.175.322-.267l.705.821c-.114.1-.228.192-.342.285m-32.355-.224c-.114-.094-.228-.192-.338-.289l.713-.813c.1.092.21.181.316.273ZM47.666,48l-.736-.793.3-.289.756.776Zm-34.674-.236c-.108-.1-.214-.2-.32-.31l.76-.768c.1.1.2.2.3.289Zm35.772-.846-.78-.748.291-.308.793.736ZM11.9,46.662l-.3-.324.807-.725.283.314Zm37.9-.893-.829-.7.273-.326.833.689ZM10.885,45.5l-.279-.344.848-.67.265.326Zm39.878-.939-.868-.648.249-.34.878.634ZM9.94,44.278l-.259-.359.886-.622.249.344ZM51.648,43.3l-.9-.591.228-.355.915.577ZM9.067,43l-.232-.373.919-.569.226.359Zm43.39-1.017-.941-.536.21-.371.948.524Zm-44.18-.31-.212-.393.958-.505.2.369Zm44.906-1.049-.97-.481.183-.379.978.465Zm-45.617-.33-.185-.4.984-.448.179.383Zm46.257-1.072-1-.42.161-.391,1,.406ZM6.944,38.88l-.161-.414,1.009-.387.155.391Zm47.435-1.1-1.023-.359.139-.4,1.029.336ZM6.41,37.427,6.274,37l1.033-.322.13.4Zm48.433-1.119L53.8,36.014l.112-.41,1.045.279ZM5.966,35.941l-.11-.426L6.9,35.252l.106.412Zm49.256-1.133-1.06-.23.086-.412,1.062.21ZM5.611,34.439,5.528,34l1.064-.194.082.416ZM55.5,33.29l-1.072-.165.063-.42,1.07.149ZM5.353,32.915,5.3,32.477l1.074-.13.055.418Zm50.339-1.157-1.076-.1.033-.422,1.082.082Zm-50.5-.379-.029-.442,1.076-.063.031.422Zm50.6-1.164L54.7,30.18l.01-.422,1.082.016ZM5.114,29.836l0-.442,1.082-.1,0,.518ZM54.707,28.7l-.016-.422,1.084-.049.014.44ZM6.221,28.244l-1.084-.051.024-.44,1.08.067Zm48.4-1.021-.041-.42,1.076-.114.043.44ZM6.333,26.765l-1.076-.11.051-.44,1.074.134Zm48.113-1.009-.067-.418,1.07-.179.069.434ZM6.534,25.3,5.469,25.12l.079-.432,1.062.2Zm47.647-1-.09-.414,1.052-.245.1.432ZM6.826,23.853l-1.052-.245.1-.43,1.049.265Zm47-.988-.118-.406,1.039-.308.12.424ZM7.207,22.422,6.17,22.114l.13-.424,1.031.33Zm46.181-.968-.143-.4,1.015-.373.149.416ZM7.674,21.022l-1.011-.375.153-.412,1.011.389Zm45.187-.954-.165-.389.988-.436.175.408ZM8.226,19.653l-.99-.436.179-.4.984.452Zm44.025-.935-.194-.379.962-.493.2.4ZM8.86,18.32l-.962-.5.2-.389.956.509Zm42.7-.913-.212-.363.927-.556.224.385ZM9.575,17.028l-.929-.552.228-.377.919.569Zm41.209-.884-.232-.351.893-.609.245.369Zm-40.416-.365-.9-.6.253-.367.882.626Zm39.571-.85-.255-.338.856-.66.267.353Zm-38.7-.344-.856-.662.271-.346.846.677Zm37.783-.815-.275-.324.819-.707.285.332Zm-36.846-.326-.813-.713.291-.328.8.725Zm35.858-.776-.291-.306.77-.758.306.318ZM13.18,12.355l-.774-.754c.1-.108.21-.212.316-.316l.756.776c-.1.1-.2.2-.3.293m33.8-.728-.308-.281.717-.809.328.3Zm-32.726-.293-.73-.8c.11-.1.222-.2.334-.3l.707.819c-.1.09-.21.183-.312.277m31.613-.681c-.108-.09-.216-.177-.326-.263l.67-.852c.114.092.23.185.346.281Zm-30.486-.271-.672-.848.348-.273.658.86ZM44.7,9.747,44.355,9.5l.622-.888.357.257ZM16.569,9.5l-.624-.882.365-.253.605.9Zm26.908-.579L43.118,8.7l.564-.925L44.057,8ZM17.806,8.685l-.569-.921c.126-.079.253-.155.381-.23l.546.933Zm24.4-.522-.369-.2.509-.956.385.21ZM19.09,7.951,18.582,7l.393-.2.489.964Zm21.8-.467-.381-.179.452-.982.4.187ZM20.418,7.3l-.444-.988.4-.177.43.992Zm19.127-.406-.4-.157.393-1.009.406.161Zm-17.76-.167L21.4,5.714l.41-.155.373,1.017ZM38.158,6.38l-.406-.132.334-1.029.414.134ZM23.186,6.238,22.868,5.2l.42-.128L23.6,6.113Zm13.556-.283-.412-.108L36.6,4.8l.424.11ZM24.61,5.838l-.255-1.052.43-.1.238,1.054ZM35.3,5.616l-.414-.082.2-1.064.432.084Zm-9.24-.088-.2-1.064.438-.075.175,1.068Zm7.782-.163-.42-.055.134-1.074L34,4.294ZM27.522,5.3l-.128-1.072.438-.049.108,1.076Zm4.85-.1-.422-.029.071-1.08.438.031Zm-3.383-.031-.053-1.08.432-.022.049,1.082ZM30.9,5.135l-.426,0,.008-1.082.434,0Z" transform="translate(5.303 4.202)" fill="#6f88da"/>
      </g>
    </g>
  </g>
</svg>
